<svg width="154" height="99" viewBox="0 0 154 99" fill="none" xmlns="http://www.w3.org/2000/svg">
<path d="M31.3803 64.8568C31.3803 68.0753 30.96 70.8374 30.1193 73.1432C29.3027 75.449 28.0177 77.3585 26.2644 78.8716C24.511 80.3848 22.2412 81.5017 19.4551 82.2222C16.6929 82.9428 13.3664 83.3031 9.47534 83.3031H7.31367V74.9086H8.8989C11.3728 74.9086 13.4504 74.7404 15.1317 74.4042C16.813 74.0919 18.1461 73.6476 19.1308 73.0712C20.1156 72.4947 20.8361 71.8102 21.2925 71.0176C21.7489 70.2249 22.0251 69.3483 22.1211 68.3875C20.7281 68.7958 19.0468 69 17.0772 69C15.2518 69 13.5345 68.7718 11.9252 68.3155C10.34 67.8591 8.95894 67.1145 7.78203 66.0817C6.60512 65.0489 5.66839 63.7159 4.97185 62.0826C4.29933 60.4494 3.96307 58.4919 3.96307 56.2101C3.96307 54.3847 4.2633 52.5833 4.86377 50.8059C5.48825 49.0045 6.38895 47.3953 7.56586 45.9782C8.74277 44.5611 10.1959 43.4322 11.9252 42.5915C13.6546 41.7509 15.6721 41.3306 17.9779 41.3306C20.4759 41.3306 22.5895 41.7629 24.3188 42.6276C26.0482 43.4922 27.4172 44.7172 28.426 46.3024C29.4588 47.8876 30.2034 49.7611 30.6598 51.9228C31.1401 54.0844 31.3803 56.4743 31.3803 59.0923V64.8568ZM12.7539 55.3814C12.7539 57.7353 13.2102 59.3205 14.1229 60.1371C15.0357 60.9297 16.2966 61.3261 17.9059 61.3261C19.7793 61.3261 21.2925 61.0018 22.4454 60.3533V57.0027C22.4454 54.6489 22.0971 52.7874 21.4006 51.4184C20.704 50.0253 19.4791 49.3288 17.7257 49.3288C15.9243 49.3288 14.6393 49.9292 13.8707 51.1302C13.1262 52.3311 12.7539 53.7482 12.7539 55.3814ZM65.1745 69C64.526 73.9959 62.4604 77.6227 58.9777 79.8804C55.495 82.1622 50.307 83.3031 43.4136 83.3031H41.252V74.9086H42.8372C45.215 74.9086 47.2086 74.7645 48.8178 74.4762C50.4271 74.212 51.7361 73.8157 52.7449 73.2873C53.7777 72.7589 54.5463 72.1344 55.0507 71.4139C55.5791 70.7173 55.9153 69.9127 56.0594 69H51.7721C49.7786 69 47.9291 68.7718 46.2238 68.3155C44.5185 67.8591 43.0414 67.1145 41.7924 66.0817C40.5674 65.0489 39.6067 63.7159 38.9101 62.0826C38.2376 60.4494 37.9014 58.4919 37.9014 56.2101C37.9014 54.3847 38.2016 52.5833 38.8021 50.8059C39.4265 49.0045 40.3393 47.3953 41.5402 45.9782C42.7411 44.5611 44.2063 43.4322 45.9356 42.5915C47.6649 41.7509 49.6585 41.3306 51.9162 41.3306C54.4142 41.3306 56.5278 41.7629 58.2571 42.6276C59.9865 43.4922 61.3676 44.7172 62.4004 46.3024C63.4572 47.8876 64.2138 49.7611 64.6701 51.9228C65.1265 54.0844 65.3546 56.4743 65.3546 59.0923V61.0739H70.3985C70.7588 61.0739 71.0951 61.1219 71.4073 61.218C71.7436 61.29 72.0318 61.4461 72.272 61.6863C72.5122 61.9265 72.7043 62.2988 72.8484 62.8032C73.0166 63.3076 73.1006 63.9921 73.1006 64.8568C73.1006 66.442 72.8725 67.5349 72.4161 68.1353C71.9838 68.7118 71.3113 69 70.3985 69H65.1745ZM46.6922 55.3814C46.6922 57.5912 47.1605 59.0923 48.0973 59.8849C49.034 60.6776 50.283 61.0739 51.8442 61.0739H56.3837V57.0027C56.3837 54.793 56.0354 52.9676 55.3389 51.5265C54.6423 50.0613 53.3694 49.3288 51.5199 49.3288C49.8146 49.3288 48.5776 49.9052 47.809 51.0581C47.0645 52.211 46.6922 53.6521 46.6922 55.3814ZM70.4346 69C70.0743 69 69.738 68.964 69.4258 68.8919C69.1135 68.7958 68.8253 68.6157 68.5611 68.3515C68.2969 68.0873 68.1048 67.703 67.9847 67.1986C67.8406 66.6942 67.7685 66.0097 67.7685 65.145C67.7685 63.6078 67.9847 62.539 68.417 61.9385C68.8493 61.314 69.5219 61.0018 70.4346 61.0018H83.6208V41.6548H92.6638V69H70.4346ZM77.2438 90.5087C77.2438 89.1876 77.7242 88.0468 78.685 87.086C79.6697 86.1253 80.8106 85.6449 82.1076 85.6449C83.4286 85.6449 84.5695 86.1253 85.5303 87.086C86.491 88.0468 86.9714 89.1876 86.9714 90.5087C86.9714 91.8297 86.491 92.9706 85.5303 93.9313C84.5695 94.8921 83.4286 95.3724 82.1076 95.3724C80.8106 95.3724 79.6697 94.8921 78.685 93.9313C77.7242 92.9706 77.2438 91.8297 77.2438 90.5087ZM71.6235 80.5289C71.6235 79.2079 72.1039 78.067 73.0646 77.1063C74.0254 76.1455 75.1662 75.6652 76.4873 75.6652C77.8083 75.6652 78.9492 76.1455 79.9099 77.1063C80.8947 78.067 81.3871 79.2079 81.3871 80.5289C81.3871 81.85 80.8947 82.9908 79.9099 83.9516C78.9492 84.9123 77.8083 85.3927 76.4873 85.3927C75.1662 85.3927 74.0254 84.9123 73.0646 83.9516C72.1039 82.9908 71.6235 81.85 71.6235 80.5289ZM82.8282 80.5289C82.8282 79.2079 83.3085 78.067 84.2693 77.1063C85.23 76.1455 86.3709 75.6652 87.6919 75.6652C89.013 75.6652 90.1539 76.1455 91.1146 77.1063C92.0753 78.067 92.5557 79.2079 92.5557 80.5289C92.5557 81.85 92.0753 82.9908 91.1146 83.9516C90.1539 84.9123 89.013 85.3927 87.6919 85.3927C86.3709 85.3927 85.23 84.9123 84.2693 83.9516C83.3085 82.9908 82.8282 81.85 82.8282 80.5289ZM105.85 51.1662C105.85 51.6946 105.91 52.271 106.03 52.8955C106.174 53.496 106.426 54.0364 106.787 54.5168C107.171 54.9972 107.663 55.4055 108.264 55.7417C108.888 56.054 109.681 56.2101 110.642 56.2101C111.242 56.2101 111.843 56.1981 112.443 56.1741C113.068 56.126 113.704 55.9819 114.353 55.7417V46.2664H110.966C109.261 46.2664 107.976 46.7107 107.111 47.5994C106.27 48.4881 105.85 49.677 105.85 51.1662ZM125.017 69C123.912 69 122.843 68.9279 121.81 68.7838C120.778 68.6157 119.829 68.3275 118.964 67.9192C118.1 67.5108 117.331 66.9464 116.658 66.2259C116.01 65.5053 115.506 64.5686 115.145 63.4157C114.353 63.6078 113.536 63.7639 112.695 63.884C111.879 64.0041 111.062 64.0642 110.245 64.0642C109.117 64.0642 107.796 63.896 106.282 63.5598C104.769 63.1995 103.328 62.563 101.959 61.6503C100.614 60.7376 99.4731 59.4646 98.5364 57.8313C97.5996 56.1981 97.1313 54.1085 97.1313 51.5625C97.1313 49.0405 97.5756 46.9149 98.4643 45.1855C99.353 43.4322 100.494 42.0031 101.887 40.8982C103.304 39.7934 104.865 39.0008 106.571 38.5204C108.276 38.04 109.957 37.7998 111.614 37.7998H123.288V58.3718C123.288 59.4286 123.42 60.1491 123.684 60.5334C123.972 60.8937 124.621 61.0739 125.629 61.0739H127.287C127.647 61.0739 127.983 61.1219 128.295 61.218C128.632 61.29 128.92 61.4461 129.16 61.6863C129.424 61.9265 129.616 62.2988 129.737 62.8032C129.881 63.3076 129.953 63.9921 129.953 64.8568C129.953 66.442 129.737 67.5349 129.304 68.1353C128.872 68.7118 128.199 69 127.287 69H125.017ZM127.287 69C126.926 69 126.59 68.964 126.278 68.8919C125.966 68.7958 125.677 68.6157 125.413 68.3515C125.149 68.0873 124.957 67.703 124.837 67.1986C124.693 66.6942 124.621 66.0097 124.621 65.145C124.621 63.6078 124.837 62.539 125.269 61.9385C125.701 61.314 126.374 61.0018 127.287 61.0018H140.473V41.6548H149.516V69H127.287ZM134.096 90.5087C134.096 89.1876 134.576 88.0468 135.537 87.086C136.522 86.1253 137.663 85.6449 138.96 85.6449C140.281 85.6449 141.422 86.1253 142.382 87.086C143.343 88.0468 143.823 89.1876 143.823 90.5087C143.823 91.8297 143.343 92.9706 142.382 93.9313C141.422 94.8921 140.281 95.3724 138.96 95.3724C137.663 95.3724 136.522 94.8921 135.537 93.9313C134.576 92.9706 134.096 91.8297 134.096 90.5087ZM128.476 80.5289C128.476 79.2079 128.956 78.067 129.917 77.1063C130.877 76.1455 132.018 75.6652 133.339 75.6652C134.66 75.6652 135.801 76.1455 136.762 77.1063C137.747 78.067 138.239 79.2079 138.239 80.5289C138.239 81.85 137.747 82.9908 136.762 83.9516C135.801 84.9123 134.66 85.3927 133.339 85.3927C132.018 85.3927 130.877 84.9123 129.917 83.9516C128.956 82.9908 128.476 81.85 128.476 80.5289ZM139.68 80.5289C139.68 79.2079 140.161 78.067 141.121 77.1063C142.082 76.1455 143.223 75.6652 144.544 75.6652C145.865 75.6652 147.006 76.1455 147.967 77.1063C148.927 78.067 149.408 79.2079 149.408 80.5289C149.408 81.85 148.927 82.9908 147.967 83.9516C147.006 84.9123 145.865 85.3927 144.544 85.3927C143.223 85.3927 142.082 84.9123 141.121 83.9516C140.161 82.9908 139.68 81.85 139.68 80.5289Z" fill="white"/>
</svg>
