<svg width="375" height="368" viewBox="0 0 375 368" fill="none" xmlns="http://www.w3.org/2000/svg">
<g clip-path="url(#clip0_907_2382)">
<g clip-path="url(#clip1_907_2382)">
<path d="M440.605 374.85C432.327 380.227 421.475 385.812 407.885 390.177C405.552 390.923 403.162 391.635 400.665 392.305C357.596 403.845 372.069 398.906 372.069 398.906L305.5 275.403L310.132 275.403L310.161 275.419C310.189 275.436 310.189 275.436 310.218 275.452L440.81 342.043C452.555 349.87 452.461 367.163 440.605 374.85Z" fill="#9241FE"/>
<path d="M123.62 319.373L37.0287 450.212C30.7713 462.862 39.4988 477.791 53.6099 478.52C65.1758 479.111 79.8928 478.231 96.9493 473.661C139.996 462.126 129.915 464.827 129.915 464.827L123.62 319.373Z" fill="#9241FE"/>
<path d="M369.903 384.34L370.157 385.285C371.272 389.448 371.721 393.644 371.527 397.869C371.517 398.282 371.507 398.694 371.474 399.113C371.461 399.334 371.442 399.532 371.422 399.73C370.762 407.528 368 415.31 363.426 422.903C363.387 422.937 363.354 422.994 363.322 423.051C354.123 438.226 337.683 452.568 316.385 464.352C315.338 464.946 314.286 465.518 313.21 466.095C302.546 471.75 290.747 476.769 278.069 480.938C274.613 482.081 271.094 483.168 267.528 484.172C266.341 484.514 265.149 484.834 263.934 485.159C262.538 485.533 261.137 485.884 259.759 486.23C256.574 487.035 253.387 487.744 250.228 488.374C248.195 488.798 246.173 489.171 244.144 489.521C232.278 491.591 220.705 492.594 209.715 492.621C184.457 492.684 162.129 487.573 146.023 478.141C144.169 477.07 142.41 475.998 140.719 474.908C136.001 471.879 131.936 468.772 128.661 465.188C124.995 461.226 122.336 456.705 120.823 451.057C113.961 425.449 111.337 400.443 112.362 377.088C112.762 368.588 113.628 360.301 114.957 352.299C116.395 343.714 118.352 335.448 120.796 327.558C121.671 324.791 122.609 322.08 123.603 319.401L123.62 319.373C126.91 310.412 130.911 302.032 135.551 294.325C138.106 289.999 140.868 285.906 143.832 282.025C158.241 263.163 177.057 249.68 199.244 243.735L199.402 243.693C201.089 243.241 202.789 242.834 204.49 242.523C204.664 242.452 204.85 242.426 205.037 242.4C229.512 237.434 254.731 242.446 278.058 255.248C288.433 260.934 298.421 268.146 307.804 276.701C308.601 277.428 309.377 278.161 310.152 278.894C313.798 282.331 317.335 285.989 320.773 289.819C321.112 290.187 321.429 290.56 321.769 290.927C324.367 293.873 326.917 297 329.408 300.264C346.853 323.156 361.494 353.407 369.903 384.34Z" fill="#9241FE"/>
<path d="M226.845 82.0373C227.51 81.2802 247.135 41.9196 250.944 33.5431C256.639 21.0437 270.744 24.0895 272.811 53.5861C272.811 53.5861 282.035 36.258 289.543 43.8451C300.696 55.1344 281.041 61.7996 314.437 121.9L226.845 82.0373Z" fill="#9241FE"/>
<path d="M313.436 118.066L312.172 117.489C309.965 112.943 308.104 108.787 306.547 104.959C308.554 109.028 310.831 113.386 313.436 118.066Z" fill="#7F7F7F"/>
<path d="M32.1894 197.503C31.0612 128.757 13.4525 132.077 17.4663 116.723C20.1745 106.399 36.8273 116.793 36.8273 116.793C23.8917 90.2089 34.226 81.0728 45.7716 88.5186C65.984 101.577 93.1443 108.432 94.0991 108.755C94.0991 108.755 140.744 87.0678 146.806 85.2989C151.574 83.9246 258.794 40.6041 311.259 113.996L315.299 120.342C335.886 152.98 349.388 180.329 353.769 198.57C354.043 199.413 354.289 200.239 354.518 201.094C356.731 209.353 357.29 218.729 355.445 229.305C348.868 261.286 285.639 291.373 245.472 302.135L194.28 315.852C174.209 321.23 61.6086 351.401 41.1334 286.778C35.4818 268.926 32.4808 235.314 32.2047 201.431L32.1894 197.503Z" fill="#9241FE"/>
<path d="M354.219 200.066C354.731 201.979 355.16 203.938 355.459 205.956C350.224 188.04 337.388 162.635 318.531 132.766L314.532 126.481C282.298 60.5468 182.503 87.0216 152.022 98.1071C146.153 100.234 99.9381 121.276 99.9381 121.276C98.9894 120.975 72.1352 114.183 52.1631 101.301C40.7602 93.938 32.7682 99.2147 45.5459 125.48C45.5459 125.48 23.9348 118.633 24.2025 129.173C24.6078 145.536 13.1917 131.014 17.2115 115.683C19.9198 105.359 36.5726 115.753 36.5726 115.753C23.6144 89.1746 33.9427 80.0159 45.4884 87.4617C65.7233 100.514 92.8611 107.375 93.8384 107.692C93.8384 107.692 140.477 85.9824 146.545 84.236C151.314 82.8617 258.533 39.5412 310.976 112.939L315.016 119.285C335.603 151.923 349.105 179.272 353.486 197.513C353.76 198.356 353.989 199.211 354.219 200.066Z" fill="#A670FC"/>
<g opacity="0.3">
<g opacity="0.3">
<g opacity="0.3">
<g opacity="0.3">
<path opacity="0.3" d="M209.045 207.223C209.178 208.08 209.295 208.965 209.417 209.873C213.215 241.149 194.309 267.8 169.735 277.616C151.498 284.89 111.799 287.497 89.5377 250.05C81.5128 236.572 77.2316 221.584 79.1849 212.403C82.5722 196.422 102.597 186.546 111.523 182.418C112.449 182.001 113.464 181.56 114.53 181.13C133.24 173.729 171.744 167.922 187.545 175.771C187.545 175.771 204.62 178.648 209.045 207.223Z" fill="#441584"/>
</g>
</g>
</g>
</g>
<path d="M248.659 272.53C237.036 278.298 223.877 283.463 209.154 288.011C194.129 291.434 180.173 293.534 167.246 294.345C73.3868 300.128 72.3159 257.968 70.5965 206.817C70.6158 206.619 70.5944 206.359 70.5912 206.167C70.4128 201.271 60.8082 181.897 75.8247 150.452C81.3211 138.922 95.444 130.604 110.293 128.506C119.061 128.737 128.004 130.248 136.538 132.665C137.894 133.314 139.274 134.054 140.666 134.839C149.537 139.866 159.711 140.661 168.93 137.804C178.336 135.646 186.749 129.87 191.97 121.092C192.789 119.739 193.615 118.408 194.458 117.145C200.64 110.785 207.623 104.983 215.107 100.421C229.016 94.8135 245.361 94.968 255.931 102.193C284.636 121.923 285.959 143.515 288.321 147.827C288.414 147.995 288.503 148.236 288.596 148.404C312.688 193.584 332.812 230.615 248.659 272.53Z" fill="#A369FF"/>
<path d="M134.61 250.131C146.454 246.957 152.373 230.643 147.831 213.692C143.289 196.741 130.006 185.572 118.162 188.745C106.319 191.919 100.4 208.233 104.942 225.184C109.484 242.135 122.767 253.304 134.61 250.131Z" fill="white"/>
<path d="M132.335 231.061C137.945 229.558 140.166 219.653 137.295 208.938C134.424 198.223 127.548 190.755 121.938 192.259C116.328 193.762 114.107 203.667 116.978 214.382C119.849 225.097 126.725 232.564 132.335 231.061Z" fill="#441484"/>
<path d="M261.049 216.251C272.892 213.077 278.811 196.763 274.269 179.812C269.727 162.861 256.444 151.692 244.601 154.865C232.757 158.039 226.838 174.353 231.38 191.304C235.922 208.255 249.205 219.424 261.049 216.251Z" fill="white"/>
<path d="M222.391 213.562C223.788 218.325 223.122 226.1 200.767 233.127C196.028 234.614 188.043 235.596 185.368 235.155C178.171 233.948 174.043 231.774 173.292 226.718C172.895 223.978 174.6 220.169 176.526 218.447C181.375 214.133 180.7 214.314 181.982 210.907C184.558 204.14 187.298 202.393 190.575 200.671C201.81 194.718 220.467 207.011 222.391 213.562Z" fill="#FF8E06"/>
<g opacity="0.3">
<g opacity="0.3">
<g opacity="0.3">
<g opacity="0.3">
<path opacity="0.3" d="M200.76 233.104C196.034 234.636 188.006 235.46 185.289 234.862C177.984 233.25 173.742 230.648 172.831 224.911C172.692 224.032 172.721 223.059 172.869 222.079C174.952 224.632 178.435 226.111 183.233 227.188C185.928 227.793 193.972 226.94 198.704 225.431C215.454 220.074 219.852 213.807 220.343 208.707C221.096 209.808 221.633 210.822 221.902 211.738C223.486 217.199 223.085 225.964 200.76 233.104Z" fill="#441584"/>
</g>
</g>
</g>
</g>
<g opacity="0.35">
<g opacity="0.35">
<g opacity="0.35">
<g opacity="0.35">
<path opacity="0.35" d="M221.317 221.348L221.245 221.078C219.321 214.527 199.735 200.746 189.473 208.175C187.212 209.818 186.648 213.201 185.637 216.269C184.514 219.729 177.28 222.343 176.333 226.552C176.144 227.375 174.17 227.3 173.66 228.185C173.511 227.718 173.4 227.217 173.307 226.688C172.91 223.948 174.615 220.139 176.547 218.439C181.397 214.125 180.722 214.306 182.003 210.9C184.579 204.132 187.319 202.385 190.59 200.64C201.78 194.7 220.46 206.987 222.361 213.544C223.001 215.663 223.222 218.378 221.317 221.348Z" fill="white"/>
</g>
</g>
</g>
</g>
<path d="M209.039 198.474C206.973 197.604 204.933 196.921 202.965 196.508C197.713 195.359 192.941 195.817 189.115 197.831C185.34 199.856 181.949 202.139 179.048 209.766C178.815 210.335 178.653 210.812 178.519 211.21C177.974 212.779 177.904 212.966 174.435 216.042C171.869 218.346 169.559 223.137 170.158 227.173C170.399 228.7 170.85 230.026 171.491 231.157C174.147 235.848 179.859 237.453 184.863 238.307C188.099 238.862 195.659 237.825 200.452 236.541C200.902 236.421 201.323 236.283 201.745 236.146C202.723 235.836 203.656 235.538 204.538 235.229C218.96 230.279 226.045 224.136 226.07 216.581L226.064 216.558C226.074 215.422 225.918 214.21 225.598 213.017L225.502 212.657C223.873 207.209 216 201.408 209.039 198.474ZM176.466 226.231C176.454 226.186 176.448 226.163 176.458 226.112C176.419 225.785 176.429 225.372 176.557 224.952C176.752 223.79 177.351 222.424 178.093 221.502C178.103 221.451 178.126 221.445 178.148 221.439C178.302 221.204 178.508 220.981 178.68 220.814C178.781 220.739 178.83 220.653 178.908 220.584C178.93 220.578 178.924 220.555 178.947 220.549C183.039 216.92 183.611 215.995 184.555 213.307C184.673 212.937 184.824 212.511 185.008 212.028C187.189 206.306 189.32 204.988 191.761 203.658C191.806 203.646 191.851 203.634 191.868 203.605C191.974 203.553 192.036 203.512 192.142 203.46C192.798 203.115 193.477 202.861 194.197 202.668C195.367 202.354 196.608 202.215 197.83 202.273C197.875 202.261 197.948 202.266 197.999 202.276C200.651 202.361 203.257 203.086 205.242 203.833C205.725 204.017 206.157 204.19 206.561 204.347C210.016 205.809 213.056 207.792 215.313 209.647C216.924 210.976 218.121 212.296 218.783 213.324C219.061 213.732 219.237 214.119 219.321 214.434C219.651 215.576 219.671 216.728 219.355 217.801C218.336 221.379 213.945 224.702 206.232 227.781L206.21 227.787C204.29 228.543 202.178 229.302 199.817 230.031C195.275 231.441 187.83 232.278 185.914 231.971C177.782 230.605 176.801 228.384 176.466 226.231Z" fill="#441484"/>
<path d="M257.865 195.843C263.518 194.328 265.756 184.347 262.863 173.549C259.969 162.751 253.041 155.226 247.387 156.741C241.734 158.256 239.496 168.237 242.389 179.035C245.282 189.833 252.211 197.358 257.865 195.843Z" fill="#441484"/>
</g>
<path d="M314.481 366.015L314.518 366.118C318.103 376.661 316.867 387.834 311.819 398.757L311.766 398.87C303.785 416.02 286.273 432.55 262.938 445.14C255.362 449.209 247.194 452.865 238.514 456.007C237.65 456.32 236.807 456.625 235.936 456.918C228.905 459.347 221.91 461.228 215.032 462.602C171.724 471.303 130.126 433.578 130.642 386.236C130.644 386.049 130.666 385.854 130.655 385.695C130.866 369.893 135.752 355.887 144.444 346.226L149.693 340.417C152.646 337.138 156.474 334.216 160.746 331.879C168.455 327.598 177.595 325.15 185.438 325.544L199.801 326.276C199.822 326.268 199.829 326.289 199.87 326.274L203.972 326.487C209.287 326.773 214.437 326.025 219.21 324.367C220.444 323.92 221.656 323.411 222.853 322.862C227.502 320.666 231.689 317.452 235.308 313.443L235.363 313.4L245.928 303.642C251.721 298.311 260.29 294.348 268.952 292.7C287.481 310.977 304.168 337.854 314.481 366.015Z" fill="#A369FF"/>
<path d="M310.924 427.895C304.761 431.243 298.155 434.263 291.227 436.911C290.37 437.244 289.527 437.55 288.663 437.862C280.004 440.998 271.369 443.426 262.943 445.151C236.957 450.419 212.915 448.911 195.811 440.866L195.699 440.814C184.814 435.682 176.725 427.862 172.729 417.468L172.692 417.365C162.585 389.129 158.198 357.799 160.751 331.889C168.46 327.609 177.6 325.161 185.443 325.555L199.806 326.287C199.827 326.279 199.834 326.3 199.876 326.285C205.203 327.055 210.477 326.843 215.474 325.546C216.745 325.202 218.002 324.817 219.236 324.37C223.985 322.581 228.399 319.866 232.299 316.244L235.314 313.454L235.368 313.411L245.933 303.653C251.726 298.322 260.295 294.359 268.957 292.711C273.736 291.772 278.526 291.573 282.915 292.194L290.665 293.296C303.528 295.153 316.24 302.764 326.527 314.789C326.648 314.932 326.79 315.066 326.883 315.195C357.568 351.241 349.756 406.833 310.924 427.895Z" fill="#A369FF"/>
</g>
<defs>
<clipPath id="clip0_907_2382">
<rect width="375" height="371" fill="white"/>
</clipPath>
<clipPath id="clip1_907_2382">
<rect width="427.827" height="493.591" fill="white" transform="translate(-59 110.73) rotate(-15)"/>
</clipPath>
</defs>
</svg>
