<svg width="365" height="302" viewBox="0 0 365 302" fill="none" xmlns="http://www.w3.org/2000/svg">
<circle cx="271" cy="72" r="42" fill="white"/>
<circle cx="284" cy="54" r="13" fill="#F2E9FF"/>
<circle cx="268" cy="64" r="3" fill="#F2E9FF"/>
<circle cx="279" cy="77" r="8" fill="#F2E9FF"/>
<path d="M71.6547 45.1686C71.9055 43.6459 74.0949 43.6459 74.3457 45.1686L75.1215 49.8786L79.8316 50.6545C81.3542 50.9053 81.3542 53.0947 79.8316 53.3455L75.1215 54.1213L74.3457 58.8313C74.0949 60.354 71.9055 60.354 71.6547 58.8313L70.8789 54.1213L66.1689 53.3455C64.6462 53.0947 64.6462 50.9053 66.1689 50.6545L70.8789 49.8786L71.6547 45.1686Z" fill="white"/>
<path d="M101.655 218.169C101.906 216.646 104.095 216.646 104.346 218.169L105.122 222.879L109.832 223.654C111.354 223.905 111.354 226.095 109.832 226.345L105.122 227.121L104.346 231.831C104.095 233.354 101.906 233.354 101.655 231.831L100.879 227.121L96.1689 226.345C94.6462 226.095 94.6462 223.905 96.1689 223.654L100.879 222.879L101.655 218.169Z" fill="white"/>
<path d="M320.655 280.169C320.906 278.646 323.095 278.646 323.346 280.169L324.122 284.879L328.832 285.654C330.354 285.905 330.354 288.095 328.832 288.345L324.122 289.121L323.346 293.831C323.095 295.354 320.906 295.354 320.655 293.831L319.879 289.121L315.169 288.345C313.646 288.095 313.646 285.905 315.169 285.654L319.879 284.879L320.655 280.169Z" fill="white"/>
<path d="M172.655 8.16862C172.906 6.64594 175.095 6.64594 175.346 8.16862L176.122 12.8786L180.832 13.6545C182.354 13.9053 182.354 16.0947 180.832 16.3455L176.122 17.1213L175.346 21.8313C175.095 23.354 172.906 23.354 172.655 21.8313L171.879 17.1213L167.169 16.3455C165.646 16.0947 165.646 13.9053 167.169 13.6545L171.879 12.8786L172.655 8.16862Z" fill="white"/>
<path d="M191.655 145.169C191.906 143.646 194.095 143.646 194.346 145.169L195.122 149.879L199.832 150.654C201.354 150.905 201.354 153.095 199.832 153.345L195.122 154.121L194.346 158.831C194.095 160.354 191.906 160.354 191.655 158.831L190.879 154.121L186.169 153.345C184.646 153.095 184.646 150.905 186.169 150.654L190.879 149.879L191.655 145.169Z" fill="white"/>
<path d="M331.95 156.516C332.519 153.064 337.481 153.064 338.05 156.516L339.809 167.192L350.485 168.95C353.936 169.519 353.936 174.481 350.485 175.05L339.809 176.808L338.05 187.484C337.481 190.936 332.519 190.936 331.95 187.484L330.192 176.808L319.516 175.05C316.064 174.481 316.064 169.519 319.516 168.95L330.192 167.192L331.95 156.516Z" fill="white"/>
<path d="M13.6547 178.169C13.9055 176.646 16.0949 176.646 16.3457 178.169L17.1215 182.879L21.8316 183.654C23.3542 183.905 23.3542 186.095 21.8316 186.345L17.1215 187.121L16.3457 191.831C16.0949 193.354 13.9055 193.354 13.6547 191.831L12.8789 187.121L8.16886 186.345C6.64618 186.095 6.64619 183.905 8.16887 183.654L12.8789 182.879L13.6547 178.169Z" fill="white"/>
<path d="M52.5516 116.723C52.6352 116.215 53.365 116.215 53.4486 116.723L53.7072 118.293L55.2772 118.551C55.7847 118.635 55.7847 119.365 55.2772 119.448L53.7072 119.707L53.4486 121.277C53.365 121.785 52.6352 121.785 52.5516 121.277L52.293 119.707L50.723 119.448C50.2154 119.365 50.2154 118.635 50.723 118.551L52.293 118.293L52.5516 116.723Z" fill="white"/>
<path d="M9.55157 100.723C9.63517 100.215 10.365 100.215 10.4486 100.723L10.7072 102.293L12.2772 102.551C12.7847 102.635 12.7847 103.365 12.2772 103.448L10.7072 103.707L10.4486 105.277C10.365 105.785 9.63517 105.785 9.55157 105.277L9.29296 103.707L7.72295 103.448C7.21539 103.365 7.2154 102.635 7.72296 102.551L9.29296 102.293L9.55157 100.723Z" fill="white"/>
<path d="M75.5516 156.723C75.6352 156.215 76.365 156.215 76.4486 156.723L76.7072 158.293L78.2772 158.551C78.7847 158.635 78.7847 159.365 78.2772 159.448L76.7072 159.707L76.4486 161.277C76.365 161.785 75.6352 161.785 75.5516 161.277L75.293 159.707L73.723 159.448C73.2154 159.365 73.2154 158.635 73.723 158.551L75.293 158.293L75.5516 156.723Z" fill="white"/>
<path d="M139.552 264.723C139.635 264.215 140.365 264.215 140.449 264.723L140.707 266.293L142.277 266.551C142.785 266.635 142.785 267.365 142.277 267.448L140.707 267.707L140.449 269.277C140.365 269.785 139.635 269.785 139.552 269.277L139.293 267.707L137.723 267.448C137.215 267.365 137.215 266.635 137.723 266.551L139.293 266.293L139.552 264.723Z" fill="white"/>
<path d="M216.552 187.723C216.635 187.215 217.365 187.215 217.449 187.723L217.707 189.293L219.277 189.551C219.785 189.635 219.785 190.365 219.277 190.448L217.707 190.707L217.449 192.277C217.365 192.785 216.635 192.785 216.552 192.277L216.293 190.707L214.723 190.448C214.215 190.365 214.215 189.635 214.723 189.551L216.293 189.293L216.552 187.723Z" fill="white"/>
<path d="M190.552 93.7228C190.635 93.2153 191.365 93.2153 191.449 93.7228L191.707 95.2928L193.277 95.5514C193.785 95.635 193.785 96.3648 193.277 96.4485L191.707 96.7071L191.449 98.2771C191.365 98.7846 190.635 98.7846 190.552 98.2771L190.293 96.7071L188.723 96.4485C188.215 96.3648 188.215 95.635 188.723 95.5514L190.293 95.2928L190.552 93.7228Z" fill="white"/>
<path d="M140.552 164.723C140.635 164.215 141.365 164.215 141.449 164.723L141.707 166.293L143.277 166.551C143.785 166.635 143.785 167.365 143.277 167.448L141.707 167.707L141.449 169.277C141.365 169.785 140.635 169.785 140.552 169.277L140.293 167.707L138.723 167.448C138.215 167.365 138.215 166.635 138.723 166.551L140.293 166.293L140.552 164.723Z" fill="white"/>
<path d="M119.552 98.7228C119.635 98.2153 120.365 98.2153 120.449 98.7228L120.707 100.293L122.277 100.551C122.785 100.635 122.785 101.365 122.277 101.448L120.707 101.707L120.449 103.277C120.365 103.785 119.635 103.785 119.552 103.277L119.293 101.707L117.723 101.448C117.215 101.365 117.215 100.635 117.723 100.551L119.293 100.293L119.552 98.7228Z" fill="white"/>
<path d="M47.5516 255.723C47.6352 255.215 48.365 255.215 48.4486 255.723L48.7072 257.293L50.2772 257.551C50.7847 257.635 50.7847 258.365 50.2772 258.448L48.7072 258.707L48.4486 260.277C48.365 260.785 47.6352 260.785 47.5516 260.277L47.293 258.707L45.723 258.448C45.2154 258.365 45.2154 257.635 45.723 257.551L47.293 257.293L47.5516 255.723Z" fill="white"/>
<path d="M241.552 269.723C241.635 269.215 242.365 269.215 242.449 269.723L242.707 271.293L244.277 271.551C244.785 271.635 244.785 272.365 244.277 272.448L242.707 272.707L242.449 274.277C242.365 274.785 241.635 274.785 241.552 274.277L241.293 272.707L239.723 272.448C239.215 272.365 239.215 271.635 239.723 271.551L241.293 271.293L241.552 269.723Z" fill="white"/>
<path d="M296.552 212.723C296.635 212.215 297.365 212.215 297.449 212.723L297.707 214.293L299.277 214.551C299.785 214.635 299.785 215.365 299.277 215.448L297.707 215.707L297.449 217.277C297.365 217.785 296.635 217.785 296.552 217.277L296.293 215.707L294.723 215.448C294.215 215.365 294.215 214.635 294.723 214.551L296.293 214.293L296.552 212.723Z" fill="white"/>
</svg>
