<svg width="375" height="222" viewBox="0 0 375 222" fill="none" xmlns="http://www.w3.org/2000/svg">
    <defs>
        <linearGradient id="paint0_linear_459_2514" x1="53" y1="-11.5" x2="388" y2="102"
            gradientUnits="userSpaceOnUse">
            <stop stop-color="#EFE2FF" />
            <stop offset="1" stop-color="#EFE2FF" stop-opacity="0" />
        </linearGradient>
        <clipPath id="clip0_459_2514">
            <rect width="375" height="222" fill="white" />
        </clipPath>
        <clipPath id="clip1_459_2514">
            <rect width="105.905" height="122.585" fill="white" transform="translate(135 86)" />
        </clipPath>
    </defs>
    <g clip-path="url(#clip0_459_2514)">
        <path
            d="M125.096 172.071C109.856 155.186 103.473 131.807 97.3506 106.999C91.2284 82.0607 85.2365 55.694 94.4849 36.341C103.603 16.9881 127.962 4.64894 149.064 7.37654C170.166 10.234 187.881 28.0283 212.76 33.8732C237.51 39.718 269.423 33.7433 284.142 44.5238C298.862 55.3043 296.517 83.0998 287.399 105.31C278.281 127.521 262.259 144.016 244.674 160.512C227.089 177.137 207.941 193.502 186.318 196.49C164.564 199.477 140.336 189.086 125.096 172.071Z"
            fill="#F0E4FF" />
        <path
            d="M391.478 18.7922C391.478 18.7922 392.2 27.3683 392.78 35.998C393.361 44.6276 393.823 53.3018 393.823 53.3018C393.823 53.3018 388.668 46.2981 383.64 39.2733C378.611 32.2486 373.691 25.1558 373.691 25.1558C373.691 25.1558 378.166 23.6214 382.632 22.0636C387.048 20.4441 391.478 18.7922 391.478 18.7922Z"
            fill="#9241FE" />
        <path
            d="M374.849 26.4383L373.667 25.1647C373.667 25.1647 378.142 23.6304 382.608 22.0725C387.039 20.4206 391.478 18.7922 391.478 18.7922L391.381 20.5236C391.381 20.5236 387.28 22.0507 383.155 23.5868C379.01 24.9963 374.849 26.4383 374.849 26.4383Z"
            fill="#7E0000" />
        <path
            d="M324.516 39.7543C324.516 39.7543 324.251 48.3544 323.86 56.9756C323.493 65.5878 322.984 74.2535 322.984 74.2535C322.984 74.2535 318.637 66.7554 314.416 59.2363C312.298 55.493 310.219 51.7083 308.654 48.858C307.114 45.9988 306.074 44.1065 306.074 44.1065C306.074 44.1065 307.242 43.8522 308.963 43.496C310.689 43.0839 313.007 42.5284 315.301 41.9819C319.913 40.8798 324.516 39.7543 324.516 39.7543Z"
            fill="#FF8E06" />
        <path
            d="M307.126 45.5365L306.082 44.1299C306.082 44.1299 307.25 43.8757 308.97 43.5195C310.697 43.1073 313.015 42.5519 315.309 42.0053C319.897 40.9122 324.524 39.7777 324.524 39.7777L324.203 41.4863C324.203 41.4863 319.938 42.5106 315.65 43.5438C313.529 44.0515 311.385 44.5681 309.785 44.9592C308.191 45.2944 307.126 45.5365 307.126 45.5365Z"
            fill="#9BC3E8" />
        <path opacity="0.5"
            d="M315.227 45.6156C315.4 46.3568 316.561 46.7238 317.846 46.4251C319.099 46.1117 319.988 45.2637 319.815 44.5225C319.642 43.7812 318.481 43.4142 317.219 43.7041C315.919 44.0353 315.053 44.8743 315.227 45.6156Z"
            fill="#F4F4F4" />
        <path opacity="0.5"
            d="M320.51 45.791C320.588 46.1381 321.136 46.3069 321.727 46.1636C322.318 46.0203 322.732 45.6215 322.654 45.2743C322.577 44.9272 322.028 44.7583 321.414 44.9106C320.814 45.0304 320.4 45.4292 320.51 45.791Z"
            fill="#F4F4F4" />
        <path
            d="M255.567 53.3458C255.567 53.3458 254.383 61.8636 253.097 70.3937C251.811 78.9237 250.398 87.4747 250.398 87.4747C250.398 87.4747 246.862 79.5617 243.461 71.6512C241.772 67.6915 240.107 63.7228 238.84 60.7332C237.596 57.7346 236.759 55.7385 236.759 55.7385C236.759 55.7385 237.933 55.6433 239.698 55.4047C241.464 55.1661 243.824 54.8636 246.151 54.5466C250.871 53.9417 255.567 53.3458 255.567 53.3458Z"
            fill="#FEBE16" />
        <path
            d="M237.655 57.2545L236.766 55.762C236.766 55.762 237.941 55.6667 239.706 55.4281C241.472 55.1895 243.831 54.8871 246.159 54.57C250.855 53.9741 255.566 53.3457 255.566 53.3457L255.068 55.0136L237.655 57.2545Z"
            fill="#F9A61F" />
        <path opacity="0.5"
            d="M245.7 58.1872C245.803 58.9552 246.92 59.4195 248.203 59.2562C249.486 59.0928 250.457 58.3211 250.355 57.5531C250.252 56.7851 249.126 56.2973 247.843 56.4607C246.569 56.6475 245.621 57.4103 245.7 58.1872Z"
            fill="#F4F4F4" />
        <path opacity="0.5"
            d="M250.944 58.8899C250.975 59.2548 251.517 59.4796 252.112 59.4158C252.721 59.3195 253.152 58.9677 253.122 58.6028C253.067 58.2467 252.548 58.013 251.939 58.1093C251.345 58.1731 250.89 58.5338 250.944 58.8899Z"
            fill="#F4F4F4" />
        <path
            d="M185.526 59.5786C185.526 59.5786 183.486 67.964 181.319 76.3704C179.161 84.8003 176.87 93.0924 176.87 93.0924C176.87 93.0924 174.172 84.835 171.599 76.5566C169.004 68.2871 166.567 60.0112 166.567 60.0112C166.567 60.0112 171.309 59.9626 176.043 59.8906C178.415 59.906 180.773 59.739 182.553 59.6829C184.367 59.6414 185.526 59.5786 185.526 59.5786Z"
            fill="#9241FE" />
        <path
            d="M167.294 61.6462L166.561 60.0678C166.561 60.0678 171.303 60.0193 176.037 59.9472C178.409 59.9627 180.767 59.7957 182.548 59.7396C184.319 59.6599 185.511 59.6117 185.511 59.6117L184.861 61.2301C184.861 61.2301 183.748 61.2751 182.112 61.3573C180.466 61.4159 178.259 61.5529 176.078 61.5456C171.709 61.587 167.294 61.6462 167.294 61.6462Z"
            fill="#9241FE" />
        <path opacity="0.5"
            d="M175.239 63.45C175.263 64.2212 176.33 64.8388 177.611 64.8109C178.924 64.7976 179.946 64.0875 179.931 63.3398C179.908 62.5686 178.834 62.007 177.545 62.0114C176.241 62.0482 175.216 62.6788 175.239 63.45Z"
            fill="#F4F4F4" />
        <path opacity="0.5"
            d="M180.355 64.7404C180.362 65.1142 180.866 65.3804 181.469 65.3401C182.082 65.3233 182.578 65.0007 182.547 64.6357C182.54 64.2619 182.036 63.9957 181.433 64.036C180.82 64.0528 180.347 64.3665 180.355 64.7404Z"
            fill="#F4F4F4" />
        <path
            d="M115.17 58.8041C115.17 58.8041 112.302 66.9921 109.333 75.0568C106.35 83.154 103.27 91.2073 103.27 91.2073C103.27 91.2073 101.406 82.741 99.6548 74.2861C97.9034 65.8312 96.255 57.3642 96.255 57.3642C96.255 57.3642 100.999 57.7455 105.719 58.1357C108.107 58.3336 110.462 58.5169 112.235 58.6522C113.975 58.7728 115.17 58.8041 115.17 58.8041Z"
            fill="#F7941E" />
        <path
            d="M96.7994 59.0139L96.2314 57.3731C96.2314 57.3731 100.975 57.7544 105.695 58.1446C108.083 58.3425 110.439 58.5258 112.212 58.6611C113.984 58.7964 115.179 58.8276 115.179 58.8276L114.366 60.373C114.366 60.373 114.096 60.368 113.601 60.3403C113.115 60.336 112.444 60.2677 111.613 60.2057C109.976 60.073 107.765 59.9156 105.568 59.7259C101.207 59.361 96.7994 59.0139 96.7994 59.0139Z"
            fill="#F7941E" />
        <path opacity="0.5"
            d="M104.52 61.5756C104.455 62.3265 105.456 63.0502 106.757 63.1488C108.059 63.2474 109.152 62.7256 109.208 61.9511C109.264 61.1767 108.249 60.4854 106.971 60.3778C105.685 60.2468 104.577 60.8011 104.52 61.5756Z"
            fill="#F4F4F4" />
        <path opacity="0.5"
            d="M109.497 63.3476C109.471 63.7069 109.947 64.0379 110.553 64.0771C111.16 64.1162 111.683 63.8642 111.708 63.505C111.733 63.1457 111.258 62.8147 110.643 62.752C110.045 62.7364 109.531 63.0119 109.497 63.3476Z"
            fill="#F4F4F4" />
        <path
            d="M89.8578 57.5266C89.8578 57.5266 96.383 58.0667 107.778 58.9669C119.179 59.8113 135.514 60.6152 155.12 60.8251C174.702 60.829 197.584 60.174 221.994 57.9447C246.39 55.7478 272.235 51.9798 297.791 46.5995C323.333 41.2516 348.552 34.4123 371.701 26.582C394.84 18.7282 415.952 10.1365 433.589 1.81282C451.252 -6.44035 465.405 -14.3047 475.011 -20.0428C479.814 -22.9118 483.468 -25.2647 485.926 -26.8687C487.104 -27.6646 488.002 -28.2742 488.598 -28.6883C489.109 -29.0433 489.365 -29.2209 489.365 -29.2209L487.788 -31.394C487.788 -31.394 487.533 -31.2165 487.069 -30.8793C486.473 -30.4651 485.589 -29.888 484.435 -29.101C482.023 -27.5148 478.416 -25.1798 473.637 -22.3197C464.069 -16.6229 450.01 -8.7942 432.465 -0.585597C414.946 7.69357 393.896 16.235 370.85 24.0531C347.828 31.8624 322.694 38.6425 297.264 44.0018C271.825 49.3375 246.06 53.1023 221.767 55.2871C197.483 57.4954 174.689 58.1707 155.164 58.1725C135.637 57.9594 119.359 57.1611 108.013 56.3225C96.6003 55.3752 90.1076 54.8497 90.1076 54.8497L89.8578 57.5266Z"
            fill="#3C3D40" />
        <path
            d="M89.8555 57.5263C89.8555 57.5263 96.3807 58.0664 107.776 58.9667C119.177 59.811 135.512 60.6149 155.118 60.8248C174.699 60.8288 197.582 60.1737 221.992 57.9444C246.388 55.7475 272.233 51.9795 297.789 46.5992C323.331 41.2514 348.549 34.412 371.698 26.5818C394.838 18.728 415.95 10.1363 433.587 1.81255C451.25 -6.44061 465.402 -14.305 475.008 -20.0431C479.811 -22.9121 483.465 -25.265 485.924 -26.869C487.101 -27.6649 488 -28.2744 488.596 -28.6886C489.107 -29.0436 489.363 -29.2211 489.363 -29.2211L488.579 -30.2959C488.579 -30.2959 488.323 -30.1184 487.836 -29.7723C487.24 -29.3581 486.332 -28.7721 485.178 -27.9851C482.767 -26.399 479.113 -24.0461 474.333 -21.186C464.751 -15.4568 450.622 -7.60133 433.02 0.601581C415.463 8.92209 394.366 17.4813 371.296 25.3084C348.195 33.1209 323.023 39.9424 297.561 45.287C272.075 50.6406 246.23 54.4086 221.914 56.6023C197.559 58.8373 174.733 59.498 155.175 59.4852C135.625 59.281 119.314 58.4681 107.922 57.6473C96.5263 56.747 90.0335 56.2216 90.0335 56.2216L89.8555 57.5263Z"
            fill="#231F20" />
        <g clip-path="url(#clip1_459_2514)">
            <path
                d="M214.413 150.538C212.012 148.137 207.951 148.762 206.412 151.794C201.899 160.669 203.345 171.789 210.768 179.212C218.191 186.635 229.317 188.081 238.186 183.568C241.212 182.029 241.843 177.968 239.442 175.567L214.413 150.538Z"
                fill="#9241FE" />
            <path
                d="M161.499 150.538C163.9 148.137 167.961 148.762 169.5 151.794C174.013 160.669 172.567 171.789 165.144 179.212C157.721 186.635 146.595 188.081 137.726 183.568C134.7 182.029 134.069 177.968 136.47 175.567L161.499 150.538Z"
                fill="#9241FE" />
            <path
                d="M209.137 204.899C208.529 204.899 207.806 204.957 207.002 205.056C201.315 205.756 191.664 208.585 191.664 208.585C191.664 208.585 190.953 200.288 192.359 196.476C192.573 195.886 192.839 195.405 193.169 195.076C195.292 192.958 201.083 194.503 202.617 194.96C202.86 195.029 202.993 195.076 202.993 195.076C202.993 195.076 203.01 195.093 203.05 195.128C203.907 195.891 213.841 204.899 209.137 204.899Z"
                fill="#FF8E06" />
            <path
                d="M185.902 208.586C185.902 208.586 184.844 208.273 183.218 207.834C179.255 206.757 171.919 204.9 168.43 204.9C163.518 204.9 174.574 195.076 174.574 195.076C174.574 195.076 174.811 194.995 175.211 194.885C176.865 194.411 181.326 193.318 183.681 194.556C183.953 194.7 184.19 194.868 184.398 195.076C184.722 195.406 184.988 195.881 185.202 196.471C186.614 200.278 185.902 208.586 185.902 208.586Z"
                fill="#FF8E06" />
            <path
                d="M220.603 179.206V179.449C220.603 180.52 220.441 181.555 220.123 182.556C220.094 182.654 220.065 182.753 220.03 182.851C220.013 182.903 219.996 182.949 219.978 182.996C219.319 184.824 218.156 186.513 216.57 188.041C216.559 188.047 216.547 188.058 216.536 188.07C213.354 191.119 208.488 193.502 202.621 194.96C202.332 195.036 202.043 195.105 201.748 195.174C198.826 195.845 195.673 196.291 192.364 196.476C191.461 196.528 190.547 196.563 189.627 196.574C189.32 196.58 189.014 196.58 188.701 196.58C188.343 196.58 187.984 196.574 187.631 196.569C186.815 196.557 186.005 196.522 185.207 196.47C184.692 196.441 184.183 196.401 183.674 196.355C180.694 196.088 177.853 195.585 175.215 194.885C169.152 193.277 164.124 190.615 160.867 187.318C160.491 186.941 160.138 186.571 159.802 186.201C158.865 185.171 158.09 184.164 157.534 183.094C156.91 181.908 156.562 180.653 156.562 179.2C156.562 172.616 157.54 166.449 159.288 160.912C159.93 158.899 160.67 156.966 161.503 155.132C162.4 153.165 163.401 151.308 164.495 149.572C164.882 148.965 165.281 148.375 165.692 147.796L165.698 147.791C167.063 145.852 168.562 144.099 170.17 142.549C171.061 141.675 171.987 140.871 172.947 140.13C177.616 136.532 182.997 134.507 188.701 134.507H188.742C189.176 134.507 189.61 134.518 190.038 134.553C190.084 134.547 190.13 134.553 190.177 134.559C196.367 134.941 202.095 137.764 206.868 142.335C208.991 144.365 210.924 146.738 212.625 149.393C212.769 149.619 212.908 149.844 213.047 150.07C213.701 151.129 214.314 152.234 214.893 153.374C214.951 153.484 215.003 153.593 215.06 153.703C215.494 154.577 215.905 155.491 216.293 156.434C219.006 163.047 220.574 171.245 220.603 179.206Z"
                fill="#9241FE" />
            <g opacity="0.3">
                <g opacity="0.3">
                    <g opacity="0.3">
                        <g opacity="0.3">
                            <path opacity="0.3"
                                d="M225.779 177.405C225.773 177.324 225.768 177.237 225.762 177.156C225.762 177.15 225.762 177.15 225.762 177.145C225.773 177.231 225.779 177.312 225.779 177.405Z"
                                fill="#000072" />
                        </g>
                    </g>
                </g>
            </g>
            <path
                d="M208.672 174.532V174.56C208.614 177.505 207.301 180.172 205.062 182.435L205.038 182.458C201.509 186.004 195.666 188.538 188.729 189.568C186.478 189.898 184.118 190.072 181.676 190.072C181.433 190.072 181.196 190.072 180.953 190.066C178.986 190.037 177.077 189.875 175.243 189.597C163.689 187.862 156.741 174.734 161.132 163.007C161.149 162.96 161.172 162.914 161.184 162.874C162.659 158.963 165.135 155.919 168.167 154.299L169.995 153.327C171.025 152.778 172.24 152.396 173.513 152.199C175.816 151.829 178.309 152.043 180.224 152.847L183.73 154.323C183.736 154.323 183.736 154.328 183.748 154.328L184.748 154.751C186.044 155.3 187.392 155.578 188.729 155.595C189.076 155.595 189.423 155.578 189.77 155.549C191.124 155.422 192.455 154.999 193.716 154.328L193.733 154.323L197.24 152.847C199.16 152.043 201.648 151.829 203.951 152.199C206.913 158.413 208.643 166.6 208.672 174.532Z"
                fill="#A369FF" />
            <path
                d="M202.218 189.603C200.384 189.881 198.469 190.037 196.508 190.072C196.265 190.077 196.028 190.077 195.785 190.077C193.349 190.077 190.983 189.904 188.732 189.574C181.795 188.544 175.952 186.004 172.422 182.464L172.399 182.441C170.154 180.184 168.847 177.511 168.789 174.566V174.537C168.818 166.605 170.548 158.419 173.516 152.205C175.819 151.835 178.312 152.049 180.227 152.853L183.733 154.328C183.739 154.328 183.739 154.334 183.751 154.334C185.006 155.005 186.337 155.428 187.696 155.555C188.043 155.584 188.391 155.601 188.738 155.601C190.08 155.584 191.422 155.306 192.718 154.757L193.719 154.334L193.736 154.328L197.243 152.853C199.163 152.049 201.651 151.835 203.954 152.205C205.227 152.402 206.436 152.784 207.471 153.333L209.3 154.305C212.331 155.925 214.808 158.963 216.283 162.879C216.3 162.926 216.323 162.972 216.335 163.013C220.72 174.74 213.772 187.862 202.218 189.603Z"
                fill="#A369FF" />
            <path
                d="M205.705 97.4894C205.913 97.3506 213.151 89.1698 214.603 87.4052C216.773 84.7728 219.961 86.4101 218.561 93.6189C218.561 93.6189 221.887 90.055 223.201 92.3576C225.15 95.7827 220.007 96.1183 224.155 112.682L205.705 97.4894Z"
                fill="#9241FE" />
            <path
                d="M224.162 111.7L223.895 111.48C223.658 110.248 223.479 109.132 223.352 108.113C223.571 109.218 223.838 110.41 224.162 111.7Z"
                fill="#7F7F7F" />
            <path
                d="M151.591 112.678C155.74 96.1138 151.302 95.7782 153.252 92.3532C154.565 90.0505 157.892 93.6144 157.892 93.6144C156.492 86.4056 159.564 84.8782 161.849 87.4065C165.858 91.8383 171.933 95.2286 172.142 95.3675C172.142 95.3675 184.725 93.1632 186.293 93.1284C187.525 93.1053 216.031 89.605 223.899 110.584L224.461 112.365C227.301 121.518 228.782 128.947 228.661 133.604C228.672 133.824 228.678 134.038 228.678 134.258C228.678 136.381 228.21 138.667 227.087 141.085C223.454 148.334 206.352 151.488 196.024 151.488H182.862C177.702 151.488 148.751 151.488 147.993 134.669C147.784 130.023 149.225 121.767 151.337 113.621L151.591 112.678Z"
                fill="#9241FE" />
            <path
                d="M228.677 133.992C228.677 134.484 228.654 134.981 228.596 135.485C228.492 130.851 227.045 123.931 224.442 115.554L223.886 113.789C220.386 95.8999 194.75 95.8363 186.72 96.5363C185.175 96.6694 172.736 98.7464 172.736 98.7464C172.528 98.6134 166.522 95.2577 162.559 90.8838C160.297 88.3845 158.041 89.1366 159.418 96.2586C159.418 96.2586 154.673 93.227 154.06 95.7727C153.105 99.7242 151.3 95.5065 153.25 92.0872C154.563 89.7846 157.89 93.3485 157.89 93.3485C156.49 86.1397 159.562 84.6065 161.848 87.1348C165.863 91.5665 171.932 94.9569 172.146 95.0957C172.146 95.0957 184.729 92.8856 186.297 92.8567C187.53 92.8336 216.035 89.3333 223.898 110.312L224.459 112.094C227.3 121.247 228.781 128.675 228.659 133.333C228.671 133.552 228.677 133.772 228.677 133.992Z"
                fill="#A670FC" />
            <g opacity="0.3">
                <g opacity="0.3">
                    <g opacity="0.3">
                        <g opacity="0.3">
                            <path opacity="0.3"
                                d="M193.392 126.379C193.369 126.593 193.34 126.813 193.311 127.039C192.212 134.786 185.964 139.964 179.438 140.739C174.595 141.312 164.904 139.385 161.971 128.971C160.912 125.222 160.854 121.352 161.907 119.28C163.747 115.664 169.185 114.582 171.592 114.166C171.841 114.125 172.113 114.085 172.396 114.05C177.36 113.477 186.97 114.559 190.257 117.458C190.257 117.452 194.168 119.24 193.392 126.379Z"
                                fill="#000072" />
                        </g>
                    </g>
                </g>
            </g>
            <path
                d="M198.693 144.59C195.534 145.226 192.045 145.62 188.221 145.764C184.396 145.62 180.913 145.226 177.76 144.59C154.873 139.944 157.326 129.761 160.201 117.38C160.218 117.334 160.23 117.27 160.242 117.224C160.514 116.038 159.455 110.773 165.078 104.195C167.138 101.782 171.061 100.695 174.758 101.146C176.846 101.765 178.894 102.702 180.786 103.83C181.07 104.073 181.353 104.339 181.637 104.617C183.442 106.393 185.831 107.238 188.226 107.145C190.622 107.232 193.011 106.388 194.828 104.617C195.111 104.345 195.395 104.079 195.678 103.83C197.57 102.702 199.618 101.759 201.707 101.146C205.404 100.695 209.315 101.782 211.386 104.195C217.004 110.773 215.934 116.038 216.223 117.224C216.234 117.27 216.24 117.334 216.252 117.38C219.127 129.767 221.58 139.944 198.693 144.59Z"
                fill="#A369FF" />
            <path
                d="M219.105 189.569L219.076 189.587C219.076 189.587 219.076 189.581 219.076 189.563L219.105 189.569Z"
                fill="#EF8B01" />
            <path
                d="M219.775 187.155L219.752 187.172C219.752 187.172 219.752 187.167 219.752 187.149L219.775 187.155Z"
                fill="#EF8B01" />
            <path
                d="M172.77 131.887C175.815 131.887 178.283 128.353 178.283 123.995C178.283 119.637 175.815 116.104 172.77 116.104C169.724 116.104 167.256 119.637 167.256 123.995C167.256 128.353 169.724 131.887 172.77 131.887Z"
                fill="#F5F5F5" />
            <path
                d="M172.681 129.23C173.979 129.23 175.032 127.22 175.032 124.741C175.032 122.261 173.979 120.251 172.681 120.251C171.383 120.251 170.33 122.261 170.33 124.741C170.33 127.22 171.383 129.23 172.681 129.23Z"
                fill="#4B4B4B" />
            <path
                d="M205.283 131.887C208.328 131.887 210.797 128.353 210.797 123.995C210.797 119.637 208.328 116.104 205.283 116.104C202.238 116.104 199.77 119.637 199.77 123.995C199.77 128.353 202.238 131.887 205.283 131.887Z"
                fill="#F5F5F5" />
            <path
                d="M196.183 128.755C196.212 129.987 195.552 131.81 189.738 132.058C188.505 132.11 186.527 131.833 185.914 131.555C184.265 130.803 183.414 130.016 183.559 128.755C183.64 128.072 184.294 127.268 184.866 126.979C186.307 126.255 186.133 126.255 186.66 125.521C187.713 124.063 188.482 123.82 189.379 123.617C192.457 122.911 196.142 127.06 196.183 128.755Z"
                fill="#FF8E06" />
            <g opacity="0.3">
                <g opacity="0.3">
                    <g opacity="0.3">
                        <g opacity="0.3">
                            <path opacity="0.3"
                                d="M189.737 132.053C188.505 132.116 186.526 131.798 185.913 131.48C184.264 130.624 183.413 129.727 183.564 128.292C183.587 128.072 183.656 127.841 183.755 127.615C184.09 128.362 184.831 128.94 185.913 129.507C186.52 129.825 188.505 130.138 189.737 130.08C194.099 129.872 195.557 128.651 196.003 127.459C196.113 127.771 196.176 128.049 196.182 128.286C196.211 129.698 195.552 131.775 189.737 132.053Z"
                                fill="#000072" />
                        </g>
                    </g>
                </g>
            </g>
            <g opacity="0.35">
                <g opacity="0.35">
                    <g opacity="0.35">
                        <g opacity="0.35">
                            <path opacity="0.35"
                                d="M195.425 130.555V130.486C195.385 128.79 191.572 124.226 188.633 125.348C187.985 125.597 187.632 126.372 187.192 127.043C186.7 127.801 184.797 127.963 184.299 128.912C184.201 129.097 183.732 128.952 183.553 129.132C183.547 129.01 183.553 128.883 183.565 128.75C183.646 128.067 184.299 127.263 184.872 126.979C186.313 126.256 186.139 126.256 186.666 125.522C187.719 124.064 188.488 123.821 189.385 123.612C192.451 122.906 196.142 127.055 196.177 128.75C196.2 129.299 196.073 129.965 195.425 130.555Z"
                                fill="#F5F5F5" />
                        </g>
                    </g>
                </g>
            </g>
            <path
                d="M193.947 124.278C193.508 123.936 193.062 123.641 192.617 123.416C191.431 122.802 190.256 122.606 189.209 122.843C188.173 123.086 187.213 123.416 186.027 125.059C185.934 125.18 185.865 125.284 185.807 125.371C185.576 125.712 185.547 125.753 184.517 126.268C183.753 126.655 182.891 127.656 182.775 128.663C182.735 129.045 182.758 129.392 182.839 129.704C183.175 131 184.442 131.753 185.587 132.279C186.328 132.62 188.208 132.858 189.44 132.858C189.556 132.858 189.666 132.852 189.776 132.846C190.03 132.834 190.273 132.823 190.505 132.805C194.283 132.545 196.377 131.527 196.869 129.716V129.71C196.944 129.438 196.985 129.137 196.985 128.831V128.738C196.944 127.327 195.428 125.429 193.947 124.278ZM184.349 128.842C184.349 128.831 184.349 128.825 184.355 128.813C184.366 128.732 184.395 128.634 184.453 128.542C184.575 128.275 184.806 127.986 185.043 127.813C185.049 127.801 185.055 127.801 185.061 127.801C185.113 127.755 185.176 127.714 185.228 127.685C185.257 127.674 185.275 127.656 185.298 127.645C185.304 127.645 185.304 127.639 185.309 127.639C186.524 127.031 186.721 126.846 187.12 126.262C187.172 126.181 187.236 126.088 187.311 125.984C188.202 124.752 188.798 124.573 189.469 124.411C189.481 124.411 189.492 124.411 189.498 124.405C189.527 124.399 189.544 124.393 189.573 124.387C189.753 124.347 189.932 124.33 190.117 124.33C190.418 124.33 190.725 124.376 191.014 124.468C191.026 124.468 191.043 124.474 191.055 124.48C191.685 124.671 192.264 125.012 192.692 125.319C192.796 125.394 192.889 125.464 192.975 125.527C193.71 126.1 194.312 126.771 194.734 127.361C195.035 127.784 195.238 128.177 195.33 128.466C195.371 128.582 195.388 128.686 195.388 128.767C195.394 129.062 195.324 129.34 195.18 129.577C194.705 130.37 193.438 130.885 191.39 131.128H191.384C190.875 131.186 190.32 131.232 189.706 131.255C188.526 131.301 186.686 131.024 186.247 130.827C184.384 129.976 184.291 129.38 184.349 128.842Z"
                fill="#4B4B4B" />
            <path
                d="M204.818 129.231C206.067 129.231 207.079 127.297 207.079 124.912C207.079 122.527 206.067 120.594 204.818 120.594C203.569 120.594 202.557 122.527 202.557 124.912C202.557 127.297 203.569 129.231 204.818 129.231Z"
                fill="#4B4B4B" />
            <path
                d="M209.136 204.9C208.529 204.9 207.805 204.958 207.001 205.056C206.816 204.796 206.747 204.535 206.828 204.286C207.406 202.551 201.742 195.174 201.742 195.174L203.05 195.128C203.906 195.892 213.84 204.9 209.136 204.9Z"
                fill="#FFAB57" />
            <path
                d="M185.203 196.47C186.615 200.277 185.903 208.585 185.903 208.585C185.903 208.585 184.844 208.272 183.219 207.833C183.531 205.842 183.635 199.999 183.67 196.354V196.319C184.654 196.389 186.106 196.481 187.575 196.533L187.627 196.568C186.812 196.557 186.002 196.522 185.203 196.47Z"
                fill="#FFAB57" />
        </g>
    </g>

</svg>
