<svg width="264" height="170" viewBox="0 0 264 170" fill="none" xmlns="http://www.w3.org/2000/svg">
    <path d="M195.355 7.56934H133.666L132.852 16.0499H195.355V7.56934Z" stroke="#B2B2B2" stroke-width="0.580622" stroke-miterlimit="10"/>
    <path d="M195.355 16.0508H133.666L132.852 24.5313H195.355V16.0508Z" stroke="#B2B2B2" stroke-width="0.580622" stroke-miterlimit="10"/>
    <path d="M195.355 24.5308H133.666L132.852 33.0113H195.355V24.5308Z" stroke="#B2B2B2" stroke-width="0.580622" stroke-miterlimit="10"/>
    <path d="M195.355 33.0117H133.666L132.852 41.4923H195.355V33.0117Z" stroke="#B2B2B2" stroke-width="0.580622" stroke-miterlimit="10"/>
    <path d="M195.355 41.4917H133.666L132.852 49.9723H195.355V41.4917Z" stroke="#B2B2B2" stroke-width="0.580622" stroke-miterlimit="10"/>
    <path d="M195.355 49.9731H133.666L132.852 58.4537H195.355V49.9731Z" stroke="#B2B2B2" stroke-width="0.580622" stroke-miterlimit="10"/>
    <path d="M195.355 58.4531H133.666L132.852 66.9337H195.355V58.4531Z" stroke="#B2B2B2" stroke-width="0.580622" stroke-miterlimit="10"/>
    <path d="M195.355 66.9331H133.666L132.852 75.4137H195.355V66.9331Z" stroke="#B2B2B2" stroke-width="0.580622" stroke-miterlimit="10"/>
    <path d="M195.355 75.4141H133.666L132.852 83.8946H195.355V75.4141Z" stroke="#B2B2B2" stroke-width="0.580622" stroke-miterlimit="10"/>
    <path d="M195.355 83.894H133.666L132.852 92.3746H195.355V83.894Z" stroke="#B2B2B2" stroke-width="0.580622" stroke-miterlimit="10"/>
    <path d="M195.355 92.3755H133.666L132.852 100.856H195.355V92.3755Z" stroke="#B2B2B2" stroke-width="0.580622" stroke-miterlimit="10"/>
    <path d="M195.355 100.855H133.666L132.852 109.336H195.355V100.855Z" stroke="#B2B2B2" stroke-width="0.580622" stroke-miterlimit="10"/>
    <path d="M195.355 109.336H133.666L132.852 117.825H195.355V109.336Z" stroke="#B2B2B2" stroke-width="0.580622" stroke-miterlimit="10"/>
    <path d="M195.355 117.825H133.666L132.852 126.306H195.355V117.825Z" stroke="#B2B2B2" stroke-width="0.580622" stroke-miterlimit="10"/>
    <path d="M195.355 126.306H133.666L132.852 134.787H195.355V126.306Z" stroke="#B2B2B2" stroke-width="0.580622" stroke-miterlimit="10"/>
    <path d="M258.771 7.56934H197.082L196.259 16.0499H258.771V7.56934Z" stroke="#B2B2B2" stroke-width="0.580622" stroke-miterlimit="10"/>
    <path d="M258.771 16.0508H197.082L196.259 24.5313H258.771V16.0508Z" stroke="#B2B2B2" stroke-width="0.580622" stroke-miterlimit="10"/>
    <path d="M258.771 24.5308H197.082L196.259 33.0113H258.771V24.5308Z" stroke="#B2B2B2" stroke-width="0.580622" stroke-miterlimit="10"/>
    <path d="M258.771 33.0117H197.082L196.259 41.4923H258.771V33.0117Z" stroke="#B2B2B2" stroke-width="0.580622" stroke-miterlimit="10"/>
    <path d="M258.771 41.4917H197.082L196.259 49.9723H258.771V41.4917Z" stroke="#B2B2B2" stroke-width="0.580622" stroke-miterlimit="10"/>
    <path d="M258.771 49.9731H197.082L196.259 58.4537H258.771V49.9731Z" stroke="#B2B2B2" stroke-width="0.580622" stroke-miterlimit="10"/>
    <path d="M258.771 58.4531H197.082L196.259 66.9337H258.771V58.4531Z" stroke="#B2B2B2" stroke-width="0.580622" stroke-miterlimit="10"/>
    <path d="M258.771 66.9331H197.082L196.259 75.4137H258.771V66.9331Z" stroke="#B2B2B2" stroke-width="0.580622" stroke-miterlimit="10"/>
    <path d="M258.771 75.4141H197.082L196.259 83.8946H258.771V75.4141Z" stroke="#B2B2B2" stroke-width="0.580622" stroke-miterlimit="10"/>
    <path d="M258.771 83.894H197.082L196.259 92.3746H258.771V83.894Z" stroke="#B2B2B2" stroke-width="0.580622" stroke-miterlimit="10"/>
    <path d="M258.771 92.3755H197.082L196.259 100.856H258.771V92.3755Z" stroke="#B2B2B2" stroke-width="0.580622" stroke-miterlimit="10"/>
    <path d="M258.771 100.855H197.082L196.259 109.336H258.771V100.855Z" stroke="#B2B2B2" stroke-width="0.580622" stroke-miterlimit="10"/>
    <path d="M258.771 109.336H197.082L196.259 117.825H258.771V109.336Z" stroke="#B2B2B2" stroke-width="0.580622" stroke-miterlimit="10"/>
    <path d="M258.771 117.825H197.082L196.259 126.306H258.771V117.825Z" stroke="#B2B2B2" stroke-width="0.580622" stroke-miterlimit="10"/>
    <path d="M258.771 126.306H197.082L196.259 134.787H258.771V126.306Z" stroke="#B2B2B2" stroke-width="0.580622" stroke-miterlimit="10"/>
    <path d="M261.854 1H131.406V7.39571H261.854V1Z" stroke="#B2B2B2" stroke-width="0.580622" stroke-miterlimit="10"/>
    <path d="M261.862 7.39648V120.077" stroke="#B2B2B2" stroke-width="0.580622" stroke-miterlimit="10"/>
    <path d="M260.434 7.57812V84.8832" stroke="#B2B2B2" stroke-width="0.580622" stroke-miterlimit="10"/>
    <path d="M262.784 119.828H261.032V122.702H262.784V119.828Z" fill="#263238" stroke="#B2B2B2" stroke-width="0.580622" stroke-miterlimit="10"/>
    <path d="M261.197 84.2686H259.444V87.1425H261.197V84.2686Z" fill="#263238" stroke="#B2B2B2" stroke-width="0.580622" stroke-miterlimit="10"/>
    <path d="M40.4622 136.888C38.6323 135.752 36.5826 135.017 34.448 134.731C32.3134 134.444 30.1423 134.613 28.0778 135.227C21.3249 137.195 17.9526 143.109 17.9526 145.078H46.3679C46.0169 143.373 45.3093 141.762 44.2915 140.351C43.2736 138.939 41.9686 137.759 40.4622 136.888V136.888Z" fill="#808080"/>
    <path d="M99.2588 106.979C101.919 105.197 105.563 106.518 106.432 109.604C108.984 118.641 105.612 128.665 97.3863 134.175C89.1609 139.685 78.6028 138.988 71.2223 133.19C68.7042 131.213 68.8637 127.34 71.5243 125.558L99.2588 106.979Z" fill="#9241FE"/>
    <path d="M133.392 165.989C132.83 165.877 132.151 165.799 131.389 165.743C125.999 165.35 116.553 166.202 116.553 166.202C116.553 166.202 117.412 158.396 119.41 155.126C119.716 154.619 120.05 154.223 120.415 153.979C122.767 152.408 127.843 154.896 129.178 155.6C129.39 155.708 129.505 155.775 129.505 155.775C129.505 155.775 129.517 155.795 129.549 155.834C130.201 156.697 137.744 166.849 133.392 165.989Z" fill="#FF8E06"/>
    <path d="M111.221 165.148C111.221 165.148 110.298 164.665 108.874 163.961C105.404 162.24 98.9568 159.18 95.729 158.542C91.1844 157.644 103.211 150.577 103.211 150.577C103.211 150.577 103.445 150.545 103.834 150.517C105.452 150.38 109.779 150.184 111.731 151.761C111.956 151.944 112.145 152.143 112.3 152.374C112.539 152.738 112.699 153.226 112.789 153.811C113.399 157.591 111.221 165.148 111.221 165.148Z" fill="#FF8E06"/>
    <path d="M148.695 144.313L148.651 144.538C148.455 145.528 148.116 146.456 147.638 147.324C147.593 147.41 147.549 147.496 147.499 147.58C147.473 147.625 147.448 147.665 147.424 147.705C146.479 149.275 145.094 150.626 143.348 151.749C143.337 151.752 143.324 151.761 143.311 151.769C139.809 154.008 134.871 155.324 129.177 155.6C128.895 155.616 128.615 155.627 128.329 155.638C125.503 155.724 122.505 155.56 119.409 155.126C118.564 155.009 117.712 154.874 116.859 154.716C116.574 154.665 116.291 154.609 116.002 154.552C115.67 154.487 115.339 154.416 115.013 154.346C114.261 154.186 113.518 154.005 112.789 153.811C112.317 153.69 111.854 153.56 111.391 153.424C108.683 152.632 106.147 151.647 103.834 150.517C98.5186 147.92 94.3537 144.538 91.9433 140.891C91.6641 140.474 91.4053 140.067 91.1626 139.663C90.4838 138.539 89.9507 137.466 89.6326 136.374C89.2714 135.162 89.1799 133.937 89.4455 132.593C90.6498 126.502 92.6826 120.975 95.3119 116.172C96.2743 114.426 97.3129 112.774 98.4192 111.229C99.6087 109.573 100.874 108.038 102.204 106.632C102.673 106.141 103.151 105.668 103.637 105.208L103.643 105.204C105.261 103.66 106.968 102.313 108.74 101.172C109.724 100.527 110.727 99.9522 111.751 99.4427C116.729 96.9672 122.078 96.0779 127.356 97.1213L127.393 97.1287C127.795 97.2081 128.194 97.2982 128.584 97.4086C128.628 97.4117 128.669 97.4256 128.711 97.4394C134.369 98.925 139.152 102.585 142.732 107.687C144.325 109.954 145.679 112.502 146.767 115.27C146.859 115.505 146.947 115.74 147.034 115.974C147.445 117.073 147.81 118.207 148.137 119.368C148.171 119.48 148.199 119.591 148.232 119.704C148.474 120.591 148.687 121.512 148.873 122.456C150.174 129.07 150.125 136.942 148.695 144.313Z" fill="#9241FE"/>
    <g opacity="0.3">
        <g opacity="0.3">
            <g opacity="0.3">
                <g opacity="0.3">
                    <path opacity="0.3" d="M153.816 143.594C153.826 143.518 153.836 143.436 153.846 143.36C153.847 143.355 153.847 143.355 153.848 143.35C153.842 143.432 153.833 143.508 153.816 143.594Z" fill="#000072"/>
                </g>
            </g>
        </g>
    </g>
    <path d="M138.515 137.807L138.51 137.834C137.918 140.548 136.215 142.776 133.73 144.459L133.704 144.476C129.79 147.112 123.92 148.388 117.314 148.072C115.171 147.965 112.955 147.694 110.697 147.247C110.472 147.203 110.252 147.16 110.028 147.11C108.214 146.723 106.477 146.224 104.831 145.632C94.4587 141.912 90.4312 128.496 96.6391 118.449C96.6636 118.409 96.6935 118.371 96.7116 118.335C98.792 114.987 101.64 112.624 104.741 111.68L106.61 111.115C107.663 110.795 108.857 110.664 110.071 110.714C112.269 110.793 114.537 111.447 116.162 112.541L119.136 114.548C119.141 114.549 119.14 114.554 119.151 114.556L120 115.13C121.098 115.876 122.295 116.379 123.528 116.64C123.849 116.703 124.173 116.751 124.5 116.787C125.776 116.917 127.084 116.77 128.374 116.38L128.391 116.378L131.905 115.654C133.829 115.261 136.17 115.518 138.232 116.282C139.836 122.573 139.94 130.463 138.515 137.807Z" fill="#A369FF"/>
    <path d="M129.785 150.573C128.037 150.494 126.237 150.289 124.416 149.962C124.19 149.923 123.97 149.88 123.745 149.835C121.492 149.39 119.334 148.796 117.312 148.079C111.083 145.858 106.141 142.439 103.523 138.517L103.506 138.492C101.842 135.994 101.121 133.281 101.606 130.546L101.611 130.519C103.089 123.186 106.187 115.928 110.07 110.722C112.268 110.801 114.536 111.455 116.16 112.549L119.134 114.555C119.14 114.557 119.139 114.562 119.149 114.564C120.188 115.415 121.342 116.049 122.577 116.415C122.893 116.505 123.211 116.585 123.532 116.648C124.777 116.878 126.069 116.867 127.369 116.595L128.372 116.387L128.389 116.385L131.903 115.662C133.827 115.269 136.168 115.526 138.231 116.29C139.373 116.704 140.422 117.279 141.279 117.977L142.793 119.211C145.301 121.264 147.037 124.527 147.685 128.421C147.693 128.467 147.706 128.514 147.709 128.553C149.622 140.206 140.793 151.075 129.785 150.573Z" fill="#A369FF"/>
    <g opacity="0.3">
        <g opacity="0.3">
            <g opacity="0.3">
                <g opacity="0.3">
                    <path opacity="0.3" d="M133.01 90.5343C132.945 90.7268 132.874 90.9234 132.801 91.1253C130.215 98.0368 123.409 101.537 117.241 100.925C112.665 100.469 104.131 96.7267 103.544 86.5398C103.331 82.8719 104.064 79.2955 105.454 77.6017C107.883 74.6451 113.111 74.7533 115.413 74.8584C115.65 74.8717 115.909 74.8896 116.177 74.9152C120.865 75.3959 129.496 78.344 131.934 81.681C131.935 81.6757 135.174 84.1165 133.01 90.5343Z" fill="#000072"/>
                </g>
            </g>
        </g>
    </g>
    <path d="M145.419 153.628L145.389 153.639C145.389 153.639 145.39 153.634 145.394 153.618L145.419 153.628Z" fill="#EF8B01"/>
    <path d="M146.482 151.519L146.457 151.531C146.457 151.531 146.458 151.525 146.461 151.509L146.482 151.519Z" fill="#EF8B01"/>
    <path d="M142.341 62.0668C142.553 61.9625 150.323 55.1983 151.897 53.7259C154.248 51.5298 157.028 53.4512 154.837 60.021C154.837 60.021 158.384 57.0955 159.33 59.4096C160.734 62.8511 155.883 62.5353 157.735 78.5328L142.341 62.0668Z" fill="#9241FE"/>
    <path d="M89.8831 69.6404C95.79 54.6585 91.6813 53.8014 93.9239 50.8372C95.4339 48.8447 98.1085 52.5847 98.1085 52.5847C97.6817 45.672 100.742 44.6198 102.569 47.2638C105.776 51.8989 111.042 55.813 111.22 55.9683C111.22 55.9683 123.257 55.4474 124.727 55.6069C125.882 55.7361 152.968 55.9523 157.757 76.5333L158.064 78.2683C159.6 87.1752 160.076 94.3033 159.392 98.6437C159.376 98.8507 159.355 99.0516 159.328 99.2572C159.068 101.243 158.35 103.323 157.005 105.447C152.72 111.781 136.341 112.636 126.683 111.372L114.375 109.761C109.549 109.129 82.4759 105.585 83.8259 89.7644C84.1999 85.3944 86.5577 77.8503 89.5296 70.4911L89.8831 69.6404Z" fill="#9241FE"/>
    <path d="M159.362 99.0098C159.302 99.4696 159.219 99.9321 159.104 100.396C159.574 96.0493 159.068 89.4015 157.659 81.2487L157.356 79.5306C156.272 62.3734 132.307 59.1758 124.712 58.8474C123.251 58.7827 111.364 59.2023 111.364 59.2023C111.186 59.0524 105.981 55.1793 102.81 50.604C101.001 47.9898 98.7987 48.4169 99.2145 55.2456C99.2145 55.2456 95.1492 51.8298 94.2641 54.1353C92.8876 57.7137 91.7159 53.5486 93.9578 50.5898C95.4678 48.5972 98.1424 52.3372 98.1424 52.3372C97.7156 45.4246 100.776 44.3669 102.604 47.011C105.816 51.6468 111.076 55.5601 111.26 55.7162C111.26 55.7162 123.297 55.1899 124.767 55.3547C125.922 55.4839 153.008 55.7002 157.792 76.2804L158.099 78.0155C159.635 86.9223 160.11 94.0504 159.427 98.3909C159.411 98.5979 159.389 98.8042 159.362 99.0098Z" fill="#A670FC"/>
    <path d="M126.888 106.44C123.856 106.648 120.546 106.589 116.952 106.256C113.393 105.653 110.184 104.858 107.314 103.877C86.4791 96.7309 90.0195 87.5091 94.224 76.283C94.2459 76.2418 94.2646 76.1837 94.281 76.1419C94.6805 75.0661 94.3349 70.0131 100.399 64.55C102.62 62.546 106.422 62.009 109.824 62.8836C111.701 63.7182 113.502 64.8453 115.133 66.1319C115.368 66.3939 115.6 66.6775 115.832 66.9719C117.302 68.8538 119.433 69.9362 121.684 70.1428C123.914 70.5172 126.252 70.0198 128.167 68.5866C128.465 68.367 128.763 68.1529 129.059 67.9549C130.966 67.1315 132.997 66.5003 135.025 66.1825C138.537 66.2131 142.062 67.709 143.703 70.2186C148.151 77.0578 146.506 81.8502 146.631 82.9947C146.636 83.0394 146.634 83.0996 146.639 83.1443C147.812 95.0798 148.86 104.897 126.888 106.44Z" fill="#A369FF"/>
    <path d="M104.2 91.3845C107.047 91.7572 109.788 88.7554 110.322 84.6797C110.855 80.6041 108.979 76.9979 106.132 76.6251C103.284 76.2524 100.543 79.2542 100.01 83.3299C99.476 87.4055 101.352 91.0117 104.2 91.3845Z" fill="white"/>
    <path d="M103.475 90.3265C104.822 90.5028 106.187 88.5604 106.524 85.988C106.86 83.4157 106.041 81.1874 104.695 81.0111C103.348 80.8348 101.983 82.7772 101.646 85.3496C101.309 87.9219 102.128 90.1501 103.475 90.3265Z" fill="#2B1059"/>
    <path d="M134.603 95.3639C137.451 95.7367 140.192 92.7349 140.725 88.6592C141.259 84.5836 139.383 80.9774 136.535 80.6046C133.688 80.2319 130.947 83.2337 130.413 87.3093C129.88 91.385 131.756 94.9912 134.603 95.3639Z" fill="white"/>
    <path d="M126.477 91.3284C126.353 92.4843 125.514 94.1078 120.046 93.6287C118.887 93.5265 117.071 93.0246 116.531 92.6898C115.081 91.7847 114.382 90.9447 114.672 89.783C114.831 89.1545 115.541 88.4825 116.112 88.2821C117.548 87.7822 117.386 87.7609 117.968 87.1382C119.131 85.9038 119.88 85.7707 120.744 85.6911C123.708 85.4078 126.647 89.7382 126.477 91.3284Z" fill="#FF8E06"/>
    <g opacity="0.3">
        <g opacity="0.3">
            <g opacity="0.3">
                <g opacity="0.3">
                    <path opacity="0.3" d="M120.048 93.6224C118.888 93.5311 117.077 92.9913 116.542 92.6186C115.105 91.6161 114.419 90.6734 114.736 89.35C114.784 89.1473 114.878 88.9393 114.997 88.7404C115.22 89.4794 115.841 90.1111 116.784 90.7737C117.313 91.1457 119.13 91.6807 120.29 91.7775C124.395 92.1167 125.907 91.1536 126.47 90.0936C126.534 90.3992 126.56 90.6667 126.536 90.8892C126.391 92.2129 125.52 94.0745 120.048 93.6224Z" fill="#000072"/>
                </g>
            </g>
        </g>
    </g>
    <g opacity="0.35">
        <g opacity="0.35">
            <g opacity="0.35">
                <g opacity="0.35">
                    <path opacity="0.35" d="M125.549 92.9202L125.558 92.8553C125.727 91.2651 122.721 86.5296 119.835 87.2195C119.198 87.3728 118.773 88.0546 118.28 88.6283C117.727 89.2769 115.928 89.1954 115.346 90.0217C115.232 90.1828 114.811 89.9902 114.621 90.136C114.631 90.0217 114.652 89.9033 114.679 89.7803C114.838 89.1518 115.548 88.4798 116.118 88.2848C117.554 87.7849 117.392 87.7636 117.974 87.141C119.137 85.9065 119.887 85.7734 120.751 85.6884C123.704 85.4037 126.648 89.7348 126.473 91.3242C126.428 91.8411 126.227 92.4477 125.549 92.9202Z" fill="white"/>
                </g>
            </g>
        </g>
    </g>
    <path d="M124.933 86.8719C124.563 86.4988 124.183 86.1684 123.794 85.9028C122.76 85.1842 121.686 84.8564 120.677 84.9501C119.679 85.0505 118.741 85.2414 117.43 86.6327C117.329 86.735 117.251 86.8239 117.187 86.8979C116.928 87.1888 116.896 87.2231 115.87 87.5786C115.109 87.8476 114.18 88.6781 113.949 89.6053C113.864 89.9574 113.843 90.2849 113.881 90.5869C114.036 91.8399 115.129 92.6984 116.135 93.3309C116.786 93.7408 118.515 94.1928 119.668 94.3436C119.776 94.3578 119.88 94.3658 119.983 94.3739C120.223 94.3942 120.451 94.4132 120.67 94.4253C124.234 94.6443 126.318 93.9484 126.999 92.3152L127 92.3098C127.104 92.0647 127.178 91.7883 127.216 91.5016L127.227 91.415C127.362 90.09 126.177 88.1298 124.933 86.8719ZM115.398 89.9656C115.4 89.9548 115.4 89.9494 115.407 89.9393C115.428 89.865 115.467 89.7765 115.532 89.6971C115.679 89.4631 115.93 89.2209 116.174 89.0876C116.18 89.0775 116.186 89.0782 116.191 89.0789C116.246 89.042 116.31 89.0119 116.362 88.9912C116.391 88.984 116.409 88.9698 116.432 88.9619C116.438 88.9626 116.438 88.9572 116.444 88.9579C117.654 88.5385 117.861 88.3895 118.306 87.8919C118.364 87.8225 118.435 87.7437 118.518 87.6556C119.502 86.6122 120.081 86.5175 120.729 86.4481C120.74 86.4495 120.751 86.451 120.757 86.4463C120.784 86.4444 120.801 86.4411 120.829 86.4392C121.002 86.4233 121.172 86.429 121.345 86.4517C121.626 86.4885 121.907 86.5694 122.166 86.6913C122.177 86.6927 122.193 86.7003 122.203 86.7071C122.769 86.9628 123.268 87.3529 123.631 87.692C123.719 87.7751 123.797 87.8514 123.871 87.9215C124.488 88.5471 124.968 89.2483 125.291 89.8519C125.521 90.2837 125.662 90.6763 125.713 90.9582C125.737 91.0714 125.74 91.1709 125.73 91.2466C125.7 91.5232 125.601 91.7744 125.436 91.9786C124.896 92.6617 123.648 92.9881 121.703 92.9646L121.697 92.9639C121.214 92.9557 120.689 92.931 120.113 92.8776C119.004 92.7764 117.317 92.2915 116.93 92.0537C115.292 91.0303 115.278 90.4617 115.398 89.9656Z" fill="#2B1059"/>
    <path d="M133.22 93.6767C134.583 93.8551 135.964 91.8892 136.305 89.2856C136.646 86.6821 135.817 84.4268 134.454 84.2484C133.091 84.07 131.71 86.0359 131.369 88.6394C131.028 91.243 131.857 93.4982 133.22 93.6767Z" fill="#2B1059"/>
    <path d="M135.762 90.5863C136.79 90.7209 137.832 89.2382 138.089 87.2746C138.346 85.3111 137.721 83.6102 136.693 83.4756C135.665 83.341 134.623 84.8237 134.366 86.7873C134.109 88.7508 134.734 90.4517 135.762 90.5863Z" fill="white"/>
    <path d="M105.86 87.264C106.888 87.3986 107.93 85.9159 108.187 83.9524C108.444 81.9888 107.819 80.2879 106.791 80.1533C105.763 80.0188 104.721 81.5014 104.464 83.465C104.207 85.4286 104.832 87.1295 105.86 87.264Z" fill="white"/>
    <path d="M133.391 165.988C132.829 165.877 132.149 165.798 131.387 165.742C131.263 165.467 131.247 165.214 131.367 164.999C132.22 163.498 128.329 155.638 128.329 155.638L129.547 155.834C130.2 156.697 137.743 166.849 133.391 165.988Z" fill="#FFAB57"/>
    <path d="M112.787 153.812C113.397 157.592 111.219 165.149 111.219 165.149C111.219 165.149 110.296 164.666 108.873 163.962C109.526 162.178 110.691 156.79 111.39 153.424L111.396 153.392C112.293 153.636 113.62 153.988 114.97 154.305L115.012 154.346C114.259 154.186 113.516 154.006 112.787 153.812Z" fill="#FFAB57"/>
    <path d="M114.488 130.191C111.727 131.813 111.334 135.669 113.736 137.793C120.766 144.018 131.26 145.336 139.796 140.321C148.333 135.307 152.292 125.494 150.278 116.328C149.591 113.201 146.033 111.662 143.272 113.284L114.488 130.191Z" fill="#9241FE"/>
    <rect x="1" y="145" width="261" height="21" fill="white"/>
    <path d="M86.0868 145.086H159.92V142.802H86.0868V145.086Z" fill="#808080"/>
    <path d="M32.1895 94.7754H106.347L121.372 145.086H47.2152L32.1895 94.7754Z" fill="#808080"/>
    <path d="M1 145.086H263" stroke="#808080" stroke-width="0.580622" stroke-linecap="round" stroke-linejoin="round"/>
    <path d="M58.8637 118.046C58.0734 117.552 57.2327 117.303 56.3415 117.299C55.4699 117.295 54.9029 117.534 54.6404 118.015C54.358 118.563 54.4856 119.308 55.0235 120.249C55.4159 120.936 55.9804 121.522 56.7168 122.007C57.6044 122.603 58.5085 122.903 59.429 122.907C59.5637 122.908 59.691 122.904 59.8123 122.898C59.9715 122.89 60.1788 123.022 60.2159 123.16C60.3487 123.662 60.1573 123.938 59.6379 123.986C59.5742 123.994 59.4983 123.998 59.4102 123.998C59.0111 123.996 58.5166 123.99 57.9835 123.869C57.8014 123.828 57.6955 123.925 57.7779 124.069L58.34 125.048C58.3836 125.125 58.4749 125.199 58.5739 125.235C59.3067 125.509 59.9853 125.65 60.6047 125.652L60.7222 125.653C61.5499 125.631 62.1095 125.397 62.4012 124.95C62.772 124.368 62.64 123.522 62.0053 122.411L60.4645 119.715C60.0745 119.037 59.5417 118.48 58.8637 118.046ZM59.1146 121.075C59.1582 121.151 59.1553 121.223 59.1 121.259C59.0115 121.317 58.8681 121.344 58.6673 121.343C58.0503 121.341 57.5238 120.958 57.0878 120.195C56.642 119.415 56.7227 119.026 57.3299 119.029C57.7412 119.03 58.0656 119.239 58.303 119.655L59.1146 121.075Z" fill="#8E8E8E"/>
    <path d="M68.2102 121.514C68.0756 121.513 67.9109 121.417 67.8443 121.301L66.9552 119.745C66.5627 119.058 66.025 118.502 65.3421 118.076C64.542 117.582 63.6719 117.333 62.7317 117.328C61.8406 117.325 61.2662 117.567 61.0086 118.057C60.7115 118.597 60.8343 119.341 61.3769 120.291C61.7694 120.978 62.3411 121.576 63.0921 122.087C63.9943 122.692 64.9666 123.051 66.0089 123.166C66.1777 123.183 66.3306 123.199 66.4714 123.21C66.6732 123.226 66.8851 123.421 66.8402 123.552C66.7816 123.732 66.5958 123.885 66.2865 124.015C66.2632 124.025 66.2313 124.029 66.1995 124.029C65.7405 124.021 65.2396 124.05 64.6284 123.912C64.4462 123.871 64.3403 123.968 64.4227 124.112L65.009 125.138C65.055 125.219 65.1525 125.295 65.2587 125.332C65.9404 125.563 66.5518 125.68 67.0929 125.682C67.8861 125.686 68.4675 125.498 68.8371 125.119C69.2534 124.702 69.3216 124.155 69.0478 123.479C69.0044 123.374 69.0576 123.291 69.1824 123.292L70.4678 123.298C70.6024 123.298 70.6581 123.203 70.5915 123.087L69.8163 121.73C69.7496 121.613 69.585 121.518 69.4503 121.517L68.209 121.512L68.2102 121.514ZM65.6949 121.257C65.7663 121.382 65.6972 121.479 65.5491 121.468C64.5751 121.4 63.8724 120.991 63.4412 120.237C62.9906 119.448 63.0836 119.055 63.7202 119.058C64.2 119.06 64.5708 119.29 64.8324 119.748L65.6949 121.257Z" fill="#8E8E8E"/>
    <path d="M69.0259 121.727L69.8011 123.083C69.8678 123.2 70.0324 123.296 70.1671 123.296L72.16 123.305C72.2947 123.306 72.3503 123.211 72.2837 123.094L71.5085 121.738C71.4419 121.621 71.2772 121.525 71.1425 121.525L69.1496 121.516C69.015 121.515 68.9593 121.61 69.0259 121.727Z" fill="#8E8E8E"/>
    <path d="M70.73 121.734L71.5052 123.091C71.5719 123.207 71.7365 123.303 71.8712 123.304L73.8641 123.312C73.9988 123.313 74.0544 123.218 73.9878 123.102L73.2126 121.745C73.146 121.628 72.9813 121.532 72.8466 121.532L70.8537 121.523C70.7191 121.522 70.6634 121.617 70.73 121.734Z" fill="#8E8E8E"/>
    <path d="M72.4341 121.742L73.2093 123.099C73.276 123.215 73.4406 123.311 73.5753 123.312L75.5682 123.321C75.7029 123.321 75.7585 123.226 75.6919 123.11L74.9167 121.753C74.8501 121.637 74.6854 121.541 74.5507 121.54L72.5578 121.531C72.4232 121.531 72.3675 121.626 72.4341 121.742Z" fill="#8E8E8E"/>
    <path d="M74.3127 117.636C74.1793 117.637 74.1273 117.73 74.1939 117.847L75.8873 120.81C76.0423 121.081 76.0877 121.272 76.0234 121.381C75.959 121.491 75.7702 121.545 75.4568 121.544L74.262 121.539C74.1274 121.538 74.0717 121.633 74.1383 121.749L74.9135 123.106C74.9802 123.223 75.1449 123.318 75.2795 123.319L76.6799 123.325C77.4634 123.329 77.9934 123.137 78.27 122.749C78.5812 122.302 78.5115 121.684 78.0609 120.896L76.3094 117.831C76.2416 117.712 76.0744 117.616 75.9385 117.618L74.3127 117.636Z" fill="#8E8E8E"/>
    <path d="M85.5889 121.59C85.2756 121.589 85.0237 121.533 84.8334 121.422C84.6431 121.311 84.4704 121.12 84.3154 120.849L82.6648 117.892C82.5994 117.773 82.4323 117.677 82.2977 117.677C80.7259 117.666 79.7174 117.619 79.5534 117.618C78.8483 117.615 78.3573 117.833 78.0804 118.271C77.7295 118.802 77.7963 119.492 78.2808 120.34C78.6636 121.01 79.2256 121.591 79.9669 122.085C80.8545 122.681 81.7586 122.981 82.6791 122.985C83.1712 122.987 83.5525 122.907 83.8179 122.743C83.8904 122.699 84.0115 122.71 84.1298 122.776C84.8473 123.168 85.6063 123.368 86.4044 123.372L87.8048 123.378C87.9395 123.379 87.9952 123.284 87.9285 123.167L87.1533 121.81C87.0867 121.694 86.922 121.598 86.7874 121.597L85.5901 121.592L85.5889 121.59ZM81.9174 121.422C81.3004 121.419 80.7957 121.074 80.4033 120.387C80.224 120.074 80.1619 119.824 80.2169 119.638C80.2718 119.452 80.4365 119.36 80.7107 119.361C80.8845 119.362 81.0594 119.39 81.2378 119.446C81.3477 119.48 81.4538 119.559 81.5022 119.644L82.229 120.915C82.275 120.996 82.3174 121.066 82.3526 121.123C82.3987 121.195 82.3995 121.265 82.3551 121.307C82.2702 121.385 82.1255 121.422 81.9174 121.422Z" fill="#8E8E8E"/>
    <path d="M86.3565 121.804L87.1317 123.161C87.1983 123.277 87.363 123.373 87.4977 123.374L89.4906 123.383C89.6252 123.383 89.6809 123.288 89.6143 123.172L88.8391 121.815C88.7724 121.699 88.6078 121.603 88.4731 121.602L86.4802 121.593C86.3455 121.593 86.2899 121.688 86.3565 121.804Z" fill="#8E8E8E"/>
    <path d="M88.0591 121.812L88.8343 123.168C88.901 123.285 89.0656 123.381 89.2003 123.381L91.1932 123.39C91.3279 123.391 91.3835 123.296 91.3169 123.179L90.5417 121.823C90.4751 121.706 90.3104 121.61 90.1757 121.61L88.1828 121.601C88.0482 121.6 87.9925 121.695 88.0591 121.812Z" fill="#8E8E8E"/>
    <path d="M89.7632 121.819L90.5384 123.175C90.6051 123.292 90.7697 123.388 90.9044 123.389L92.8973 123.397C93.032 123.398 93.0876 123.303 93.021 123.186L92.2458 121.83C92.1792 121.713 92.0145 121.617 91.8798 121.617L89.8869 121.608C89.7523 121.607 89.6966 121.702 89.7632 121.819Z" fill="#8E8E8E"/>
    <path d="M79.1281 126.585C78.8353 126.414 78.5273 126.328 78.2042 126.327C77.8712 126.325 77.6528 126.409 77.5489 126.578C77.4451 126.746 77.4755 126.975 77.6402 127.263C77.805 127.551 78.0374 127.783 78.3375 127.957C78.6376 128.132 78.9541 128.22 79.2871 128.222C79.6102 128.223 79.8201 128.137 79.9166 127.964C80.0132 127.791 79.9791 127.561 79.8143 127.273C79.6496 126.984 79.4208 126.755 79.1281 126.585ZM76.8138 124.671C76.521 124.501 76.213 124.415 75.8899 124.414C75.5569 124.412 75.3385 124.496 75.2346 124.664C75.1308 124.833 75.1612 125.062 75.3259 125.35C75.4907 125.638 75.7231 125.87 76.0232 126.044C76.3233 126.219 76.6398 126.307 76.9727 126.309C77.2959 126.31 77.5058 126.224 77.6023 126.051C77.6989 125.878 77.6648 125.648 77.5 125.36C77.3353 125.071 77.1065 124.842 76.8138 124.671ZM79.2621 124.682C78.9693 124.512 78.6613 124.426 78.3382 124.424C78.0052 124.423 77.7868 124.507 77.6829 124.675C77.5791 124.844 77.6095 125.072 77.7742 125.361C77.939 125.649 78.1714 125.88 78.4715 126.055C78.7716 126.23 79.0881 126.318 79.421 126.319C79.7442 126.321 79.9541 126.235 80.0506 126.062C80.1472 125.889 80.1131 125.659 79.9483 125.37C79.7836 125.082 79.5548 124.853 79.2621 124.682ZM96.511 126.662C96.2182 126.491 95.9103 126.405 95.5871 126.404C95.2541 126.402 95.0357 126.486 94.9319 126.655C94.828 126.823 94.8584 127.052 95.0232 127.34C95.1879 127.628 95.4203 127.86 95.7204 128.034C96.0205 128.209 96.337 128.297 96.67 128.299C96.9932 128.3 97.203 128.214 97.2996 128.041C97.3961 127.869 97.362 127.638 97.1973 127.35C97.0325 127.061 96.8038 126.832 96.511 126.662ZM94.1967 124.748C93.9039 124.578 93.596 124.492 93.2728 124.491C92.9398 124.489 92.7214 124.573 92.6175 124.741C92.5137 124.91 92.5441 125.139 92.7089 125.427C92.8736 125.715 93.106 125.947 93.4061 126.121C93.7062 126.296 94.0227 126.384 94.3557 126.386C94.6789 126.387 94.8887 126.301 94.9852 126.128C95.0818 125.955 95.0477 125.725 94.883 125.437C94.7182 125.148 94.4895 124.919 94.1967 124.748ZM96.645 124.759C96.3522 124.589 96.0443 124.503 95.7211 124.501C95.3881 124.5 95.1697 124.584 95.0658 124.752C94.962 124.921 94.9924 125.149 95.1572 125.438C95.3219 125.726 95.5543 125.957 95.8544 126.132C96.1545 126.307 96.471 126.395 96.804 126.396C97.1272 126.398 97.337 126.312 97.4335 126.139C97.5301 125.966 97.496 125.736 97.3313 125.447C97.1665 125.159 96.9378 124.93 96.645 124.759ZM91.5977 117.713C91.4643 117.715 91.411 117.81 91.4801 117.926L93.2164 120.888C93.3714 121.159 93.4168 121.349 93.3524 121.459C93.2881 121.569 93.0993 121.623 92.7859 121.622L91.5911 121.616C91.4564 121.616 91.4008 121.711 91.4674 121.827L92.2426 123.184C92.3092 123.3 92.4739 123.396 92.6086 123.397L94.009 123.403C94.7925 123.406 95.3225 123.214 95.5991 122.826C95.9103 122.38 95.8406 121.762 95.39 120.973L93.6385 117.908C93.5706 117.79 93.4035 117.694 93.2676 117.695L91.5977 117.713Z" fill="#8E8E8E"/>
</svg>
