<svg width="246" height="232" viewBox="0 0 246 232" fill="none" xmlns="http://www.w3.org/2000/svg">
    <g clip-path="url(#clip0_466_2620)">
        <path d="M103.777 88.7526C106.167 84.8489 111.686 84.3873 114.659 87.8752C123.372 98.0836 124.982 113.113 117.594 125.181C110.207 137.25 96.0818 142.653 83.0352 139.536C78.5845 138.473 76.4774 133.349 78.8671 129.445L103.777 88.7526Z" fill="#9241FE"/>
        <path d="M168.898 161.327C168.08 161.318 167.104 161.385 166.019 161.506C158.343 162.368 145.295 166.043 145.295 166.043C145.295 166.043 144.455 154.85 146.405 149.731C146.702 148.939 147.067 148.296 147.516 147.856C150.409 145.032 158.193 147.197 160.253 147.836C160.579 147.933 160.758 147.997 160.758 147.997C160.758 147.997 160.781 148.021 160.835 148.068C161.978 149.11 175.238 161.394 168.898 161.327Z" fill="#FF8E06"/>
        <path d="M137.527 165.961C137.527 165.961 136.104 165.524 133.919 164.908C128.593 163.401 118.731 160.792 114.029 160.742C107.408 160.672 122.452 147.589 122.452 147.589C122.452 147.589 122.773 147.483 123.313 147.341C125.55 146.725 131.578 145.315 134.734 147.018C135.098 147.217 135.416 147.446 135.693 147.73C136.125 148.179 136.477 148.823 136.757 149.621C138.605 154.773 137.527 165.961 137.527 165.961Z" fill="#FF8E06"/>
        <path d="M184.721 126.858L184.718 127.186C184.703 128.628 184.469 130.022 184.026 131.367C183.986 131.499 183.945 131.631 183.897 131.763C183.873 131.833 183.849 131.895 183.825 131.957C182.91 134.412 181.318 136.672 179.159 138.708C179.144 138.716 179.128 138.731 179.112 138.747C174.779 142.811 168.187 145.954 160.258 147.835C159.867 147.932 159.476 148.021 159.078 148.111C155.13 148.973 150.874 149.528 146.41 149.73C145.193 149.788 143.96 149.821 142.72 149.824C142.307 149.827 141.894 149.823 141.473 149.818C140.989 149.813 140.506 149.8 140.03 149.787C138.931 149.76 137.839 149.701 136.764 149.62C136.07 149.573 135.385 149.512 134.699 149.442C130.687 149.04 126.865 148.321 123.319 147.34C115.17 145.085 108.431 141.425 104.088 136.933C103.587 136.421 103.116 135.917 102.669 135.413C101.421 134.012 100.39 132.644 99.6572 131.193C98.832 129.585 98.3821 127.888 98.403 125.931C98.4976 117.056 99.9041 108.757 102.339 101.32C103.233 98.6151 104.259 96.0211 105.408 93.5611C106.645 90.9226 108.021 88.4337 109.52 86.1099C110.051 85.2967 110.598 84.507 111.16 83.7331L111.168 83.7254C113.036 81.1326 115.081 78.7912 117.271 76.7244C118.484 75.5597 119.744 74.489 121.049 73.5047C127.394 68.7212 134.675 66.0691 142.364 66.1511L142.419 66.1516C143.003 66.1579 143.588 66.1797 144.165 66.2326C144.227 66.2255 144.29 66.234 144.352 66.2424C152.69 66.846 160.37 70.7338 166.738 76.963C169.571 79.7306 172.141 82.9557 174.396 86.5595C174.588 86.8657 174.772 87.1718 174.955 87.4779C175.821 88.9144 176.632 90.4127 177.396 91.9572C177.472 92.1062 177.541 92.2551 177.617 92.4041C178.189 93.5879 178.73 94.8259 179.239 96.1026C182.801 105.055 184.797 116.128 184.721 126.858Z" fill="#9241FE"/>
        <g opacity="0.3">
            <g opacity="0.3">
                <g opacity="0.3">
                    <g opacity="0.3">
                        <path opacity="0.3" d="M191.713 124.508C191.706 124.399 191.7 124.282 191.693 124.172C191.693 124.165 191.693 124.165 191.693 124.157C191.708 124.274 191.714 124.383 191.713 124.508Z" fill="#000072"/>
                    </g>
                </g>
            </g>
        </g>
        <path d="M168.71 120.388L168.71 120.427C168.589 124.396 166.781 127.972 163.731 130.989L163.699 131.019C158.891 135.749 150.979 139.081 141.614 140.369C138.575 140.781 135.391 140.981 132.1 140.946C131.773 140.943 131.453 140.94 131.126 140.928C128.475 140.861 125.904 140.615 123.436 140.215C107.888 137.709 98.7104 119.915 104.798 104.171C104.822 104.109 104.854 104.047 104.87 103.993C106.914 98.7422 110.296 94.6759 114.405 92.536L116.884 91.2521C118.28 90.5261 119.923 90.0289 121.641 89.782C124.75 89.316 128.108 89.6403 130.678 90.7518L135.382 92.7907C135.39 92.7908 135.39 92.7986 135.406 92.7987L136.749 93.3824C138.487 94.1418 140.301 94.5355 142.102 94.5781C142.57 94.5831 143.038 94.5647 143.506 94.5307C145.333 94.3786 147.132 93.8284 148.842 92.9419L148.865 92.9344L153.612 90.9962C156.213 89.9398 159.569 89.687 162.668 90.2192C166.571 98.637 168.785 109.696 168.71 120.388Z" fill="#A369FF"/>
        <path d="M159.796 140.609C157.32 140.957 154.736 141.14 152.092 141.158C151.765 141.163 151.445 141.159 151.117 141.156C147.834 141.121 144.647 140.853 141.619 140.376C132.283 138.888 124.444 135.381 119.738 130.558L119.707 130.526C116.713 127.453 114.989 123.831 114.954 119.861L114.954 119.822C115.107 109.131 117.556 98.1214 121.646 89.7887C124.755 89.3227 128.113 89.6471 130.683 90.7585L135.387 92.7974C135.395 92.7975 135.395 92.8053 135.41 92.8055C137.093 93.7281 138.881 94.3165 140.711 94.5076C141.179 94.5515 141.646 94.5799 142.114 94.5849C143.924 94.5808 145.737 94.2257 147.492 93.5035L148.847 92.9486L148.87 92.9411L153.617 91.0029C156.218 89.9465 159.574 89.6937 162.672 90.2259C164.385 90.5093 166.01 91.0414 167.398 91.7971L169.848 93.1334C173.911 95.3605 177.205 99.4901 179.137 104.791C179.16 104.853 179.19 104.916 179.205 104.971C184.948 120.841 175.394 138.427 159.796 140.609Z" fill="#A369FF"/>
        <path d="M165.826 16.5052C166.109 16.321 175.982 5.39831 177.965 3.04071C180.927 -0.476321 185.2 1.77636 183.21 11.4728C183.21 11.4728 187.745 6.71691 189.482 9.83947C192.061 14.484 185.123 14.8624 190.477 37.2483L165.826 16.5052Z" fill="#9241FE"/>
        <path d="M190.482 35.9207L190.126 35.6206C189.824 33.9562 189.598 32.4485 189.441 31.0742C189.722 32.5668 190.063 34.1771 190.482 35.9207Z" fill="#7F7F7F"/>
        <path d="M92.672 36.1964C98.5012 13.9297 92.5248 13.4137 95.202 8.82511C97.0052 5.74028 101.438 10.5918 101.438 10.5918C99.6544 0.855074 103.817 -1.15953 106.861 2.28111C112.202 8.31214 120.341 12.9691 120.62 13.1593C120.62 13.1593 137.613 10.3689 139.726 10.3446C141.388 10.3311 179.86 6.02263 190.164 34.412L190.895 36.8219C194.593 49.1995 196.482 59.2337 196.252 65.5095C196.264 65.806 196.269 66.0946 196.266 66.391C196.235 69.2529 195.571 72.3265 194.023 75.57C189.022 85.289 165.925 89.2934 152.005 89.1451L134.264 88.956C127.308 88.8819 88.2856 88.4661 87.5056 65.7858C87.2916 59.5208 89.352 48.4134 92.3153 37.4639L92.672 36.1964Z" fill="#9241FE"/>
        <path d="M196.257 66.0315C196.25 66.6944 196.212 67.3647 196.127 68.0423C196.053 61.7944 194.203 52.447 190.814 41.1178L190.09 38.7313C185.629 14.569 151.076 14.115 140.242 14.9432C138.158 15.1004 121.362 17.7213 121.362 17.7213C121.084 17.539 113.037 12.9297 107.758 6.97737C104.745 3.57605 101.693 4.55741 103.447 14.1768C103.447 14.1768 97.0956 10.0224 96.2324 13.4448C94.889 18.7573 92.5165 13.0464 95.1936 8.4657C96.9969 5.38087 101.43 10.2324 101.43 10.2324C99.646 0.495662 103.809 -1.52674 106.853 1.9139C112.201 7.94501 120.333 12.6019 120.619 12.7922C120.619 12.7922 137.612 9.99398 139.726 9.97751C141.387 9.96401 179.859 5.6555 190.156 34.0448L190.887 36.4547C194.584 48.8323 196.474 58.8665 196.243 65.1423C196.256 65.4388 196.26 65.7352 196.257 66.0315Z" fill="#A670FC"/>
        <g opacity="0.3">
            <g opacity="0.3">
                <g opacity="0.3">
                    <g opacity="0.3">
                        <path opacity="0.3" d="M148.809 55.2634C148.775 55.5516 148.733 55.8475 148.691 56.1512C147.098 66.5772 138.601 73.4669 129.794 74.4181C123.259 75.1206 110.224 72.3846 106.42 58.3057C105.047 53.2372 105.024 48.0194 106.474 45.2427C109.005 40.3953 116.351 39.0151 119.601 38.4882C119.937 38.4372 120.304 38.3865 120.687 38.3438C127.386 37.6431 140.323 39.2394 144.711 43.1935C144.711 43.1857 149.957 45.6515 148.809 55.2634Z" fill="#000072"/>
                    </g>
                </g>
            </g>
        </g>
        <path d="M155.69 79.8891C151.423 80.7015 146.715 81.1817 141.558 81.3217C136.406 81.0718 131.717 80.4915 127.476 79.5884C96.693 72.9977 100.146 59.3081 104.199 42.6612C104.223 42.5991 104.24 42.5135 104.256 42.4512C104.64 40.8565 103.288 33.7449 110.963 24.9591C113.773 21.7368 119.076 20.3271 124.053 20.9885C126.859 21.8529 129.606 23.1456 132.14 24.6934C132.519 25.025 132.897 25.3878 133.275 25.7662C135.683 28.1862 138.891 29.359 142.121 29.2687C145.348 29.4201 148.581 28.3158 151.055 25.9557C151.441 25.5932 151.827 25.2386 152.213 24.9073C154.779 23.4138 157.553 22.1722 160.377 21.3755C165.366 20.8204 170.622 22.3426 173.379 25.6242C180.857 34.5715 179.339 41.6525 179.712 43.2553C179.727 43.3178 179.733 43.4037 179.748 43.4662C183.446 60.2035 186.607 73.9558 155.69 79.8891Z" fill="#A369FF"/>
        <path d="M182.565 140.804L182.523 140.829C182.523 140.829 182.523 140.82 182.523 140.795L182.565 140.804Z" fill="#EF8B01"/>
        <path d="M183.496 137.563L183.463 137.587C183.463 137.587 183.463 137.579 183.463 137.554L183.496 137.563Z" fill="#EF8B01"/>
        <path d="M120.937 62.3903C125.042 62.4341 128.42 57.7073 128.483 51.8328C128.545 45.9582 125.269 41.1605 121.164 41.1168C117.06 41.0731 113.682 45.7998 113.619 51.6744C113.556 57.5489 116.833 62.3466 120.937 62.3903Z" fill="#F5F5F5"/>
        <path d="M121.189 59.8248C123.085 59.845 124.653 56.9265 124.691 53.3061C124.73 49.6858 123.224 46.7345 121.329 46.7143C119.433 46.6941 117.865 49.6126 117.827 53.233C117.788 56.8534 119.293 59.8046 121.189 59.8248Z" fill="#4B4B4B"/>
        <path d="M164.752 62.8566C168.856 62.9004 172.234 58.1736 172.297 52.2991C172.36 46.4245 169.083 41.6268 164.979 41.5831C160.874 41.5394 157.496 46.2662 157.434 52.1407C157.371 58.0152 160.647 62.8129 164.752 62.8566Z" fill="#F5F5F5"/>
        <path d="M152.532 58.5072C152.554 60.1687 151.639 62.6156 143.798 62.8674C142.136 62.9199 139.473 62.5172 138.65 62.1341C136.439 61.0966 135.304 60.0238 135.517 58.3259C135.636 57.4069 136.528 56.3323 137.305 55.9506C139.257 54.9966 139.023 54.9941 139.743 54.0112C141.183 52.0612 142.224 51.7447 143.436 51.4847C147.594 50.5775 152.502 56.2218 152.532 58.5072Z" fill="#FF8E06"/>
        <g opacity="0.3">
            <g opacity="0.3">
                <g opacity="0.3">
                    <g opacity="0.3">
                        <path opacity="0.3" d="M143.799 62.8627C142.137 62.9308 139.475 62.4735 138.653 62.0358C136.443 60.858 135.309 59.637 135.532 57.7052C135.567 57.4092 135.664 57.0983 135.8 56.7956C136.241 57.8064 137.231 58.5968 138.681 59.3766C139.495 59.8142 142.166 60.2638 143.828 60.2035C149.71 59.9855 151.693 58.361 152.311 56.7609C152.454 57.1836 152.536 57.5588 152.54 57.8786C152.559 59.7818 151.64 62.5719 143.799 62.8627Z" fill="#000072"/>
                    </g>
                </g>
            </g>
        </g>
        <g opacity="0.35">
            <g opacity="0.35">
                <g opacity="0.35">
                    <g opacity="0.35">
                        <path opacity="0.35" d="M151.484 60.921L151.485 60.8274C151.455 58.5419 146.382 52.3344 142.404 53.805C141.527 54.131 141.04 55.1709 140.438 56.0692C139.764 57.0837 137.196 57.2747 136.512 58.5465C136.377 58.7946 135.747 58.5929 135.503 58.8321C135.497 58.6682 135.506 58.4968 135.524 58.3176C135.643 57.3985 136.536 56.324 137.312 55.9501C139.264 54.996 139.03 54.9935 139.75 54.0107C141.19 52.0607 142.231 51.7442 143.443 51.4764C147.586 50.569 152.501 56.2133 152.524 58.4987C152.547 59.2399 152.366 60.1349 151.484 60.921Z" fill="#F5F5F5"/>
                    </g>
                </g>
            </g>
        </g>
        <path d="M149.594 52.4382C149.006 51.9718 148.41 51.5677 147.813 51.2571C146.223 50.4135 144.643 50.1315 143.228 50.4362C141.828 50.7488 140.529 51.1795 138.907 53.3772C138.78 53.5396 138.685 53.679 138.606 53.7951C138.289 54.2519 138.25 54.3061 136.854 54.9853C135.819 55.4968 134.643 56.8335 134.473 58.1888C134.412 58.7029 134.439 59.1711 134.543 59.5934C134.977 61.345 136.674 62.377 138.211 63.103C139.204 63.5738 141.735 63.9205 143.396 63.9382C143.552 63.9399 143.7 63.9337 143.848 63.9274C144.192 63.9155 144.519 63.9034 144.831 63.8833C149.927 63.5867 152.765 62.2443 153.454 59.8105L153.454 59.8027C153.559 59.4372 153.618 59.0323 153.623 58.619L153.624 58.4942C153.59 56.5909 151.574 54.0113 149.594 52.4382ZM136.591 58.4531C136.591 58.4375 136.591 58.4297 136.599 58.4142C136.616 58.3052 136.656 58.1731 136.736 58.0491C136.903 57.6921 137.219 57.3055 137.542 57.075C137.55 57.0595 137.557 57.0596 137.565 57.0597C137.636 56.998 137.722 56.9444 137.793 56.9061C137.832 56.8909 137.856 56.8678 137.887 56.8525C137.895 56.8526 137.895 56.8448 137.903 56.8449C139.549 56.0435 139.817 55.7968 140.364 55.0149C140.435 54.9065 140.522 54.7826 140.625 54.6433C141.843 52.9951 142.649 52.7619 143.556 52.5532C143.572 52.5534 143.587 52.5536 143.595 52.5458C143.634 52.5385 143.658 52.5309 143.697 52.5235C143.939 52.4715 144.181 52.4507 144.431 52.4534C144.836 52.4577 145.249 52.5245 145.637 52.6534C145.653 52.6536 145.676 52.6616 145.692 52.6696C146.539 52.936 147.314 53.4044 147.887 53.8238C148.026 53.9267 148.15 54.0216 148.266 54.1086C149.248 54.8912 150.049 55.8044 150.61 56.6059C151.01 57.1795 151.277 57.7127 151.398 58.104C151.45 58.2605 151.472 58.4011 151.471 58.5103C151.475 58.9081 151.377 59.2814 151.179 59.5991C150.528 60.6606 148.813 61.3364 146.049 61.6346L146.041 61.6345C145.354 61.7051 144.605 61.7595 143.778 61.7819C142.186 61.8274 139.71 61.4266 139.12 61.1552C136.622 59.9821 136.505 59.1775 136.591 58.4531Z" fill="#4B4B4B"/>
        <path d="M164.884 60.2859C166.707 60.3053 168.215 57.4981 168.252 54.0158C168.289 50.5335 166.841 47.6947 165.018 47.6753C163.195 47.6559 161.687 50.4631 161.65 53.9454C161.613 57.4277 163.06 60.2665 164.884 60.2859Z" fill="#4B4B4B"/>
        <path d="M168.898 161.326C168.079 161.317 167.104 161.385 166.018 161.506C165.772 161.153 165.683 160.801 165.795 160.466C166.6 158.135 159.072 148.111 159.072 148.111L160.835 148.068C161.978 149.109 175.238 161.394 168.898 161.326Z" fill="#FFAB57"/>
        <path d="M136.761 149.62C138.609 154.771 137.53 165.959 137.53 165.959C137.53 165.959 136.108 165.523 133.923 164.907C134.372 162.229 134.597 154.354 134.696 149.442L134.696 149.395C136.021 149.503 137.977 149.648 139.957 149.74L140.027 149.787C138.927 149.76 137.836 149.702 136.761 149.62Z" fill="#FFAB57"/>
    </g>
    <path d="M147.876 95.6018C152.14 91.383 157.51 91.0161 161.022 92.6859C162.624 93.5098 163.929 94.8149 164.752 96.418C170.526 106.693 156.43 132.059 157.002 155.094C157.538 165.967 158.238 175.238 167.5 184.5C182 199 184 202 219.5 204.5" stroke="black" stroke-width="2.57374" stroke-miterlimit="10"/>
    <path d="M150.873 97.6439C151.467 96.5729 150.57 94.9401 148.869 93.9969C147.168 93.0537 145.308 93.1573 144.714 94.2283C144.12 95.2993 145.017 96.9321 146.718 97.8753C148.419 98.8185 150.279 98.7149 150.873 97.6439Z" fill="#B3B3B3"/>
    <path fill-rule="evenodd" clip-rule="evenodd" d="M137.728 97.9415C142.737 89.6339 155.819 96.889 151.423 105.537L147.343 113.566L133.078 105.655L137.728 97.9415Z" fill="#4D4D4D"/>
    <path fill-rule="evenodd" clip-rule="evenodd" d="M148.986 110.335L147.345 113.564L133.08 105.653L134.95 102.551C138.199 101.453 148.197 107.001 148.986 110.335Z" fill="#B3B3B3"/>
    <path fill-rule="evenodd" clip-rule="evenodd" d="M133.077 105.652C132.701 106.486 135.543 108.892 139.413 111.039C143.283 113.185 146.83 114.322 147.339 113.562C147.858 112.788 145.036 110.348 141.029 108.123C137.022 105.899 133.459 104.802 133.077 105.652Z" fill="#CCCCCC"/>
    <path d="M142.479 111.399C142.318 111.69 142.423 112.055 142.713 112.216C143.003 112.377 143.369 112.273 143.53 111.982L143.996 111.142C144.157 110.852 144.052 110.486 143.762 110.325C143.471 110.164 143.106 110.269 142.945 110.559L142.479 111.399Z" fill="black"/>
    <path d="M136.442 108.051C136.281 108.341 136.385 108.707 136.676 108.868C136.966 109.029 137.332 108.924 137.493 108.634L137.959 107.794C138.12 107.504 138.015 107.138 137.725 106.977C137.434 106.816 137.069 106.921 136.908 107.211L136.442 108.051Z" fill="black"/>
    <path d="M171.217 88.0705C174.488 84.8688 179.953 85.7693 181.984 89.8777C187.939 101.905 185.83 116.872 175.718 126.771C165.606 136.669 150.59 138.459 138.7 132.249C134.643 130.131 133.852 124.648 137.123 121.446L171.217 88.0705Z" fill="#9241FE"/>
    <path d="M112.164 52.1118L129.118 47.3734L128.781 36.1899L112.336 36.0147L112.164 52.1118Z" fill="#A369FF"/>
    <path d="M173.254 52.7637L156.404 47.665L156.98 36.4913L173.425 36.6666L173.254 52.7637Z" fill="#A369FF"/>
    <path d="M119.637 115.438C118.978 116.558 118.032 117.738 116.738 118.142C116.185 118.315 115.66 118.235 115.112 118.109" stroke="black" stroke-width="1.07786" stroke-linecap="round"/>
    <path d="M119.914 115.75C120.261 117.185 120.575 118.648 121 120.059" stroke="black" stroke-width="1.07786" stroke-linecap="round"/>
    <path d="M120.889 115.38C121.753 116.267 122.971 116.7 124.053 117.259C125.002 117.749 125.956 118.323 126.953 118.708" stroke="black" stroke-width="1.07786" stroke-linecap="round"/>
    <path d="M120.006 114.76C118.422 108.975 113.954 105.974 110.078 105.665C108.278 105.577 106.496 106.056 104.981 107.033C94.8458 113.046 94.3765 142.063 82.3692 161.728C76.4706 170.878 67.254 183.028 58.5 189.5C48.5003 196.893 12.0005 206.5 2.00007 208.5" stroke="black" stroke-width="2.57374" stroke-miterlimit="10" stroke-linecap="round"/>
    <path d="M92.2597 182.465C91.7676 184.129 90.5194 185.226 89.4719 184.916C88.4244 184.606 87.9742 183.006 88.4663 181.343C88.9585 179.679 90.2066 178.582 91.2541 178.892C92.3017 179.202 92.7519 180.802 92.2597 182.465Z" fill="#B3B3B3"/>
    <path fill-rule="evenodd" clip-rule="evenodd" d="M94.0587 190.282C85.8555 187.528 89.641 174.733 98.0217 176.887L105.801 178.885L101.673 192.837L94.0587 190.282Z" fill="#4D4D4D"/>
    <path fill-rule="evenodd" clip-rule="evenodd" d="M102.67 178.081L105.799 178.885L101.671 192.836L98.6086 191.809C97.0262 189.194 99.9198 179.413 102.67 178.081Z" fill="#B3B3B3"/>
    <path fill-rule="evenodd" clip-rule="evenodd" d="M101.671 192.835C102.47 193.001 104.015 190.062 105.135 186.276C106.255 182.49 106.558 179.181 105.799 178.885C105.024 178.584 103.445 181.512 102.284 185.432C101.123 189.353 100.857 192.667 101.671 192.835Z" fill="#CCCCCC"/>
    <path d="M104.948 183.566C104.664 183.482 104.502 183.184 104.586 182.9C104.67 182.616 104.968 182.454 105.252 182.538L110.901 184.21C111.185 184.294 111.347 184.592 111.263 184.876C111.179 185.16 110.881 185.322 110.597 185.238L104.948 183.566Z" fill="#B3B3B3"/>
    <path d="M103.2 189.472C102.916 189.388 102.754 189.089 102.838 188.806C102.922 188.522 103.22 188.36 103.504 188.444L109.153 190.115C109.437 190.199 109.599 190.497 109.515 190.781C109.431 191.065 109.133 191.227 108.849 191.143L103.2 189.472Z" fill="#B3B3B3"/>
    <defs>
        <clipPath id="clip0_466_2620">
            <rect width="142.755" height="165.238" fill="white" transform="translate(70.6816) rotate(0.610506)"/>
        </clipPath>
    </defs>
</svg>
