<svg width="67" height="72" viewBox="0 0 67 72" fill="none" xmlns="http://www.w3.org/2000/svg">
<path d="M15.8711 52.8911C15.844 43.0079 16.0743 45.5173 16.0743 45.5173L51.7072 46.5177L51.7245 52.7928C51.7458 60.5881 43.1406 62.8734 38.1455 63.5432C35.8352 63.8531 33.5 63.7808 31.1966 63.4229C25.7715 62.5798 15.8908 60.0603 15.8711 52.8911Z" fill="#9241FE"/>
<path d="M50.8188 36.6477C49.3871 35.3953 47.1403 35.8961 46.3932 37.6481C44.202 42.7772 45.4254 48.9388 49.8515 52.8108C54.2776 56.6828 60.5503 57.0761 65.3394 54.2227C66.9733 53.2496 67.1742 50.9558 65.7425 49.7034L50.8188 36.6477Z" fill="#9241FE"/>
<path d="M17.6954 35.3609C19.1622 34.1498 21.3938 34.7146 22.0906 36.4872C24.1344 41.6769 22.7355 47.801 18.2006 51.545C13.6658 55.289 7.38438 55.503 2.67872 52.514C1.07331 51.4946 0.937977 49.1961 2.40482 47.985L17.6954 35.3609Z" fill="#9241FE"/>
<path d="M51.8692 48.5492L51.8682 48.6589C51.8634 49.1422 51.7681 49.609 51.5854 50.0592C51.5688 50.1034 51.5522 50.1477 51.5323 50.1919C51.5223 50.2153 51.5124 50.2361 51.5025 50.2569C51.1249 51.0789 50.466 51.8353 49.5712 52.5163C49.5647 52.5189 49.5582 52.524 49.5517 52.5292C47.7557 53.8885 45.0195 54.9382 41.7268 55.5643C41.5644 55.5967 41.4021 55.6265 41.2365 55.6562C39.5968 55.9432 37.8286 56.1271 35.9739 56.1925C35.4681 56.2111 34.9559 56.2217 34.4406 56.2219C34.2688 56.2228 34.097 56.2211 33.922 56.2194C33.721 56.2175 33.5201 56.2129 33.3225 56.2083C32.8656 56.1986 32.412 56.1785 31.965 56.1506C31.6766 56.1347 31.3916 56.1136 31.1066 56.09C29.4387 55.9534 27.8497 55.7105 26.3749 55.3799C22.9856 54.6204 20.181 53.391 18.3709 51.884C18.1619 51.7122 17.9659 51.543 17.7796 51.374C17.2591 50.9038 16.8293 50.445 16.5229 49.9586C16.1781 49.4196 15.9892 48.8508 15.9956 48.1951C16.0247 45.222 16.5997 42.4425 17.603 39.9519C17.9717 39.0462 18.395 38.1777 18.8698 37.3541C19.3809 36.4708 19.9498 35.6377 20.57 34.8599C20.7898 34.5878 21.0161 34.3235 21.2487 34.0645L21.252 34.0619C22.0254 33.1942 22.8726 32.4108 23.7804 31.7195C24.2834 31.3299 24.8055 30.9718 25.3467 30.6427C27.9781 29.0434 31.0011 28.1585 34.1966 28.1898L34.2193 28.1901C34.4624 28.1924 34.7054 28.2 34.9451 28.2181C34.971 28.2157 34.9969 28.2186 35.0228 28.2214C38.4889 28.4278 41.6849 29.7342 44.3385 31.8243C45.5189 32.7529 46.5909 33.8346 47.5319 35.0431C47.612 35.1458 47.6887 35.2485 47.7655 35.3511C48.1271 35.8328 48.4657 36.3351 48.7848 36.853C48.8167 36.9029 48.8454 36.9529 48.8773 37.0028C49.1165 37.3997 49.3426 37.8147 49.5555 38.2427C51.0463 41.2437 51.8883 44.9542 51.8692 48.5492Z" fill="#9241FE"/>
<g opacity="0.3">
<g opacity="0.3">
<g opacity="0.3">
<path opacity="0.3" d="M54.7309 52.4238C54.7281 52.3784 54.7254 52.3297 54.7226 52.2843C54.7226 52.2811 54.7226 52.2811 54.7227 52.2778C54.7287 52.3265 54.7315 52.3719 54.7309 52.4238Z" fill="#000072"/>
</g>
</g>
</g>
<path d="M45.169 50.7192L45.1688 50.7354C45.1203 52.3847 44.3699 53.8715 43.1033 55.1264L43.0902 55.1393C41.0938 57.1066 37.8065 58.494 33.915 59.0328C32.6525 59.2052 31.3293 59.2895 29.9616 59.2761C29.8255 59.2747 29.6926 59.2734 29.5565 59.2689C28.4548 59.2419 27.3862 59.1406 26.3603 58.975C19.8977 57.9393 16.0775 50.5476 18.6017 44.0023C18.6117 43.9765 18.6249 43.9507 18.6316 43.9281C19.4795 41.7453 20.8833 40.0542 22.5904 39.1634L23.6199 38.6289C24.1998 38.3267 24.8825 38.1195 25.5966 38.0163C26.8885 37.8215 28.2841 37.9551 29.3525 38.4161L31.3083 39.2617C31.3116 39.2618 31.3116 39.265 31.318 39.2651L31.8764 39.5072C32.5993 39.8222 33.353 39.9851 34.1015 40.0022C34.296 40.0041 34.4905 39.9963 34.6851 39.982C35.4442 39.9181 36.1919 39.6888 36.9021 39.3198L36.9119 39.3167L38.884 38.5095C39.9644 38.0695 41.3591 37.9633 42.647 38.1833C44.2722 41.6803 45.1963 46.2757 45.169 50.7192Z" fill="#A369FF"/>
<path d="M41.4656 59.1272C40.4367 59.2727 39.3631 59.3497 38.2642 59.3584C38.1281 59.3603 37.9952 59.359 37.8591 59.3577C36.4946 59.3443 35.1701 59.2341 33.9112 59.037C30.031 58.422 26.7716 56.9672 24.814 54.9644L24.8012 54.9513C23.5561 53.675 22.8383 52.1705 22.8221 50.5206L22.8223 50.5044C22.882 46.0613 23.896 41.4849 25.5927 38.0204C26.8846 37.8256 28.2802 37.9592 29.3486 38.4202L31.3045 39.2659C31.3077 39.2659 31.3077 39.2692 31.3142 39.2692C32.0137 39.6521 32.7568 39.896 33.5178 39.9747C33.712 39.9928 33.9064 40.0045 34.1009 40.0064C34.8528 40.004 35.6063 39.8558 36.3352 39.555L36.8982 39.324L36.908 39.3208L38.8801 38.5136C39.9605 38.0737 41.3553 37.9674 42.6431 38.1875C43.355 38.3047 44.0303 38.5252 44.6074 38.8388L45.6262 39.3933C47.3155 40.3174 48.686 42.0324 49.4909 44.2346C49.5004 44.2607 49.5131 44.2867 49.5193 44.3095C51.9116 50.9029 47.9472 58.2151 41.4656 59.1272Z" fill="#A369FF"/>
<path d="M43.9289 7.54736C44.0463 7.47072 48.1456 2.9278 48.9688 1.94729C50.1986 0.484581 51.9753 1.41926 51.1514 5.44975C51.1514 5.44975 53.0345 3.47161 53.7576 4.7687C54.831 6.69802 51.948 6.85776 54.1808 16.1593L43.9289 7.54736Z" fill="#9241FE"/>
<path d="M54.1884 15.6063L54.0406 15.4817C53.9144 14.7901 53.8201 14.1636 53.7544 13.5925C53.8715 14.2128 54.014 14.8818 54.1884 15.6063Z" fill="#7F7F7F"/>
<path d="M13.5305 15.7584C15.9452 6.50242 13.4612 6.29009 14.5722 4.38217C15.3206 3.09949 17.1645 5.11415 17.1645 5.11415C16.4198 1.06829 18.1491 0.229553 19.4154 1.65838C21.637 4.16292 25.0214 6.09544 25.1373 6.17436C25.1373 6.17436 32.1984 5.00864 33.0768 4.9978C33.7673 4.9916 49.7545 3.18731 54.047 14.982L54.3515 15.9833C55.8926 21.126 56.6815 25.2955 56.5879 27.9038C56.5931 28.027 56.5952 28.1469 56.594 28.2701C56.5824 29.4595 56.3073 30.7371 55.6653 32.0856C53.5902 36.1266 43.9928 37.799 38.2077 37.7423L30.8347 37.6701C27.9438 37.6417 11.7262 37.4828 11.394 28.0573C11.3028 25.4537 12.1551 20.8369 13.3828 16.2853L13.5305 15.7584Z" fill="#9241FE"/>
<path d="M56.5974 28.1203C56.5947 28.3957 56.579 28.6743 56.5438 28.956C56.5109 26.3594 55.7386 22.4754 54.3262 17.7682L54.0248 16.7767C52.1622 6.7366 37.8021 6.56024 33.2999 6.90832C32.4338 6.97438 25.4544 8.06959 25.4544 8.06959C25.3385 7.99391 21.9928 6.08122 19.7968 3.60934C18.5434 2.19685 17.2753 2.60578 18.0075 6.6029C18.0075 6.6029 15.3666 4.87862 15.0091 6.30126C14.4527 8.50956 13.4646 6.13703 14.5756 4.23235C15.3239 2.94968 17.1679 4.96434 17.1679 4.96434C16.4232 0.918478 18.1525 0.0764991 19.4188 1.50532C21.6436 4.0099 25.0248 5.94238 25.1439 6.02134C25.1439 6.02134 32.205 4.85238 33.0835 4.84478C33.7739 4.83858 49.7611 3.03429 54.0503 14.829L54.3549 15.8303C55.896 20.973 56.6849 25.1424 56.5913 27.7507C56.5965 27.8739 56.5986 27.9971 56.5974 28.1203Z" fill="#A670FC"/>
<g opacity="0.3">
<g opacity="0.3">
<g opacity="0.3">
<path opacity="0.3" d="M36.8707 23.6608C36.8565 23.7806 36.8391 23.9036 36.8217 24.0299C36.1634 28.3634 32.6348 31.2297 28.9748 31.6282C26.259 31.9225 20.841 30.79 19.2551 24.9403C18.6826 22.8344 18.6714 20.6659 19.2726 19.5114C20.3231 17.496 23.3755 16.9197 24.726 16.6996C24.8655 16.6783 25.0181 16.6571 25.1771 16.6392C27.9609 16.3456 33.3381 17.0044 35.1631 18.6461C35.1631 18.6429 37.3442 19.6658 36.8707 23.6608Z" fill="#000072"/>
</g>
</g>
</g>
<path d="M39.7415 33.892C37.9685 34.2312 36.012 34.4324 33.869 34.4925C31.7276 34.3904 29.7787 34.1509 28.0159 33.7771C15.2203 31.0491 16.6504 25.3585 18.3291 18.4387C18.339 18.4129 18.3459 18.3773 18.3526 18.3515C18.5114 17.6886 17.9472 14.7335 21.1335 11.0795C22.3005 9.73932 24.5038 9.15156 26.5723 9.42464C27.7389 9.78288 28.881 10.3192 29.9346 10.9615C30.0921 11.0992 30.2494 11.2498 30.4067 11.4069C31.4081 12.4118 32.742 12.8981 34.0842 12.8594C35.4255 12.9212 36.7686 12.4611 37.796 11.4793C37.9563 11.3286 38.1165 11.1811 38.2767 11.0433C39.3427 10.4217 40.4951 9.90463 41.6685 9.57256C43.7419 9.34006 45.9268 9.97082 47.0738 11.3336C50.1846 15.0494 49.5561 17.9928 49.7117 18.6587C49.7179 18.6847 49.7208 18.7204 49.727 18.7464C51.2698 25.701 52.5881 31.4152 39.7415 33.892Z" fill="#A369FF"/>
<path d="M50.9303 59.1993L50.9134 59.2092C50.9134 59.2092 50.9135 59.2058 50.9136 59.1958L50.9303 59.1993Z" fill="#EF8B01"/>
<path d="M51.3172 57.8528L51.3041 57.8624C51.3041 57.8624 51.3041 57.8592 51.3042 57.8494L51.3172 57.8528Z" fill="#EF8B01"/>
<path d="M51.9744 64.2152C51.6691 64.3653 51.3198 64.5732 50.9399 64.8215C48.2541 66.5795 44.1024 70.3875 44.1024 70.3875C44.1024 70.3875 41.6935 66.3929 41.4576 64.1287C41.4193 63.7791 41.4344 63.4719 41.5186 63.2246C42.0624 61.6352 45.3556 60.9799 46.2393 60.8306C46.3786 60.8055 46.457 60.7958 46.457 60.7958C46.457 60.7958 46.47 60.8003 46.4989 60.8077C47.1182 60.9799 54.3389 63.0522 51.9744 64.2152Z" fill="#FF8E06"/>
<path d="M51.9726 64.2145C51.6673 64.3647 51.318 64.5726 50.9381 64.8209C50.7806 64.7358 50.6814 64.6221 50.6606 64.477C50.5223 63.4614 45.8513 61.1536 45.8513 61.1536L46.4971 60.8071C47.1164 60.9793 54.3371 63.0516 51.9726 64.2145Z" fill="#FFAB57"/>
<path d="M16.729 64.2516C17.0313 64.4078 17.3764 64.6225 17.7514 64.8781C20.4023 66.6884 24.4786 70.5771 24.4786 70.5771C24.4786 70.5771 26.9653 66.6304 27.2455 64.3713C27.2906 64.0225 27.2816 63.7151 27.2022 63.4662C26.6896 61.8664 23.4099 61.1467 22.5293 60.9801C22.3905 60.9522 22.3124 60.9411 22.3124 60.9411C22.3124 60.9411 22.2993 60.9453 22.2702 60.9521C21.6477 61.1122 14.3877 63.0426 16.729 64.2516Z" fill="#FF8E06"/>
<path d="M16.7293 64.2515C17.0317 64.4076 17.3768 64.6223 17.7518 64.878C17.9109 64.796 18.0124 64.6842 18.036 64.5396C18.1941 63.527 22.9095 61.3111 22.9095 61.3111L22.2706 60.952C21.6481 61.112 14.3881 63.0425 16.7293 64.2515Z" fill="#FFAB57"/>
<path d="M25.5537 25.215C27.2595 25.2317 28.6617 23.2661 28.6856 20.8246C28.7095 18.3832 27.3461 16.3905 25.6403 16.3738C23.9346 16.3571 22.5324 18.3227 22.5084 20.7641C22.4845 23.2055 23.8479 25.1983 25.5537 25.215Z" fill="white"/>
<path d="M43.7637 25.3949C45.4695 25.4116 46.8717 23.446 46.8956 21.0046C46.9195 18.5631 45.5561 16.5704 43.8503 16.5537C42.1445 16.537 40.7423 18.5026 40.7184 20.944C40.6945 23.3855 42.0579 25.3782 43.7637 25.3949Z" fill="white"/>
<path fill-rule="evenodd" clip-rule="evenodd" d="M19.1373 9.83617L14.4014 11.3496L13.8179 14.3506L20.5348 12.8114C29.3355 10.3397 38.6469 10.3397 47.4475 12.8114L53.581 13.517L53.331 10.9328L48.845 9.83617C39.1304 7.10781 28.852 7.10781 19.1373 9.83617Z" fill="#36156F"/>
<mask id="mask0_1331_2543" style="mask-type:alpha" maskUnits="userSpaceOnUse" x="13" y="7" width="41" height="8">
<path fill-rule="evenodd" clip-rule="evenodd" d="M19.1378 9.83641L14.4019 11.3498L13.8184 14.3508L20.5353 12.8116C29.336 10.3399 38.6473 10.3399 47.448 12.8116L53.5815 13.5172L53.3314 10.933L48.8455 9.83641C39.1308 7.10805 28.8524 7.10805 19.1378 9.83641Z" fill="#36156F"/>
</mask>
<g mask="url(#mask0_1331_2543)">
<path fill-rule="evenodd" clip-rule="evenodd" d="M19.1378 8.5612L14.4019 10.0746L13.8184 13.0756L20.5353 11.5364C29.336 9.06473 44.2451 8.09871 47.448 11.5364L55.1654 14.0173L53.3314 9.65782L48.8455 8.5612C39.1308 5.83284 28.8524 5.83284 19.1378 8.5612Z" fill="#4A228E"/>
</g>
<path d="M45.7634 9.36656L47.3492 10.049C48.3134 10.4641 48.3837 11.8045 47.468 12.318C47.2222 13.326 45.9259 13.6126 45.278 12.8022L44.1857 11.4359L45.7634 9.36656Z" fill="#FFC074"/>
<path d="M45.7634 9.36656L44.8031 8.16535C44.1241 7.31604 42.7621 7.64956 42.5523 8.71649C41.6725 9.10626 41.6792 10.3571 42.563 10.7375L44.1857 11.4359L45.7634 9.36656Z" fill="#FFC074"/>
<rect x="44.7339" y="7.98145" width="3.55756" height="3.55756" rx="1.77878" transform="rotate(37.323 44.7339 7.98145)" fill="#FF8E06"/>
<path fill-rule="evenodd" clip-rule="evenodd" d="M24.8815 21.0035C25.6052 21.008 26.2011 20.3827 26.2126 19.6068C26.2159 19.379 26.1685 19.1635 26.0815 18.9727L26.0823 18.9727C27.073 18.9789 27.8599 20.0865 27.8399 21.4466C27.8199 22.8068 27.0006 23.9043 26.0099 23.8981C25.0192 23.8919 24.2323 22.7843 24.2523 21.4241C24.2552 21.2291 24.2745 21.0394 24.3084 20.8576C24.4807 20.9498 24.6751 21.0022 24.8815 21.0035Z" fill="#36156F"/>
<path fill-rule="evenodd" clip-rule="evenodd" d="M42.0402 21.0499C42.7639 21.0544 43.3598 20.4291 43.3712 19.6532C43.3746 19.4253 43.3271 19.2097 43.2401 19.0188L43.241 19.0188C44.2317 19.025 45.0186 20.1327 44.9986 21.4928C44.9786 22.8529 44.1593 23.9505 43.1686 23.9443C42.1779 23.9381 41.391 22.8304 41.411 21.4703C41.4139 21.2753 41.4332 21.0857 41.467 20.904C41.6394 20.9962 41.8338 21.0486 42.0402 21.0499Z" fill="#36156F"/>
<ellipse cx="43.7448" cy="28.3556" rx="2.00066" ry="1.00033" fill="#FF86F3" fill-opacity="0.41"/>
<ellipse cx="25.5724" cy="28.3556" rx="2.00066" ry="1.00033" fill="#FF86F3" fill-opacity="0.41"/>
<path d="M32.6092 25.8572C32.4694 25.858 32.3699 25.9911 32.4101 26.127C32.6242 26.9104 33.2654 27.5211 34.0315 27.7299C34.7761 27.9316 35.6587 27.8459 36.2485 27.3069C36.5925 26.9915 36.8246 26.5566 36.9456 26.1045C36.9807 25.9682 36.8796 25.8344 36.7434 25.8352L32.6092 25.859L32.6092 25.8572Z" fill="#D8872E"/>
<path d="M37.9724 25.9C38.1873 25.8988 38.3403 25.7044 38.2818 25.5095C38.0534 24.7227 37.2429 23.0256 34.5291 23.0412C32.2649 23.0542 31.5063 24.7604 31.2779 25.5481C31.22 25.7472 31.3769 25.9398 31.5919 25.9386L34.8482 26.5038L37.9796 25.9018L37.9724 25.9018L37.9724 25.9Z" fill="#F6AD1E"/>
<path d="M37.4832 25.6089C37.6124 25.6601 37.7376 25.6146 37.737 25.5196C37.7295 25.1381 37.52 24.2347 35.8701 23.5886C34.493 23.0519 33.7455 23.5811 33.4748 23.8567C33.4071 23.9252 33.4687 24.0448 33.5998 24.096C35.1526 23.4297 36.4488 23.9202 37.4814 25.6107L37.4832 25.6089Z" fill="#FFCA95"/>
<path d="M44.0789 24.2811C44.4475 24.4181 44.9039 24.1157 45.0982 23.6057C45.2926 23.0958 45.1513 22.5714 44.7827 22.4345C44.4141 22.2975 43.9577 22.5999 43.7634 23.1099C43.569 23.6198 43.7103 24.1442 44.0789 24.2811Z" fill="white"/>
<path d="M26.1996 23.9468C26.4545 24.2181 26.9686 24.1539 27.3481 23.8034C27.7275 23.453 27.8285 22.949 27.5737 22.6777C27.3189 22.4064 26.8047 22.4706 26.4253 22.8211C26.0458 23.1715 25.9448 23.6755 26.1996 23.9468Z" fill="white"/>
</svg>
