<svg width="3708" height="3017" viewBox="0 0 3708 3017" fill="none" xmlns="http://www.w3.org/2000/svg">
<path d="M757.468 1666.75C660.589 1543.8 703.928 1362.63 845.96 1296.83C2287.66 628.941 3978.49 1457.81 4333.58 3006.52L4410.07 3340.1H2075.99L757.468 1666.75Z" fill="#371178"/>
<g clip-path="url(#clip0_231_510)">
<path d="M2117.92 1262.08C2290.71 1127.6 2778.02 1181.1 2982.62 1297.51C3151.09 1393.66 3216.89 2280.07 3208.21 2446.35C3195.92 2685.67 1940.06 2693.63 1897.4 2481.07C1865.59 2315.49 1909.69 1424.03 2117.92 1262.08Z" fill="#D7C012"/>
<path d="M1893.05 2385.61C1898.83 2415.97 1927.75 2441.99 1972.58 2462.97C2199.6 2572.14 2843.8 2572.14 3095.4 2456.47C3156.86 2428.26 3195.17 2392.84 3197.34 2350.19C3204.58 2206.3 3159.75 1544.75 3044.79 1270.01C3021.66 1214.34 2996.34 1174.58 2967.43 1157.95C2759.21 1036.48 2264.67 981.533 2088.98 1120.35C2066.57 1137.7 2046.32 1164.45 2028.25 1196.99C1873.53 1476.79 1862.68 2231.6 1893.05 2385.61Z" fill="#FBE22A"/>
<path fill-rule="evenodd" clip-rule="evenodd" d="M1972.58 2462.97C1927.75 2442.01 1898.83 2415.97 1893.05 2385.61C1862.68 2231.6 1873.53 1476.79 2028.25 1196.99C2046.32 1164.45 2066.57 1137.7 2088.98 1120.35C2264.67 981.533 2759.21 1036.48 2967.44 1157.95C2996.35 1174.58 3021.65 1214.34 3044.8 1270.01C3065.15 1318.65 3083.29 1379.41 3099.36 1447.27C3076.88 1452.92 3055.64 1458.27 3036.07 1463.23C3077.04 1706.8 3142.79 2155.12 3153.74 2421.97C3137.94 2434.47 3118.28 2445.97 3095.4 2456.47C2843.81 2572.14 2199.6 2572.14 1972.58 2462.97Z" fill="#ECD316"/>
<path d="M2100.87 3018.56C2100.87 3018.56 2074.8 3010.59 2034.73 2999.31C1937.07 2971.71 1756.21 2923.79 1669.71 2921.76C1547.93 2918.93 1827.44 2694.31 1827.44 2694.31C1827.44 2694.31 1833.37 2692.54 1843.33 2690.19C1884.61 2679.98 1995.8 2656.85 2053.5 2687.34C2060.16 2690.9 2065.95 2694.98 2071 2700C2078.85 2707.94 2085.19 2719.25 2090.17 2733.26C2123.08 2823.6 2100.87 3018.56 2100.87 3018.56Z" fill="#FF8E06"/>
<path d="M2090.25 2733.26C2123.15 2823.6 2100.95 3018.56 2100.95 3018.56C2100.95 3018.56 2074.87 3010.61 2034.81 2999.31C2043.64 2952.69 2049.44 2815.34 2052.3 2729.64L2052.32 2728.83C2076.67 2731.04 2112.62 2734.05 2149.02 2736.13L2150.29 2736.98C2130.08 2736.22 2110.01 2734.94 2090.25 2733.26Z" fill="#FFAB57"/>
<path d="M2644.2 2968.6C2629.11 2967.51 2611.05 2967.57 2590.91 2968.42C2448.49 2974.56 2204 3023.5 2204 3023.5C2204 3023.5 2200.49 2827.58 2241.91 2740.68C2248.23 2727.21 2255.66 2716.42 2264.41 2709.28C2320.75 2663.45 2461.94 2710.15 2499.23 2723.63C2505.15 2725.71 2508.38 2727.03 2508.38 2727.03C2508.38 2727.03 2508.78 2727.46 2509.72 2728.37C2529.69 2747.83 2761.01 2977.11 2644.2 2968.6Z" fill="#FF8E06"/>
<path d="M2644.21 2968.6C2629.12 2967.49 2611.07 2967.55 2590.93 2968.4C2586.77 2961.96 2585.49 2955.73 2587.93 2950.04C2605.26 2910.35 2477.18 2727.07 2477.18 2727.07L2509.73 2728.35C2529.7 2747.81 2761.02 2977.09 2644.21 2968.6Z" fill="#FFAB57"/>
<path d="M1635.3 1561.07C1691.78 1504.6 1787.32 1519.29 1823.52 1590.6C1929.67 1799.37 1895.64 2060.93 1721.04 2235.54C1546.44 2410.13 1284.74 2444.16 1076.11 2338C1004.94 2301.8 990.104 2206.28 1046.58 2149.8L1635.3 1561.07Z" fill="#9241FE"/>
<path d="M2891.51 2379.14V2384.85C2891.51 2410.03 2887.71 2434.39 2880.27 2457.93C2879.58 2460.25 2878.91 2462.56 2878.1 2464.87C2877.68 2466.1 2877.28 2467.19 2876.87 2468.27C2861.42 2511.28 2834.18 2551.02 2797.06 2586.95C2796.79 2587.09 2796.51 2587.36 2796.24 2587.64C2721.71 2659.34 2607.75 2715.42 2470.34 2749.7C2463.57 2751.47 2456.79 2753.12 2449.88 2754.74C2381.45 2770.54 2307.6 2781.02 2230.09 2785.36C2208.95 2786.59 2187.54 2787.4 2165.99 2787.69C2158.81 2787.82 2151.63 2787.82 2144.31 2787.82C2135.91 2787.82 2127.5 2787.69 2119.24 2787.54C2100.13 2787.27 2081.16 2786.46 2062.46 2785.23C2050.4 2784.54 2038.48 2783.61 2026.55 2782.5C1956.76 2776.25 1890.23 2764.41 1828.44 2747.95C1686.42 2710.11 1568.66 2647.51 1492.37 2569.94C1483.56 2561.09 1475.3 2552.38 1467.44 2543.67C1445.49 2519.45 1427.33 2495.78 1414.32 2470.58C1399.68 2442.7 1391.55 2413.15 1391.55 2379C1391.55 2224.14 1414.45 2079.06 1455.38 1948.82C1470.42 1901.46 1487.77 1856.01 1507.28 1812.87C1528.28 1766.6 1551.73 1722.92 1577.34 1682.09C1586.42 1667.8 1595.77 1653.92 1605.39 1640.31L1605.52 1640.17C1637.5 1594.58 1672.6 1553.35 1710.27 1516.87C1731.14 1496.33 1752.82 1477.41 1775.32 1459.99C1884.67 1375.34 2010.7 1327.71 2144.31 1327.71H2145.26C2155.42 1327.71 2165.58 1327.98 2175.61 1328.8C2176.69 1328.66 2177.78 1328.8 2178.86 1328.94C2323.86 1337.92 2458.01 1404.33 2569.81 1511.84C2619.54 1559.61 2664.8 1615.4 2704.64 1677.87C2708.03 1683.18 2711.28 1688.48 2714.53 1693.79C2729.84 1718.7 2744.21 1744.69 2757.76 1771.5C2759.11 1774.08 2760.33 1776.67 2761.69 1779.26C2771.85 1799.81 2781.47 1821.31 2790.55 1843.49C2854.1 1999.04 2890.84 2191.88 2891.51 2379.14Z" fill="#9241FE"/>
<path fill-rule="evenodd" clip-rule="evenodd" d="M2342.2 1743.69C2368.02 1747.91 2392.54 1756.09 2413.55 1767.86L2450.67 1788.69C2512.22 1823.41 2562.5 1888.52 2592.45 1972.47C2592.59 1972.86 2592.74 1973.24 2592.89 1973.62C2593.14 1974.21 2593.37 1974.79 2593.51 1975.32C2682.55 2226.69 2541.47 2507.94 2306.89 2545.26C2269.65 2551.23 2230.77 2554.57 2190.95 2555.31C2186.02 2555.44 2181.21 2555.44 2176.27 2555.44H2176.27C2126.81 2555.44 2078.77 2551.71 2033.07 2544.65C2032.92 2544.63 2032.77 2544.59 2032.62 2544.58C1987.06 2551.61 1939.29 2555.29 1889.88 2555.29C1884.95 2555.29 1880.13 2555.29 1875.2 2555.17C1835.26 2554.55 1796.5 2551.08 1759.26 2545.14C1524.68 2507.93 1383.6 2226.55 1472.76 1975.18C1472.89 1974.8 1473.05 1974.41 1473.2 1974.04C1473.44 1973.44 1473.67 1972.86 1473.81 1972.33C1503.77 1888.5 1554.04 1823.27 1615.6 1788.55L1652.72 1767.72C1673.62 1755.93 1698.29 1747.75 1724.13 1743.53C1770.89 1735.6 1821.52 1740.19 1860.4 1757.42L1931.58 1789.04C1931.63 1789.04 1931.66 1789.07 1931.69 1789.09C1931.74 1789.13 1931.8 1789.17 1931.93 1789.17L1952.26 1798.22C1978.57 1810 2005.94 1815.95 2033.07 1816.33C2036.36 1816.33 2039.65 1816.25 2042.94 1816.1C2066.93 1814.59 2090.84 1808.74 2114.01 1798.36L2133.07 1789.87C2133.49 1789.64 2133.91 1789.41 2134.33 1789.17L2134.68 1789.04L2205.87 1757.42C2244.87 1740.19 2295.38 1735.6 2342.13 1743.53C2342.15 1743.58 2342.17 1743.64 2342.2 1743.69Z" fill="#A369FF"/>
<g opacity="0.3">
<g opacity="0.3">
<g opacity="0.3">
<path opacity="0.3" d="M1924.39 1120.84C1924.93 1125.88 1925.61 1131.05 1926.29 1136.36C1952.15 1318.58 2099.13 1440.38 2252.63 1458.62C2366.54 1472.09 2594.49 1426.77 2663.49 1181.81C2688.39 1093.62 2689.76 1002.58 2664.99 953.859C2621.71 868.802 2493.79 843.354 2437.17 833.555C2431.32 832.603 2424.92 831.65 2418.26 830.834C2301.49 817.361 2075.45 842.81 1998.15 910.991C1998.15 910.855 1906.15 952.906 1924.39 1120.84Z" fill="#000072"/>
</g>
</g>
</g>
<path d="M1511.41 1634.93C1375.87 1848.78 1004.79 2234.91 1373.46 2430.09" stroke="#ECD316" stroke-width="50.3849"/>
<path d="M2898.96 1634.93C2763.42 1848.78 2530.26 2207.8 2898.92 2402.98" stroke="#ECD316" stroke-width="50.3849"/>
<path fill-rule="evenodd" clip-rule="evenodd" d="M2888.01 660.81C2903.69 688.042 2917.66 717.495 2929.63 749.349L2942.82 791.264C3009.65 1006.56 3044.47 1181.3 3041.62 1290.85C3041.89 1296.02 3042.03 1301.05 3042.03 1306.23C3042.03 1356.17 3031.01 1409.93 3004.61 1466.81C2919.15 1637.33 2516.86 1711.5 2273.94 1711.5H1964.33C1842.94 1711.5 1161.95 1711.5 1144.12 1315.89C1139.22 1206.61 1173.11 1012.41 1222.78 820.795L1228.77 798.612C1289.89 554.55 1271.77 460.271 1260.97 404.09C1254.53 370.583 1250.7 350.628 1267.83 320.53C1298.72 266.366 1376.97 350.197 1376.97 350.197C1344.04 180.629 1416.3 144.702 1470.06 204.173C1556.68 299.924 1684.3 375.009 1708.32 389.139C1710.45 390.392 1711.76 391.167 1712.16 391.433C1712.16 391.433 2008.16 339.582 2045.04 338.766C2046.64 338.736 2050.19 338.456 2055.5 338.039C2092.06 335.167 2212.03 325.745 2353.83 345.69C2436.55 289.772 2529.82 226.013 2559.92 204.145C2645.27 142.224 2770.67 180.738 2715.59 350.306C2715.59 350.306 2846.46 266.474 2898.11 320.638C2926.14 350.068 2916.92 369.801 2901.89 401.985C2881.32 446.026 2849.86 513.384 2888.01 660.81Z" fill="#9241FE"/>
<path d="M3042 1300.03C3042 1311.6 3041.45 1323.3 3040.1 1335.14C3037.64 1226.13 3003.63 1063.37 2942.38 866.314L2929.32 824.807C2846.98 404.018 2243.97 402.519 2055.08 418.986C2018.74 422.116 1726.15 470.973 1726.15 470.973C1721.25 467.843 1579.99 388.911 1486.77 286.027C1433.56 227.237 1380.48 244.928 1412.87 412.455C1412.87 412.455 1301.28 341.143 1286.85 401.023C1264.4 493.971 1221.94 394.763 1267.8 314.334C1298.69 260.17 1376.94 344.001 1376.94 344.001C1344.01 174.434 1416.27 138.37 1470.03 197.841C1564.47 302.086 1707.23 381.835 1712.27 385.1C1712.27 385.1 2008.26 333.114 2045.14 332.434C2074.13 331.89 2744.64 249.555 2929.59 743.016L2942.78 784.932C3009.61 1000.23 3044.45 1174.96 3041.6 1284.52C3041.87 1289.69 3042 1294.86 3042 1300.03Z" fill="#A670FC"/>
<path d="M1690.67 1549.26C1761.11 1564.23 1838.89 1573.49 1924.16 1576.89C2009.43 1573.49 2087.09 1564.23 2157.39 1549.26C2667.72 1439.98 2613.02 1200.46 2548.91 909.232C2548.52 908.142 2548.26 906.646 2548 905.556C2541.94 877.659 2565.55 753.817 2440.16 599.083C2394.24 542.334 2306.78 516.748 2224.34 527.364C2177.78 541.926 2132.11 563.972 2089.93 590.51C2083.61 596.226 2077.28 602.486 2070.96 609.017C2030.72 650.797 1977.44 670.665 1924.03 668.489C1870.63 670.53 1817.35 650.662 1776.84 609.017C1770.52 602.622 1764.2 596.361 1757.88 590.51C1715.7 563.972 1670.03 541.788 1623.46 527.364C1541.03 516.748 1453.83 542.334 1407.65 599.083C1282.39 753.817 1306.25 877.659 1299.8 905.556C1299.55 906.646 1299.42 908.142 1299.16 909.232C1235.04 1200.6 1180.35 1439.98 1690.67 1549.26Z" fill="#A369FF"/>
<path d="M1773.57 1176.83C1772.89 1205.82 1788.41 1248.69 1925.18 1254.54C1954.16 1255.76 2000.71 1249.23 2015.13 1242.7C2053.92 1225.01 2073.92 1206.5 2070.52 1176.83C2068.62 1160.77 2053.24 1141.86 2039.76 1135.05C2005.88 1118.04 2009.96 1118.04 1997.58 1100.76C1972.81 1066.46 1954.71 1060.75 1933.61 1055.98C1861.21 1039.38 1774.53 1136.96 1773.57 1176.83Z" fill="#FF8E06"/>
<path d="M2291.06 1250.43C2219.44 1250.43 2161.37 1167.32 2161.37 1064.8C2161.37 962.281 2219.44 879.173 2291.06 879.173C2362.69 879.173 2420.76 962.281 2420.76 1064.8C2420.76 1167.32 2362.69 1250.43 2291.06 1250.43Z" fill="#F5F5F5"/>
<path d="M2236 1200.84C2205.46 1200.84 2180.71 1153.56 2180.71 1095.24C2180.71 1036.91 2205.46 989.626 2236 989.626C2266.54 989.626 2291.29 1036.91 2291.29 1095.24C2291.29 1153.56 2266.54 1200.84 2236 1200.84Z" fill="#36156F"/>
<path d="M1526.35 1250.43C1454.72 1250.43 1396.65 1167.32 1396.65 1064.8C1396.65 962.281 1454.72 879.173 1526.35 879.173C1597.98 879.173 1656.04 962.281 1656.04 1064.8C1656.04 1167.32 1597.98 1250.43 1526.35 1250.43Z" fill="#F5F5F5"/>
<path d="M1808.51 1071.44C1818.85 1063.41 1829.33 1056.47 1839.81 1051.16C1867.71 1036.74 1895.34 1032.11 1919.97 1037.69C1944.33 1043.41 1966.92 1051.16 1994.82 1089.81C1997 1092.67 1998.63 1095.12 1999.99 1097.16C2005.43 1105.19 2006.11 1106.14 2030.34 1118.26C2048.3 1127.38 2068.58 1150.92 2071.3 1174.6C2072.25 1183.58 2071.71 1191.74 2069.8 1199.09C2061.91 1229.58 2032.11 1247.27 2005.16 1259.65C1987.74 1267.68 1943.51 1273.26 1914.53 1273.26C1911.8 1273.26 1909.22 1273.13 1906.63 1272.99C1900.64 1272.72 1894.93 1272.45 1889.48 1272.04C1800.62 1265.91 1751.35 1241.96 1739.79 1199.37V1199.23C1738.02 1192.83 1737.06 1185.76 1737.06 1178.55V1176.37C1738.02 1143.16 1773.67 1098.52 1808.51 1071.44ZM2034.28 1178.82C2034.28 1178.55 2034.28 1178.41 2034.15 1178.14C2033.87 1176.23 2033.19 1173.92 2031.83 1171.74C2028.98 1165.48 2023.53 1158.68 2017.95 1154.59C2017.82 1154.32 2017.68 1154.32 2017.54 1154.32C2016.32 1153.23 2014.82 1152.28 2013.6 1151.6C2012.92 1151.33 2012.51 1150.92 2011.96 1150.65C2011.83 1150.65 2011.83 1150.51 2011.69 1150.51C1983.11 1136.22 1978.49 1131.87 1969.1 1118.12C1967.87 1116.22 1966.37 1114.04 1964.61 1111.59C1943.65 1082.6 1929.63 1078.38 1913.84 1074.57C1913.57 1074.57 1913.3 1074.57 1913.16 1074.44C1912.48 1074.3 1912.07 1074.16 1911.4 1074.03C1907.18 1073.07 1902.96 1072.67 1898.6 1072.67C1891.53 1072.67 1884.31 1073.76 1877.51 1075.93C1877.24 1075.93 1876.83 1076.07 1876.55 1076.21C1861.72 1080.7 1848.11 1088.73 1838.04 1095.94C1835.59 1097.71 1833.42 1099.34 1831.37 1100.84C1814.09 1114.31 1799.94 1130.1 1790 1143.98C1782.93 1153.91 1778.16 1163.17 1775.99 1169.97C1775.03 1172.69 1774.62 1175.14 1774.62 1177.05C1774.49 1183.99 1776.12 1190.52 1779.52 1196.1C1790.68 1214.74 1820.49 1226.86 1868.66 1232.57H1868.8C1880.77 1233.93 1893.84 1235.02 1908.27 1235.57C1936.03 1236.65 1979.3 1230.12 1989.65 1225.5C2033.47 1205.49 2035.64 1191.47 2034.28 1178.82Z" fill="#36156F"/>
<path d="M1481.77 1200.76C1452.4 1200.76 1428.58 1155.28 1428.58 1099.17C1428.58 1043.07 1452.4 997.591 1481.77 997.591C1511.15 997.591 1534.96 1043.07 1534.96 1099.17C1534.96 1155.28 1511.15 1200.76 1481.77 1200.76Z" fill="#36156F"/>
<path d="M2471.91 442.199C2483.59 444.875 2495.08 448.054 2506.39 451.712L2733.95 514.486L2905.63 686.167L3014.06 1029.53C3122.49 1463.25 2929.72 1598.79 2824.3 1607.83C3077.53 1340.53 2914.95 583.852 2506.39 451.712L2471.91 442.199Z" fill="#A670FC"/>
<path d="M1692.06 2538.68L1774.76 2898.75L845.476 2921.06L1031.71 2538.08L1692.06 2538.68Z" fill="#9FA9FF"/>
</g>
<path d="M0.225586 2427.11H3841.82C3789.03 2843.9 3674.83 3686.11 3640.28 3720.66C3605.73 3755.21 1630.37 3735.06 0.225586 3720.66V2427.11Z" fill="#371078"/>
<path d="M809.368 2151.42C810.759 2119.72 804.952 2088.13 792.381 2059L61.9228 2059L61.9228 2075.99L76.7018 2075.99L76.7018 2226.67L61.9229 2226.67L61.9229 2243.66L792.381 2243.66C804.739 2214.53 810.539 2183.04 809.368 2151.42Z" fill="#263238"/>
<path opacity="0.2" d="M809.368 2151.42C810.759 2119.72 804.952 2088.13 792.381 2059L61.9228 2059L61.9228 2075.99L76.7018 2075.99L76.7018 2226.67L61.9229 2226.67L61.9229 2243.66L792.381 2243.66C804.739 2214.53 810.539 2183.04 809.368 2151.42Z" fill="#2B1059"/>
<path opacity="0.2" d="M418.658 2151.42C420.049 2119.72 414.241 2088.13 401.671 2059L61.9228 2059L61.9228 2075.99L76.7018 2075.99L76.7018 2226.67L61.9229 2226.67L61.9229 2243.66L401.671 2243.66C414.029 2214.53 419.829 2183.04 418.658 2151.42Z" fill="black"/>
<path opacity="0.8" d="M382.652 2151.41C383.785 2125.66 379.082 2100 368.892 2076.33L76.8789 2076.33L76.8789 2226.66L368.892 2226.66C378.947 2202.89 383.645 2177.2 382.652 2151.41Z" fill="white"/>
<path d="M874.416 2336.41C875.807 2304.72 869.999 2273.12 857.428 2244L126.971 2244L126.971 2260.99L142.089 2260.99L142.089 2411.32L127.311 2411.32L127.311 2428.31L857.769 2428.31C869.962 2399.26 875.644 2367.89 874.416 2336.41Z" fill="#FF8E06"/>
<path opacity="0.2" d="M483.706 2336.41C485.097 2304.72 479.289 2273.12 466.719 2244L126.971 2244L126.971 2260.99L142.089 2260.99L142.089 2411.32L127.311 2411.32L127.311 2428.31L467.058 2428.31C479.252 2399.26 484.934 2367.89 483.706 2336.41Z" fill="black"/>
<path opacity="0.8" d="M447.861 2336.39C448.994 2310.64 444.291 2284.98 434.101 2261.31L142.088 2261.31L142.088 2411.65L434.101 2411.64C444.156 2387.87 448.854 2362.18 447.861 2336.39Z" fill="white"/>
<path d="M2593.65 1702.83C2650.12 1646.35 2745.66 1661.05 2781.86 1732.36C2888.01 1941.12 2853.99 2202.68 2679.38 2377.29C2504.78 2551.88 2243.08 2585.91 2034.45 2479.76C1963.28 2443.56 1948.44 2348.03 2004.92 2291.56L2593.65 1702.83Z" fill="#9241FE"/>
<defs>
<clipPath id="clip0_231_510">
<rect width="2403.54" height="2891.48" fill="white" transform="translate(1012.04 171.118)"/>
</clipPath>
</defs>
</svg>
