<svg width="256" height="279" viewBox="0 0 256 279" fill="none" xmlns="http://www.w3.org/2000/svg">
    <g clip-path="url(#clip0_421_2745)">
        <path
            d="M194.403 235.167C193.287 235.466 191.987 235.928 190.558 236.504C180.456 240.589 164.123 250.535 164.123 250.535C164.123 250.535 158.732 235.647 159.438 227.951C159.541 226.762 159.793 225.749 160.237 224.981C163.095 220.046 174.493 220.034 177.534 220.119C178.014 220.126 178.282 220.146 178.282 220.146C178.282 220.146 178.322 220.169 178.413 220.213C180.362 221.194 203.042 232.852 194.403 235.167Z"
            fill="#FF8E06" />
        <path
            d="M153.539 253.372C153.539 253.372 151.44 253.319 148.237 253.312C140.428 253.285 126.039 253.485 119.631 255.202C110.609 257.619 126.082 234.133 126.082 234.133C126.082 234.133 126.478 233.868 127.157 233.469C129.963 231.783 137.618 227.58 142.553 228.695C143.123 228.827 143.642 229.018 144.127 229.298C144.884 229.744 145.606 230.485 146.29 231.463C150.757 237.761 153.539 253.372 153.539 253.372Z"
            fill="#FF8E06" />
        <path
            d="M236.199 177.85C232.289 180.389 227.164 183.027 220.746 185.088C219.645 185.44 218.516 185.777 217.336 186.093C196.996 191.543 203.832 189.211 203.832 189.211L173.431 130.292L174.581 130.884L174.594 130.892C174.608 130.899 174.608 130.899 174.621 130.907L236.296 162.356C241.842 166.052 241.798 174.219 236.199 177.85Z"
            fill="#9241FE" />
        <path
            d="M86.4963 151.65L45.602 213.441C42.6468 219.415 46.7686 226.466 53.4328 226.81C58.8951 227.089 65.8455 226.673 73.9007 224.515C94.2302 219.068 89.4693 220.343 89.4693 220.343L86.4963 151.65Z"
            fill="#9241FE" />
        <path
            d="M202.811 182.331L202.931 182.777C203.457 184.743 203.669 186.725 203.578 188.72C203.573 188.915 203.568 189.11 203.553 189.308C203.547 189.412 203.537 189.506 203.528 189.599C203.217 193.282 201.912 196.957 199.752 200.543C199.734 200.559 199.718 200.586 199.703 200.613C195.358 207.78 187.594 214.553 177.536 220.118C177.042 220.399 176.544 220.669 176.037 220.942C171 223.612 165.428 225.982 159.44 227.951C157.808 228.491 156.146 229.005 154.462 229.479C153.902 229.64 153.338 229.791 152.765 229.945C152.106 230.122 151.444 230.287 150.793 230.451C149.289 230.831 147.784 231.166 146.292 231.463C145.332 231.663 144.377 231.839 143.419 232.005C137.815 232.983 132.349 233.456 127.159 233.469C115.23 233.499 104.685 231.085 97.0792 226.63C96.2033 226.125 95.3728 225.618 94.5742 225.103C92.3458 223.673 90.4263 222.206 88.8793 220.513C87.1479 218.642 85.8923 216.507 85.1776 213.839C81.9372 201.746 80.6977 189.936 81.182 178.906C81.3707 174.892 81.7798 170.978 82.4075 167.199C83.0865 163.145 84.0109 159.241 85.1652 155.514C85.5782 154.208 86.021 152.927 86.4908 151.663L86.4986 151.649C88.0527 147.417 89.9423 143.459 92.1334 139.82C93.34 137.777 94.6445 135.844 96.0442 134.011C102.849 125.103 111.736 118.735 122.214 115.928L122.288 115.908C123.085 115.694 123.888 115.502 124.691 115.355C124.774 115.322 124.861 115.309 124.949 115.297C136.508 112.952 148.418 115.319 159.435 121.365C164.335 124.05 169.052 127.456 173.483 131.497C173.86 131.84 174.226 132.186 174.592 132.532C176.314 134.155 177.984 135.883 179.608 137.692C179.768 137.865 179.918 138.042 180.078 138.215C181.305 139.606 182.51 141.083 183.686 142.624C191.925 153.436 198.84 167.722 202.811 182.331Z"
            fill="#9241FE" />
        <g opacity="0.3">
            <g opacity="0.3">
                <g opacity="0.3">
                    <g opacity="0.3">
                        <path opacity="0.3"
                            d="M211.445 176.473C211.395 176.327 211.341 176.17 211.291 176.024C211.288 176.014 211.288 176.014 211.285 176.003C211.338 176.159 211.389 176.305 211.445 176.473Z"
                            fill="#441584" />
                    </g>
                </g>
            </g>
        </g>
        <path
            d="M135.247 39.5628C135.561 39.2053 144.829 20.6164 146.628 16.6605C149.318 10.7574 155.979 12.1958 156.955 26.1262C156.955 26.1262 161.312 17.9426 164.857 21.5258C170.124 26.8574 160.842 30.0052 176.614 58.3887L135.247 39.5628Z"
            fill="#9241FE" />
        <path
            d="M176.14 56.5788L175.543 56.3059C174.501 54.1591 173.622 52.1964 172.887 50.3887C173.834 52.3102 174.91 54.3684 176.14 56.5788Z"
            fill="#7F7F7F" />
        <path
            d="M43.3152 94.0929C42.7824 61.626 34.4663 63.1937 36.3619 55.9429C37.6409 51.067 45.5055 55.9759 45.5055 55.9759C39.3964 43.4209 44.277 39.1062 49.7296 42.6226C59.2753 48.7896 72.1024 52.0271 72.5533 52.1796C72.5533 52.1796 94.5821 41.9374 97.445 41.102C99.6971 40.453 150.334 19.994 175.111 54.655L177.019 57.6519C186.742 73.0657 193.119 85.9818 195.188 94.5964C195.317 94.9945 195.433 95.3849 195.541 95.7887C196.586 99.6888 196.85 104.117 195.979 109.112C192.873 124.216 163.012 138.424 144.042 143.507L119.866 149.985C110.387 152.525 57.209 166.774 47.5392 136.254C44.8701 127.823 43.4528 111.95 43.3224 95.9475L43.3152 94.0929Z"
            fill="#9241FE" />
        <path
            d="M195.403 95.3043C195.645 96.2076 195.847 97.1329 195.989 98.0859C193.517 89.6249 187.454 77.6269 178.549 63.5204L176.66 60.5525C161.437 29.4136 114.307 41.9169 99.9116 47.1522C97.1396 48.1569 75.3138 58.0941 75.3138 58.0941C74.8657 57.9522 62.1833 54.7443 52.7511 48.6608C47.3658 45.1833 43.5915 47.6753 49.626 60.0795C49.626 60.0795 39.4197 56.8459 39.5462 61.8236C39.7376 69.5517 34.3461 62.693 36.2445 55.4528C37.5236 50.5769 45.3881 55.4858 45.3881 55.4858C39.2684 42.9337 44.1462 38.6083 49.5988 42.1247C59.1552 48.2888 71.9715 51.5293 72.4331 51.6789C72.4331 51.6789 94.4591 41.4261 97.3248 40.6013C99.5769 39.9523 150.214 19.4933 174.981 54.1571L176.889 57.154C186.611 72.5678 192.988 85.484 195.057 94.0985C195.186 94.4966 195.295 94.9005 195.403 95.3043Z"
            fill="#A670FC" />
        <g opacity="0.3">
            <g opacity="0.3">
                <g opacity="0.3">
                    <g opacity="0.3">
                        <path opacity="0.3"
                            d="M126.84 98.6818C126.903 99.0864 126.958 99.5045 127.016 99.9332C128.809 114.704 119.881 127.29 108.275 131.926C99.6619 135.362 80.9135 136.592 70.4001 118.907C66.6101 112.542 64.5883 105.464 65.5107 101.128C67.1105 93.5805 76.5674 88.9166 80.7832 86.9669C81.2202 86.7701 81.6998 86.5619 82.2034 86.3586C91.0395 82.8633 109.223 80.1209 116.686 83.8277C116.686 83.8277 124.75 85.1865 126.84 98.6818Z"
                            fill="#441584" />
                    </g>
                </g>
            </g>
        </g>
        <path
            d="M145.549 129.528C140.06 132.252 133.846 134.692 126.892 136.839C119.797 138.456 113.206 139.448 107.101 139.83C62.7737 142.562 62.268 122.651 61.456 98.4938C61.4651 98.4002 61.455 98.2776 61.4535 98.1869C61.3692 95.8745 56.8332 86.725 63.9251 71.8743C66.5209 66.4292 73.1907 62.5007 80.2034 61.51C84.3445 61.6192 88.5677 62.3327 92.598 63.4739C93.2384 63.7807 93.8901 64.13 94.5475 64.5006C98.7373 66.8746 103.542 67.2502 107.896 65.9013C112.338 64.8818 116.312 62.1543 118.777 58.0083C119.164 57.3693 119.554 56.7409 119.952 56.1444C122.872 53.141 126.17 50.4008 129.704 48.2464C136.273 45.5979 143.992 45.6709 148.984 49.0829C162.54 58.4009 163.165 68.5983 164.28 70.6345C164.325 70.7138 164.366 70.8279 164.411 70.9072C175.789 92.2444 185.293 109.733 145.549 129.528Z"
            fill="#A369FF" />
        <path
            d="M205.166 202.099L205.122 202.145C205.122 202.145 205.119 202.134 205.11 202.103L205.166 202.099Z"
            fill="#EF8B01" />
        <path
            d="M205.223 197.333L205.189 197.376C205.189 197.376 205.186 197.365 205.178 197.333L205.223 197.333Z"
            fill="#EF8B01" />
        <path
            d="M91.6861 118.95C97.2794 117.451 100.075 109.747 97.9296 101.741C95.7846 93.7357 89.5114 88.461 83.9181 89.9597C78.3248 91.4584 75.5294 99.1631 77.6745 107.169C79.8196 115.174 86.0928 120.449 91.6861 118.95Z"
            fill="white" />
        <path
            d="M90.613 109.942C93.2625 109.232 94.3112 104.554 92.9553 99.4941C91.5993 94.4337 88.3522 90.9069 85.7027 91.6169C83.0532 92.3268 82.0045 97.0046 83.3604 102.065C84.7163 107.125 87.9634 110.652 90.613 109.942Z"
            fill="#2B1059" />
        <path
            d="M151.401 102.948C156.995 101.45 159.79 93.7448 157.645 85.7393C155.5 77.7338 149.227 72.459 143.633 73.9577C138.04 75.4564 135.245 83.1611 137.39 91.1666C139.535 99.1721 145.808 104.447 151.401 102.948Z"
            fill="white" />
        <path
            d="M133.142 101.676C133.801 103.926 133.487 107.598 122.929 110.916C120.691 111.619 116.92 112.082 115.657 111.874C112.258 111.304 110.309 110.277 109.954 107.889C109.766 106.596 110.571 104.797 111.481 103.983C113.771 101.946 113.452 102.031 114.058 100.423C115.274 97.2265 116.568 96.4014 118.116 95.5881C123.422 92.7768 132.233 98.5825 133.142 101.676Z"
            fill="#FF8E06" />
        <g opacity="0.3">
            <g opacity="0.3">
                <g opacity="0.3">
                    <g opacity="0.3">
                        <path opacity="0.3"
                            d="M122.926 110.908C120.694 111.632 116.903 112.021 115.62 111.738C112.17 110.977 110.166 109.749 109.736 107.039C109.671 106.624 109.684 106.165 109.754 105.702C110.737 106.907 112.382 107.606 114.649 108.115C115.921 108.4 119.72 107.997 121.955 107.284C129.865 104.755 131.943 101.795 132.174 99.3866C132.53 99.9063 132.784 100.385 132.911 100.818C133.659 103.397 133.47 107.536 122.926 110.908Z"
                            fill="#441584" />
                    </g>
                </g>
            </g>
        </g>
        <g opacity="0.35">
            <g opacity="0.35">
                <g opacity="0.35">
                    <g opacity="0.35">
                        <path opacity="0.35"
                            d="M132.637 105.355L132.603 105.228C131.694 102.134 122.444 95.6255 117.598 99.1337C116.53 99.9096 116.264 101.507 115.786 102.956C115.256 104.591 111.839 105.825 111.392 107.813C111.303 108.201 110.371 108.166 110.13 108.584C110.059 108.364 110.007 108.127 109.963 107.877C109.776 106.583 110.581 104.784 111.493 103.981C113.784 101.944 113.465 102.029 114.07 100.421C115.287 97.2244 116.581 96.3994 118.125 95.5754C123.41 92.7698 132.232 98.5726 133.13 101.669C133.432 102.67 133.537 103.952 132.637 105.355Z"
                            fill="white" />
                    </g>
                </g>
            </g>
        </g>
        <path
            d="M126.836 94.5537C125.861 94.1432 124.897 93.8204 123.968 93.6252C121.487 93.0825 119.233 93.2992 117.427 94.2503C115.644 95.2064 114.042 96.2848 112.672 99.8866C112.562 100.155 112.486 100.381 112.422 100.569C112.165 101.31 112.132 101.398 110.494 102.851C109.282 103.939 108.191 106.201 108.474 108.108C108.587 108.829 108.801 109.455 109.103 109.989C110.358 112.204 113.055 112.962 115.418 113.366C116.947 113.628 120.517 113.138 122.781 112.532C122.993 112.475 123.192 112.41 123.391 112.345C123.853 112.199 124.294 112.058 124.71 111.912C131.522 109.575 134.868 106.673 134.88 103.105L134.877 103.095C134.881 102.558 134.807 101.985 134.656 101.422L134.611 101.252C133.842 98.6792 130.123 95.9396 126.836 94.5537ZM111.453 107.662C111.447 107.641 111.444 107.631 111.449 107.606C111.43 107.452 111.435 107.257 111.496 107.059C111.588 106.51 111.871 105.865 112.221 105.429C112.226 105.405 112.237 105.402 112.247 105.399C112.32 105.289 112.417 105.183 112.498 105.104C112.546 105.069 112.569 105.028 112.606 104.996C112.617 104.993 112.614 104.982 112.624 104.979C114.557 103.266 114.827 102.829 115.273 101.559C115.329 101.384 115.4 101.183 115.487 100.955C116.517 98.2527 117.523 97.63 118.676 97.0021C118.698 96.9964 118.719 96.9907 118.727 96.9773C118.777 96.9524 118.806 96.9332 118.856 96.9084C119.166 96.7457 119.487 96.6255 119.827 96.5344C120.379 96.3864 120.965 96.3204 121.542 96.3481C121.564 96.3424 121.598 96.3445 121.622 96.3494C122.875 96.3897 124.105 96.732 125.043 97.0845C125.271 97.1714 125.475 97.2534 125.666 97.3275C127.297 98.018 128.733 98.9546 129.799 99.8307C130.56 100.458 131.125 101.081 131.438 101.567C131.569 101.76 131.652 101.942 131.692 102.091C131.848 102.63 131.857 103.175 131.708 103.682C131.227 105.371 129.153 106.94 125.511 108.395L125.5 108.398C124.593 108.754 123.596 109.113 122.481 109.457C120.336 110.123 116.82 110.518 115.915 110.374C112.075 109.728 111.611 108.679 111.453 107.662Z"
            fill="#2B1059" />
        <path
            d="M149.896 93.3067C152.566 92.5913 153.623 87.8774 152.256 82.7779C150.89 77.6784 147.618 74.1244 144.948 74.8399C142.278 75.5553 141.221 80.2692 142.587 85.3687C143.954 90.4682 147.226 94.0222 149.896 93.3067Z"
            fill="#2B1059" />
        <path
            d="M194.402 235.167C193.287 235.466 191.987 235.929 190.558 236.505C190.09 236.118 189.834 235.674 189.86 235.177C190.069 231.704 176.034 220.942 176.034 220.942L178.413 220.214C180.362 221.195 203.042 232.852 194.402 235.167Z"
            fill="#FFAB57" />
        <path
            d="M146.29 231.463C150.757 237.761 153.538 253.372 153.538 253.372C153.538 253.372 151.44 253.319 148.237 253.311C147.832 249.502 145.147 238.717 143.417 232.005L143.4 231.941C145.24 231.585 147.953 231.04 150.678 230.413L150.791 230.451C149.287 230.831 147.782 231.166 146.29 231.463Z"
            fill="#FFAB57" />
    </g>
    <defs>
        <clipPath id="clip0_421_2745">
            <rect width="202.05" height="233.108" fill="white"
                transform="translate(0.250977 53.1138) rotate(-15)" />
        </clipPath>
    </defs>
</svg>
