<svg width="375" height="812" viewBox="0 0 375 812" fill="none" xmlns="http://www.w3.org/2000/svg">
<g clip-path="url(#clip0_900_2680)">
<rect width="375" height="812" fill="#441584"/>
<circle cx="281" cy="116" r="42" fill="white"/>
<circle cx="294" cy="98" r="13" fill="#F2E9FF"/>
<circle cx="278" cy="108" r="3" fill="#F2E9FF"/>
<circle cx="289" cy="121" r="8" fill="#F2E9FF"/>
<path d="M81.6547 89.1686C81.9055 87.6459 84.0949 87.6459 84.3457 89.1686L85.1215 93.8786L89.8316 94.6545C91.3542 94.9053 91.3542 97.0947 89.8316 97.3455L85.1215 98.1213L84.3457 102.831C84.0949 104.354 81.9055 104.354 81.6547 102.831L80.8789 98.1213L76.1689 97.3455C74.6462 97.0947 74.6462 94.9053 76.1689 94.6545L80.8789 93.8786L81.6547 89.1686Z" fill="white"/>
<path d="M111.655 262.169C111.906 260.646 114.095 260.646 114.346 262.169L115.122 266.879L119.832 267.654C121.354 267.905 121.354 270.095 119.832 270.345L115.122 271.121L114.346 275.831C114.095 277.354 111.906 277.354 111.655 275.831L110.879 271.121L106.169 270.345C104.646 270.095 104.646 267.905 106.169 267.654L110.879 266.879L111.655 262.169Z" fill="white"/>
<path d="M330.655 324.169C330.906 322.646 333.095 322.646 333.346 324.169L334.122 328.879L338.832 329.654C340.354 329.905 340.354 332.095 338.832 332.345L334.122 333.121L333.346 337.831C333.095 339.354 330.906 339.354 330.655 337.831L329.879 333.121L325.169 332.345C323.646 332.095 323.646 329.905 325.169 329.654L329.879 328.879L330.655 324.169Z" fill="white"/>
<path d="M182.655 52.1686C182.906 50.6459 185.095 50.6459 185.346 52.1686L186.122 56.8786L190.832 57.6545C192.354 57.9053 192.354 60.0947 190.832 60.3455L186.122 61.1213L185.346 65.8313C185.095 67.354 182.906 67.354 182.655 65.8313L181.879 61.1213L177.169 60.3455C175.646 60.0947 175.646 57.9053 177.169 57.6545L181.879 56.8786L182.655 52.1686Z" fill="white"/>
<path d="M201.655 189.169C201.906 187.646 204.095 187.646 204.346 189.169L205.122 193.879L209.832 194.654C211.354 194.905 211.354 197.095 209.832 197.345L205.122 198.121L204.346 202.831C204.095 204.354 201.906 204.354 201.655 202.831L200.879 198.121L196.169 197.345C194.646 197.095 194.646 194.905 196.169 194.654L200.879 193.879L201.655 189.169Z" fill="white"/>
<path d="M341.95 200.516C342.519 197.064 347.481 197.064 348.05 200.516L349.809 211.192L360.485 212.95C363.936 213.519 363.936 218.481 360.485 219.05L349.809 220.808L348.05 231.484C347.481 234.936 342.519 234.936 341.95 231.484L340.192 220.808L329.516 219.05C326.064 218.481 326.064 213.519 329.516 212.95L340.192 211.192L341.95 200.516Z" fill="white"/>
<path d="M23.6547 222.169C23.9055 220.646 26.0949 220.646 26.3457 222.169L27.1215 226.879L31.8316 227.654C33.3542 227.905 33.3542 230.095 31.8316 230.345L27.1215 231.121L26.3457 235.831C26.0949 237.354 23.9055 237.354 23.6547 235.831L22.8789 231.121L18.1689 230.345C16.6462 230.095 16.6462 227.905 18.1689 227.654L22.8789 226.879L23.6547 222.169Z" fill="white"/>
<path d="M62.5516 160.723C62.6352 160.215 63.365 160.215 63.4486 160.723L63.7072 162.293L65.2772 162.551C65.7847 162.635 65.7847 163.365 65.2772 163.448L63.7072 163.707L63.4486 165.277C63.365 165.785 62.6352 165.785 62.5516 165.277L62.293 163.707L60.723 163.448C60.2154 163.365 60.2154 162.635 60.723 162.551L62.293 162.293L62.5516 160.723Z" fill="white"/>
<path d="M19.5516 144.723C19.6352 144.215 20.365 144.215 20.4486 144.723L20.7072 146.293L22.2772 146.551C22.7847 146.635 22.7847 147.365 22.2772 147.448L20.7072 147.707L20.4486 149.277C20.365 149.785 19.6352 149.785 19.5516 149.277L19.293 147.707L17.723 147.448C17.2154 147.365 17.2154 146.635 17.723 146.551L19.293 146.293L19.5516 144.723Z" fill="white"/>
<path d="M85.5516 200.723C85.6352 200.215 86.365 200.215 86.4486 200.723L86.7072 202.293L88.2772 202.551C88.7847 202.635 88.7847 203.365 88.2772 203.448L86.7072 203.707L86.4486 205.277C86.365 205.785 85.6352 205.785 85.5516 205.277L85.293 203.707L83.723 203.448C83.2154 203.365 83.2154 202.635 83.723 202.551L85.293 202.293L85.5516 200.723Z" fill="white"/>
<path d="M149.552 308.723C149.635 308.215 150.365 308.215 150.449 308.723L150.707 310.293L152.277 310.551C152.785 310.635 152.785 311.365 152.277 311.448L150.707 311.707L150.449 313.277C150.365 313.785 149.635 313.785 149.552 313.277L149.293 311.707L147.723 311.448C147.215 311.365 147.215 310.635 147.723 310.551L149.293 310.293L149.552 308.723Z" fill="white"/>
<path d="M226.552 231.723C226.635 231.215 227.365 231.215 227.449 231.723L227.707 233.293L229.277 233.551C229.785 233.635 229.785 234.365 229.277 234.448L227.707 234.707L227.449 236.277C227.365 236.785 226.635 236.785 226.552 236.277L226.293 234.707L224.723 234.448C224.215 234.365 224.215 233.635 224.723 233.551L226.293 233.293L226.552 231.723Z" fill="white"/>
<path d="M200.552 137.723C200.635 137.215 201.365 137.215 201.449 137.723L201.707 139.293L203.277 139.551C203.785 139.635 203.785 140.365 203.277 140.448L201.707 140.707L201.449 142.277C201.365 142.785 200.635 142.785 200.552 142.277L200.293 140.707L198.723 140.448C198.215 140.365 198.215 139.635 198.723 139.551L200.293 139.293L200.552 137.723Z" fill="white"/>
<path d="M150.552 208.723C150.635 208.215 151.365 208.215 151.449 208.723L151.707 210.293L153.277 210.551C153.785 210.635 153.785 211.365 153.277 211.448L151.707 211.707L151.449 213.277C151.365 213.785 150.635 213.785 150.552 213.277L150.293 211.707L148.723 211.448C148.215 211.365 148.215 210.635 148.723 210.551L150.293 210.293L150.552 208.723Z" fill="white"/>
<path d="M129.552 142.723C129.635 142.215 130.365 142.215 130.449 142.723L130.707 144.293L132.277 144.551C132.785 144.635 132.785 145.365 132.277 145.448L130.707 145.707L130.449 147.277C130.365 147.785 129.635 147.785 129.552 147.277L129.293 145.707L127.723 145.448C127.215 145.365 127.215 144.635 127.723 144.551L129.293 144.293L129.552 142.723Z" fill="white"/>
<path d="M57.5516 299.723C57.6352 299.215 58.365 299.215 58.4486 299.723L58.7072 301.293L60.2772 301.551C60.7847 301.635 60.7847 302.365 60.2772 302.448L58.7072 302.707L58.4486 304.277C58.365 304.785 57.6352 304.785 57.5516 304.277L57.293 302.707L55.723 302.448C55.2154 302.365 55.2154 301.635 55.723 301.551L57.293 301.293L57.5516 299.723Z" fill="white"/>
<path d="M251.552 313.723C251.635 313.215 252.365 313.215 252.449 313.723L252.707 315.293L254.277 315.551C254.785 315.635 254.785 316.365 254.277 316.448L252.707 316.707L252.449 318.277C252.365 318.785 251.635 318.785 251.552 318.277L251.293 316.707L249.723 316.448C249.215 316.365 249.215 315.635 249.723 315.551L251.293 315.293L251.552 313.723Z" fill="white"/>
<path d="M306.552 256.723C306.635 256.215 307.365 256.215 307.449 256.723L307.707 258.293L309.277 258.551C309.785 258.635 309.785 259.365 309.277 259.448L307.707 259.707L307.449 261.277C307.365 261.785 306.635 261.785 306.552 261.277L306.293 259.707L304.723 259.448C304.215 259.365 304.215 258.635 304.723 258.551L306.293 258.293L306.552 256.723Z" fill="white"/>
<path d="M142.38 390.857C142.38 394.075 141.96 396.837 141.119 399.143C140.303 401.449 139.018 403.358 137.264 404.872C135.511 406.385 133.241 407.502 130.455 408.222C127.693 408.943 124.366 409.303 120.475 409.303H118.314V400.909H119.899C122.373 400.909 124.45 400.74 126.132 400.404C127.813 400.092 129.146 399.648 130.131 399.071C131.116 398.495 131.836 397.81 132.292 397.018C132.749 396.225 133.025 395.348 133.121 394.388C131.728 394.796 130.047 395 128.077 395C126.252 395 124.534 394.772 122.925 394.315C121.34 393.859 119.959 393.115 118.782 392.082C117.605 391.049 116.668 389.716 115.972 388.083C115.299 386.449 114.963 384.492 114.963 382.21C114.963 380.385 115.263 378.583 115.864 376.806C116.488 375.005 117.389 373.395 118.566 371.978C119.743 370.561 121.196 369.432 122.925 368.592C124.655 367.751 126.672 367.331 128.978 367.331C131.476 367.331 133.59 367.763 135.319 368.628C137.048 369.492 138.417 370.717 139.426 372.302C140.459 373.888 141.203 375.761 141.66 377.923C142.14 380.084 142.38 382.474 142.38 385.092V390.857ZM123.754 381.381C123.754 383.735 124.21 385.32 125.123 386.137C126.036 386.93 127.297 387.326 128.906 387.326C130.779 387.326 132.292 387.002 133.445 386.353V383.003C133.445 380.649 133.097 378.787 132.401 377.418C131.704 376.025 130.479 375.329 128.726 375.329C126.924 375.329 125.639 375.929 124.871 377.13C124.126 378.331 123.754 379.748 123.754 381.381ZM176.175 395C175.526 399.996 173.46 403.623 169.978 405.88C166.495 408.162 161.307 409.303 154.414 409.303H152.252V400.909H153.837C156.215 400.909 158.209 400.764 159.818 400.476C161.427 400.212 162.736 399.816 163.745 399.287C164.778 398.759 165.546 398.134 166.051 397.414C166.579 396.717 166.915 395.913 167.059 395H162.772C160.779 395 158.929 394.772 157.224 394.315C155.518 393.859 154.041 393.115 152.792 392.082C151.567 391.049 150.607 389.716 149.91 388.083C149.238 386.449 148.901 384.492 148.901 382.21C148.901 380.385 149.202 378.583 149.802 376.806C150.427 375.005 151.339 373.395 152.54 371.978C153.741 370.561 155.206 369.432 156.936 368.592C158.665 367.751 160.658 367.331 162.916 367.331C165.414 367.331 167.528 367.763 169.257 368.628C170.986 369.492 172.368 370.717 173.4 372.302C174.457 373.888 175.214 375.761 175.67 377.923C176.126 380.084 176.355 382.474 176.355 385.092V387.074H181.399C181.759 387.074 182.095 387.122 182.407 387.218C182.744 387.29 183.032 387.446 183.272 387.686C183.512 387.927 183.704 388.299 183.848 388.803C184.017 389.308 184.101 389.992 184.101 390.857C184.101 392.442 183.872 393.535 183.416 394.135C182.984 394.712 182.311 395 181.399 395H176.175ZM157.692 381.381C157.692 383.591 158.161 385.092 159.097 385.885C160.034 386.678 161.283 387.074 162.844 387.074H167.384V383.003C167.384 380.793 167.035 378.968 166.339 377.526C165.642 376.061 164.369 375.329 162.52 375.329C160.815 375.329 159.578 375.905 158.809 377.058C158.064 378.211 157.692 379.652 157.692 381.381ZM181.435 395C181.074 395 180.738 394.964 180.426 394.892C180.114 394.796 179.825 394.616 179.561 394.351C179.297 394.087 179.105 393.703 178.985 393.199C178.841 392.694 178.769 392.01 178.769 391.145C178.769 389.608 178.985 388.539 179.417 387.939C179.849 387.314 180.522 387.002 181.435 387.002H194.621V367.655H203.664V395H181.435ZM188.244 416.509C188.244 415.188 188.724 414.047 189.685 413.086C190.67 412.125 191.811 411.645 193.108 411.645C194.429 411.645 195.57 412.125 196.53 413.086C197.491 414.047 197.971 415.188 197.971 416.509C197.971 417.83 197.491 418.971 196.53 419.931C195.57 420.892 194.429 421.372 193.108 421.372C191.811 421.372 190.67 420.892 189.685 419.931C188.724 418.971 188.244 417.83 188.244 416.509ZM182.623 406.529C182.623 405.208 183.104 404.067 184.065 403.106C185.025 402.146 186.166 401.665 187.487 401.665C188.808 401.665 189.949 402.146 190.91 403.106C191.895 404.067 192.387 405.208 192.387 406.529C192.387 407.85 191.895 408.991 190.91 409.952C189.949 410.912 188.808 411.393 187.487 411.393C186.166 411.393 185.025 410.912 184.065 409.952C183.104 408.991 182.623 407.85 182.623 406.529ZM193.828 406.529C193.828 405.208 194.309 404.067 195.269 403.106C196.23 402.146 197.371 401.665 198.692 401.665C200.013 401.665 201.154 402.146 202.115 403.106C203.075 404.067 203.556 405.208 203.556 406.529C203.556 407.85 203.075 408.991 202.115 409.952C201.154 410.912 200.013 411.393 198.692 411.393C197.371 411.393 196.23 410.912 195.269 409.952C194.309 408.991 193.828 407.85 193.828 406.529ZM216.85 377.166C216.85 377.695 216.91 378.271 217.03 378.896C217.174 379.496 217.426 380.036 217.787 380.517C218.171 380.997 218.663 381.405 219.264 381.742C219.888 382.054 220.681 382.21 221.642 382.21C222.242 382.21 222.843 382.198 223.443 382.174C224.068 382.126 224.704 381.982 225.353 381.742V372.266H221.966C220.261 372.266 218.976 372.711 218.111 373.599C217.27 374.488 216.85 375.677 216.85 377.166ZM236.017 395C234.912 395 233.843 394.928 232.81 394.784C231.778 394.616 230.829 394.327 229.964 393.919C229.1 393.511 228.331 392.946 227.658 392.226C227.01 391.505 226.506 390.569 226.145 389.416C225.353 389.608 224.536 389.764 223.695 389.884C222.879 390.004 222.062 390.064 221.245 390.064C220.117 390.064 218.796 389.896 217.282 389.56C215.769 389.2 214.328 388.563 212.959 387.65C211.614 386.738 210.473 385.465 209.536 383.831C208.6 382.198 208.131 380.108 208.131 377.562C208.131 375.041 208.576 372.915 209.464 371.186C210.353 369.432 211.494 368.003 212.887 366.898C214.304 365.793 215.865 365.001 217.571 364.52C219.276 364.04 220.957 363.8 222.614 363.8H234.288V384.372C234.288 385.429 234.42 386.149 234.684 386.533C234.972 386.894 235.621 387.074 236.629 387.074H238.287C238.647 387.074 238.983 387.122 239.295 387.218C239.632 387.29 239.92 387.446 240.16 387.686C240.424 387.927 240.616 388.299 240.737 388.803C240.881 389.308 240.953 389.992 240.953 390.857C240.953 392.442 240.737 393.535 240.304 394.135C239.872 394.712 239.199 395 238.287 395H236.017ZM238.287 395C237.926 395 237.59 394.964 237.278 394.892C236.966 394.796 236.677 394.616 236.413 394.351C236.149 394.087 235.957 393.703 235.837 393.199C235.693 392.694 235.621 392.01 235.621 391.145C235.621 389.608 235.837 388.539 236.269 387.939C236.701 387.314 237.374 387.002 238.287 387.002H251.473V367.655H260.516V395H238.287ZM245.096 416.509C245.096 415.188 245.576 414.047 246.537 413.086C247.522 412.125 248.663 411.645 249.96 411.645C251.281 411.645 252.422 412.125 253.382 413.086C254.343 414.047 254.823 415.188 254.823 416.509C254.823 417.83 254.343 418.971 253.382 419.931C252.422 420.892 251.281 421.372 249.96 421.372C248.663 421.372 247.522 420.892 246.537 419.931C245.576 418.971 245.096 417.83 245.096 416.509ZM239.476 406.529C239.476 405.208 239.956 404.067 240.917 403.106C241.877 402.146 243.018 401.665 244.339 401.665C245.66 401.665 246.801 402.146 247.762 403.106C248.747 404.067 249.239 405.208 249.239 406.529C249.239 407.85 248.747 408.991 247.762 409.952C246.801 410.912 245.66 411.393 244.339 411.393C243.018 411.393 241.877 410.912 240.917 409.952C239.956 408.991 239.476 407.85 239.476 406.529ZM250.68 406.529C250.68 405.208 251.161 404.067 252.121 403.106C253.082 402.146 254.223 401.665 255.544 401.665C256.865 401.665 258.006 402.146 258.967 403.106C259.927 404.067 260.408 405.208 260.408 406.529C260.408 407.85 259.927 408.991 258.967 409.952C258.006 410.912 256.865 411.393 255.544 411.393C254.223 411.393 253.082 410.912 252.121 409.952C251.161 408.991 250.68 407.85 250.68 406.529Z" fill="white"/>
<g clip-path="url(#clip1_900_2680)">
<g clip-path="url(#clip2_900_2680)">
<path d="M440.605 818.85C432.327 824.227 421.475 829.812 407.885 834.177C405.552 834.923 403.162 835.635 400.665 836.305C357.596 847.845 372.069 842.906 372.069 842.906L307.698 718.15L310.132 719.403L310.161 719.419C310.189 719.436 310.189 719.436 310.218 719.452L440.81 786.043C452.555 793.87 452.461 811.163 440.605 818.85Z" fill="#9241FE"/>
<path d="M123.62 763.373L37.0287 894.212C30.7713 906.862 39.4988 921.791 53.6099 922.52C65.1758 923.111 79.8928 922.231 96.9493 917.661C139.996 906.126 129.915 908.827 129.915 908.827L123.62 763.373Z" fill="#9241FE"/>
<path d="M369.903 828.34L370.157 829.285C371.272 833.448 371.721 837.644 371.527 841.869C371.517 842.282 371.507 842.694 371.474 843.113C371.461 843.334 371.442 843.532 371.422 843.73C370.762 851.528 368 859.31 363.426 866.903C363.387 866.937 363.354 866.994 363.322 867.051C354.123 882.226 337.683 896.568 316.385 908.352C315.338 908.946 314.286 909.518 313.21 910.095C302.546 915.75 290.747 920.769 278.069 924.938C274.613 926.081 271.094 927.168 267.528 928.172C266.341 928.514 265.149 928.834 263.934 929.159C262.538 929.533 261.137 929.884 259.759 930.23C256.574 931.035 253.387 931.744 250.228 932.374C248.195 932.798 246.173 933.171 244.144 933.521C232.278 935.591 220.705 936.594 209.715 936.621C184.457 936.684 162.129 931.573 146.023 922.141C144.169 921.07 142.41 919.998 140.719 918.908C136.001 915.879 131.936 912.772 128.661 909.188C124.995 905.226 122.336 900.705 120.823 895.057C113.961 869.449 111.337 844.443 112.362 821.088C112.762 812.588 113.628 804.301 114.957 796.299C116.395 787.714 118.352 779.448 120.796 771.558C121.671 768.791 122.609 766.08 123.603 763.401L123.62 763.373C126.91 754.412 130.911 746.032 135.551 738.325C138.106 733.999 140.868 729.906 143.832 726.025C158.241 707.163 177.057 693.68 199.244 687.735L199.402 687.693C201.089 687.241 202.789 686.834 204.49 686.523C204.664 686.452 204.85 686.426 205.037 686.4C229.512 681.434 254.731 686.446 278.058 699.248C288.433 704.934 298.421 712.146 307.804 720.701C308.601 721.428 309.377 722.161 310.152 722.894C313.798 726.331 317.335 729.989 320.773 733.819C321.112 734.187 321.429 734.56 321.769 734.927C324.367 737.873 326.917 741 329.408 744.264C346.853 767.156 361.494 797.407 369.903 828.34Z" fill="#9241FE"/>
<path d="M226.845 526.037C227.51 525.28 247.135 485.92 250.944 477.543C256.639 465.044 270.744 468.09 272.811 497.586C272.811 497.586 282.035 480.258 289.543 487.845C300.696 499.134 281.041 505.8 314.437 565.9L226.845 526.037Z" fill="#9241FE"/>
<path d="M313.436 562.066L312.172 561.489C309.965 556.943 308.104 552.787 306.547 548.959C308.554 553.028 310.831 557.386 313.436 562.066Z" fill="#7F7F7F"/>
<path d="M32.1894 641.503C31.0612 572.757 13.4525 576.077 17.4663 560.723C20.1745 550.399 36.8273 560.793 36.8273 560.793C23.8917 534.209 34.226 525.073 45.7716 532.519C65.984 545.577 93.1443 552.432 94.0991 552.755C94.0991 552.755 140.744 531.068 146.806 529.299C151.574 527.925 258.794 484.604 311.259 557.996L315.299 564.342C335.886 596.98 349.388 624.329 353.769 642.57C354.043 643.413 354.289 644.239 354.518 645.094C356.731 653.353 357.29 662.729 355.445 673.305C348.868 705.286 285.639 735.373 245.472 746.135L194.28 759.852C174.209 765.23 61.6086 795.401 41.1334 730.778C35.4818 712.926 32.4808 679.314 32.2047 645.431L32.1894 641.503Z" fill="#9241FE"/>
<path d="M354.219 644.066C354.731 645.979 355.16 647.938 355.459 649.956C350.224 632.04 337.388 606.635 318.531 576.766L314.532 570.481C282.298 504.547 182.503 531.022 152.022 542.107C146.153 544.234 99.9381 565.276 99.9381 565.276C98.9894 564.975 72.1352 558.183 52.1631 545.301C40.7602 537.938 32.7682 543.215 45.5459 569.48C45.5459 569.48 23.9348 562.633 24.2025 573.173C24.6078 589.536 13.1917 575.014 17.2115 559.683C19.9198 549.359 36.5726 559.753 36.5726 559.753C23.6144 533.175 33.9427 524.016 45.4884 531.462C65.7233 544.514 92.8611 551.375 93.8384 551.692C93.8384 551.692 140.477 529.982 146.545 528.236C151.314 526.862 258.533 483.541 310.976 556.939L315.016 563.285C335.603 595.923 349.105 623.272 353.486 641.513C353.76 642.356 353.989 643.211 354.219 644.066Z" fill="#A670FC"/>
<g opacity="0.3">
<g opacity="0.3">
<g opacity="0.3">
<g opacity="0.3">
<path opacity="0.3" d="M209.045 651.223C209.178 652.08 209.295 652.965 209.417 653.873C213.215 685.149 194.309 711.8 169.735 721.616C151.498 728.89 111.799 731.497 89.5377 694.05C81.5128 680.572 77.2316 665.584 79.1849 656.403C82.5722 640.422 102.597 630.546 111.523 626.418C112.449 626.001 113.464 625.56 114.53 625.13C133.24 617.729 171.744 611.922 187.545 619.771C187.545 619.771 204.62 622.648 209.045 651.223Z" fill="#441584"/>
</g>
</g>
</g>
</g>
<path d="M248.659 716.53C237.036 722.298 223.877 727.463 209.154 732.011C194.129 735.434 180.173 737.534 167.246 738.345C73.3868 744.128 72.3159 701.968 70.5965 650.817C70.6158 650.619 70.5944 650.359 70.5912 650.167C70.4128 645.271 60.8082 625.897 75.8247 594.452C81.3211 582.922 95.444 574.604 110.293 572.506C119.061 572.737 128.004 574.248 136.538 576.665C137.894 577.314 139.274 578.054 140.666 578.839C149.537 583.866 159.711 584.661 168.93 581.804C178.336 579.646 186.749 573.87 191.97 565.092C192.789 563.739 193.615 562.408 194.458 561.145C200.64 554.785 207.623 548.983 215.107 544.421C229.016 538.813 245.361 538.968 255.931 546.193C284.636 565.923 285.959 587.515 288.321 591.827C288.414 591.995 288.503 592.236 288.596 592.404C312.688 637.584 332.812 674.615 248.659 716.53Z" fill="#A369FF"/>
<path d="M134.61 694.131C146.454 690.957 152.373 674.643 147.831 657.692C143.289 640.741 130.006 629.572 118.162 632.745C106.319 635.919 100.4 652.233 104.942 669.184C109.484 686.135 122.767 697.304 134.61 694.131Z" fill="white"/>
<path d="M132.335 675.061C137.945 673.558 140.166 663.653 137.295 652.938C134.424 642.223 127.548 634.755 121.938 636.259C116.328 637.762 114.107 647.667 116.978 658.382C119.849 669.097 126.725 676.564 132.335 675.061Z" fill="#441484"/>
<path d="M261.049 660.251C272.892 657.077 278.811 640.763 274.269 623.812C269.727 606.861 256.444 595.692 244.601 598.865C232.757 602.039 226.838 618.353 231.38 635.304C235.922 652.255 249.205 663.424 261.049 660.251Z" fill="white"/>
<path d="M222.391 657.562C223.788 662.325 223.122 670.1 200.767 677.127C196.028 678.614 188.043 679.596 185.368 679.155C178.171 677.948 174.043 675.774 173.292 670.718C172.895 667.978 174.6 664.169 176.526 662.447C181.375 658.133 180.7 658.314 181.982 654.907C184.558 648.14 187.298 646.393 190.575 644.671C201.81 638.718 220.467 651.011 222.391 657.562Z" fill="#FF8E06"/>
<g opacity="0.3">
<g opacity="0.3">
<g opacity="0.3">
<g opacity="0.3">
<path opacity="0.3" d="M200.76 677.104C196.034 678.636 188.006 679.46 185.289 678.862C177.984 677.25 173.742 674.648 172.831 668.911C172.692 668.032 172.721 667.059 172.869 666.079C174.952 668.632 178.435 670.111 183.233 671.188C185.928 671.793 193.972 670.94 198.704 669.431C215.454 664.074 219.852 657.807 220.343 652.707C221.096 653.808 221.633 654.822 221.902 655.738C223.486 661.199 223.085 669.964 200.76 677.104Z" fill="#441584"/>
</g>
</g>
</g>
</g>
<g opacity="0.35">
<g opacity="0.35">
<g opacity="0.35">
<g opacity="0.35">
<path opacity="0.35" d="M221.317 665.348L221.245 665.078C219.321 658.527 199.735 644.746 189.473 652.175C187.212 653.818 186.648 657.201 185.637 660.269C184.514 663.729 177.28 666.343 176.333 670.552C176.144 671.375 174.17 671.3 173.66 672.185C173.511 671.718 173.4 671.217 173.307 670.688C172.91 667.948 174.615 664.139 176.547 662.439C181.397 658.125 180.722 658.306 182.003 654.9C184.579 648.132 187.319 646.385 190.59 644.64C201.78 638.7 220.46 650.987 222.361 657.544C223.001 659.663 223.222 662.378 221.317 665.348Z" fill="white"/>
</g>
</g>
</g>
</g>
<path d="M209.039 642.474C206.973 641.604 204.933 640.921 202.965 640.508C197.713 639.359 192.941 639.817 189.115 641.831C185.34 643.856 181.949 646.139 179.048 653.766C178.815 654.335 178.653 654.812 178.519 655.21C177.974 656.779 177.904 656.966 174.435 660.042C171.869 662.346 169.559 667.137 170.158 671.173C170.399 672.7 170.85 674.026 171.491 675.157C174.147 679.848 179.859 681.453 184.863 682.307C188.099 682.862 195.659 681.825 200.452 680.541C200.902 680.421 201.323 680.283 201.745 680.146C202.723 679.836 203.656 679.538 204.538 679.229C218.96 674.279 226.045 668.136 226.07 660.581L226.064 660.558C226.074 659.422 225.918 658.21 225.598 657.017L225.502 656.657C223.873 651.209 216 645.408 209.039 642.474ZM176.466 670.231C176.454 670.186 176.448 670.163 176.458 670.112C176.419 669.785 176.429 669.372 176.557 668.952C176.752 667.79 177.351 666.424 178.093 665.502C178.103 665.451 178.126 665.445 178.148 665.439C178.302 665.204 178.508 664.981 178.68 664.814C178.781 664.739 178.83 664.653 178.908 664.584C178.93 664.578 178.924 664.555 178.947 664.549C183.039 660.92 183.611 659.995 184.555 657.307C184.673 656.937 184.824 656.511 185.008 656.028C187.189 650.306 189.32 648.988 191.761 647.658C191.806 647.646 191.851 647.634 191.868 647.605C191.974 647.553 192.036 647.512 192.142 647.46C192.798 647.115 193.477 646.861 194.197 646.668C195.367 646.354 196.608 646.215 197.83 646.273C197.875 646.261 197.948 646.266 197.999 646.276C200.651 646.361 203.257 647.086 205.242 647.833C205.725 648.017 206.157 648.19 206.561 648.347C210.016 649.809 213.056 651.792 215.313 653.647C216.924 654.976 218.121 656.296 218.783 657.324C219.061 657.732 219.237 658.119 219.321 658.434C219.651 659.576 219.671 660.728 219.355 661.801C218.336 665.379 213.945 668.702 206.232 671.781L206.21 671.787C204.29 672.543 202.178 673.302 199.817 674.031C195.275 675.441 187.83 676.278 185.914 675.971C177.782 674.605 176.801 672.384 176.466 670.231Z" fill="#441484"/>
<path d="M257.865 639.843C263.518 638.328 265.756 628.347 262.863 617.549C259.969 606.751 253.041 599.226 247.387 600.741C241.734 602.256 239.496 612.237 242.389 623.035C245.282 633.833 252.211 641.358 257.865 639.843Z" fill="#441484"/>
</g>
<path d="M314.481 810.015L314.518 810.118C318.103 820.661 316.867 831.834 311.819 842.757L311.766 842.87C303.785 860.02 286.273 876.55 262.938 889.14C255.362 893.209 247.194 896.865 238.514 900.007C237.65 900.32 236.807 900.625 235.936 900.918C228.905 903.347 221.91 905.228 215.032 906.602C171.724 915.303 130.126 877.578 130.642 830.236C130.644 830.049 130.666 829.854 130.655 829.695C130.866 813.893 135.752 799.887 144.444 790.226L149.693 784.417C152.646 781.138 156.474 778.216 160.746 775.879C168.455 771.598 177.595 769.15 185.438 769.544L199.801 770.276C199.822 770.268 199.829 770.289 199.87 770.274L203.972 770.487C209.287 770.773 214.437 770.025 219.21 768.367C220.444 767.92 221.656 767.411 222.853 766.862C227.502 764.666 231.689 761.452 235.308 757.443L235.363 757.4L245.928 747.642C251.721 742.311 260.29 738.348 268.952 736.7C287.481 754.977 304.168 781.854 314.481 810.015Z" fill="#A369FF"/>
<path d="M310.924 871.895C304.761 875.243 298.155 878.263 291.227 880.911C290.37 881.244 289.527 881.55 288.663 881.862C280.004 884.998 271.369 887.426 262.943 889.151C236.957 894.419 212.915 892.911 195.811 884.866L195.699 884.814C184.814 879.682 176.725 871.862 172.729 861.468L172.692 861.365C162.585 833.129 158.198 801.799 160.751 775.889C168.46 771.609 177.6 769.161 185.443 769.555L199.806 770.287C199.827 770.279 199.834 770.3 199.876 770.285C205.203 771.055 210.477 770.843 215.474 769.546C216.745 769.202 218.002 768.817 219.236 768.37C223.985 766.581 228.399 763.866 232.299 760.244L235.314 757.454L235.368 757.411L245.933 747.653C251.726 742.322 260.295 738.359 268.957 736.711C273.736 735.772 278.526 735.573 282.915 736.194L290.665 737.296C303.528 739.153 316.24 746.764 326.527 758.789C326.648 758.932 326.79 759.066 326.883 759.195C357.568 795.241 349.756 850.833 310.924 871.895Z" fill="#A369FF"/>
</g>
</g>
<defs>
<clipPath id="clip0_900_2680">
<rect width="375" height="812" fill="white"/>
</clipPath>
<clipPath id="clip1_900_2680">
<rect width="375" height="371" fill="white" transform="translate(0 444)"/>
</clipPath>
<clipPath id="clip2_900_2680">
<rect width="427.827" height="493.591" fill="white" transform="translate(-59 554.73) rotate(-15)"/>
</clipPath>
</defs>
</svg>
