<svg width="549" height="596" viewBox="0 0 549 596" fill="none" xmlns="http://www.w3.org/2000/svg">
    <g clip-path="url(#clip0_13_1931)">
        <path d="M416.447 502.666C414.053 503.307 411.265 504.299 408.201 505.535C386.533 514.297 351.498 535.631 351.498 535.631C351.498 535.631 339.936 503.695 341.45 487.19C341.67 484.638 342.212 482.466 343.163 480.818C349.293 470.234 373.741 470.206 380.264 470.388C381.295 470.405 381.868 470.447 381.868 470.447C381.868 470.447 381.955 470.497 382.151 470.591C386.331 472.696 434.979 497.7 416.447 502.666Z" fill="#FF8E06"/>
        <path d="M328.795 541.715C328.795 541.715 324.294 541.602 317.425 541.585C300.674 541.53 269.81 541.957 256.065 545.64C236.713 550.826 269.902 500.449 269.902 500.449C269.902 500.449 270.751 499.879 272.208 499.025C278.226 495.409 294.646 486.391 305.231 488.783C306.455 489.066 307.567 489.477 308.607 490.078C310.232 491.035 311.781 492.623 313.248 494.722C322.828 508.231 328.795 541.715 328.795 541.715Z" fill="#FF8E06"/>
        <path d="M506.099 379.722C497.713 385.17 486.721 390.827 472.954 395.249C470.591 396.004 468.17 396.726 465.64 397.404C422.011 409.094 436.673 404.091 436.673 404.091L371.465 277.713L373.93 278.982L373.959 278.999C373.988 279.016 373.988 279.016 374.017 279.032L506.307 346.489C518.204 354.417 518.11 371.935 506.099 379.722Z" fill="#9241FE"/>
        <path d="M184.993 323.525L97.2765 456.064C90.9377 468.879 99.7786 484.002 114.073 484.741C125.789 485.339 140.698 484.447 157.976 479.818C201.582 468.134 191.37 470.87 191.37 470.87L184.993 323.525Z" fill="#9241FE"/>
        <path d="M434.479 389.336L434.735 390.293C435.865 394.51 436.32 398.762 436.123 403.041C436.113 403.459 436.103 403.877 436.07 404.301C436.056 404.525 436.037 404.725 436.017 404.926C435.349 412.825 432.551 420.709 427.917 428.4C427.878 428.435 427.845 428.493 427.811 428.551C418.493 443.923 401.839 458.451 380.265 470.388C379.204 470.99 378.138 471.569 377.049 472.154C366.246 477.883 354.293 482.967 341.45 487.19C337.949 488.348 334.384 489.449 330.772 490.466C329.57 490.813 328.362 491.136 327.131 491.466C325.718 491.845 324.299 492.201 322.902 492.551C319.676 493.366 316.448 494.084 313.247 494.722C311.188 495.152 309.14 495.53 307.085 495.885C295.065 497.982 283.341 498.998 272.208 499.025C246.621 499.089 224.003 493.911 207.688 484.357C205.81 483.272 204.028 482.186 202.315 481.081C197.536 478.013 193.418 474.865 190.1 471.235C186.386 467.222 183.693 462.642 182.16 456.92C175.209 430.98 172.551 405.649 173.59 381.99C173.994 373.379 174.872 364.984 176.218 356.879C177.675 348.182 179.658 339.808 182.133 331.816C183.019 329.013 183.969 326.267 184.977 323.553L184.994 323.525C188.327 314.447 192.38 305.958 197.08 298.151C199.668 293.769 202.466 289.623 205.468 285.692C220.064 266.584 239.126 252.926 261.601 246.904L261.761 246.861C263.47 246.403 265.192 245.991 266.915 245.675C267.092 245.604 267.28 245.578 267.469 245.552C292.262 240.521 317.809 245.598 341.44 258.566C351.949 264.326 362.067 271.632 371.572 280.299C372.38 281.035 373.165 281.777 373.95 282.52C377.644 286.001 381.227 289.707 384.709 293.587C385.053 293.959 385.374 294.337 385.718 294.709C388.35 297.693 390.934 300.861 393.457 304.167C411.128 327.357 425.96 358.001 434.479 389.336Z" fill="#9241FE"/>
        <g opacity="0.3">
            <g opacity="0.3">
                <g opacity="0.3">
                    <g opacity="0.3">
                        <path opacity="0.3" d="M453.002 376.775C452.894 376.462 452.78 376.126 452.671 375.813C452.665 375.79 452.665 375.79 452.659 375.767C452.774 376.103 452.882 376.416 453.002 376.775Z" fill="#441584"/>
                    </g>
                </g>
            </g>
        </g>
        <path d="M289.562 83.1019C290.236 82.3349 310.116 42.4627 313.974 33.9773C319.743 21.3154 334.031 24.4008 336.125 54.2809C336.125 54.2809 345.47 36.7275 353.075 44.4132C364.373 55.8493 344.463 62.6012 378.293 123.483L289.562 83.1019Z" fill="#9241FE"/>
        <path d="M377.277 119.601L375.996 119.016C373.761 114.411 371.875 110.201 370.299 106.324C372.332 110.445 374.638 114.86 377.277 119.601Z" fill="#7F7F7F"/>
        <path d="M92.3749 200.069C91.232 130.429 73.3944 133.792 77.4603 118.239C80.2038 107.781 97.073 118.31 97.073 118.31C83.9692 91.3801 94.4379 82.1252 106.134 89.6677C126.609 102.896 154.122 109.84 155.089 110.167C155.089 110.167 202.34 88.1982 208.481 86.4062C213.312 85.014 321.925 41.1304 375.072 115.477L379.165 121.905C400.019 154.967 413.697 182.672 418.135 201.149C418.413 202.003 418.662 202.841 418.894 203.707C421.135 212.072 421.701 221.571 419.832 232.284C413.17 264.681 349.119 295.159 308.43 306.061L256.573 319.956C236.24 325.404 122.177 355.968 101.435 290.504C95.71 272.42 92.67 238.372 92.3903 204.047L92.3749 200.069Z" fill="#9241FE"/>
        <path d="M418.591 202.664C419.11 204.602 419.544 206.586 419.847 208.631C414.545 190.482 401.541 164.747 382.44 134.489L378.388 128.123C345.735 61.3314 244.643 88.1503 213.766 99.38C207.82 101.535 161.005 122.85 161.005 122.85C160.044 122.546 132.84 115.665 112.609 102.616C101.057 95.1567 92.9616 100.502 105.905 127.108C105.905 127.108 84.0134 120.172 84.2846 130.849C84.6951 147.426 73.1307 132.714 77.2027 117.184C79.9462 106.726 96.8154 117.255 96.8154 117.255C83.6889 90.3313 94.1514 81.0537 105.847 88.5962C126.345 101.818 153.836 108.769 154.826 109.09C154.826 109.09 202.071 87.0977 208.217 85.3285C213.048 83.9364 321.661 40.0527 374.786 114.405L378.878 120.833C399.733 153.895 413.411 181.6 417.849 200.078C418.126 200.932 418.358 201.798 418.591 202.664Z" fill="#A670FC"/>
        <g opacity="0.3">
            <g opacity="0.3">
                <g opacity="0.3">
                    <g opacity="0.3">
                        <path opacity="0.3" d="M271.528 209.918C271.663 210.786 271.781 211.683 271.906 212.602C275.753 244.285 256.601 271.282 231.708 281.226C213.233 288.595 173.019 291.235 150.468 253.302C142.339 239.648 138.002 224.466 139.98 215.165C143.412 198.976 163.696 188.972 172.739 184.79C173.677 184.368 174.705 183.922 175.785 183.485C194.738 175.988 233.742 170.106 249.75 178.057C249.75 178.057 267.046 180.971 271.528 209.918Z" fill="#441584"/>
                    </g>
                </g>
            </g>
        </g>
        <path d="M311.659 276.074C299.885 281.916 286.555 287.149 271.641 291.757C256.421 295.224 242.283 297.351 229.188 298.172C134.109 304.03 133.024 261.322 131.282 209.507C131.302 209.306 131.28 209.043 131.277 208.848C131.096 203.888 121.366 184.263 136.578 152.409C142.146 140.729 156.453 132.303 171.495 130.178C180.377 130.412 189.436 131.943 198.081 134.39C199.454 135.048 200.852 135.798 202.262 136.593C211.249 141.685 221.555 142.49 230.894 139.597C240.423 137.41 248.945 131.56 254.233 122.667C255.063 121.296 255.899 119.948 256.754 118.669C263.016 112.227 270.09 106.349 277.671 101.728C291.761 96.0472 308.318 96.2037 319.025 103.522C348.104 123.509 349.445 145.382 351.836 149.75C351.931 149.92 352.021 150.164 352.115 150.334C376.521 196.102 396.907 233.614 311.659 276.074Z" fill="#A369FF"/>
        <path d="M439.536 431.737L439.44 431.836C439.44 431.836 439.434 431.813 439.416 431.745L439.536 431.737Z" fill="#EF8B01"/>
        <path d="M439.656 421.517L439.584 421.609C439.584 421.609 439.578 421.587 439.56 421.519L439.656 421.517Z" fill="#EF8B01"/>
        <path d="M196.126 253.38C208.124 250.166 214.12 233.639 209.519 216.468C204.917 199.296 191.462 187.982 179.464 191.197C167.467 194.412 161.471 210.938 166.072 228.109C170.673 245.281 184.129 256.595 196.126 253.38Z" fill="white"/>
        <path d="M193.823 234.064C199.506 232.542 201.755 222.508 198.847 211.654C195.938 200.799 188.973 193.235 183.29 194.757C177.607 196.28 175.358 206.314 178.266 217.168C181.175 228.022 188.139 235.587 193.823 234.064Z" fill="#3A3A3A"/>
        <path d="M324.208 219.061C336.206 215.846 342.202 199.32 337.601 182.149C332.999 164.977 319.544 153.663 307.546 156.878C295.549 160.092 289.553 176.618 294.154 193.79C298.755 210.961 312.211 222.276 324.208 219.061Z" fill="white"/>
        <path d="M285.048 216.337C286.463 221.161 285.789 229.038 263.143 236.156C258.343 237.662 250.254 238.657 247.544 238.21C240.254 236.988 236.072 234.786 235.311 229.664C234.909 226.888 236.636 223.03 238.587 221.285C243.5 216.915 242.816 217.099 244.114 213.648C246.724 206.792 249.499 205.022 252.818 203.278C264.2 197.247 283.099 209.701 285.048 216.337Z" fill="#FF8E06"/>
        <g opacity="0.3">
            <g opacity="0.3">
                <g opacity="0.3">
                    <g opacity="0.3">
                        <path opacity="0.3" d="M263.137 236.133C258.349 237.685 250.217 238.52 247.465 237.914C240.065 236.281 235.767 233.646 234.845 227.834C234.704 226.943 234.733 225.958 234.883 224.965C236.993 227.551 240.521 229.049 245.382 230.141C248.112 230.753 256.26 229.889 261.054 228.36C278.021 222.934 282.477 216.586 282.974 211.42C283.737 212.534 284.281 213.561 284.554 214.49C286.158 220.021 285.752 228.901 263.137 236.133Z" fill="#441584"/>
                    </g>
                </g>
            </g>
        </g>
        <g opacity="0.35">
            <g opacity="0.35">
                <g opacity="0.35">
                    <g opacity="0.35">
                        <path opacity="0.35" d="M283.962 224.225L283.888 223.952C281.939 217.316 262.099 203.356 251.704 210.881C249.414 212.545 248.842 215.972 247.818 219.081C246.68 222.586 239.352 225.234 238.393 229.497C238.201 230.33 236.202 230.255 235.685 231.151C235.534 230.679 235.422 230.171 235.327 229.635C234.926 226.859 236.653 223.001 238.61 221.279C243.522 216.909 242.839 217.092 244.137 213.641C246.747 206.786 249.522 205.016 252.835 203.249C264.171 197.231 283.093 209.677 285.019 216.32C285.668 218.467 285.892 221.216 283.962 224.225Z" fill="white"/>
                    </g>
                </g>
            </g>
        </g>
        <path d="M271.522 201.051C269.43 200.17 267.363 199.478 265.37 199.059C260.049 197.895 255.214 198.36 251.339 200.4C247.515 202.451 244.08 204.764 241.141 212.49C240.905 213.066 240.741 213.55 240.605 213.953C240.053 215.542 239.982 215.732 236.468 218.848C233.869 221.181 231.529 226.035 232.136 230.123C232.379 231.671 232.837 233.014 233.486 234.159C236.176 238.911 241.962 240.537 247.031 241.402C250.309 241.965 257.968 240.914 262.823 239.613C263.279 239.491 263.706 239.352 264.133 239.213C265.124 238.899 266.069 238.597 266.963 238.284C281.572 233.27 288.749 227.047 288.775 219.393L288.769 219.371C288.778 218.22 288.62 216.992 288.296 215.784L288.199 215.419C286.549 209.9 278.573 204.024 271.522 201.051ZM238.525 229.169C238.513 229.123 238.507 229.1 238.518 229.049C238.478 228.717 238.488 228.299 238.618 227.873C238.816 226.697 239.422 225.313 240.173 224.378C240.184 224.327 240.207 224.321 240.23 224.314C240.386 224.077 240.594 223.85 240.769 223.681C240.87 223.605 240.92 223.519 240.999 223.449C241.022 223.442 241.016 223.42 241.039 223.414C245.184 219.737 245.764 218.8 246.72 216.077C246.839 215.703 246.992 215.271 247.179 214.781C249.388 208.985 251.547 207.649 254.02 206.303C254.066 206.291 254.111 206.278 254.128 206.249C254.236 206.196 254.298 206.155 254.406 206.102C255.07 205.753 255.758 205.495 256.487 205.3C257.673 204.982 258.93 204.841 260.167 204.9C260.213 204.888 260.287 204.892 260.339 204.903C263.025 204.989 265.665 205.723 267.675 206.479C268.165 206.666 268.603 206.842 269.012 207.001C272.512 208.482 275.591 210.491 277.878 212.37C279.509 213.716 280.722 215.052 281.392 216.094C281.674 216.508 281.852 216.9 281.938 217.219C282.272 218.375 282.292 219.543 281.972 220.63C280.94 224.254 276.492 227.62 268.679 230.739L268.656 230.745C266.711 231.511 264.572 232.28 262.18 233.018C257.579 234.447 250.037 235.295 248.097 234.984C239.859 233.6 238.865 231.35 238.525 229.169Z" fill="#3A3A3A"/>
        <path d="M320.983 198.389C326.711 196.855 328.977 186.744 326.046 175.805C323.116 164.867 316.097 157.244 310.37 158.779C304.643 160.313 302.376 170.424 305.307 181.362C308.238 192.301 315.256 199.924 320.983 198.389Z" fill="#3A3A3A"/>
        <path d="M416.447 502.666C414.054 503.307 411.266 504.299 408.201 505.535C407.197 504.705 406.649 503.752 406.705 502.687C407.152 495.238 377.049 472.154 377.049 472.154L382.152 470.591C386.331 472.696 434.979 497.7 416.447 502.666Z" fill="#FFAB57"/>
        <path d="M313.247 494.722C322.828 508.231 328.795 541.715 328.795 541.715C328.795 541.715 324.293 541.602 317.424 541.586C316.554 533.415 310.795 510.282 307.084 495.885L307.048 495.748C310.996 494.983 316.815 493.815 322.66 492.469L322.902 492.551C319.675 493.366 316.447 494.085 313.247 494.722Z" fill="#FFAB57"/>
    </g>
    <defs>
        <clipPath id="clip0_13_1931">
            <rect width="433.389" height="500.007" fill="white" transform="translate(0 112.169) rotate(-15)"/>
        </clipPath>
    </defs>
</svg>
