<svg width="365" height="436" viewBox="0 0 365 436" fill="none" xmlns="http://www.w3.org/2000/svg">
<path d="M205.12 173.998L260.922 145.509C283.533 133.933 311.75 143.158 322.106 166.356C322.829 168.029 323.598 169.612 323.869 171.195C349.238 313.142 341.189 300.164 232.84 362.161" fill="#F4AC1E"/>
<mask id="mask0_73_5292" style="mask-type:luminance" maskUnits="userSpaceOnUse" x="205" y="140" width="131" height="223">
<path d="M205.12 173.998L260.922 145.509C283.533 133.933 311.75 143.158 322.106 166.356C322.829 168.029 323.598 169.612 323.869 171.195C349.238 313.142 341.189 300.164 232.84 362.161" fill="white"/>
</mask>
<g mask="url(#mask0_73_5292)">
<path d="M331.241 150.122C329.115 141.937 322.603 135.561 313.559 136.827C305.962 137.912 298.094 146.278 300.264 154.508C318.172 222.837 330.698 292.431 337.662 362.749C339.652 382.782 370.628 378.35 368.638 358.363C361.674 288.09 349.148 218.45 331.241 150.122Z" fill="#EDBD6B"/>
</g>
<path d="M229.023 422.899C227.07 421.952 224.672 420.99 221.93 420.012C202.634 413.165 167.505 406.528 167.505 406.528C167.505 406.528 177.584 380.257 187.787 370.932C189.347 369.477 190.912 368.427 192.484 367.983C202.459 364.931 218.724 378.751 222.976 382.523C223.65 383.101 224.019 383.481 224.019 383.481C224.019 383.481 224.04 383.541 224.143 383.742C225.744 387.384 244.2 430.362 229.104 422.939L229.023 422.899Z" fill="#F4AC1E"/>
<path d="M134.989 417.06C134.989 417.06 131.75 414.88 126.675 411.672C114.402 403.832 91.5125 389.788 79.7209 385.944C63.1078 380.533 110.792 361.183 110.792 361.183C110.792 361.183 111.665 361.172 113.121 361.284C119.234 361.597 135.466 363.001 142.134 369.56C142.907 370.332 143.521 371.142 144.018 372.005C144.796 373.408 145.171 375.239 145.293 377.361C146.069 391.128 135.005 417.018 135.005 417.018L134.989 417.06Z" fill="#F4AC1E"/>
<path d="M145.319 377.42C146.096 391.186 135.031 417.076 135.031 417.076C135.031 417.076 131.792 414.895 126.717 411.688C129.861 405.622 136.321 386.988 140.26 375.328L140.307 375.201C143.536 376.509 148.373 378.42 153.316 380.178L153.454 380.326C150.712 379.394 148.003 378.378 145.351 377.335L145.319 377.42Z" fill="#FCC995"/>
<path d="M229.023 422.899C227.07 421.952 224.672 420.99 221.93 420.012C221.714 418.902 221.886 418.03 222.526 417.436C226.943 413.095 219.792 381.833 219.792 381.833L224.042 383.743C225.643 387.385 244.099 430.363 229.003 422.94L229.023 422.899Z" fill="#FCC995"/>
<path d="M82.7984 221.661C90.3503 213.024 104.143 214.2 110.021 224.058C127.25 252.909 124.899 290.713 101.565 317.393C78.2311 344.073 41.105 351.49 10.2193 338.285C-0.317089 333.808 -3.34687 320.242 4.15975 311.605L82.7532 221.616L82.7984 221.661Z" fill="#8333EF"/>
<path d="M279.418 313.866V314.68C279.734 318.298 279.418 321.825 278.559 325.262C278.468 325.578 278.423 325.94 278.332 326.256C278.287 326.437 278.242 326.573 278.197 326.754C276.388 333.04 272.906 339.009 267.932 344.526C267.932 344.526 267.841 344.571 267.841 344.616C257.848 355.605 242.066 364.739 222.756 370.98C221.807 371.296 220.857 371.613 219.862 371.884C210.23 374.823 199.739 377.039 188.705 378.396C185.675 378.758 182.646 379.119 179.571 379.345C178.531 379.436 177.536 379.526 176.45 379.572C175.229 379.662 174.054 379.707 172.878 379.752C170.12 379.888 167.406 379.979 164.738 379.979C163.02 379.979 161.301 379.979 159.583 379.979C149.544 379.752 139.867 378.712 130.868 376.949C114.86 373.829 98.7161 368.221 85.5569 358.363C58.3341 338.059 52.4554 298.355 60.8213 267.289C67.6044 242.101 85.1047 220.938 102.062 201.809C104.866 198.644 107.76 195.75 110.835 193.036C125.668 179.877 143.258 171.828 162.387 170.517H162.522C163.97 170.426 165.417 170.336 166.864 170.381C166.999 170.381 167.18 170.381 167.316 170.381C188.163 170.245 208.014 178.475 225.063 192.81C232.66 199.186 239.669 206.738 245.954 215.285C246.497 216.009 246.995 216.732 247.537 217.456C249.979 220.892 252.285 224.465 254.456 228.173C254.682 228.535 254.863 228.896 255.089 229.258C256.762 232.107 258.345 235.092 259.837 238.167C270.419 259.827 277.564 287.095 279.463 313.866H279.418Z" fill="#8333EF"/>
<path fill-rule="evenodd" clip-rule="evenodd" d="M274.534 67.0518C277.066 70.8051 279.327 74.8749 281.362 79.3518L283.668 85.2305C295.335 115.393 301.983 140.083 302.661 155.82C302.752 156.543 302.797 157.267 302.887 158.036C303.385 165.181 302.299 173.004 299.089 181.37C288.507 206.603 231.62 221.118 196.845 223.47L152.529 226.454C135.164 227.63 37.623 234.187 31.2469 177.752C29.4833 162.151 32.4679 134.024 37.7135 106.122L38.3466 102.867C44.7227 67.3231 41.2407 54.0282 39.1605 46.0694C37.8943 41.3212 37.1708 38.5176 39.3414 34.0407C43.2304 25.9914 55.2591 37.2514 55.2591 37.2514C48.9282 13.2844 58.9219 7.45099 67.1973 15.455C80.5374 28.3429 99.5301 37.8393 103.102 39.6481C103.419 39.829 103.6 39.9194 103.69 39.9194C103.69 39.9194 145.565 29.6543 150.855 29.1569C151.082 29.1569 151.579 29.0664 152.348 28.9308C157.548 28.162 174.642 25.6749 195.126 27.1672C206.432 18.3492 219.184 8.31018 223.254 4.91863C234.875 -4.75858 253.19 -0.462619 246.949 24.3635C246.949 24.3635 264.857 11.1139 272.816 18.3492C277.111 22.2834 275.981 25.2227 274.127 29.9709C271.595 36.4826 267.751 46.4312 274.624 67.1422L274.534 67.0518Z" fill="#8333EF"/>
<path d="M185.268 205.788C174.687 208.683 162.929 210.808 149.996 212.165C136.973 212.572 125.08 212.029 114.227 210.582C102.379 209.044 90.4407 206.738 79.226 202.533C71.5385 199.684 63.9414 195.84 57.8819 190.187C53.1337 185.756 49.4708 180.284 47.3454 174.225C41.8738 158.352 44.2704 139.495 46.034 123.125C47.8429 106.755 52.0032 90.295 61.9517 77.0002C68.4183 68.363 81.4418 63.7957 94.1036 64.474C98.7161 65.5141 104.097 66.6899 108.258 69.0413C118.613 74.8748 128.607 83.0145 141.223 81.7031C144.705 81.3413 147.961 80.9796 151.262 79.7134C155.513 78.1307 159.266 74.513 162.929 71.8902C168.311 68.77 172.697 64.3384 178.304 61.5799C183.595 59.0024 189.338 57.4649 195.307 57.5553C203.854 57.7362 213.079 60.2233 219.274 66.4638C232.931 80.3013 239.85 98.7965 243.513 117.563C246.904 134.837 250.522 154.282 242.382 170.878C239.126 177.526 234.197 183.269 228.138 187.61C215.521 196.654 200.236 201.809 185.404 205.834L185.268 205.788Z" fill="#9B52FD"/>
<path fill-rule="evenodd" clip-rule="evenodd" d="M272.68 18.2134C276.976 22.1476 275.845 25.087 273.991 29.8351C271.549 36.166 267.796 45.7528 273.991 65.4238C254.727 37.2513 222.666 28.3428 196.031 26.2175C207.065 17.6256 219.139 8.12922 223.118 4.78289C234.74 -4.89432 253.054 -0.598361 246.814 24.2278C246.814 24.2278 264.766 10.9329 272.68 18.2134Z" fill="#8333EF"/>
<path fill-rule="evenodd" clip-rule="evenodd" d="M302.48 153.378C302.48 153.966 302.571 154.508 302.571 155.051C302.571 155.006 302.571 154.915 302.571 154.87C302.571 154.373 302.571 153.875 302.48 153.378Z" fill="#6F54A2"/>
<path d="M302.797 157.041C302.797 157.267 302.797 157.538 302.797 157.764C302.752 157.086 302.706 156.408 302.616 155.729C302.616 155.503 302.616 155.232 302.616 155.006C302.706 155.684 302.752 156.362 302.797 157.041Z" fill="#7D5FA8"/>
<path d="M127.476 168.029C126.617 168.075 126.12 169.386 126.436 170.652C128.2 177.933 132.451 183.495 137.244 185.168C141.902 186.796 147.193 185.665 150.448 180.375C152.348 177.254 153.478 173.094 153.976 168.798C154.111 167.487 153.433 166.266 152.574 166.311L127.522 167.984L127.476 168.029Z" fill="#D6862D"/>
<path d="M129.24 167.894C128.516 167.939 128.064 169.024 128.336 170.064C129.828 176.169 133.491 180.782 137.606 182.183C141.585 183.54 146.152 182.59 148.956 178.159C150.584 175.536 151.579 172.054 151.986 168.482C152.122 167.396 151.489 166.356 150.81 166.401L129.285 167.849L129.24 167.894Z" fill="#A86828"/>
<path d="M250.657 259.104C250.657 259.104 250.522 258.832 250.431 258.651C244.779 246.216 236.096 236.81 225.876 232.243L219.726 229.484C216.244 227.947 212.22 226.907 208.105 226.59C200.553 225.867 192.549 227.133 186.444 230.162L175.365 235.725H175.32C175.32 235.725 175.139 235.86 175.048 235.906L172.154 237.353C168.446 239.252 164.512 240.382 160.533 240.835C160.171 240.835 159.764 240.925 159.402 240.97C155.061 241.196 150.629 240.608 146.288 239.116L142.942 237.94H142.897L131.184 233.916C124.763 231.7 116.623 231.564 109.252 233.283C105.183 234.187 101.294 235.725 98.083 237.76L92.3852 241.332C82.8888 247.301 75.5179 257.747 71.5837 270.861C71.5385 270.997 71.4932 271.132 71.448 271.313C59.7811 310.52 85.1951 351.851 123.135 354.971C129.15 355.469 135.39 355.605 141.766 355.243L144.118 355.107C152.031 354.564 159.628 353.479 166.818 351.942H166.909C174.28 352.53 182.012 352.575 189.926 352.032L192.278 351.896C198.654 351.354 204.849 350.449 210.728 349.093C247.854 340.863 267.57 296.592 250.703 259.285L250.657 259.104Z" fill="#9B52FD"/>
<path d="M83.8385 166.221C95.9124 165.407 104.776 150.8 103.6 133.571C102.424 116.342 91.7069 103.047 79.633 103.861C67.559 104.675 58.6958 119.282 59.8715 136.511C61.0473 153.74 71.7646 167.034 83.8385 166.221Z" fill="white"/>
<path fill-rule="evenodd" clip-rule="evenodd" d="M72.7594 132.802C72.4429 134.792 72.3072 136.963 72.4881 139.224C73.1664 149.263 78.8642 157.041 85.2403 156.634C91.6164 156.227 96.2289 147.725 95.5506 137.686C94.8723 127.647 89.1745 119.869 82.7984 120.276H82.3462C82.708 121.271 82.9341 122.311 82.9793 123.442C83.3411 128.687 80.1756 133.164 75.9249 133.436C74.7944 133.526 73.7091 133.3 72.7594 132.802Z" fill="#37276D"/>
<path d="M189.79 159.392C203.04 158.488 212.853 143.791 211.677 126.607C210.501 109.378 198.835 96.1285 185.585 97.0329C172.335 97.9374 162.522 112.634 163.698 129.818C164.874 147.047 176.541 160.297 189.79 159.392Z" fill="white"/>
<path fill-rule="evenodd" clip-rule="evenodd" d="M173.375 125.341C173.014 127.331 172.878 129.501 173.014 131.762C173.692 141.801 179.887 149.579 186.896 149.082C193.905 148.584 199.015 140.083 198.337 130.044C197.659 120.005 191.464 112.227 184.454 112.724H183.957C184.319 113.719 184.59 114.759 184.635 115.89C184.997 121.136 181.515 125.612 176.857 125.929C175.636 126.019 174.461 125.793 173.375 125.341Z" fill="#37276D"/>
<path d="M159.176 166.311C160.442 166.22 161.211 165 160.804 163.824C159.176 159.121 153.84 149.127 138.103 150.212C124.989 151.117 121.191 161.698 120.196 166.582C119.925 167.803 120.919 168.934 122.186 168.843C128.155 171.15 134.667 171.647 140.907 170.29L159.221 166.356L159.176 166.311Z" fill="#F4AC1E"/>
<path d="M156.915 164.683C157.729 164.954 158.453 164.638 158.407 164.05C158.226 161.744 156.598 156.317 146.379 153.061C137.832 150.348 133.491 153.785 131.953 155.594C131.591 156.046 131.953 156.724 132.812 156.995C141.992 152.383 150.042 154.87 156.915 164.728V164.683Z" fill="#FCC995"/>
<path d="M64.8911 341.541C49.2447 304.505 53.9929 273.167 60.7308 253.361C68.0565 231.881 76.2867 221.254 76.7389 220.711L85.5569 222.294C85.5569 222.294 75.5631 236.584 68.8253 256.481C59.8716 283.071 58.0175 314.68 69.6392 342.264L64.8459 341.496L64.8911 341.541Z" fill="#F4AC1E"/>
<path d="M277.337 331.592C241.523 293.743 235.644 260.913 239.036 241.242C242.744 219.626 256.672 211.306 257.214 210.808L262.957 214.788C262.957 214.788 250.703 224.193 247.582 243.186C243.467 268.464 255.134 296.501 281.362 324.176L277.428 331.592H277.337Z" fill="#F4AC1E"/>
<path d="M239.081 208.638C230.082 215.737 230.625 229.62 240.166 235.951C268.158 254.536 306.007 254.039 333.818 232.017C361.584 210.039 370.763 173.275 359.096 141.801C355.117 131.039 341.732 127.376 332.778 134.476L239.126 208.638H239.081Z" fill="#8333EF"/>
<path d="M302.526 158.307C302.526 159.844 302.435 161.427 302.254 163.055C301.892 148.404 296.828 126.472 287.738 99.9271L285.794 94.3197C273.539 37.6583 183.821 37.4774 155.694 39.6932C150.268 40.1002 106.765 46.7024 106.765 46.7024C106.042 46.2954 85.0143 35.6686 71.1315 21.7858C63.2179 13.8722 55.3043 16.2689 60.1429 38.7888C60.1429 38.7888 43.547 29.202 41.3764 37.2513C38.0301 49.7774 31.6992 36.3921 38.5275 25.5844C43.14 18.3038 54.7617 29.5638 54.7617 29.5638C49.8779 6.72736 60.5951 1.88875 68.5992 9.8928C82.6628 23.9112 103.871 34.6737 104.64 35.0807C104.64 35.0807 148.685 28.0715 154.157 27.9811C158.453 27.8906 258.255 16.8116 285.749 83.2407L287.693 88.8932C297.642 117.88 302.842 141.394 302.39 156.136C302.39 156.815 302.435 157.538 302.435 158.216L302.526 158.307Z" fill="#9B52FD"/>
</svg>
