<svg width="375" height="413" viewBox="0 0 375 413" fill="none" xmlns="http://www.w3.org/2000/svg">
<rect x="-19" y="-87" width="395" height="266" fill="#EFEFEF"/>
<path d="M391.439 111.225H-4.25537V387H391.439V111.225Z" fill="#EFEFEF"/>
<path d="M395.693 291.74H-8.50879V305.43H395.693V291.74Z" fill="#CB7D3B"/>
<path d="M349.533 123.623C349.533 123.61 349.521 123.61 349.521 123.598C349.509 123.573 349.484 123.548 349.459 123.524C349.434 123.499 349.422 123.486 349.397 123.474C349.385 123.474 349.385 123.462 349.373 123.462C349.348 123.449 349.336 123.462 349.311 123.449C349.298 123.449 349.274 123.437 349.261 123.437H175.317C175.292 123.437 175.28 123.449 175.267 123.449C175.242 123.449 175.23 123.449 175.205 123.462C175.193 123.462 175.193 123.474 175.181 123.474C175.156 123.486 175.144 123.511 175.119 123.524C175.094 123.548 175.082 123.561 175.069 123.585C175.069 123.598 175.057 123.598 175.045 123.61C175.032 123.623 175.045 123.647 175.045 123.672C175.045 123.684 175.032 123.697 175.032 123.721V246.72C175.032 246.732 175.045 246.744 175.045 246.769C175.045 246.781 175.045 246.806 175.045 246.831C175.045 246.843 175.057 246.843 175.069 246.856C175.082 246.88 175.106 246.905 175.119 246.917C175.144 246.942 175.156 246.955 175.181 246.967C175.193 246.967 175.193 246.979 175.205 246.979C175.242 246.992 175.28 247.004 175.317 247.004H349.261C349.298 247.004 349.336 246.992 349.373 246.979C349.385 246.979 349.385 246.967 349.397 246.967C349.422 246.955 349.434 246.942 349.447 246.917C349.472 246.893 349.496 246.868 349.509 246.843C349.509 246.831 349.521 246.831 349.521 246.819C349.521 246.806 349.521 246.794 349.521 246.769C349.521 246.744 349.533 246.732 349.533 246.707V123.734C349.533 123.709 349.521 123.697 349.521 123.672C349.533 123.66 349.533 123.635 349.533 123.623Z" fill="#A7A9AC"/>
<path d="M260.267 182.809L341.112 126.813L347.233 121.31H173.289L179.409 126.813L260.267 182.809Z" fill="#9B431F"/>
<path d="M260.267 183.093C260.205 183.093 260.156 183.081 260.106 183.044L179.249 127.048L173.103 121.52C173.017 121.434 172.98 121.31 173.029 121.199C173.078 121.087 173.177 121.013 173.301 121.013H347.246C347.369 121.013 347.468 121.087 347.518 121.199C347.567 121.31 347.53 121.434 347.444 121.52L341.323 127.036L260.44 183.056C260.378 183.081 260.317 183.093 260.267 183.093ZM174.043 121.594L179.607 126.603L260.267 182.45L340.952 126.578L346.479 121.594H174.043Z" fill="#4D1800"/>
<path d="M260.267 182.81L179.409 126.814L173.289 121.311V244.309L179.409 238.793L260.267 182.81Z" fill="#B94D26"/>
<path d="M173.289 244.593C173.252 244.593 173.215 244.581 173.178 244.568C173.066 244.519 173.004 244.42 173.004 244.308V121.31C173.004 121.199 173.066 121.088 173.178 121.051C173.276 121.001 173.4 121.026 173.487 121.1L179.608 126.616L260.428 182.587C260.502 182.636 260.552 182.735 260.552 182.822C260.552 182.921 260.502 183.007 260.428 183.057L179.583 239.053L173.487 244.543C173.425 244.568 173.363 244.593 173.289 244.593ZM173.586 121.953V243.653L179.224 238.583L259.76 182.809L179.261 127.061L173.586 121.953Z" fill="#4D1800"/>
<path d="M341.113 126.813L260.268 182.809L341.113 238.793L347.234 244.308V121.31L341.113 126.813Z" fill="#B94D26"/>
<path d="M347.234 244.593C347.159 244.593 347.098 244.568 347.036 244.519L340.915 239.003L260.094 183.032C260.02 182.982 259.971 182.883 259.971 182.797C259.971 182.698 260.02 182.611 260.094 182.562L340.94 126.566L347.036 121.075C347.122 121.001 347.246 120.976 347.345 121.026C347.456 121.075 347.518 121.174 347.518 121.285V244.284C347.518 244.395 347.456 244.506 347.345 244.543C347.32 244.593 347.271 244.593 347.234 244.593ZM260.774 182.809L341.286 238.558L346.949 243.653V121.953L341.311 127.024L260.774 182.809Z" fill="#4D1800"/>
<path d="M260.267 182.81L179.409 238.793L173.289 244.309H347.233L341.112 238.793L260.267 182.81Z" fill="#9B431F"/>
<path d="M347.233 244.593H173.289C173.177 244.593 173.066 244.519 173.017 244.407C172.98 244.296 173.004 244.172 173.091 244.086L179.212 238.57L260.094 182.55C260.193 182.488 260.329 182.475 260.428 182.55L341.273 238.546L347.419 244.086C347.505 244.172 347.543 244.296 347.493 244.407C347.468 244.519 347.357 244.593 347.233 244.593ZM174.043 244.024H346.479L340.915 239.016L260.255 183.168L179.57 239.04L174.043 244.024Z" fill="#4D1800"/>
<path d="M341.112 126.813H179.409V238.793H341.112V126.813Z" fill="#004443"/>
<path d="M341.112 239.09H179.409C179.249 239.09 179.125 238.966 179.125 238.793V126.813C179.125 126.653 179.261 126.517 179.409 126.517H341.112C341.273 126.517 341.397 126.653 341.397 126.813V238.793C341.409 238.954 341.273 239.09 341.112 239.09ZM179.706 238.508H340.828V127.11H179.706V238.508Z" fill="#00192A"/>
<path d="M339.332 129.398H181.19V236.332H339.332V129.398Z" fill="#137978"/>
<path d="M67.5315 271.091L165.512 353.224C173.088 361.298 167.575 371.836 155.029 373.208C144.744 374.328 131.405 374.662 115.394 372.672C74.9864 367.651 39.8448 356.379 39.8448 356.379L67.5315 271.091Z" fill="#9241FE"/>
<path d="M21.7419 390.769C20.9538 390.3 19.9711 389.818 18.852 389.325C10.9344 385.847 -3.76614 382.076 -3.76614 382.076C-3.76614 382.076 1.70865 370.764 6.47264 366.902C7.20542 366.302 7.92098 365.884 8.60309 365.711C12.9905 364.601 19.312 371.071 20.9485 372.846C21.2101 373.124 21.3471 373.286 21.3471 373.286C21.3471 373.286 21.3562 373.322 21.382 373.399C21.9038 375.05 27.8437 394.396 21.7419 390.769Z" fill="#FF8E06"/>
<path d="M21.7426 390.769C20.9546 390.301 19.9718 389.818 18.8527 389.325C18.8133 388.845 18.924 388.454 19.221 388.193C21.31 386.388 19.6508 372.451 19.6508 372.451L21.3827 373.399C21.9046 375.05 27.8444 394.396 21.7426 390.769Z" fill="#FFAB57"/>
<path d="M-65.5758 271.402L-65.933 271.836C-67.5064 273.749 -68.7393 275.837 -69.6421 278.093C-69.735 278.311 -69.8279 278.53 -69.9104 278.756C-69.9559 278.875 -69.993 278.983 -70.03 279.091C-71.5391 283.327 -71.9448 288.055 -71.3578 293.114C-71.3456 293.141 -71.3419 293.179 -71.3383 293.217C-70.1351 303.342 -64.9459 314.753 -56.6077 325.981C-56.2014 326.541 -55.7866 327.09 -55.3615 327.648C-51.1281 333.142 -46.1495 338.573 -40.5091 343.768C-38.9731 345.188 -37.391 346.594 -35.7644 347.967C-35.2251 348.428 -34.6773 348.878 -34.1191 349.338C-33.4782 349.865 -32.8288 350.382 -32.1898 350.89C-30.7153 352.069 -29.2172 353.197 -27.7142 354.278C-26.7517 354.983 -25.7826 355.659 -24.8049 356.325C-19.0903 360.229 -13.2751 363.506 -7.53257 366.133C5.66448 372.172 18.5591 374.808 29.2263 373.704C30.451 373.585 31.6258 373.443 32.7696 373.274C35.958 372.812 38.8229 372.153 41.3885 371.057C44.2483 369.857 46.714 368.124 48.8487 365.53C58.527 353.766 65.846 341.31 70.8633 328.85C72.6755 324.309 74.1929 319.768 75.4004 315.266C76.6898 310.434 77.6316 305.644 78.2293 300.936C78.4298 299.281 78.584 297.64 78.7006 296.002L78.6987 295.983C79.1083 290.513 79.0081 285.179 78.4137 280.044C78.1061 277.174 77.6344 274.376 77.0071 271.641C73.9553 258.349 67.3189 246.822 57.127 238.436L57.0546 238.376C56.2794 237.739 55.4871 237.121 54.6712 236.554C54.597 236.476 54.5058 236.418 54.4146 236.36C42.7931 227.943 28.4096 224.567 13.1632 225.717C6.38457 226.224 -0.554754 227.621 -7.49733 229.866C-8.08743 230.056 -8.6672 230.255 -9.24696 230.454C-11.9713 231.385 -14.6914 232.457 -17.4005 233.643C-17.6654 233.755 -17.92 233.875 -18.185 233.986C-20.2444 234.909 -22.3221 235.938 -24.4009 237.053C-38.9695 244.879 -53.8218 257.222 -65.5758 271.402Z" fill="#9241FE"/>
<path d="M-10.7019 381.384C-10.7019 381.384 -11.8345 380.163 -13.6044 378.338C-17.9156 373.886 -26.0002 365.82 -30.5258 363.129C-36.8978 359.341 -14.9794 355.124 -14.9794 355.124C-14.9794 355.124 -14.6092 355.201 -14.0066 355.367C-11.4942 356.027 -4.86442 358.049 -2.76455 361.471C-2.52334 361.868 -2.34501 362.269 -2.23543 362.699C-2.06945 363.377 -2.09006 364.198 -2.26745 365.128C-3.3719 371.156 -10.7019 381.384 -10.7019 381.384Z" fill="#FF8E06"/>
<path d="M-2.26728 365.128C-3.37172 371.155 -10.7017 381.384 -10.7017 381.384C-10.7017 381.384 -11.8343 380.162 -13.6042 378.338C-11.6641 375.997 -7.02279 368.497 -4.16695 363.795L-4.14017 363.75C-2.91781 364.599 -1.10538 365.839 0.760815 367.04L0.801591 367.125C-0.247732 366.481 -1.2717 365.811 -2.26728 365.128Z" fill="#FFAB57"/>
<path d="M-35.0946 293.656L-35.1211 293.711C-37.7135 299.335 -37.6761 305.585 -35.516 311.919L-35.4935 311.984C-32.0712 321.931 -23.3422 332.085 -11.1647 340.398C-7.20984 343.086 -2.90377 345.58 1.71478 347.82C2.17445 348.043 2.62318 348.261 3.08815 348.473C6.8358 350.223 10.5961 351.668 14.3203 352.825C37.7687 360.142 62.9568 341.684 65.4093 315.471C65.4189 315.368 65.4176 315.259 65.4329 315.171C66.2303 306.42 64.338 298.391 60.0894 292.545L57.5227 289.029C56.0789 287.045 54.1309 285.208 51.9036 283.668C47.8874 280.855 42.9739 278.972 38.6135 278.736L30.6277 278.31C30.6167 278.305 30.6114 278.316 30.5895 278.305L28.3087 278.186C25.3528 278.037 22.548 277.325 20.0039 276.132C19.3472 275.814 18.7065 275.462 18.0764 275.089C15.6322 273.606 13.5024 271.586 11.7323 269.16L11.7048 269.133L6.42596 263.125C3.53023 259.842 -0.979477 257.154 -5.67507 255.742C-16.9794 264.779 -27.7626 278.678 -35.0946 293.656Z" fill="#A369FF"/>
<path d="M-36.7086 328.088C-33.494 330.296 -30.0147 332.348 -26.3364 334.213C-25.8821 334.447 -25.4333 334.665 -24.9737 334.888C-20.3661 337.122 -15.7306 338.965 -11.1706 340.406C2.89657 344.822 16.2807 345.379 26.2053 341.919L26.2703 341.896C32.5868 339.687 37.5126 335.831 40.3238 330.313L40.3503 330.258C47.5729 315.227 51.8113 298.153 51.8976 283.676C47.8814 280.863 42.968 278.98 38.6076 278.745L30.6217 278.319C30.6108 278.313 30.6055 278.324 30.5836 278.314C27.5929 278.431 24.6882 278.01 21.9995 277.003C21.3163 276.739 20.6437 276.454 19.987 276.135C17.4638 274.871 15.1795 273.114 13.2322 270.885L11.7263 269.168L11.6988 269.141L6.42001 263.134C3.52428 259.85 -0.985431 257.163 -5.68102 255.751C-8.26927 254.955 -10.907 254.568 -13.3703 254.658L-17.7205 254.819C-24.9416 255.102 -32.4125 258.576 -38.7969 264.632C-38.8722 264.703 -38.9584 264.77 -39.0174 264.836C-58.0617 283.002 -56.9669 314.193 -36.7086 328.088Z" fill="#A369FF"/>
<path d="M44.7547 135.098C44.4613 134.599 37.654 110.261 36.4125 105.122C34.5538 97.4514 26.2646 97.6413 21.9011 114.062C21.9011 114.062 18.574 103.284 13.5153 106.751C5.99849 111.913 16.3667 117.804 -8.99218 148.098L44.7547 135.098Z" fill="#9241FE"/>
<path d="M142.078 221.354C150.166 182.684 159.742 186.466 159.142 177.368C158.733 171.248 148.209 175.309 148.209 175.309C158.39 161.71 153.549 155.434 146.227 158.384C133.406 163.562 117.337 164.486 116.763 164.565C116.763 164.565 92.7933 147.272 89.5644 145.616C87.0225 144.324 31.2163 108.258 -6.34356 143.985L-9.31091 147.128C-24.4652 163.313 -35.0486 177.282 -39.4979 187.1C-39.7439 187.546 -39.9721 187.986 -40.194 188.443C-42.3378 192.864 -43.6695 198.094 -43.7746 204.262C-43.5301 223.021 -11.112 246.851 10.3863 257.278L37.7861 270.567C48.5292 275.777 108.797 305.007 127.355 270.76C132.479 261.299 137.815 242.658 141.644 223.568L142.078 221.354Z" fill="#9241FE"/>
<path d="M-39.9125 187.894C-40.409 188.918 -40.8632 189.977 -41.2509 191.084C-36.3553 181.542 -26.3582 168.597 -12.4804 153.786L-9.54266 150.674C15.7929 116.962 69.2355 142.718 85.2335 152.277C88.3149 154.114 112.112 170.996 112.112 170.996C112.68 170.929 128.57 170.007 141.236 164.903C148.468 161.984 152.406 165.828 142.349 179.264C142.349 179.264 155.286 177.743 153.992 183.661C151.99 192.851 160.006 185.893 159.399 176.807C158.99 170.688 148.467 174.748 148.467 174.748C158.659 161.155 153.824 154.867 146.502 157.817C133.669 162.989 117.612 163.919 117.026 163.992C117.026 163.992 93.0624 146.687 89.8277 145.044C87.2858 143.751 31.4796 107.685 -6.06821 143.418L-9.03556 146.561C-24.1899 162.746 -34.7733 176.715 -39.2225 186.533C-39.4686 186.979 -39.6905 187.437 -39.9125 187.894Z" fill="#A670FC"/>
<g opacity="0.3">
<g opacity="0.3">
<g opacity="0.3">
<g opacity="0.3">
<path opacity="0.3" d="M41.2302 207.669C41.0622 208.138 40.9005 208.625 40.7329 209.124C35.1998 226.36 42.9793 243.448 55.782 251.651C65.2845 257.732 87.403 263.506 104.023 244.788C110.013 238.053 114.053 230.06 113.946 224.667C113.767 215.282 103.538 207.539 98.9481 204.242C98.4711 203.906 97.9459 203.548 97.3908 203.189C87.6355 196.985 66.5383 189.535 56.7709 192.251C56.7709 192.251 46.8244 192.024 41.2302 207.669Z" fill="#4B4B4B"/>
</g>
</g>
</g>
</g>
<path d="M11.7977 240.227C17.7311 244.741 24.5963 249.083 32.4113 253.245C40.5183 256.805 48.1659 259.502 55.3723 261.361C107.708 274.797 112.882 251.124 119.397 222.447C119.407 222.333 119.447 222.189 119.47 222.081C120.101 219.337 127.621 209.446 122.556 190.075C120.704 182.973 113.636 176.748 105.485 173.955C100.512 173.135 95.3021 173.018 90.2248 173.457C89.3893 173.676 88.5304 173.944 87.6599 174.236C82.109 176.111 76.282 175.457 71.3894 172.846C66.3156 170.609 62.1943 166.438 60.1999 160.918C59.8843 160.066 59.5629 159.226 59.2239 158.422C56.4246 154.163 53.1132 150.132 49.3845 146.747C42.1441 142.075 32.9043 140.39 26.1568 143.321C7.82079 151.343 4.73339 163.384 2.93374 165.561C2.86293 165.646 2.78663 165.772 2.71582 165.857C-15.776 188.74 -31.1453 207.454 11.7977 240.227Z" fill="#A369FF"/>
<path d="M78.583 239.95C72.2439 236.875 70.6723 227.028 75.0726 217.955C79.4729 208.882 88.1788 204.02 94.5178 207.094C100.857 210.168 102.428 220.016 98.0282 229.088C93.6279 238.161 84.922 243.024 78.583 239.95Z" fill="white"/>
<path d="M79.8326 236.063C76.8298 234.607 76.6504 228.777 79.4319 223.042C82.2134 217.307 86.9025 213.838 89.9052 215.295C92.908 216.751 93.0874 222.581 90.306 228.316C87.5245 234.051 82.8354 237.52 79.8326 236.063Z" fill="#2B1059"/>
<path d="M10.9082 207.125C4.56915 204.05 2.99752 194.203 7.3978 185.13C11.7981 176.058 20.504 171.195 26.843 174.269C33.182 177.344 34.7537 187.191 30.3534 196.264C25.9531 205.337 17.2472 210.199 10.9082 207.125Z" fill="white"/>
<path d="M33.0118 209.799C31.7074 212.335 31.2404 216.795 43.0933 223.183C45.6061 224.535 50.0055 225.955 51.5625 225.996C55.7543 226.095 58.3192 225.316 59.2915 222.544C59.8121 221.041 59.2631 218.707 58.3628 217.527C56.0941 214.567 56.4554 214.742 56.1012 212.681C55.3812 208.583 54.0247 207.3 52.3624 205.973C46.6677 201.396 34.8076 206.311 33.0118 209.799Z" fill="#FF8E06"/>
<g opacity="0.3">
<g opacity="0.3">
<g opacity="0.3">
<g opacity="0.3">
<path opacity="0.3" d="M43.1013 223.171C45.6024 224.548 50.0426 225.883 51.6406 225.84C55.9376 225.722 58.6134 224.714 59.7489 221.576C59.9227 221.094 60.0118 220.543 60.0349 219.974C58.5828 221.188 56.4571 221.645 53.6324 221.733C52.0465 221.782 47.6001 220.429 45.0931 219.064C36.2224 214.227 34.4198 210.213 34.6957 207.283C34.1515 207.822 33.7386 208.336 33.4871 208.824C32.0016 211.733 31.2776 216.723 43.1013 223.171Z" fill="#3A3A3A"/>
</g>
</g>
</g>
</g>
<g opacity="0.35">
<g opacity="0.35">
<g opacity="0.35">
<g opacity="0.35">
<path opacity="0.35" d="M32.7735 214.308L32.8436 214.164C34.6394 210.676 47.185 205.023 52.1701 210.327C53.2679 211.499 53.2198 213.469 53.4576 215.31C53.7161 217.384 57.515 219.643 57.5928 222.121C57.6106 222.605 58.7322 222.777 58.9245 223.332C59.0592 223.085 59.1756 222.814 59.2859 222.525C59.8065 221.022 59.2575 218.688 58.3514 217.52C56.0826 214.56 56.4439 214.735 56.0898 212.674C55.3698 208.576 54.0133 207.293 52.3568 205.954C46.6862 201.389 34.814 206.298 33.0303 209.791C32.4392 210.918 32.0204 212.426 32.7735 214.308Z" fill="white"/>
</g>
</g>
</g>
</g>
<path d="M42.1863 202.732C43.4462 202.466 44.6715 202.301 45.8267 202.281C48.9149 202.202 51.5584 202.978 53.4988 204.529C55.4093 206.081 57.0757 207.737 57.8857 212.355C57.9558 212.701 57.9952 212.988 58.028 213.227C58.1651 214.171 58.1844 214.285 59.8084 216.397C61.0068 217.975 61.7908 220.928 61.0153 223.141C60.7141 223.977 60.3154 224.676 59.8314 225.245C57.8244 227.604 54.4275 227.89 51.5112 227.829C49.625 227.792 45.4713 226.388 42.9059 225.144C42.665 225.027 42.442 224.904 42.219 224.781C41.7008 224.5 41.2066 224.23 40.7424 223.96C33.1406 219.604 29.8088 215.37 30.6134 211.104L30.6192 211.092C30.7372 210.45 30.9566 209.782 31.2662 209.144L31.3597 208.951C32.8692 206.054 37.9406 203.634 42.1863 202.732ZM57.5583 221.925C57.57 221.901 57.5758 221.889 57.5755 221.859C57.6332 221.679 57.6722 221.445 57.6453 221.194C57.661 220.517 57.4713 219.682 57.1528 219.081C57.1524 219.051 57.1404 219.045 57.1283 219.039C57.0667 218.89 56.9751 218.742 56.8959 218.629C56.8473 218.576 56.8287 218.522 56.7922 218.474C56.7802 218.469 56.786 218.457 56.774 218.451C54.8581 215.959 54.6356 215.375 54.3945 213.756C54.3679 213.535 54.3288 213.278 54.2774 212.985C53.6668 209.52 52.6074 208.545 51.3739 207.53C51.3498 207.519 51.3257 207.507 51.3195 207.489C51.2651 207.448 51.2348 207.418 51.1804 207.377C50.848 207.112 50.4921 206.894 50.1067 206.708C49.4805 206.404 48.7954 206.191 48.0998 206.091C48.0757 206.08 48.0337 206.074 48.0038 206.074C46.4982 205.835 44.9492 205.962 43.7484 206.168C43.4556 206.219 43.1929 206.27 42.9479 206.315C40.8401 206.766 38.91 207.555 37.4349 208.357C36.3823 208.933 35.5635 209.547 35.0788 210.056C34.8776 210.256 34.7364 210.455 34.6546 210.624C34.3446 211.232 34.2088 211.88 34.2704 212.52C34.4577 214.649 36.5755 217 40.5937 219.574L40.6057 219.58C41.6071 220.214 42.7166 220.871 43.9699 221.539C46.3801 222.827 50.4904 224.106 51.6044 224.141C56.3412 224.251 57.1355 223.104 57.5583 221.925Z" fill="#2B1059"/>
<path d="M13.5028 203.892C10.4768 202.425 10.296 196.55 13.099 190.77C15.902 184.991 20.6273 181.496 23.6533 182.963C26.6793 184.431 26.8601 190.306 24.0571 196.085C21.2541 201.864 16.5288 205.36 13.5028 203.892Z" fill="#2B1059"/>
<rect x="168" y="293" width="100" height="43" rx="4" fill="#9241FE"/>
<rect x="151" y="278" width="17" height="17" rx="4" fill="#9241FE"/>
<rect x="142" y="269" width="9" height="9" rx="2" fill="#9241FE"/>
<path d="M204.261 321V308.317H202.002V313.564H195.832V308.317H193.564V321H195.832V315.524H202.002V321H204.261ZM211.204 312.923C212.514 312.923 213.375 313.837 213.419 315.261H208.893C208.989 313.854 209.903 312.923 211.204 312.923ZM213.437 318.354C213.12 319.066 212.373 319.462 211.292 319.462C209.859 319.462 208.937 318.46 208.884 316.86V316.746H215.599V316.043C215.599 313.011 213.955 311.191 211.213 311.191C208.427 311.191 206.695 313.134 206.695 316.228C206.695 319.321 208.4 321.193 211.23 321.193C213.498 321.193 215.089 320.104 215.502 318.354H213.437ZM217.875 321H220.055V307.667H217.875V321ZM222.902 321H225.082V307.667H222.902V321ZM231.99 321.193C234.864 321.193 236.613 319.312 236.613 316.192C236.613 313.081 234.855 311.191 231.99 311.191C229.134 311.191 227.367 313.09 227.367 316.192C227.367 319.312 229.107 321.193 231.99 321.193ZM231.99 319.365C230.47 319.365 229.6 318.205 229.6 316.192C229.6 314.188 230.47 313.02 231.99 313.02C233.502 313.02 234.372 314.188 234.372 316.192C234.372 318.205 233.511 319.365 231.99 319.365ZM239.312 308.309L239.514 316.808H241.544L241.746 308.309H239.312ZM240.533 321.229C241.421 321.229 241.992 320.675 241.992 319.831C241.992 318.979 241.421 318.425 240.533 318.425C239.646 318.425 239.074 318.979 239.074 319.831C239.074 320.675 239.646 321.229 240.533 321.229Z" fill="white"/>
<path d="M306 142.249C308.271 143.285 310.582 144.205 312.897 145.138C314.939 145.962 317.135 146.699 319.025 147.866C320.593 148.834 322.116 149.974 323.619 151.043C324.241 151.485 324.801 152.01 325.421 152.45C326.288 153.066 327.283 153.513 328.224 153.999" stroke="white" stroke-linecap="round"/>
<path d="M336.951 143.935C336.866 144.412 336.898 145.166 336.674 145.608C336.42 146.11 335.458 145.893 335.058 145.778C333.915 145.452 332.804 144.419 332.633 143.203C332.58 142.824 332.986 142.291 332.75 141.974C332.609 141.784 332.356 141.745 332.184 141.596" stroke="white" stroke-width="0.8" stroke-linecap="round"/>
<path d="M333.463 147.827C333.506 148.075 333.739 149.711 334.318 149.043" stroke="white" stroke-width="0.8" stroke-linecap="round"/>
<path d="M335.216 149.106C335.289 149.561 335.433 149.957 335.113 150.327" stroke="white" stroke-width="0.8" stroke-linecap="round"/>
<path d="M334.428 150.568C334.504 150.799 334.586 151.026 334.669 151.254" stroke="white" stroke-width="0.8" stroke-linecap="round"/>
<path d="M332.325 142.672C332.027 143.814 331.747 144.379 330.499 143.765C330.188 143.613 327.838 142.494 327.94 142.094" stroke="white" stroke-width="0.8" stroke-linecap="round"/>
<path d="M329.829 137.295C330.037 137.874 330.207 138.42 330.309 139.021C330.337 139.185 330.267 139.416 330.471 139.445C330.957 139.515 331.583 138.512 331.809 138.174" stroke="white" stroke-width="0.8" stroke-linecap="round"/>
<path d="M328.17 145.271C328.226 145.518 328.266 145.749 328.411 145.956" stroke="white" stroke-width="0.8" stroke-linecap="round"/>
<path d="M329.573 146.128L329.941 146.804" stroke="white" stroke-width="0.8" stroke-linecap="round"/>
<path d="M327.69 141.282C327.287 142.389 326.414 141.913 325.509 141.539C324.833 141.259 324.111 141.044 323.55 140.559" stroke="white" stroke-width="0.8" stroke-linecap="round"/>
<path d="M326.322 139.145C326.234 139.033 325.807 138.326 325.625 138.33C325.345 138.335 325.581 138.623 325.65 138.683" stroke="white" stroke-width="0.8" stroke-linecap="round"/>
<path d="M322.252 140.269C322.461 140.428 324.316 141.832 324.228 141.894C323.659 142.294 323.177 142.642 322.717 143.174C322.163 143.813 322.206 144.279 322.814 144.912C323.122 145.234 323.302 145.444 323.694 145.211" stroke="white" stroke-width="0.8" stroke-linecap="round"/>
<path d="M324.065 143.268C324.24 143.724 324.546 144.078 324.792 144.493" stroke="white" stroke-width="0.8" stroke-linecap="round"/>
<path d="M319.453 138.022C319.462 138.166 319.604 139.317 319.417 139.399C319.092 139.542 318.602 138.812 318.547 138.576C318.533 138.514 318.585 138.334 318.548 138.385C318.424 138.555 318.447 138.823 318.315 138.975C317.944 139.404 317.107 137.984 317.087 137.699C317.072 137.489 317.054 137.673 316.964 137.806C316.805 138.039 316.562 138.086 316.293 138.054C315.918 138.01 315.648 137.706 315.423 137.428C315.186 137.133 315.181 136.756 314.997 136.434C314.766 136.028 314.19 135.758 314.12 136.418C314.007 137.486 315.543 137.411 316.268 137.455" stroke="white" stroke-width="0.8" stroke-linecap="round"/>
<path d="M317.384 136.075C317.632 136.364 317.83 136.695 318.118 136.945" stroke="white" stroke-width="0.8" stroke-linecap="round"/>
<path d="M318.689 136.736C318.886 136.911 319.056 137.091 319.232 137.284" stroke="white" stroke-width="0.8" stroke-linecap="round"/>
<path d="M317.478 133.889C317.602 134.244 317.839 134.653 317.812 135.038" stroke="white" stroke-width="0.8" stroke-linecap="round"/>
<path d="M312.099 136.037C311.737 136.346 311.412 136.742 311.854 137.154C312.008 137.298 312.331 137.69 312.544 137.421C312.849 137.037 312.662 136.055 312.523 135.639C312.428 135.356 312.028 135.8 311.931 135.861C311.377 136.205 310.761 136.479 310.246 136.879C310.115 136.981 309.902 137.151 309.827 137.312C309.752 137.475 310.649 138.326 310.779 137.614C310.819 137.393 310.787 136.935 310.601 136.774C310.403 136.602 310.246 136.825 310.05 136.94C309.6 137.204 309.248 137.298 308.748 137.108C308.156 136.884 308.058 136.408 308.057 135.824C308.057 135.459 308.011 135.098 308.023 134.734C308.027 134.597 308.045 134.483 307.935 134.388C307.676 134.165 306.863 134.232 306.559 134.327C306.063 134.481 306.765 135.111 306.913 135.298C307.321 135.814 307.761 136.367 308.435 136.385" stroke="white" stroke-width="0.8" stroke-linecap="round"/>
<path d="M283.047 141.232C282.635 141.51 281.156 141.873 281.156 140.995C281.156 140.023 282.136 139.742 282.972 139.918C283.957 140.124 283.305 141.53 283.037 142.059C282.114 143.878 279.924 145.25 277.923 145.441" stroke="white" stroke-width="0.8" stroke-linecap="round"/>
<path d="M276.582 138C276.717 139.165 276.765 140.307 276.765 141.477" stroke="white" stroke-width="0.8" stroke-linecap="round"/>
<path d="M275.362 141.537C275.218 142.227 275.084 143.095 274.298 143.326C273.448 143.576 272.723 143.212 272.142 142.608C271.584 142.027 271.205 141.324 270.862 140.602C270.745 140.357 270.626 139.814 270.347 139.687C269.607 139.353 268.568 140.195 268.219 140.778C268.058 141.046 268.832 140.99 268.923 140.988C269.471 140.981 269.881 140.862 270.36 140.622" stroke="white" stroke-width="0.8" stroke-linecap="round"/>
<path d="M272.8 139.159L272.922 139.464" stroke="white" stroke-width="0.8" stroke-linecap="round"/>
<path d="M267.189 139.342C266.759 138.998 266.329 138.749 265.779 138.651C265.43 138.588 264.864 138.524 264.515 138.623C264.084 138.747 264.267 139.793 264.315 140.074C264.435 140.773 264.746 141.346 265.135 141.924C265.249 142.093 265.493 142.394 265.308 142.595C264.983 142.948 263.905 142.765 263.502 142.757C262.316 142.735 261.072 142.44 259.988 141.954C259.141 141.575 258.753 141.078 258.406 140.257" stroke="white" stroke-width="0.8" stroke-linecap="round"/>
<path d="M255.539 139.646C255.631 140.349 255.783 141.142 255.329 141.761C255.037 142.159 254.523 142.226 254.075 142.079C253.316 141.831 252.614 141.206 251.995 140.724C251.642 140.449 251.186 139.932 250.755 139.775C250.372 139.636 249.892 141.553 249.816 141.819C249.792 141.904 249.648 142.268 249.833 142.29C250.023 142.311 250.246 142.23 250.423 142.181C250.994 142.021 251.558 141.835 252.124 141.659" stroke="white" stroke-width="0.8" stroke-linecap="round"/>
<path d="M253.099 144.282C254.059 144.282 255.019 144.282 255.979 144.282C256.242 144.282 256.516 144.246 256.759 144.343" stroke="white" stroke-width="0.8" stroke-linecap="round"/>
<path d="M247.183 138.305C246.65 138.692 244.142 140.237 245.53 141.158C246.238 141.628 247.136 141.539 247.902 141.842C248.192 141.957 247.971 142.18 247.78 142.249C247.251 142.438 246.704 142.542 246.146 142.601C245.665 142.652 245.071 142.779 244.591 142.652C243.935 142.478 243.755 141.856 243.463 141.334C243.239 140.935 242.524 141.261 242.287 141.48C241.976 141.765 241.881 142.25 242.294 142.479C242.806 142.764 244.07 143.011 244.256 142.269" stroke="white" stroke-width="0.8" stroke-linecap="round"/>
<path d="M238.705 142.208C238.631 141.41 238.695 140.605 239.444 140.152C239.539 140.094 239.728 140.013 239.83 140.114C239.967 140.252 239.958 140.645 239.884 140.806C239.569 141.489 238.379 141.9 237.729 142.12C237.285 142.271 236.416 142.322 236.069 142.669C235.83 142.908 236.281 143.402 236.397 143.567C236.79 144.128 237.247 144.741 237.458 145.4C237.575 145.767 237.277 145.784 236.997 145.807" stroke="white" stroke-width="0.8" stroke-linecap="round"/>
<path d="M284.318 148.155C279.724 148.155 275.128 148.118 270.534 148.175C266.294 148.228 262.015 148.087 257.783 148.358C255.669 148.493 253.512 148.615 251.417 148.945C249.972 149.172 248.59 149.639 247.182 150.017C244.047 150.859 240.926 151.655 237.886 152.795C236.769 153.214 235.621 153.492 234.496 153.893" stroke="white" stroke-width="0.8" stroke-linecap="round"/>
<path d="M273.408 152C272.035 152.114 270.817 152.99 269.471 153.275C269.216 153.329 267.75 153.518 267.807 153.564C268.466 154.091 269.33 154.443 270.038 154.915C270.508 155.228 270.74 155.279 271.313 155.279C271.664 155.279 271.923 155.334 272.244 155.441C272.543 155.54 273.569 155.732 272.629 155.967C271.393 156.276 270.098 156.632 268.824 156.716C267.993 156.771 267.152 156.736 266.319 156.736C266.087 156.736 265.55 156.843 265.393 156.625C265.231 156.401 265.305 156.171 265.55 156.053C266.636 155.53 267.396 156.244 267.751 157.333C268.291 158.993 266.592 160.323 265.12 160.471" stroke="white" stroke-width="0.8" stroke-linecap="round"/>
<path d="M262.751 156.281C263.078 156.78 263.529 157.356 263.46 157.991C263.389 158.638 262.902 159.278 262.524 159.787C262.292 160.1 262.115 160.639 261.699 160.739C261.316 160.831 260.962 160.926 260.565 160.926" stroke="white" stroke-width="0.8" stroke-linecap="round"/>
<path d="M258.562 156.098C258.795 156.098 260.004 155.922 260.181 156.119C260.429 156.394 259.872 156.959 259.746 157.141C259.29 157.793 258.418 157.829 257.651 157.829" stroke="white" stroke-width="0.8" stroke-linecap="round"/>
<path d="M256.285 156.007C256.016 155.562 255.731 155.131 255.424 154.712C255.236 154.454 254.832 154.55 254.554 154.55C253.978 154.55 253.917 154.945 253.917 155.451C253.917 156.043 254.242 156.282 254.554 156.736C255.384 157.945 253.137 158.152 252.383 158.188C250.716 158.268 250.182 157.192 250 155.734" stroke="white" stroke-width="0.8" stroke-linecap="round"/>
<path d="M16.688 45.3857C16.688 45.3857 16.1602 47.8562 15.3876 51.5533C14.6424 55.2609 13.6522 60.1951 12.6621 65.1293C10.7264 75.0461 8.95546 85.0253 8.95546 85.0253C8.95546 85.0253 15.9467 77.684 22.794 70.2253C29.6309 62.794 36.3134 55.2728 36.3134 55.2728C36.3134 55.2728 31.3914 52.8423 26.4694 50.4117C21.5787 47.8987 16.688 45.3857 16.688 45.3857Z" fill="#FF8E06"/>
<path d="M34.7717 56.605L36.3028 55.3002C36.3028 55.3002 31.3809 52.8696 26.4589 50.439C21.5682 47.926 16.7153 45.396 16.7153 45.396L16.5777 47.4173C16.5777 47.4173 21.0942 49.7571 25.6383 52.1073C30.1861 54.3647 34.7717 56.605 34.7717 56.605Z" fill="#FF8E06"/>
<path opacity="0.5" d="M25.5476 54.5862C25.1529 55.3792 23.7256 55.4981 22.3872 54.8024C21.0487 54.1067 20.2793 52.9041 20.7118 52.0941C21.117 51.2737 22.5338 51.1822 23.8723 51.8779C25.2108 52.5736 25.9527 53.7658 25.5476 54.5862Z" fill="#F4F4F4"/>
<path opacity="0.5" d="M19.5553 53.3211C19.3547 53.6849 18.7012 53.7515 18.0731 53.4192C17.4451 53.087 17.0964 52.515 17.2696 52.1408C17.4703 51.777 18.1238 51.7105 18.7518 52.0427C19.4073 52.3854 19.756 52.9573 19.5553 53.3211Z" fill="#F4F4F4"/>
<path d="M91.2576 78.7313C91.2576 78.7313 90.4149 88.7481 89.7369 98.8273C89.059 108.906 88.5185 119.038 88.5185 119.038C88.5185 119.038 94.5396 110.858 100.413 102.653C106.286 94.4481 112.033 86.1638 112.033 86.1638C112.033 86.1638 106.806 84.3718 101.59 82.5522C96.4323 80.6607 91.2576 78.7313 91.2576 78.7313Z" fill="#9241FE"/>
<path d="M110.68 87.6618L112.06 86.1742C112.06 86.1742 106.834 84.3822 101.617 82.5627C96.4427 80.6332 91.2576 78.7313 91.2576 78.7313L91.3709 80.7535C91.3709 80.7535 96.161 82.5372 100.979 84.3313C105.821 85.9776 110.68 87.6618 110.68 87.6618Z" fill="#7E0000"/>
<path opacity="0.5" d="M101.242 86.7872C100.919 87.6389 99.5224 87.9264 98.1215 87.3955C96.7205 86.8647 95.7892 85.7577 96.1119 84.9061C96.4346 84.0545 97.8211 83.7944 99.222 84.3253C100.623 84.8562 101.537 85.9252 101.242 86.7872Z" fill="#F4F4F4"/>
<path opacity="0.5" d="M95.1162 86.2886C94.9705 86.6732 94.3237 86.8051 93.6644 86.5553C92.9776 86.2951 92.5806 85.7676 92.6989 85.3726C92.8551 84.9605 93.5294 84.839 94.1886 85.0889C94.8375 85.3661 95.2724 85.8765 95.1162 86.2886Z" fill="#F4F4F4"/>
<path d="M169.468 103.215C169.468 103.215 169.777 113.259 170.233 123.329C170.663 133.388 171.257 143.509 171.257 143.509C171.257 143.509 176.334 134.751 181.264 125.969C183.738 121.597 186.167 117.177 187.994 113.848C189.793 110.508 191.008 108.298 191.008 108.298C191.008 108.298 189.644 108.001 187.634 107.585C185.617 107.104 182.91 106.455 180.231 105.816C174.844 104.529 169.468 103.215 169.468 103.215Z" fill="#FF8E06"/>
<path d="M189.778 109.968L190.997 108.325C190.997 108.325 189.633 108.028 187.623 107.612C185.607 107.131 182.9 106.482 180.22 105.844C174.861 104.567 169.457 103.242 169.457 103.242L169.832 105.238C169.832 105.238 174.813 106.434 179.822 107.641C182.299 108.234 184.803 108.837 186.672 109.294C188.534 109.685 189.778 109.968 189.778 109.968Z" fill="#9BC3E8"/>
<path opacity="0.5" d="M180.319 110.06C180.116 110.926 178.76 111.354 177.259 111.005C175.796 110.639 174.757 109.649 174.96 108.783C175.162 107.917 176.518 107.489 177.992 107.827C179.51 108.214 180.521 109.194 180.319 110.06Z" fill="#F4F4F4"/>
<path opacity="0.5" d="M174.147 110.265C174.056 110.671 173.416 110.868 172.725 110.701C172.035 110.533 171.551 110.067 171.642 109.662C171.733 109.257 172.373 109.059 173.091 109.237C173.792 109.377 174.275 109.843 174.147 110.265Z" fill="#F4F4F4"/>
<path d="M249.997 119.089C249.997 119.089 251.379 129.038 252.881 139.001C254.384 148.963 256.034 158.951 256.034 158.951C256.034 158.951 260.164 149.709 264.136 140.469C266.109 135.844 268.054 131.209 269.534 127.717C270.987 124.215 271.964 121.884 271.964 121.884C271.964 121.884 270.593 121.772 268.531 121.494C266.469 121.215 263.713 120.862 260.994 120.492C255.482 119.785 249.997 119.089 249.997 119.089Z" fill="#FEBE16"/>
<path d="M270.917 123.654L271.954 121.911C271.954 121.911 270.583 121.8 268.521 121.521C266.459 121.242 263.702 120.889 260.984 120.519C255.499 119.823 249.997 119.089 249.997 119.089L250.578 121.037L270.917 123.654Z" fill="#F9A61F"/>
<path opacity="0.5" d="M261.519 124.744C261.399 125.641 260.094 126.183 258.596 125.992C257.097 125.802 255.963 124.9 256.083 124.003C256.203 123.106 257.518 122.536 259.016 122.727C260.504 122.946 261.612 123.836 261.519 124.744Z" fill="#F4F4F4"/>
<path opacity="0.5" d="M255.396 125.564C255.36 125.991 254.727 126.253 254.033 126.179C253.321 126.066 252.817 125.655 252.853 125.229C252.916 124.813 253.522 124.54 254.234 124.653C254.928 124.727 255.46 125.149 255.396 125.564Z" fill="#F4F4F4"/>
<path d="M331.805 126.369C331.805 126.369 334.188 136.163 336.719 145.982C339.239 155.828 341.915 165.512 341.915 165.512C341.915 165.512 345.067 155.868 348.071 146.199C351.103 136.54 353.949 126.874 353.949 126.874C353.949 126.874 348.41 126.818 342.882 126.734C340.11 126.752 337.357 126.557 335.277 126.491C333.159 126.443 331.805 126.369 331.805 126.369Z" fill="#9241FE"/>
<path d="M353.099 128.784L353.955 126.94C353.955 126.94 348.416 126.884 342.888 126.799C340.116 126.818 337.363 126.622 335.283 126.557C333.214 126.464 331.821 126.408 331.821 126.408L332.582 128.298C332.582 128.298 333.881 128.35 335.792 128.446C337.714 128.515 340.292 128.675 342.84 128.666C347.942 128.715 353.099 128.784 353.099 128.784Z" fill="#9241FE"/>
<path opacity="0.5" d="M343.819 130.89C343.792 131.791 342.545 132.512 341.049 132.48C339.516 132.464 338.322 131.635 338.339 130.761C338.366 129.861 339.62 129.205 341.126 129.21C342.649 129.253 343.846 129.989 343.819 130.89Z" fill="#F4F4F4"/>
<path opacity="0.5" d="M337.845 132.398C337.837 132.834 337.248 133.145 336.543 133.098C335.828 133.079 335.249 132.702 335.284 132.276C335.293 131.839 335.882 131.528 336.587 131.575C337.302 131.595 337.854 131.961 337.845 132.398Z" fill="#F4F4F4"/>
<path d="M443.541 123.972C443.541 123.972 435.92 124.603 422.611 125.654C409.295 126.64 390.216 127.579 367.317 127.824C344.446 127.829 317.72 127.064 289.209 124.46C260.715 121.894 230.529 117.493 200.68 111.209C170.848 104.963 141.393 96.9749 114.355 87.8293C87.3285 78.6563 62.6701 68.6213 42.0712 58.8994C21.441 49.2599 4.91101 40.0745 -6.30867 33.3725C-11.9185 30.0215 -16.1861 27.2734 -19.0574 25.4C-20.4329 24.4704 -21.4825 23.7585 -22.1788 23.2747C-22.7756 22.8601 -23.074 22.6528 -23.074 22.6528L-21.2326 20.1146C-21.2326 20.1146 -20.9342 20.3219 -20.3924 20.7157C-19.6961 21.1995 -18.6635 21.8735 -17.3155 22.7927C-14.4991 24.6453 -10.2865 27.3726 -4.70412 30.7132C6.47103 37.3669 22.8911 46.5106 43.384 56.0981C63.8456 65.768 88.432 75.7442 115.349 84.8756C142.238 93.9966 171.594 101.916 201.295 108.175C231.007 114.407 261.101 118.804 289.474 121.356C317.837 123.935 344.46 124.724 367.266 124.726C390.072 124.477 409.085 123.545 422.336 122.566C435.666 121.459 443.25 120.845 443.25 120.845L443.541 123.972Z" fill="#3C3D40"/>
<path d="M443.542 123.971C443.542 123.971 435.921 124.602 422.611 125.654C409.295 126.64 390.217 127.579 367.317 127.824C344.446 127.828 317.72 127.063 289.209 124.46C260.716 121.894 230.53 117.493 200.68 111.209C170.848 104.963 141.393 96.9743 114.356 87.8288C87.329 78.6557 62.6706 68.6208 42.0716 58.8988C21.4415 49.2593 4.91149 40.0739 -6.3082 33.372C-11.918 30.021 -16.1856 27.2729 -19.0569 25.3995C-20.4324 24.4698 -21.482 23.7579 -22.1783 23.2742C-22.7751 22.8595 -23.0735 22.6522 -23.0735 22.6522L-22.158 21.3968C-22.158 21.3968 -21.8596 21.6042 -21.2903 22.0084C-20.594 22.4922 -19.534 23.1766 -18.186 24.0958C-15.3696 25.9484 -11.102 28.6965 -5.51966 32.0371C5.67256 38.7286 22.1751 47.9036 42.7332 57.4845C63.2394 67.2026 87.8807 77.1997 114.825 86.3415C141.807 95.4663 171.207 103.434 200.947 109.676C230.714 115.929 260.9 120.33 289.301 122.892C317.746 125.502 344.407 126.274 367.25 126.259C390.084 126.021 409.135 125.071 422.441 124.113C435.751 123.061 443.334 122.447 443.334 122.447L443.542 123.971Z" fill="#231F20"/>
</svg>
