<svg width="393" height="852" viewBox="0 0 393 852" fill="none" xmlns="http://www.w3.org/2000/svg">
<g clip-path="url(#clip0_1533_2344)">
<rect width="393" height="852" fill="white"/>
<g clip-path="url(#clip1_1533_2344)">
<rect width="394" height="852" fill="#441484"/>
<g filter="url(#filter0_f_1533_2344)">
<rect x="-140" y="191.243" width="591.25" height="100" transform="rotate(-21.3576 -140 191.243)" fill="#521E99"/>
</g>
<g filter="url(#filter1_f_1533_2344)">
<rect x="-99" y="704.326" width="591.25" height="61.7546" transform="rotate(-21.3576 -99 704.326)" fill="#521E99"/>
</g>
<g filter="url(#filter2_f_1533_2344)">
<rect x="-71.844" y="863.512" width="591.25" height="47.5969" transform="rotate(-21.3576 -71.844 863.512)" fill="#521E99"/>
</g>
</g>
<path d="M78.0927 120.986C78.4535 118.795 81.6035 118.795 81.9644 120.986L83.0806 127.762L89.8571 128.879C92.0478 129.239 92.0478 132.389 89.8571 132.75L83.0806 133.866L81.9644 140.643C81.6035 142.834 78.4535 142.834 78.0927 140.643L76.9765 133.866L70.1999 132.75C68.0092 132.389 68.0092 129.239 70.1999 128.879L76.9765 127.762L78.0927 120.986Z" fill="white"/>
<path d="M223.406 67.7524C223.767 65.5617 226.917 65.5617 227.278 67.7524L228.394 74.529L235.17 75.6452C237.361 76.006 237.361 79.156 235.17 79.5169L228.394 80.6331L227.278 87.4096C226.917 89.6003 223.767 89.6003 223.406 87.4096L222.29 80.6331L215.513 79.5169C213.323 79.156 213.323 76.006 215.513 75.6452L222.29 74.529L223.406 67.7524Z" fill="white"/>
<path d="M44.6454 661.752C45.0063 659.562 48.1562 659.562 48.5171 661.752L49.6333 668.529L56.4098 669.645C58.6006 670.006 58.6006 673.156 56.4098 673.517L49.6333 674.633L48.5171 681.41C48.1562 683.6 45.0063 683.6 44.6454 681.41L43.5292 674.633L36.7527 673.517C34.5619 673.156 34.5619 670.006 36.7527 669.645L43.5292 668.529L44.6454 661.752Z" fill="white"/>
<path d="M50.6083 223.934C50.7286 223.204 51.7786 223.204 51.8988 223.934L52.2709 226.193L54.5298 226.565C55.26 226.686 55.26 227.736 54.5298 227.856L52.2709 228.228L51.8988 230.487C51.7786 231.217 50.7286 231.217 50.6083 230.487L50.2362 228.228L47.9774 227.856C47.2471 227.736 47.2471 226.686 47.9774 226.565L50.2362 226.193L50.6083 223.934Z" fill="white"/>
<path d="M125.548 672.917C125.669 672.187 126.719 672.187 126.839 672.917L127.211 675.176L129.47 675.548C130.2 675.669 130.2 676.719 129.47 676.839L127.211 677.211L126.839 679.47C126.719 680.2 125.669 680.2 125.548 679.47L125.176 677.211L122.918 676.839C122.187 676.719 122.187 675.669 122.918 675.548L125.176 675.176L125.548 672.917Z" fill="white"/>
<path d="M352.548 299.917C352.669 299.187 353.719 299.187 353.839 299.917L354.211 302.176L356.47 302.548C357.2 302.669 357.2 303.719 356.47 303.839L354.211 304.211L353.839 306.47C353.719 307.2 352.669 307.2 352.548 306.47L352.176 304.211L349.918 303.839C349.187 303.719 349.187 302.669 349.918 302.548L352.176 302.176L352.548 299.917Z" fill="white"/>
<path d="M249.155 190.843C249.276 190.113 250.326 190.113 250.446 190.843L250.818 193.102L253.077 193.474C253.807 193.594 253.807 194.644 253.077 194.765L250.818 195.137L250.446 197.395C250.326 198.126 249.276 198.126 249.155 197.395L248.783 195.137L246.524 194.765C245.794 194.644 245.794 193.594 246.524 193.474L248.783 193.102L249.155 190.843Z" fill="white"/>
<path d="M43.4146 423.92C43.5348 423.19 44.5848 423.19 44.7051 423.92L45.0772 426.179L47.336 426.551C48.0663 426.671 48.0663 427.721 47.336 427.842L45.0772 428.214L44.7051 430.473C44.5848 431.203 43.5348 431.203 43.4146 430.473L43.0425 428.214L40.7836 427.842C40.0534 427.721 40.0534 426.671 40.7837 426.551L43.0425 426.179L43.4146 423.92Z" fill="white"/>
<path d="M311.548 744.917C311.669 744.187 312.719 744.187 312.839 744.917L313.211 747.176L315.47 747.548C316.2 747.669 316.2 748.719 315.47 748.839L313.211 749.211L312.839 751.47C312.719 752.2 311.669 752.2 311.548 751.47L311.176 749.211L308.918 748.839C308.187 748.719 308.187 747.669 308.918 747.548L311.176 747.176L311.548 744.917Z" fill="white"/>
<path d="M331.548 571.917C331.669 571.187 332.719 571.187 332.839 571.917L333.211 574.176L335.47 574.548C336.2 574.669 336.2 575.719 335.47 575.839L333.211 576.211L332.839 578.47C332.719 579.2 331.669 579.2 331.548 578.47L331.176 576.211L328.918 575.839C328.187 575.719 328.187 574.669 328.918 574.548L331.176 574.176L331.548 571.917Z" fill="white"/>
<path fill-rule="evenodd" clip-rule="evenodd" d="M310.134 402.923C310.134 408.853 308.825 415.27 305.677 422.021C295.521 442.33 247.614 451.142 218.68 451.142H181.82C167.36 451.142 86.2836 451.142 84.1662 404.065C83.595 391.077 87.6209 367.956 93.5275 345.156C93.5275 345.156 94.252 342.525 94.2659 342.511C101.538 313.474 99.3923 302.255 98.0968 295.573C97.3306 291.592 96.8709 289.226 98.9187 285.634C102.582 279.175 111.902 289.156 111.902 289.156C107.974 268.972 116.597 264.685 122.977 271.77C128.661 278.048 135.403 283.351 142.382 288.112C144.486 289.546 146.533 291.105 148.832 292.246C149.528 292.594 150.253 292.803 150.977 292.97C165.841 289.281 181.555 286.901 197.436 286.664C198.286 286.664 199.136 286.637 199.999 286.637V287.792H200.041V286.692C215.378 286.943 228.822 288.752 243.393 292.371C243.853 292.26 244.34 292.135 244.8 291.968C246.876 292.441 248.951 292.942 250.999 293.471C251.125 293.429 251.264 293.429 251.389 293.374C254.217 292.427 255.164 289.838 257.017 287.834C258.758 285.968 260.388 283.992 262.074 282.071C265.083 278.646 268.12 275.25 271.003 271.742C277.077 264.379 286.007 268.958 282.078 289.142C282.078 289.142 291.398 279.162 295.062 285.62C297.054 289.114 296.385 291.453 295.326 295.281C293.655 301.28 290.966 310.927 295.856 334.34C296.176 335.106 296.483 335.885 296.775 336.665L298.349 341.648C298.377 341.773 298.433 341.898 298.461 342.038C306.359 367.483 310.455 388.112 310.107 401.086V401.155C310.134 401.754 310.148 402.325 310.148 402.909L310.134 402.923Z" fill="#8333EF"/>
<path d="M199.094 286.65C182.655 286.734 166.357 289.142 150.963 292.97C150.239 292.803 149.515 292.594 148.818 292.246C146.519 291.104 144.472 289.545 142.368 288.112C135.403 283.351 128.646 278.048 122.963 271.77C116.569 264.684 107.945 268.972 111.888 289.156C111.888 289.156 102.582 279.175 98.9045 285.634C96.8567 289.211 97.3165 291.592 98.0827 295.573C99.3782 302.254 101.524 313.474 94.2517 342.511L93.5134 345.155C93.2487 346.199 92.9841 347.257 92.7055 348.301C92.6776 348.413 92.6497 348.51 92.6218 348.621L92.385 349.526C92.4547 349.262 93.0537 347.062 93.0676 347.048C95.8119 336.093 97.7623 333.059 100.075 327.032C103.738 317.483 102.972 306.555 102.234 302.7C101.496 298.9 101.064 296.631 103.014 293.206C106.511 287.054 115.412 296.561 115.412 296.561C111.651 277.31 119.884 273.217 125.986 279.982C131.405 285.968 137.841 291.035 144.513 295.573C146.519 296.937 148.47 298.426 150.657 299.498C151.325 299.832 152.022 300.041 152.705 300.194C167.527 296.519 183.24 294.209 199.08 294.167V286.636L199.094 286.65Z" fill="#9B52FD"/>
<path d="M300.272 348.983C300.077 348.246 299.743 347.021 299.729 347.007C296.984 336.052 295.034 333.031 292.722 326.99C289.058 317.441 291.342 305.971 292.095 302.129C292.833 298.329 293.265 296.06 291.315 292.636C287.818 286.483 278.916 295.99 278.916 295.99C282.678 276.739 274.445 272.647 268.343 279.412C262.924 285.397 256.488 290.464 249.815 295.002C247.809 296.366 245.859 297.856 243.672 298.928C242.989 299.262 242.307 299.47 241.624 299.624C226.788 295.949 213.261 294.223 197.422 294.195V286.664C198.286 286.664 199.136 286.664 199.986 286.706H200.013C215.351 286.956 228.794 288.766 243.366 292.385C243.825 292.274 244.313 292.149 244.772 291.982C245.023 291.884 245.26 291.787 245.511 291.661C247.809 290.52 249.857 288.961 251.961 287.527C258.926 282.767 265.682 277.463 271.366 271.185C277.76 264.1 286.383 268.387 282.441 288.571C282.441 288.571 291.747 278.591 295.424 285.049C297.472 288.627 297.012 291.007 296.246 294.988C294.964 301.642 291.315 313.321 298.447 342.051C298.489 342.191 298.517 342.33 298.559 342.469L299.297 345.114C299.561 346.158 299.826 347.216 300.105 348.26C300.133 348.371 300.16 348.468 300.188 348.58L300.286 348.983H300.272Z" fill="#9B52FD"/>
<path d="M226.201 430.651C217.355 432.447 207.59 433.532 196.863 433.936C186.137 433.532 176.413 432.419 167.581 430.651C157.927 428.702 148.259 426.155 139.274 422.076C133.103 419.292 127.113 415.687 122.432 410.732C118.768 406.82 116.094 402.115 114.687 396.979C111.051 383.602 114.074 368.165 116.456 354.76C118.824 341.355 123.157 328.034 132.072 317.594C137.839 310.843 148.817 307.794 159.167 309.075C162.9 310.174 167.261 311.469 170.521 313.613C178.698 318.986 186.457 326.266 196.877 325.876C199.747 325.765 202.435 325.639 205.222 324.79C208.788 323.705 212.075 320.934 215.224 318.986C219.807 316.689 223.68 313.306 228.43 311.33C232.93 309.492 237.722 308.532 242.611 308.963C249.632 309.576 257.071 312.137 261.78 317.635C272.242 329.815 276.881 345.461 278.873 361.135C280.698 375.584 282.606 391.787 275.014 405.011C271.963 410.328 267.589 414.782 262.379 417.998C251.513 424.749 238.683 428.145 226.257 430.651H226.215H226.201Z" fill="#9B52FD"/>
<path d="M152.775 397.759C163.752 397.759 172.668 386.192 172.668 371.924C172.668 357.656 163.766 346.089 152.775 346.089C141.783 346.089 132.882 357.656 132.882 371.924C132.882 386.192 141.783 397.759 152.775 397.759Z" fill="white"/>
<path d="M185.957 401.657C185.261 401.657 184.745 402.325 184.954 403.007C186.013 406.946 189.217 410.037 193.048 411.094C196.781 412.124 201.225 411.721 204.192 409.034C205.934 407.461 207.104 405.276 207.731 403.021C207.912 402.339 207.41 401.657 206.728 401.657H185.957Z" fill="#D8872E"/>
<path d="M212.216 402.032C213.247 402.032 213.986 401.057 213.721 400.083C212.648 396.13 208.803 387.583 195.75 387.583C184.871 387.583 181.165 396.13 180.051 400.069C179.772 401.071 180.51 402.046 181.555 402.046L190.707 403.772C194.984 404.579 199.386 404.565 203.663 403.73L212.258 402.06H212.23L212.216 402.032Z" fill="#F6AD1E"/>
<path d="M210.475 400.557C211.116 400.821 211.757 400.585 211.757 400.111C211.729 398.19 210.698 393.652 202.437 390.367C195.528 387.639 191.767 390.27 190.387 391.648C190.053 391.982 190.359 392.595 191.014 392.845C198.843 389.546 205.335 392.038 210.475 400.557Z" fill="#FFCA95"/>
<path fill-rule="evenodd" clip-rule="evenodd" d="M144.333 366.44C143.915 368.082 143.678 369.864 143.678 371.701C143.678 380.026 148.373 386.763 154.168 386.763C159.963 386.763 164.657 380.012 164.657 371.701C164.657 363.391 159.963 356.64 154.168 356.64H153.778C154.028 357.447 154.168 358.324 154.168 359.243C154.168 363.572 151.033 367.108 147.174 367.108C146.158 367.108 145.196 366.857 144.333 366.426V366.44Z" fill="#36156F"/>
<path d="M240.565 398.009C251.543 398.009 260.458 386.442 260.458 372.174C260.458 357.906 251.557 346.339 240.565 346.339C229.574 346.339 220.672 357.906 220.672 372.174C220.672 386.442 229.574 398.009 240.565 398.009Z" fill="white"/>
<path fill-rule="evenodd" clip-rule="evenodd" d="M228.515 366.69C228.098 368.332 227.861 370.114 227.861 371.951C227.861 380.276 232.555 387.013 238.35 387.013C244.146 387.013 248.84 380.262 248.84 371.951C248.84 363.627 244.146 356.89 238.35 356.89H237.96C238.211 357.697 238.35 358.574 238.35 359.493C238.35 363.822 235.216 367.358 231.357 367.358C230.34 367.358 229.379 367.107 228.515 366.676V366.69Z" fill="#36156F"/>
<path d="M140.159 541.585C139.285 540.228 138.114 539.184 136.635 538.441C135.156 537.702 133.353 537.333 131.218 537.333C129.249 537.333 127.522 537.693 126.048 538.413C124.569 539.134 123.327 540.099 122.322 541.308C121.318 542.523 120.55 543.889 120.03 545.422C119.505 546.95 119.248 548.497 119.248 550.058C119.248 552.011 119.541 553.682 120.126 555.081C120.712 556.48 121.504 557.616 122.514 558.502C123.519 559.384 124.705 560.021 126.068 560.414C127.431 560.806 128.895 561 130.455 561C131.263 561 132.01 560.959 132.707 560.88C133.777 560.756 134.59 561.767 134.106 562.644C134.09 562.672 134.075 562.699 134.06 562.722C133.671 563.401 133.055 563.988 132.212 564.477C131.369 564.971 130.233 565.354 128.795 565.631C127.356 565.908 125.584 566.047 123.468 566.047C122.721 566.047 122.115 566.601 122.115 567.284V571.984C122.115 572.668 122.721 573.222 123.468 573.222H123.963C127.285 573.222 130.132 572.912 132.505 572.298C134.873 571.684 136.812 570.729 138.306 569.431C139.805 568.138 140.906 566.504 141.613 564.532C142.319 562.561 142.673 560.197 142.673 557.445V552.514C142.673 550.275 142.471 548.229 142.072 546.383C141.673 544.536 141.037 542.934 140.164 541.576L140.159 541.585ZM135.034 552.833C135.034 553.35 134.686 553.811 134.161 553.992C133.323 554.287 132.318 554.435 131.152 554.435C129.779 554.435 128.699 554.093 127.921 553.401C127.139 552.713 126.75 551.364 126.75 549.351C126.75 547.957 127.073 546.743 127.719 545.718C128.365 544.693 129.456 544.176 130.996 544.176C132.535 544.176 133.54 544.767 134.136 545.949C134.732 547.131 135.029 548.728 135.029 550.741V552.837L135.034 552.833Z" fill="white"/>
<path d="M215.407 575.229C214.296 575.229 213.327 575.64 212.499 576.462C211.666 577.284 211.252 578.258 211.252 579.39C211.252 580.521 211.666 581.495 212.499 582.317C213.332 583.139 214.301 583.55 215.407 583.55C216.512 583.55 217.512 583.139 218.33 582.317C219.148 581.495 219.562 580.521 219.562 579.39C219.562 578.258 219.153 577.284 218.33 576.462C217.507 575.64 216.532 575.229 215.407 575.229Z" fill="white"/>
<path d="M220.177 566.698C219.046 566.698 218.072 567.109 217.254 567.931C216.431 568.752 216.022 569.727 216.022 570.858C216.022 571.989 216.431 572.963 217.254 573.785C218.077 574.607 219.051 575.018 220.177 575.018C221.303 575.018 222.282 574.607 223.1 573.785C223.918 572.963 224.332 571.989 224.332 570.858C224.332 569.727 223.923 568.752 223.1 567.931C222.277 567.109 221.303 566.698 220.177 566.698Z" fill="white"/>
<path d="M216.699 552.92C216.699 553.604 216.093 554.158 215.346 554.158H205.436C205.224 554.158 205.032 554.181 204.85 554.218H173.024C172.277 554.218 171.671 553.664 171.671 552.98V552.523C171.671 550.284 171.474 548.239 171.086 546.392C170.697 544.545 170.056 542.943 169.162 541.585C168.269 540.228 167.082 539.184 165.608 538.441C164.129 537.702 162.327 537.333 160.191 537.333C158.263 537.333 156.561 537.693 155.082 538.413C153.603 539.134 152.351 540.099 151.326 541.308C150.301 542.523 149.524 543.889 149.004 545.422C148.479 546.95 148.221 548.497 148.221 550.058C148.221 552.011 148.514 553.682 149.1 555.081C149.685 556.48 150.503 557.616 151.563 558.502C152.618 559.384 153.875 560.021 155.334 560.414C156.793 560.806 158.374 561 160.075 561H161.867C162.927 561 163.569 562.058 163.028 562.889C162.988 562.953 162.943 563.018 162.897 563.083C162.458 563.687 161.802 564.218 160.928 564.671C160.055 565.123 158.934 565.465 157.556 565.705C156.183 565.941 154.476 566.061 152.447 566.061C151.699 566.061 151.094 566.615 151.094 567.298V571.998C151.094 572.682 151.699 573.236 152.447 573.236H152.941C158.833 573.236 163.266 572.266 166.239 570.322C168.97 568.54 170.682 565.779 171.373 562.035C171.485 561.439 172.045 561 172.706 561H216.76C221.005 561 224.448 557.556 224.448 553.304V538.852C224.448 538.169 223.843 537.615 223.095 537.615H218.077C217.33 537.615 216.724 538.169 216.724 538.852V552.92H216.699ZM164.003 552.98C164.003 553.664 163.397 554.218 162.65 554.218H160.125C158.793 554.218 157.722 553.881 156.925 553.202C156.122 552.523 155.723 551.24 155.723 549.351C155.723 547.874 156.046 546.641 156.692 545.653C157.339 544.665 158.389 544.176 159.848 544.176C161.428 544.176 162.513 544.799 163.109 546.041C163.705 547.283 164.003 548.848 164.003 550.741V552.985V552.98Z" fill="white"/>
<path d="M214.791 570.858C214.791 569.727 214.377 568.752 213.544 567.931C212.711 567.109 211.731 566.698 210.605 566.698C209.48 566.698 208.5 567.109 207.682 567.931C206.859 568.752 206.451 569.727 206.451 570.858C206.451 571.989 206.859 572.963 207.682 573.785C208.5 574.607 209.48 575.018 210.605 575.018C211.731 575.018 212.716 574.607 213.544 573.785C214.377 572.963 214.791 571.989 214.791 570.858Z" fill="white"/>
<path d="M263.948 575.229C262.837 575.229 261.868 575.64 261.04 576.462C260.207 577.284 259.793 578.258 259.793 579.39C259.793 580.521 260.207 581.495 261.04 582.317C261.873 583.139 262.842 583.55 263.948 583.55C265.053 583.55 266.053 583.139 266.871 582.317C267.689 581.495 268.103 580.521 268.103 579.39C268.103 578.258 267.694 577.284 266.871 576.462C266.048 575.64 265.074 575.229 263.948 575.229Z" fill="white"/>
<path d="M265.24 538.851V552.92C265.24 553.603 264.634 554.157 263.887 554.157H253.977C253.765 554.157 253.573 554.18 253.391 554.217H252.563C251.7 554.217 251.155 554.06 250.918 553.742C250.68 553.423 250.564 552.814 250.564 551.909V535.555C250.564 534.871 249.958 534.317 249.211 534.317H240.593C239.18 534.317 237.741 534.525 236.282 534.931C234.823 535.342 233.495 536.021 232.294 536.963C231.092 537.909 230.113 539.124 229.355 540.615C228.598 542.106 228.214 543.926 228.214 546.082C228.214 548.238 228.613 550.048 229.416 551.442C230.219 552.841 231.198 553.926 232.354 554.707C233.515 555.487 234.737 556.027 236.035 556.323C237.327 556.623 238.458 556.77 239.422 556.77C240.119 556.77 240.821 556.72 241.532 556.618H241.558C242.694 556.447 243.779 557.006 244.41 557.966C244.566 558.206 244.733 558.423 244.915 558.622C245.48 559.236 246.132 559.721 246.869 560.072C247.606 560.423 248.419 560.663 249.302 560.797C250.185 560.93 251.099 560.995 252.043 560.995H265.806C269.764 560.995 272.974 557.782 272.974 553.82V538.847C272.974 538.163 272.369 537.609 271.621 537.609H266.603C265.856 537.609 265.25 538.163 265.25 538.847L265.24 538.851ZM242.926 548.737C242.926 549.328 242.471 549.849 241.83 549.956C241.654 549.983 241.482 550.006 241.31 550.016C240.785 550.048 240.27 550.062 239.755 550.062C238.932 550.062 238.261 549.923 237.741 549.646C237.216 549.369 236.797 549.027 236.479 548.612C236.161 548.201 235.944 547.735 235.833 547.208C235.722 546.687 235.661 546.197 235.661 545.745C235.661 544.47 236.024 543.455 236.756 542.693C237.483 541.931 238.579 541.552 240.033 541.552H241.573C242.32 541.552 242.926 542.106 242.926 542.79V548.732V548.737Z" fill="white"/>
<path d="M263.332 570.858C263.332 569.727 262.918 568.752 262.085 567.931C261.252 567.109 260.273 566.698 259.147 566.698C258.021 566.698 257.042 567.109 256.224 567.931C255.401 568.752 254.992 569.727 254.992 570.858C254.992 571.989 255.401 572.963 256.224 573.785C257.042 574.607 258.021 575.018 259.147 575.018C260.273 575.018 261.257 574.607 262.085 573.785C262.918 572.963 263.332 571.989 263.332 570.858Z" fill="white"/>
<path d="M268.719 566.698C267.588 566.698 266.614 567.109 265.796 567.931C264.973 568.752 264.564 569.727 264.564 570.858C264.564 571.989 264.973 572.963 265.796 573.785C266.619 574.607 267.593 575.018 268.719 575.018C269.845 575.018 270.824 574.607 271.642 573.785C272.46 572.963 272.874 571.989 272.874 570.858C272.874 569.727 272.465 568.752 271.642 567.931C270.819 567.109 269.845 566.698 268.719 566.698Z" fill="white"/>
<path d="M119.914 481.147C119.914 480.4 120.52 479.794 121.267 479.794H138.967C141.638 479.794 143.905 480.178 145.757 480.945C147.61 481.712 149.12 482.727 150.281 483.989C151.442 485.251 152.29 486.71 152.83 488.356C153.37 490.002 153.638 491.678 153.638 493.374C153.638 495.071 153.37 496.767 152.83 498.393C152.29 500.018 151.442 501.467 150.281 502.729C149.12 503.991 147.61 505.011 145.757 505.774C143.905 506.541 141.638 506.925 138.967 506.925H130.592C129.844 506.925 129.239 507.53 129.239 508.278V520.737C129.239 521.484 128.633 522.09 127.886 522.09H121.272C120.525 522.09 119.919 521.484 119.919 520.737V481.147H119.914ZM129.239 498.332C129.239 499.079 129.844 499.685 130.592 499.685H136.448C137.523 499.685 138.558 499.609 139.543 499.453C140.527 499.296 141.39 498.993 142.138 498.534C142.885 498.08 143.486 497.433 143.94 496.605C144.394 495.777 144.621 494.697 144.621 493.374C144.621 492.052 144.394 490.911 143.94 490.078C143.486 489.25 142.885 488.614 142.138 488.164C141.39 487.72 140.527 487.417 139.543 487.261C138.558 487.104 137.528 487.028 136.448 487.028H130.592C129.844 487.028 129.239 487.634 129.239 488.381V498.322V498.332Z" fill="white"/>
<path d="M161.064 479.789H189.997C190.744 479.789 191.35 480.394 191.35 481.142V486.236C191.35 486.983 190.744 487.589 189.997 487.589H170.389C169.642 487.589 169.036 488.194 169.036 488.942V495.308C169.036 496.055 169.642 496.661 170.389 496.661H188.165C188.912 496.661 189.518 497.266 189.518 498.014V502.517C189.518 503.264 188.912 503.87 188.165 503.87H170.389C169.642 503.87 169.036 504.476 169.036 505.223V512.927C169.036 513.674 169.642 514.28 170.389 514.28H190.462C191.209 514.28 191.815 514.886 191.815 515.633V520.727C191.815 521.474 191.209 522.08 190.462 522.08H161.064C160.317 522.08 159.711 521.474 159.711 520.727V481.147C159.711 480.399 160.317 479.794 161.064 479.794V479.789Z" fill="white"/>
<path d="M198.6 481.146C198.6 480.399 199.206 479.793 199.953 479.793H217.653C220.324 479.793 222.591 480.177 224.443 480.945C226.296 481.712 227.806 482.727 228.967 483.989C230.128 485.251 230.976 486.71 231.516 488.356C232.057 490.002 232.324 491.678 232.324 493.374C232.324 495.07 232.057 496.767 231.516 498.392C230.976 500.018 230.128 501.467 228.967 502.729C227.806 503.991 226.296 505.011 224.443 505.773C222.591 506.54 220.324 506.924 217.653 506.924H209.278C208.531 506.924 207.925 507.53 207.925 508.277V520.737C207.925 521.484 207.319 522.09 206.572 522.09H199.958C199.211 522.09 198.605 521.484 198.605 520.737V481.146H198.6ZM207.925 498.332C207.925 499.079 208.531 499.685 209.278 499.685H215.134C216.209 499.685 217.244 499.609 218.229 499.452C219.213 499.296 220.076 498.993 220.824 498.533C221.571 498.079 222.172 497.433 222.626 496.605C223.08 495.777 223.308 494.697 223.308 493.374C223.308 492.051 223.08 490.91 222.626 490.077C222.172 489.249 221.571 488.613 220.824 488.164C220.076 487.72 219.213 487.417 218.229 487.26C217.244 487.104 216.214 487.028 215.134 487.028H209.278C208.531 487.028 207.925 487.634 207.925 488.381V498.321V498.332Z" fill="white"/>
<path d="M273 506.086C273 511.826 271.399 516.102 268.198 518.909C264.998 521.716 260.575 523.12 254.941 523.12C249.307 523.12 244.763 521.726 241.623 518.94C238.483 516.153 236.913 511.867 236.913 506.086V481.146C236.913 480.399 237.519 479.793 238.266 479.793H244.879C245.627 479.793 246.232 480.399 246.232 481.146V506.086C246.232 507.227 246.328 508.348 246.51 509.458C246.697 510.569 247.111 511.559 247.752 512.427C248.393 513.295 249.277 513.987 250.392 514.492C251.513 515.002 253.023 515.254 254.931 515.254C258.248 515.254 260.535 514.517 261.802 513.048C263.064 511.579 263.7 509.257 263.7 506.086V481.146C263.7 480.399 264.306 479.793 265.053 479.793H271.636C272.384 479.793 272.989 480.399 272.989 481.146V506.086H273Z" fill="white"/>
</g>
<defs>
<filter id="filter0_f_1533_2344" x="-218" y="-102.083" width="743.065" height="464.458" filterUnits="userSpaceOnUse" color-interpolation-filters="sRGB">
<feFlood flood-opacity="0" result="BackgroundImageFix"/>
<feBlend mode="normal" in="SourceGraphic" in2="BackgroundImageFix" result="shape"/>
<feGaussianBlur stdDeviation="39" result="effect1_foregroundBlur_1533_2344"/>
</filter>
<filter id="filter1_f_1533_2344" x="-177" y="411" width="729.137" height="428.84" filterUnits="userSpaceOnUse" color-interpolation-filters="sRGB">
<feFlood flood-opacity="0" result="BackgroundImageFix"/>
<feBlend mode="normal" in="SourceGraphic" in2="BackgroundImageFix" result="shape"/>
<feGaussianBlur stdDeviation="39" result="effect1_foregroundBlur_1533_2344"/>
</filter>
<filter id="filter2_f_1533_2344" x="-149.844" y="570.186" width="723.981" height="415.654" filterUnits="userSpaceOnUse" color-interpolation-filters="sRGB">
<feFlood flood-opacity="0" result="BackgroundImageFix"/>
<feBlend mode="normal" in="SourceGraphic" in2="BackgroundImageFix" result="shape"/>
<feGaussianBlur stdDeviation="39" result="effect1_foregroundBlur_1533_2344"/>
</filter>
<clipPath id="clip0_1533_2344">
<rect width="393" height="852" fill="white"/>
</clipPath>
<clipPath id="clip1_1533_2344">
<rect width="394" height="852" fill="white"/>
</clipPath>
</defs>
</svg>
