<svg width="415" height="490" viewBox="0 0 415 490" fill="none" xmlns="http://www.w3.org/2000/svg">
    <g clip-path="url(#clip0_454_3334)">
        <rect width="415" height="490" fill="#EFEFEF" />
        <path
            d="M258.394 501.5C145.503 491.148 69.2273 514.332 11.8363 528.883C10.2919 529.274 8.66871 528.899 7.44196 527.882L-53.8214 477.109C-57.3179 474.212 -55.4525 468.53 -50.9189 468.268L40.3936 463L178.394 469H323.894L399.394 463C421.727 464.167 460.594 471.4 437.394 491C408.651 515.283 336.922 508.703 260.449 501.688L258.394 501.5Z"
            fill="#EFEFEF" />
        <rect x="7.89355" width="395" height="266" fill="#EFEFEF" />
        <path d="M418.332 198.225H22.6382V474H418.332V198.225Z" fill="#EFEFEF" />
        <path d="M422.586 378.74H18.3848V392.43H422.586V378.74Z" fill="#CB7D3B" />
        <path
            d="M376.427 210.623C376.427 210.61 376.415 210.61 376.415 210.598C376.402 210.573 376.377 210.548 376.353 210.524C376.328 210.499 376.316 210.486 376.291 210.474C376.279 210.474 376.279 210.462 376.266 210.462C376.241 210.449 376.229 210.462 376.204 210.449C376.192 210.449 376.167 210.437 376.155 210.437H202.21C202.185 210.437 202.173 210.449 202.161 210.449C202.136 210.449 202.124 210.449 202.099 210.462C202.087 210.462 202.087 210.474 202.074 210.474C202.049 210.486 202.037 210.511 202.012 210.524C201.988 210.548 201.975 210.561 201.963 210.585C201.963 210.598 201.951 210.598 201.938 210.61C201.926 210.623 201.938 210.647 201.938 210.672C201.938 210.684 201.926 210.697 201.926 210.721V333.72C201.926 333.732 201.938 333.744 201.938 333.769C201.938 333.781 201.938 333.806 201.938 333.831C201.938 333.843 201.951 333.843 201.963 333.856C201.975 333.88 202 333.905 202.012 333.917C202.037 333.942 202.049 333.955 202.074 333.967C202.087 333.967 202.087 333.979 202.099 333.979C202.136 333.992 202.173 334.004 202.21 334.004H376.155C376.192 334.004 376.229 333.992 376.266 333.979C376.279 333.979 376.279 333.967 376.291 333.967C376.316 333.955 376.328 333.942 376.34 333.917C376.365 333.893 376.39 333.868 376.402 333.843C376.402 333.831 376.415 333.831 376.415 333.819C376.415 333.806 376.415 333.794 376.415 333.769C376.415 333.744 376.427 333.732 376.427 333.707V210.734C376.427 210.709 376.415 210.697 376.415 210.672C376.427 210.66 376.427 210.635 376.427 210.623Z"
            fill="#A7A9AC" />
        <path
            d="M287.161 269.809L368.006 213.813L374.127 208.31H200.182L206.303 213.813L287.161 269.809Z"
            fill="#9B431F" />
        <path
            d="M287.161 270.093C287.099 270.093 287.049 270.081 287 270.044L206.142 214.048L199.997 208.52C199.91 208.434 199.873 208.31 199.923 208.199C199.972 208.087 200.071 208.013 200.195 208.013H374.139C374.263 208.013 374.362 208.087 374.411 208.199C374.461 208.31 374.424 208.434 374.337 208.52L368.216 214.036L287.334 270.056C287.272 270.081 287.21 270.093 287.161 270.093ZM200.937 208.594L206.501 213.603L287.161 269.45L367.845 213.578L373.373 208.594H200.937V208.594Z"
            fill="#4D1800" />
        <path
            d="M287.161 269.81L206.303 213.814L200.182 208.311V331.309L206.303 325.793L287.161 269.81Z"
            fill="#B94D26" />
        <path
            d="M200.182 331.593C200.145 331.593 200.108 331.581 200.071 331.568C199.96 331.519 199.898 331.42 199.898 331.308V208.31C199.898 208.199 199.96 208.088 200.071 208.051C200.17 208.001 200.294 208.026 200.38 208.1L206.501 213.616L287.322 269.587C287.396 269.636 287.445 269.735 287.445 269.822C287.445 269.921 287.396 270.007 287.322 270.057L206.476 326.053L200.38 331.543C200.318 331.568 200.257 331.593 200.182 331.593ZM200.479 208.953V330.653L206.118 325.583L286.654 269.809L206.155 214.061L200.479 208.953Z"
            fill="#4D1800" />
        <path
            d="M368.006 213.813L287.161 269.809L368.006 325.793L374.127 331.308V208.31L368.006 213.813Z"
            fill="#B94D26" />
        <path
            d="M374.127 331.593C374.053 331.593 373.991 331.568 373.929 331.519L367.808 326.003L286.988 270.032C286.914 269.982 286.864 269.883 286.864 269.797C286.864 269.698 286.914 269.611 286.988 269.562L367.833 213.566L373.929 208.075C374.016 208.001 374.14 207.976 374.239 208.026C374.35 208.075 374.412 208.174 374.412 208.285V331.284C374.412 331.395 374.35 331.506 374.239 331.543C374.214 331.593 374.164 331.593 374.127 331.593ZM287.668 269.809L368.179 325.558L373.843 330.653V208.953L368.204 214.024L287.668 269.809Z"
            fill="#4D1800" />
        <path
            d="M287.161 269.81L206.303 325.793L200.182 331.309H374.127L368.006 325.793L287.161 269.81Z"
            fill="#9B431F" />
        <path
            d="M374.127 331.593H200.182C200.071 331.593 199.96 331.519 199.91 331.407C199.873 331.296 199.898 331.172 199.984 331.086L206.105 325.57L286.988 269.55C287.087 269.488 287.223 269.475 287.322 269.55L368.167 325.546L374.312 331.086C374.399 331.172 374.436 331.296 374.387 331.407C374.362 331.519 374.251 331.593 374.127 331.593ZM200.937 331.024H373.373L367.808 326.016L287.148 270.168L206.464 326.04L200.937 331.024Z"
            fill="#4D1800" />
        <path d="M368.006 213.813H206.303V325.793H368.006V213.813Z" fill="#004443" />
        <path
            d="M368.006 326.09H206.303C206.142 326.09 206.019 325.966 206.019 325.793V213.813C206.019 213.653 206.155 213.517 206.303 213.517H368.006C368.167 213.517 368.29 213.653 368.29 213.813V325.793C368.303 325.954 368.167 326.09 368.006 326.09ZM206.6 325.508H367.721V214.11H206.6V325.508V325.508Z"
            fill="#00192A" />
        <path d="M366.226 216.398H208.084V323.332H366.226V216.398Z" fill="#137978" />
        <path
            d="M94.4251 358.091L192.406 440.224C199.982 448.298 194.469 458.836 181.922 460.208C171.638 461.328 158.298 461.662 142.287 459.672C101.88 454.651 66.7384 443.379 66.7384 443.379L94.4251 358.091Z"
            fill="#9241FE" />
        <path
            d="M48.6354 477.769C47.8474 477.3 46.8646 476.818 45.7455 476.325C37.828 472.847 23.1274 469.076 23.1274 469.076C23.1274 469.076 28.6022 457.764 33.3662 453.902C34.099 453.302 34.8145 452.884 35.4966 452.711C39.884 451.601 46.2056 458.071 47.842 459.846C48.1037 460.124 48.2406 460.286 48.2406 460.286C48.2406 460.286 48.2498 460.322 48.2755 460.399C48.7974 462.05 54.7372 481.396 48.6354 477.769Z"
            fill="#FF8E06" />
        <path
            d="M48.6362 477.769C47.8481 477.301 46.8654 476.818 45.7463 476.325C45.7069 475.845 45.8176 475.454 46.1145 475.193C48.2035 473.388 46.5444 459.451 46.5444 459.451L48.2763 460.399C48.7981 462.05 54.738 481.396 48.6362 477.769Z"
            fill="#FFAB57" />
        <path
            d="M-38.6823 358.402L-39.0395 358.836C-40.6128 360.749 -41.8457 362.837 -42.7485 365.093C-42.8414 365.311 -42.9343 365.53 -43.0169 365.756C-43.0624 365.875 -43.0994 365.983 -43.1364 366.091C-44.6455 370.327 -45.0512 375.055 -44.4642 380.114C-44.452 380.141 -44.4484 380.179 -44.4447 380.217C-43.2415 390.342 -38.0523 401.753 -29.7142 412.981C-29.3079 413.541 -28.8931 414.09 -28.468 414.648C-24.2345 420.142 -19.2559 425.573 -13.6155 430.768C-12.0796 432.188 -10.4974 433.594 -8.87089 434.967C-8.33155 435.428 -7.78372 435.878 -7.22555 436.338C-6.58467 436.865 -5.93529 437.382 -5.29625 437.89C-3.82178 439.069 -2.32363 440.197 -0.820637 441.278C0.141845 441.983 1.111 442.659 2.08866 443.325C7.80323 447.229 13.6184 450.506 19.361 453.133C32.558 459.173 45.4527 461.808 56.1198 460.704C57.3445 460.585 58.5193 460.443 59.6632 460.274C62.8515 459.812 65.7164 459.153 68.2821 458.057C71.1419 456.857 73.6076 455.124 75.7423 452.53C85.4205 440.766 92.7395 428.31 97.7568 415.85C99.569 411.309 101.087 406.768 102.294 402.266C103.583 397.434 104.525 392.644 105.123 387.936C105.323 386.281 105.478 384.64 105.594 383.002L105.592 382.983C106.002 377.513 105.902 372.179 105.307 367.044C105 364.174 104.528 361.376 103.901 358.641C100.849 345.349 94.2124 333.822 84.0205 325.436L83.9482 325.377C83.1729 324.739 82.3807 324.121 81.5647 323.554C81.4905 323.476 81.3993 323.418 81.3081 323.36C69.6866 314.943 55.3031 311.567 40.0568 312.717C33.2781 313.224 26.3388 314.621 19.3962 316.866C18.8061 317.056 18.2264 317.255 17.6466 317.454C14.9222 318.385 12.2021 319.457 9.49307 320.643C9.22812 320.755 8.97351 320.875 8.70856 320.986C6.64911 321.909 4.57148 322.938 2.49267 324.053C-12.076 331.879 -26.9283 344.222 -38.6823 358.402Z"
            fill="#9241FE" />
        <path
            d="M16.1916 468.384C16.1916 468.384 15.0591 467.163 13.2892 465.338C8.97793 460.886 0.893401 452.82 -3.63229 450.129C-10.0043 446.341 11.9141 442.124 11.9141 442.124C11.9141 442.124 12.2843 442.201 12.887 442.367C15.3993 443.027 22.0291 445.049 24.129 448.471C24.3702 448.868 24.5485 449.269 24.6581 449.699C24.8241 450.377 24.8035 451.198 24.6261 452.128C23.5217 458.156 16.1916 468.384 16.1916 468.384Z"
            fill="#FF8E06" />
        <path
            d="M24.6263 452.128C23.5218 458.155 16.1918 468.384 16.1918 468.384C16.1918 468.384 15.0593 467.162 13.2894 465.338C15.2294 462.997 19.8708 455.497 22.7266 450.795L22.7534 450.75C23.9757 451.599 25.7882 452.839 27.6544 454.04L27.6951 454.125C26.6458 453.481 25.6219 452.811 24.6263 452.128Z"
            fill="#FFAB57" />
        <path
            d="M-8.20105 380.656L-8.22759 380.711C-10.8199 386.335 -10.7825 392.585 -8.62246 398.919L-8.59992 398.984C-5.17762 408.931 3.55134 419.085 15.7289 427.398C19.6837 430.086 23.9898 432.58 28.6083 434.82C29.068 435.043 29.5167 435.261 29.9817 435.473C33.7294 437.223 37.4896 438.668 41.2138 439.825C64.6622 447.142 89.8503 428.684 92.3028 402.471C92.3125 402.368 92.3112 402.259 92.3264 402.171C93.1238 393.42 91.2316 385.391 86.983 379.545L84.4163 376.029C82.9724 374.045 81.0244 372.208 78.7971 370.668C74.7809 367.855 69.8675 365.972 65.5071 365.736L57.5212 365.31C57.5103 365.305 57.505 365.316 57.4831 365.305L55.2022 365.186C52.2464 365.037 49.4416 364.325 46.8975 363.132C46.2408 362.814 45.6001 362.462 44.9699 362.089C42.5257 360.606 40.396 358.586 38.6258 356.16L38.5983 356.133L33.3195 350.125C30.4238 346.842 25.9141 344.154 21.2185 342.742C9.91415 351.779 -0.86906 365.678 -8.20105 380.656Z"
            fill="#A369FF" />
        <path
            d="M-9.81507 415.088C-6.60047 417.296 -3.12117 419.348 0.557138 421.213C1.0115 421.447 1.46022 421.665 1.91989 421.888C6.52749 424.122 11.163 425.965 15.7229 427.406C29.7901 431.822 43.1742 432.379 53.0988 428.919L53.1638 428.896C59.4804 426.687 64.4061 422.831 67.2173 417.313L67.2439 417.258C74.4664 402.227 78.7049 385.153 78.7912 370.676C74.775 367.863 69.8616 365.98 65.5011 365.745L57.5153 365.319C57.5043 365.313 57.499 365.324 57.4771 365.314C54.4865 365.431 51.5818 365.01 48.893 364.003C48.2098 363.739 47.5372 363.454 46.8806 363.135C44.3574 361.871 42.0731 360.114 40.1258 357.885L38.6199 356.168L38.5924 356.141L33.3136 350.134C30.4178 346.85 25.9081 344.163 21.2125 342.751C18.6243 341.955 15.9866 341.568 13.5233 341.658L9.17308 341.819C1.95196 342.102 -5.51897 345.576 -11.9033 351.632C-11.9786 351.703 -12.0648 351.77 -12.1239 351.836C-31.1681 370.002 -30.0734 401.193 -9.81507 415.088Z"
            fill="#A369FF" />
        <path
            d="M71.6483 222.098C71.3549 221.599 64.5475 197.261 63.3061 192.122C61.4474 184.451 53.1582 184.641 48.7946 201.062C48.7946 201.062 45.4676 190.284 40.4088 193.751C32.892 198.913 43.2602 204.804 17.9014 235.098L71.6483 222.098Z"
            fill="#9241FE" />
        <path
            d="M18.8842 233.045L19.6602 232.856C21.3982 230.531 22.8989 228.387 24.1919 226.396C22.6186 228.474 20.8612 230.687 18.8842 233.045Z"
            fill="#7F7F7F" />
        <path
            d="M168.972 308.354C177.06 269.684 186.636 273.466 186.035 264.368C185.626 258.248 175.103 262.309 175.103 262.309C185.283 248.71 180.442 242.434 173.12 245.384C160.299 250.562 144.23 251.486 143.657 251.565C143.657 251.565 119.687 234.272 116.458 232.616C113.916 231.324 58.1099 195.258 20.55 230.985L17.5827 234.128C2.42831 250.313 -8.15503 264.282 -12.6043 274.1C-12.8503 274.546 -13.0785 274.986 -13.3005 275.443C-15.4442 279.864 -16.7759 285.094 -16.8811 291.262C-16.6366 310.021 15.7816 333.851 37.2799 344.278L64.6796 357.567C75.4227 362.777 135.69 392.007 154.248 357.76C159.372 348.299 164.709 329.658 168.537 310.568L168.972 308.354Z"
            fill="#9241FE" />
        <path
            d="M-13.019 274.894C-13.5155 275.918 -13.9696 276.977 -14.3574 278.084C-9.46177 268.542 0.535307 255.597 14.4131 240.786L17.3509 237.674C42.6864 203.962 96.129 229.718 112.127 239.277C115.208 241.114 139.006 257.996 139.006 257.996C139.574 257.929 155.463 257.007 168.129 251.903C175.362 248.984 179.299 252.828 169.242 266.264C169.242 266.264 182.179 264.743 180.886 270.661C178.883 279.851 186.899 272.893 186.293 263.807C185.884 257.688 175.36 261.748 175.36 261.748C185.553 248.155 180.718 241.867 173.396 244.817C160.563 249.989 144.506 250.919 143.92 250.992C143.92 250.992 119.956 233.687 116.721 232.044C114.179 230.751 58.3732 194.685 20.8253 230.418L17.858 233.561C2.70365 249.746 -7.8797 263.715 -12.329 273.533C-12.575 273.979 -12.797 274.437 -13.019 274.894Z"
            fill="#A670FC" />
        <g opacity="0.3">
            <g opacity="03">
                <g opacity="0.3">
                    <g opacity="0.3">
                        <path opacity="0.3"
                            d="M68.1237 294.669C67.9558 295.138 67.794 295.625 67.6264 296.124C62.0934 313.36 69.8728 330.448 82.6756 338.651C92.178 344.732 114.297 350.506 130.917 331.788C136.906 325.053 140.946 317.06 140.839 311.667C140.66 302.282 130.431 294.539 125.842 291.242C125.365 290.906 124.839 290.548 124.284 290.189C114.529 283.985 93.4319 276.535 83.6645 279.251C83.6645 279.251 73.7179 279.024 68.1237 294.669Z"
                            fill="#4B4B4B" />
                    </g>
                </g>
            </g>
        </g>
        <path
            d="M38.6912 327.227C44.6246 331.741 51.4899 336.083 59.3048 340.245C67.4118 343.805 75.0594 346.502 82.2659 348.361C134.602 361.797 139.776 338.124 146.29 309.447C146.301 309.333 146.341 309.189 146.364 309.081C146.995 306.337 154.515 296.446 149.449 277.075C147.598 269.973 140.53 263.748 132.378 260.955C127.405 260.135 122.196 260.018 117.118 260.457C116.283 260.676 115.424 260.944 114.553 261.236C109.003 263.111 103.176 262.457 98.2829 259.846C93.2091 257.609 89.0878 253.438 87.0935 247.918C86.7779 247.066 86.4564 246.226 86.1174 245.422C83.3181 241.163 80.0067 237.132 76.2781 233.747C69.0377 229.075 59.7979 227.39 53.0504 230.321C34.7143 238.343 31.6269 250.384 29.8273 252.561C29.7565 252.646 29.6802 252.772 29.6094 252.857C11.1175 275.74 -4.25172 294.454 38.6912 327.227Z"
            fill="#A369FF" />
        <path
            d="M105.477 326.95C99.1375 323.875 97.5659 314.028 101.966 304.955C106.366 295.882 115.072 291.02 121.411 294.094C127.75 297.168 129.322 307.016 124.922 316.088C120.521 325.161 111.816 330.024 105.477 326.95Z"
            fill="white" />
        <path
            d="M106.726 323.063C103.723 321.607 103.544 315.777 106.325 310.042C109.107 304.307 113.796 300.838 116.799 302.295C119.802 303.751 119.981 309.581 117.2 315.316C114.418 321.051 109.729 324.52 106.726 323.063Z"
            fill="#3A3A3A" />
        <path
            d="M37.8017 294.125C31.4627 291.05 29.8911 281.203 34.2914 272.13C38.6916 263.058 47.3975 258.195 53.7366 261.269C60.0756 264.344 61.6472 274.191 57.2469 283.264C52.8466 292.337 44.1407 297.199 37.8017 294.125Z"
            fill="white" />
        <path
            d="M59.9053 296.799C58.6009 299.335 58.134 303.795 69.9869 310.183C72.4996 311.535 76.899 312.955 78.456 312.996C82.6479 313.095 85.2128 312.316 86.185 309.544C86.7057 308.041 86.1567 305.707 85.2564 304.527C82.9876 301.567 83.3489 301.742 82.9948 299.681C82.2748 295.583 80.9183 294.3 79.2559 292.973C73.5612 288.396 61.7011 293.311 59.9053 296.799Z"
            fill="#FF8E06" />
        <g opacity="0.3">
            <g opacity="0.3">
                <g opacity="0.3">
                    <g opacity="0.3">
                        <path opacity="0.3"
                            d="M69.9948 310.171C72.4959 311.548 76.9362 312.883 78.5341 312.84C82.8311 312.722 85.507 311.714 86.6424 308.576C86.8162 308.094 86.9054 307.543 86.9284 306.974C85.4764 308.188 83.3506 308.645 80.526 308.733C78.9401 308.782 74.4936 307.429 71.9867 306.064C63.1159 301.227 61.3134 297.213 61.5893 294.283C61.045 294.822 60.6322 295.336 60.3806 295.824C58.8951 298.733 58.1711 303.723 69.9948 310.171Z"
                            fill="#3A3A3A" />
                    </g>
                </g>
            </g>
        </g>
        <g opacity="0.35">
            <g opacity="0.35">
                <g opacity="0.35">
                    <g opacity="0.35">
                        <path opacity="0.35"
                            d="M59.6671 301.308L59.7372 301.164C61.533 297.676 74.0786 292.023 79.0637 297.327C80.1614 298.499 80.1134 300.469 80.3511 302.31C80.6096 304.384 84.4085 306.643 84.4863 309.121C84.5042 309.605 85.6257 309.777 85.818 310.332C85.9527 310.085 86.0692 309.814 86.1794 309.525C86.7001 308.022 86.1511 305.688 85.245 304.52C82.9762 301.56 83.3375 301.735 82.9833 299.674C82.2633 295.576 80.9068 294.293 79.2503 292.954C73.5797 288.389 61.7076 293.298 59.9238 296.791C59.3328 297.918 58.914 299.426 59.6671 301.308Z"
                            fill="white" />
                    </g>
                </g>
            </g>
        </g>
        <path
            d="M69.0798 289.732C70.3398 289.466 71.5651 289.301 72.7203 289.281C75.8084 289.202 78.4519 289.978 80.3924 291.529C82.3029 293.081 83.9692 294.737 84.7793 299.355C84.8493 299.701 84.8887 299.988 84.9215 300.227C85.0587 301.171 85.078 301.285 86.7019 303.397C87.9004 304.975 88.6844 307.928 87.9089 310.141C87.6077 310.977 87.209 311.676 86.725 312.245C84.718 314.604 81.321 314.89 78.4048 314.829C76.5185 314.792 72.3648 313.388 69.7995 312.144C69.5586 312.027 69.3356 311.904 69.1126 311.781C68.5944 311.5 68.1002 311.23 67.636 310.96C60.0342 306.604 56.7024 302.37 57.5069 298.104L57.5128 298.092C57.6307 297.45 57.8502 296.782 58.1598 296.144L58.2532 295.951C59.7628 293.054 64.8342 290.634 69.0798 289.732ZM84.4519 308.925C84.4635 308.901 84.4694 308.889 84.469 308.859C84.5267 308.679 84.5658 308.445 84.5388 308.194C84.5546 307.517 84.3649 306.682 84.0463 306.081C84.046 306.051 84.0339 306.045 84.0219 306.039C83.9602 305.89 83.8686 305.742 83.7894 305.629C83.7409 305.576 83.7223 305.522 83.6858 305.474C83.6738 305.469 83.6796 305.457 83.6676 305.451C81.7517 302.959 81.5291 302.375 81.288 300.756C81.2614 300.535 81.2224 300.278 81.171 299.985C80.5604 296.52 79.501 295.545 78.2674 294.53C78.2433 294.519 78.2193 294.507 78.2131 294.489C78.1587 294.448 78.1284 294.418 78.074 294.377C77.7415 294.112 77.3857 293.894 77.0003 293.708C76.374 293.404 75.689 293.191 74.9933 293.091C74.9692 293.08 74.9272 293.074 74.8973 293.074C73.3918 292.835 71.8428 292.962 70.6419 293.168C70.3492 293.219 70.0864 293.27 69.8415 293.315C67.7336 293.766 65.8035 294.555 64.3285 295.357C63.2758 295.933 62.4571 296.547 61.9723 297.056C61.7712 297.256 61.6299 297.455 61.5481 297.624C61.2382 298.232 61.1023 298.88 61.1639 299.52C61.3513 301.649 63.469 304 67.4872 306.574L67.4993 306.58C68.5007 307.214 69.6102 307.871 70.8635 308.539C73.2737 309.827 77.384 311.106 78.4979 311.141C83.2347 311.251 84.0291 310.104 84.4519 308.925Z"
            fill="#3A3A3A" />
        <path
            d="M40.3964 290.892C37.3704 289.425 37.1896 283.55 39.9925 277.77C42.7955 271.991 47.5208 268.496 50.5468 269.963C53.5728 271.431 53.7536 277.306 50.9506 283.085C48.1477 288.864 43.4224 292.36 40.3964 290.892Z"
            fill="#3A3A3A" />
        <rect x="194.894" y="380" width="100" height="43" rx="4" fill="#9241FE" />
        <rect x="177.894" y="365" width="17" height="17" rx="4" fill="#9241FE" />
        <rect x="168.894" y="356" width="9" height="9" rx="2" fill="#9241FE" />
        <path
            d="M231.154 408V395.317H228.896V400.564H222.726V395.317H220.458V408H222.726V402.524H228.896V408H231.154ZM238.098 399.923C239.407 399.923 240.269 400.837 240.312 402.261H235.786C235.883 400.854 236.797 399.923 238.098 399.923ZM240.33 405.354C240.014 406.066 239.267 406.462 238.186 406.462C236.753 406.462 235.83 405.46 235.777 403.86V403.746H242.492V403.043C242.492 400.011 240.849 398.191 238.106 398.191C235.32 398.191 233.589 400.134 233.589 403.228C233.589 406.321 235.294 408.193 238.124 408.193C240.392 408.193 241.982 407.104 242.396 405.354H240.33ZM244.769 408H246.948V394.667H244.769V408ZM249.796 408H251.976V394.667H249.796V408ZM258.884 408.193C261.758 408.193 263.507 406.312 263.507 403.192C263.507 400.081 261.749 398.191 258.884 398.191C256.027 398.191 254.261 400.09 254.261 403.192C254.261 406.312 256.001 408.193 258.884 408.193ZM258.884 406.365C257.363 406.365 256.493 405.205 256.493 403.192C256.493 401.188 257.363 400.02 258.884 400.02C260.396 400.02 261.266 401.188 261.266 403.192C261.266 405.205 260.404 406.365 258.884 406.365ZM266.205 395.309L266.407 403.808H268.438L268.64 395.309H266.205ZM267.427 408.229C268.314 408.229 268.886 407.675 268.886 406.831C268.886 405.979 268.314 405.425 267.427 405.425C266.539 405.425 265.968 405.979 265.968 406.831C265.968 407.675 266.539 408.229 267.427 408.229Z"
            fill="white" />
        <path
            d="M332.894 229.249C335.165 230.285 337.476 231.205 339.79 232.138C341.833 232.962 344.029 233.699 345.918 234.866C347.486 235.834 349.009 236.974 350.513 238.043C351.134 238.485 351.695 239.01 352.314 239.45C353.181 240.066 354.176 240.513 355.118 240.999"
            stroke="white" stroke-linecap="round" />
        <path
            d="M363.844 230.935C363.76 231.412 363.791 232.166 363.568 232.608C363.314 233.11 362.352 232.893 361.951 232.778C360.809 232.452 359.697 231.419 359.527 230.203C359.473 229.824 359.879 229.291 359.644 228.974C359.503 228.784 359.249 228.745 359.077 228.596"
            stroke="white" stroke-width="0.8" stroke-linecap="round" />
        <path d="M360.357 234.827C360.4 235.075 360.633 236.711 361.211 236.043" stroke="white"
            stroke-width="0.8" stroke-linecap="round" />
        <path d="M362.11 236.106C362.183 236.561 362.326 236.957 362.006 237.327" stroke="white"
            stroke-width="0.8" stroke-linecap="round" />
        <path d="M361.321 237.568C361.398 237.799 361.479 238.026 361.562 238.254" stroke="white"
            stroke-width="0.8" stroke-linecap="round" />
        <path
            d="M359.219 229.672C358.92 230.814 358.64 231.379 357.392 230.765C357.082 230.613 354.732 229.494 354.834 229.094"
            stroke="white" stroke-width="0.8" stroke-linecap="round" />
        <path
            d="M356.723 224.295C356.93 224.874 357.1 225.42 357.202 226.021C357.23 226.185 357.16 226.416 357.364 226.445C357.851 226.515 358.477 225.512 358.703 225.174"
            stroke="white" stroke-width="0.8" stroke-linecap="round" />
        <path d="M355.063 232.271C355.12 232.518 355.159 232.749 355.305 232.956" stroke="white"
            stroke-width="0.8" stroke-linecap="round" />
        <path d="M356.466 233.128L356.834 233.804" stroke="white" stroke-width="0.8"
            stroke-linecap="round" />
        <path
            d="M354.584 228.282C354.18 229.389 353.308 228.913 352.402 228.539C351.726 228.259 351.005 228.044 350.444 227.559"
            stroke="white" stroke-width="0.8" stroke-linecap="round" />
        <path
            d="M353.216 226.145C353.127 226.033 352.7 225.326 352.519 225.33C352.238 225.335 352.475 225.623 352.544 225.683"
            stroke="white" stroke-width="0.8" stroke-linecap="round" />
        <path
            d="M349.145 227.269C349.355 227.428 351.209 228.832 351.122 228.894C350.553 229.294 350.07 229.642 349.61 230.174C349.057 230.813 349.099 231.279 349.707 231.912C350.016 232.234 350.196 232.444 350.588 232.211"
            stroke="white" stroke-width="0.8" stroke-linecap="round" />
        <path d="M350.958 230.268C351.134 230.724 351.439 231.078 351.686 231.493" stroke="white"
            stroke-width="0.8" stroke-linecap="round" />
        <path
            d="M346.346 225.022C346.355 225.166 346.497 226.317 346.311 226.399C345.986 226.542 345.496 225.812 345.441 225.576C345.426 225.514 345.479 225.334 345.441 225.385C345.318 225.555 345.34 225.823 345.209 225.975C344.838 226.404 344.001 224.984 343.98 224.699C343.965 224.489 343.948 224.673 343.858 224.806C343.699 225.039 343.456 225.086 343.186 225.054C342.811 225.01 342.541 224.706 342.316 224.428C342.079 224.133 342.075 223.756 341.891 223.434C341.659 223.028 341.084 222.758 341.014 223.418C340.901 224.486 342.437 224.411 343.161 224.455"
            stroke="white" stroke-width="0.8" stroke-linecap="round" />
        <path d="M344.278 223.075C344.525 223.364 344.723 223.695 345.011 223.945" stroke="white"
            stroke-width="0.8" stroke-linecap="round" />
        <path d="M345.583 223.736C345.78 223.911 345.949 224.091 346.126 224.284" stroke="white"
            stroke-width="0.8" stroke-linecap="round" />
        <path d="M344.372 220.889C344.496 221.244 344.733 221.653 344.706 222.038" stroke="white"
            stroke-width="0.8" stroke-linecap="round" />
        <path
            d="M338.993 223.037C338.63 223.346 338.306 223.742 338.748 224.154C338.901 224.298 339.224 224.69 339.438 224.421C339.743 224.037 339.555 223.055 339.416 222.639C339.322 222.356 338.922 222.8 338.824 222.861C338.271 223.205 337.655 223.479 337.139 223.879C337.008 223.981 336.796 224.151 336.721 224.312C336.645 224.475 337.542 225.326 337.672 224.614C337.712 224.393 337.681 223.935 337.495 223.774C337.296 223.602 337.139 223.825 336.943 223.94C336.494 224.204 336.142 224.298 335.642 224.108C335.05 223.884 334.951 223.408 334.951 222.824C334.951 222.459 334.905 222.098 334.916 221.734C334.921 221.597 334.938 221.483 334.829 221.388C334.57 221.165 333.756 221.232 333.452 221.327C332.957 221.481 333.659 222.111 333.807 222.298C334.215 222.814 334.655 223.367 335.329 223.385"
            stroke="white" stroke-width="0.8" stroke-linecap="round" />
        <path
            d="M309.94 228.232C309.528 228.51 308.05 228.873 308.05 227.995C308.05 227.023 309.029 226.742 309.866 226.918C310.851 227.124 310.199 228.53 309.93 229.059C309.008 230.878 306.818 232.25 304.817 232.441"
            stroke="white" stroke-width="0.8" stroke-linecap="round" />
        <path d="M303.475 225C303.611 226.165 303.658 227.307 303.658 228.477" stroke="white"
            stroke-width="0.8" stroke-linecap="round" />
        <path
            d="M302.255 228.537C302.111 229.227 301.978 230.095 301.191 230.326C300.342 230.576 299.616 230.212 299.036 229.608C298.478 229.027 298.099 228.324 297.755 227.602C297.638 227.357 297.52 226.814 297.24 226.687C296.501 226.353 295.462 227.195 295.112 227.778C294.952 228.046 295.726 227.99 295.817 227.988C296.365 227.981 296.775 227.862 297.254 227.622"
            stroke="white" stroke-width="0.8" stroke-linecap="round" />
        <path d="M299.693 226.159L299.815 226.464" stroke="white" stroke-width="0.8"
            stroke-linecap="round" />
        <path
            d="M294.082 226.342C293.653 225.998 293.223 225.749 292.673 225.651C292.324 225.588 291.758 225.524 291.409 225.623C290.978 225.747 291.161 226.793 291.209 227.074C291.329 227.773 291.639 228.346 292.029 228.924C292.143 229.093 292.386 229.394 292.202 229.595C291.877 229.948 290.799 229.765 290.396 229.757C289.21 229.735 287.965 229.44 286.882 228.954C286.034 228.575 285.647 228.078 285.299 227.257"
            stroke="white" stroke-width="0.8" stroke-linecap="round" />
        <path
            d="M282.433 226.646C282.524 227.349 282.677 228.142 282.223 228.761C281.931 229.159 281.417 229.226 280.969 229.079C280.209 228.831 279.507 228.206 278.888 227.724C278.535 227.449 278.08 226.932 277.648 226.775C277.265 226.636 276.786 228.553 276.71 228.819C276.685 228.904 276.541 229.268 276.727 229.29C276.916 229.311 277.14 229.23 277.316 229.181C277.887 229.021 278.451 228.835 279.017 228.659"
            stroke="white" stroke-width="0.8" stroke-linecap="round" />
        <path
            d="M279.993 231.282C280.953 231.282 281.913 231.282 282.873 231.282C283.136 231.282 283.41 231.246 283.652 231.343"
            stroke="white" stroke-width="0.8" stroke-linecap="round" />
        <path
            d="M274.077 225.305C273.544 225.692 271.036 227.237 272.423 228.158C273.132 228.628 274.03 228.539 274.795 228.842C275.085 228.957 274.865 229.18 274.673 229.249C274.144 229.438 273.597 229.542 273.04 229.601C272.558 229.652 271.964 229.779 271.485 229.652C270.828 229.478 270.648 228.856 270.356 228.334C270.133 227.935 269.418 228.261 269.18 228.48C268.87 228.765 268.775 229.25 269.187 229.479C269.699 229.764 270.964 230.011 271.149 229.269"
            stroke="white" stroke-width="0.8" stroke-linecap="round" />
        <path
            d="M265.598 229.208C265.525 228.41 265.588 227.605 266.337 227.152C266.433 227.094 266.622 227.013 266.723 227.114C266.861 227.252 266.852 227.645 266.778 227.806C266.463 228.489 265.272 228.9 264.623 229.12C264.179 229.271 263.309 229.322 262.962 229.669C262.723 229.908 263.175 230.402 263.291 230.567C263.683 231.128 264.141 231.741 264.351 232.4C264.468 232.767 264.171 232.784 263.891 232.807"
            stroke="white" stroke-width="0.8" stroke-linecap="round" />
        <path
            d="M311.212 235.155C306.617 235.155 302.022 235.118 297.428 235.175C293.187 235.228 288.908 235.087 284.676 235.358C282.562 235.493 280.405 235.615 278.311 235.945C276.865 236.172 275.484 236.639 274.075 237.017C270.94 237.859 267.82 238.655 264.78 239.795C263.663 240.214 262.515 240.492 261.39 240.893"
            stroke="white" stroke-width="0.8" stroke-linecap="round" />
        <path
            d="M300.302 239C298.928 239.114 297.71 239.99 296.365 240.275C296.11 240.329 294.643 240.518 294.7 240.564C295.359 241.091 296.224 241.443 296.932 241.915C297.401 242.228 297.634 242.279 298.207 242.279C298.558 242.279 298.816 242.334 299.138 242.441C299.436 242.54 300.462 242.732 299.522 242.967C298.286 243.276 296.992 243.632 295.717 243.716C294.886 243.771 294.045 243.736 293.212 243.736C292.981 243.736 292.443 243.843 292.286 243.625C292.125 243.401 292.199 243.171 292.443 243.053C293.529 242.53 294.29 243.244 294.644 244.333C295.185 245.993 293.486 247.323 292.013 247.471"
            stroke="white" stroke-width="0.8" stroke-linecap="round" />
        <path
            d="M289.645 243.281C289.971 243.78 290.423 244.356 290.353 244.991C290.282 245.638 289.795 246.278 289.417 246.787C289.185 247.1 289.008 247.639 288.592 247.739C288.209 247.831 287.855 247.926 287.459 247.926"
            stroke="white" stroke-width="0.8" stroke-linecap="round" />
        <path
            d="M285.455 243.098C285.688 243.098 286.898 242.922 287.074 243.119C287.322 243.394 286.766 243.959 286.639 244.141C286.184 244.793 285.311 244.829 284.544 244.829"
            stroke="white" stroke-width="0.8" stroke-linecap="round" />
        <path
            d="M283.178 243.007C282.909 242.562 282.624 242.131 282.318 241.712C282.13 241.454 281.726 241.55 281.448 241.55C280.871 241.55 280.81 241.945 280.81 242.451C280.81 243.043 281.136 243.282 281.448 243.736C282.277 244.945 280.03 245.152 279.277 245.188C277.609 245.268 277.076 244.192 276.894 242.734"
            stroke="white" stroke-width="0.8" stroke-linecap="round" />
        <path
            d="M43.5815 132.386C43.5815 132.386 43.0538 134.856 42.2811 138.553C41.5359 142.261 40.5458 147.195 39.5557 152.129C37.6199 162.046 35.849 172.025 35.849 172.025C35.849 172.025 42.8403 164.684 49.6876 157.225C56.5244 149.794 63.2069 142.273 63.2069 142.273C63.2069 142.273 58.285 139.842 53.363 137.412C48.4723 134.899 43.5815 132.386 43.5815 132.386Z"
            fill="#FF8E06" />
        <path
            d="M61.6653 143.605L63.1964 142.3C63.1964 142.3 58.2744 139.87 53.3525 137.439C48.4617 134.926 43.6089 132.396 43.6089 132.396L43.4712 134.417C43.4712 134.417 47.9878 136.757 52.5318 139.107C57.0796 141.365 61.6653 143.605 61.6653 143.605Z"
            fill="#FF8E06" />
        <path opacity="0.5"
            d="M52.4412 141.586C52.0465 142.379 50.6192 142.498 49.2807 141.802C47.9422 141.107 47.1728 139.904 47.6054 139.094C48.0105 138.274 49.4274 138.182 50.7659 138.878C52.1043 139.574 52.8463 140.766 52.4412 141.586Z"
            fill="#F4F4F4" />
        <path opacity="0.5"
            d="M46.4489 140.321C46.2482 140.685 45.5947 140.751 44.9667 140.419C44.3387 140.087 43.9899 139.515 44.1632 139.141C44.3638 138.777 45.0173 138.71 45.6454 139.043C46.3009 139.385 46.6496 139.957 46.4489 140.321Z"
            fill="#F4F4F4" />
        <path
            d="M118.151 165.731C118.151 165.731 117.308 175.748 116.63 185.827C115.953 195.906 115.412 206.038 115.412 206.038C115.412 206.038 121.433 197.858 127.307 189.653C133.18 181.448 138.927 173.164 138.927 173.164C138.927 173.164 133.7 171.372 128.483 169.552C123.326 167.661 118.151 165.731 118.151 165.731Z"
            fill="#9241FE" />
        <path
            d="M137.574 174.662L138.954 173.174C138.954 173.174 133.727 171.382 128.511 169.563C123.336 167.633 118.151 165.731 118.151 165.731L118.264 167.753C118.264 167.753 123.055 169.537 127.872 171.331C132.714 172.978 137.574 174.662 137.574 174.662Z"
            fill="#7E0000" />
        <path opacity="0.5"
            d="M128.136 173.787C127.813 174.639 126.416 174.926 125.015 174.396C123.614 173.865 122.683 172.758 123.005 171.906C123.328 171.054 124.715 170.794 126.116 171.325C127.517 171.856 128.431 172.925 128.136 173.787Z"
            fill="#F4F4F4" />
        <path opacity="0.5"
            d="M122.01 173.289C121.864 173.673 121.217 173.805 120.558 173.555C119.871 173.295 119.474 172.768 119.592 172.373C119.749 171.961 120.423 171.839 121.082 172.089C121.731 172.366 122.166 172.877 122.01 173.289Z"
            fill="#F4F4F4" />
        <path
            d="M196.361 190.215C196.361 190.215 196.67 200.259 197.127 210.329C197.556 220.388 198.15 230.509 198.15 230.509C198.15 230.509 203.228 221.751 208.158 212.969C210.631 208.597 213.06 204.177 214.887 200.848C216.687 197.508 217.901 195.298 217.901 195.298C217.901 195.298 216.537 195.001 214.527 194.585C212.511 194.104 209.804 193.455 207.124 192.816C201.737 191.529 196.361 190.215 196.361 190.215Z"
            fill="#FF8E06" />
        <path
            d="M216.671 196.968L217.891 195.325C217.891 195.325 216.527 195.028 214.517 194.612C212.5 194.131 209.793 193.482 207.114 192.844C201.755 191.567 196.351 190.242 196.351 190.242L196.726 192.238C196.726 192.238 201.707 193.434 206.716 194.641C209.193 195.234 211.697 195.837 213.566 196.294C215.428 196.685 216.671 196.968 216.671 196.968Z"
            fill="#9BC3E8" />
        <path opacity="0.5"
            d="M207.212 197.06C207.01 197.926 205.654 198.354 204.152 198.005C202.689 197.639 201.651 196.649 201.853 195.783C202.056 194.917 203.412 194.489 204.886 194.827C206.404 195.214 207.415 196.194 207.212 197.06Z"
            fill="#F4F4F4" />
        <path opacity="0.5"
            d="M201.04 197.265C200.949 197.671 200.309 197.868 199.619 197.701C198.928 197.533 198.445 197.067 198.536 196.662C198.627 196.257 199.267 196.059 199.985 196.237C200.686 196.377 201.169 196.843 201.04 197.265Z"
            fill="#F4F4F4" />
        <path
            d="M276.891 206.089C276.891 206.089 278.273 216.038 279.775 226.001C281.277 235.963 282.927 245.951 282.927 245.951C282.927 245.951 287.058 236.709 291.03 227.469C293.002 222.844 294.947 218.209 296.427 214.717C297.88 211.215 298.858 208.884 298.858 208.884C298.858 208.884 297.486 208.772 295.424 208.494C293.362 208.215 290.606 207.862 287.888 207.492C282.375 206.785 276.891 206.089 276.891 206.089Z"
            fill="#FEBE16" />
        <path
            d="M297.81 210.654L298.848 208.911C298.848 208.911 297.476 208.8 295.414 208.521C293.352 208.242 290.596 207.889 287.878 207.519C282.393 206.823 276.891 206.089 276.891 206.089L277.472 208.037L297.81 210.654Z"
            fill="#F9A61F" />
        <path opacity="0.5"
            d="M288.413 211.744C288.293 212.641 286.988 213.183 285.489 212.992C283.991 212.802 282.856 211.9 282.976 211.003C283.096 210.106 284.411 209.536 285.91 209.727C287.398 209.946 288.505 210.836 288.413 211.744Z"
            fill="#F4F4F4" />
        <path opacity="0.5"
            d="M282.29 212.564C282.254 212.991 281.62 213.253 280.926 213.179C280.215 213.066 279.711 212.655 279.747 212.229C279.81 211.813 280.416 211.54 281.127 211.653C281.822 211.727 282.353 212.149 282.29 212.564Z"
            fill="#F4F4F4" />
        <path
            d="M358.699 213.369C358.699 213.369 361.082 223.163 363.613 232.982C366.133 242.828 368.809 252.512 368.809 252.512C368.809 252.512 371.961 242.868 374.965 233.199C377.996 223.54 380.842 213.874 380.842 213.874C380.842 213.874 375.304 213.818 369.775 213.734C367.004 213.752 364.251 213.557 362.171 213.491C360.053 213.443 358.699 213.369 358.699 213.369Z"
            fill="#9241FE" />
        <path
            d="M379.993 215.784L380.848 213.94C380.848 213.94 375.309 213.884 369.781 213.799C367.01 213.818 364.257 213.622 362.177 213.557C360.107 213.464 358.715 213.408 358.715 213.408L359.475 215.298C359.475 215.298 360.775 215.35 362.686 215.446C364.608 215.515 367.186 215.675 369.733 215.666C374.836 215.715 379.993 215.784 379.993 215.784Z"
            fill="#9241FE" />
        <path opacity="0.5"
            d="M370.713 217.89C370.685 218.791 369.438 219.512 367.943 219.48C366.409 219.464 365.216 218.635 365.232 217.761C365.26 216.861 366.513 216.205 368.019 216.21C369.542 216.253 370.74 216.989 370.713 217.89Z"
            fill="#F4F4F4" />
        <path opacity="0.5"
            d="M364.739 219.398C364.731 219.834 364.142 220.145 363.437 220.098C362.722 220.079 362.142 219.702 362.178 219.276C362.186 218.839 362.775 218.528 363.48 218.575C364.195 218.595 364.747 218.961 364.739 219.398Z"
            fill="#F4F4F4" />
        <path
            d="M470.435 210.972C470.435 210.972 462.814 211.603 449.504 212.654C436.188 213.64 417.11 214.579 394.21 214.824C371.339 214.829 344.613 214.064 316.102 211.46C287.609 208.894 257.423 204.493 227.573 198.209C197.741 191.963 168.286 183.975 141.249 174.829C114.222 165.656 89.5637 155.621 68.9647 145.899C48.3345 136.26 31.8046 127.074 20.5849 120.373C14.975 117.022 10.7074 114.273 7.83617 112.4C6.46067 111.47 5.41105 110.758 4.71477 110.275C4.11796 109.86 3.81956 109.653 3.81956 109.653L5.66093 107.115C5.66093 107.115 5.95933 107.322 6.5012 107.716C7.19748 108.199 8.23004 108.874 9.57807 109.793C12.3944 111.645 16.6071 114.373 22.1894 117.713C33.3646 124.367 49.7847 133.511 70.2775 143.098C90.7391 152.768 115.326 162.744 142.242 171.876C169.132 180.997 198.487 188.916 228.189 195.175C257.901 201.407 287.994 205.804 316.368 208.356C344.731 210.935 371.354 211.724 394.159 211.726C416.966 211.477 435.979 210.545 449.23 209.566C462.56 208.459 470.143 207.845 470.143 207.845L470.435 210.972Z"
            fill="#3C3D40" />
        <path
            d="M470.435 210.971C470.435 210.971 462.814 211.602 449.505 212.654C436.189 213.64 417.11 214.579 394.211 214.824C371.34 214.828 344.614 214.063 316.103 211.46C287.609 208.894 257.423 204.493 227.574 198.209C197.742 191.963 168.287 183.974 141.249 174.829C114.223 165.656 89.5641 155.621 68.9652 145.899C48.335 136.259 31.805 127.074 20.5854 120.372C14.9755 117.021 10.7079 114.273 7.83665 112.399C6.46115 111.47 5.41153 110.758 4.71525 110.274C4.11844 109.86 3.82003 109.652 3.82003 109.652L4.73551 108.397C4.73551 108.397 5.03392 108.604 5.60326 109.008C6.29954 109.492 7.35957 110.177 8.70759 111.096C11.5239 112.948 15.7915 115.697 21.3739 119.037C32.5661 125.729 49.0686 134.904 69.6268 144.484C90.1329 154.203 114.774 164.2 141.719 173.341C168.701 182.466 198.101 190.434 227.84 196.676C257.607 202.929 287.793 207.33 316.194 209.892C344.64 212.502 371.301 213.274 394.144 213.259C416.978 213.021 436.029 212.071 449.335 211.113C462.644 210.061 470.228 209.447 470.228 209.447L470.435 210.971Z"
            fill="#231F20" />
        <rect opacity="0.35" x="363.394" y="104.833" width="21" height="10.3333" rx="2.16667"
            stroke="#2E2E2E" />
        <path opacity="0.4"
            d="M385.894 108V112C386.698 111.661 387.222 110.873 387.222 110C387.222 109.127 386.698 108.339 385.894 108"
            fill="#2E2E2E" />
        <rect x="364.894" y="106.333" width="18" height="7.33333" rx="1.33333" fill="#2E2E2E" />
        <path fill-rule="evenodd" clip-rule="evenodd"
            d="M350.224 106.608C352.44 106.608 354.571 107.459 356.177 108.986C356.298 109.104 356.491 109.103 356.61 108.983L357.766 107.816C357.827 107.756 357.86 107.673 357.86 107.588C357.859 107.502 357.825 107.42 357.764 107.36C353.549 103.321 346.899 103.321 342.684 107.36C342.623 107.42 342.588 107.502 342.587 107.588C342.587 107.673 342.62 107.755 342.681 107.816L343.837 108.983C343.956 109.103 344.149 109.104 344.27 108.986C345.876 107.459 348.008 106.608 350.224 106.608ZM350.224 110.404C351.441 110.403 352.616 110.856 353.518 111.673C353.64 111.789 353.832 111.787 353.951 111.668L355.106 110.501C355.167 110.44 355.201 110.357 355.2 110.27C355.199 110.184 355.163 110.102 355.101 110.042C352.353 107.486 348.097 107.486 345.349 110.042C345.287 110.102 345.252 110.184 345.251 110.27C345.25 110.357 345.284 110.44 345.345 110.501L346.499 111.668C346.618 111.787 346.81 111.789 346.932 111.673C347.834 110.857 349.007 110.404 350.224 110.404ZM352.537 112.957C352.539 113.044 352.505 113.127 352.443 113.188L350.446 115.204C350.387 115.263 350.307 115.296 350.224 115.296C350.141 115.296 350.061 115.263 350.002 115.204L348.005 113.188C347.943 113.127 347.909 113.044 347.911 112.957C347.913 112.871 347.95 112.789 348.014 112.731C349.29 111.652 351.158 111.652 352.434 112.731C352.498 112.789 352.535 112.871 352.537 112.957Z"
            fill="#2E2E2E" />
        <path fill-rule="evenodd" clip-rule="evenodd"
            d="M336.56 104.667H335.56C335.008 104.667 334.56 105.114 334.56 105.667V114.333C334.56 114.885 335.008 115.333 335.56 115.333H336.56C337.112 115.333 337.56 114.885 337.56 114.333V105.667C337.56 105.114 337.112 104.667 336.56 104.667ZM330.893 107H331.893C332.446 107 332.893 107.448 332.893 108V114.333C332.893 114.885 332.446 115.333 331.893 115.333H330.893C330.341 115.333 329.893 114.885 329.893 114.333V108C329.893 107.448 330.341 107 330.893 107ZM327.227 109.333H326.227C325.674 109.333 325.227 109.781 325.227 110.333V114.333C325.227 114.885 325.674 115.333 326.227 115.333H327.227C327.779 115.333 328.227 114.885 328.227 114.333V110.333C328.227 109.781 327.779 109.333 327.227 109.333ZM322.56 111.333H321.56C321.008 111.333 320.56 111.781 320.56 112.333V114.333C320.56 114.885 321.008 115.333 321.56 115.333H322.56C323.112 115.333 323.56 114.885 323.56 114.333V112.333C323.56 111.781 323.112 111.333 322.56 111.333Z"
            fill="#2E2E2E" />
        <path
            d="M64.67 116.239C67.1788 116.239 68.669 114.277 68.669 110.955C68.669 109.704 68.4298 108.651 67.9718 107.838C67.3087 106.573 66.1671 105.89 64.7247 105.89C62.5782 105.89 61.0606 107.332 61.0606 109.355C61.0606 111.256 62.4278 112.637 64.3077 112.637C65.463 112.637 66.3995 112.097 66.8643 111.16H66.8848C66.8848 111.16 66.9122 111.16 66.919 111.16C66.9327 111.16 66.9805 111.16 66.9805 111.16C66.9805 113.416 66.1261 114.763 64.6837 114.763C63.836 114.763 63.1798 114.298 62.9542 113.553H61.1973C61.4913 115.173 62.8653 116.239 64.67 116.239ZM64.7315 111.235C63.5968 111.235 62.7901 110.429 62.7901 109.301C62.7901 108.2 63.6378 107.359 64.7384 107.359C65.8389 107.359 66.6866 108.214 66.6866 109.328C66.6866 110.429 65.8595 111.235 64.7315 111.235ZM71.4857 114.954C72.1351 114.954 72.5795 114.489 72.5795 113.874C72.5795 113.252 72.1351 112.794 71.4857 112.794C70.8431 112.794 70.392 113.252 70.392 113.874C70.392 114.489 70.8431 114.954 71.4857 114.954ZM71.4857 109.827C72.1351 109.827 72.5795 109.369 72.5795 108.754C72.5795 108.132 72.1351 107.674 71.4857 107.674C70.8431 107.674 70.392 108.132 70.392 108.754C70.392 109.369 70.8431 109.827 71.4857 109.827ZM79.1149 116H80.8034V114.161H82.1364V112.671H80.8034V106.136H78.3151C76.5719 108.761 75.1842 110.955 74.2955 112.589V114.161H79.1149V116ZM75.9293 112.609C77.0778 110.586 78.1032 108.966 79.0465 107.571H79.1422V112.712H75.9293V112.609ZM86.0605 116H87.8241V106.136H86.0673L83.4902 107.94V109.636L85.9443 107.913H86.0605V116Z"
            fill="#2E2E2E" />
    </g>
    <defs>
        <clipPath id="clip0_454_3334">
            <rect width="415" height="490" fill="white" />
        </clipPath>
    </defs>
</svg>
