<svg width="415" height="395" viewBox="0 0 415 395" fill="none" xmlns="http://www.w3.org/2000/svg">
<g clip-path="url(#clip0_454_3334)">
<rect y="-95" width="415" height="490" fill="#EFEFEF"/>
<path d="M258.394 406.5C145.503 396.148 69.2273 419.332 11.8363 433.883C10.2919 434.274 8.66871 433.899 7.44196 432.882L-53.8214 382.109C-57.3179 379.212 -55.4525 373.53 -50.9189 373.268L40.3936 368L178.394 374H323.894L399.394 368C421.727 369.167 460.594 376.4 437.394 396C408.651 420.283 336.922 413.703 260.449 406.688L258.394 406.5Z" fill="#EFEFEF"/>
<rect x="7.89355" y="-95" width="395" height="266" fill="#EFEFEF"/>
<path d="M418.332 103.225H22.6382V379H418.332V103.225Z" fill="#EFEFEF"/>
<path d="M422.586 283.74H18.3848V297.43H422.586V283.74Z" fill="#CB7D3B"/>
<path d="M376.427 115.623C376.427 115.61 376.415 115.61 376.415 115.598C376.402 115.573 376.377 115.548 376.353 115.524C376.328 115.499 376.316 115.486 376.291 115.474C376.279 115.474 376.279 115.462 376.266 115.462C376.241 115.449 376.229 115.462 376.204 115.449C376.192 115.449 376.167 115.437 376.155 115.437H202.21C202.185 115.437 202.173 115.449 202.161 115.449C202.136 115.449 202.124 115.449 202.099 115.462C202.087 115.462 202.087 115.474 202.074 115.474C202.049 115.486 202.037 115.511 202.012 115.524C201.988 115.548 201.975 115.561 201.963 115.585C201.963 115.598 201.951 115.598 201.938 115.61C201.926 115.623 201.938 115.647 201.938 115.672C201.938 115.684 201.926 115.697 201.926 115.721V238.72C201.926 238.732 201.938 238.744 201.938 238.769C201.938 238.781 201.938 238.806 201.938 238.831C201.938 238.843 201.951 238.843 201.963 238.856C201.975 238.88 202 238.905 202.012 238.917C202.037 238.942 202.049 238.955 202.074 238.967C202.087 238.967 202.087 238.979 202.099 238.979C202.136 238.992 202.173 239.004 202.21 239.004H376.155C376.192 239.004 376.229 238.992 376.266 238.979C376.279 238.979 376.279 238.967 376.291 238.967C376.316 238.955 376.328 238.942 376.34 238.917C376.365 238.893 376.39 238.868 376.402 238.843C376.402 238.831 376.415 238.831 376.415 238.819C376.415 238.806 376.415 238.794 376.415 238.769C376.415 238.744 376.427 238.732 376.427 238.707V115.734C376.427 115.709 376.415 115.697 376.415 115.672C376.427 115.66 376.427 115.635 376.427 115.623Z" fill="#A7A9AC"/>
<path d="M287.161 174.809L368.006 118.813L374.127 113.31H200.182L206.303 118.813L287.161 174.809Z" fill="#9B431F"/>
<path d="M287.161 175.093C287.099 175.093 287.049 175.081 287 175.044L206.142 119.048L199.997 113.52C199.91 113.434 199.873 113.31 199.923 113.199C199.972 113.087 200.071 113.013 200.195 113.013H374.139C374.263 113.013 374.362 113.087 374.411 113.199C374.461 113.31 374.424 113.434 374.337 113.52L368.216 119.036L287.334 175.056C287.272 175.081 287.21 175.093 287.161 175.093ZM200.937 113.594L206.501 118.603L287.161 174.45L367.845 118.578L373.373 113.594H200.937V113.594Z" fill="#4D1800"/>
<path d="M287.161 174.81L206.303 118.814L200.182 113.311V236.309L206.303 230.793L287.161 174.81Z" fill="#B94D26"/>
<path d="M200.182 236.593C200.145 236.593 200.108 236.581 200.071 236.568C199.96 236.519 199.898 236.42 199.898 236.308V113.31C199.898 113.199 199.96 113.088 200.071 113.051C200.17 113.001 200.294 113.026 200.38 113.1L206.501 118.616L287.322 174.587C287.396 174.636 287.445 174.735 287.445 174.822C287.445 174.921 287.396 175.007 287.322 175.057L206.476 231.053L200.38 236.543C200.318 236.568 200.257 236.593 200.182 236.593ZM200.479 113.953V235.653L206.118 230.583L286.654 174.809L206.155 119.061L200.479 113.953Z" fill="#4D1800"/>
<path d="M368.006 118.813L287.161 174.809L368.006 230.793L374.127 236.308V113.31L368.006 118.813Z" fill="#B94D26"/>
<path d="M374.127 236.593C374.053 236.593 373.991 236.568 373.929 236.519L367.808 231.003L286.988 175.032C286.914 174.982 286.864 174.883 286.864 174.797C286.864 174.698 286.914 174.611 286.988 174.562L367.833 118.566L373.929 113.075C374.016 113.001 374.14 112.976 374.239 113.026C374.35 113.075 374.412 113.174 374.412 113.285V236.284C374.412 236.395 374.35 236.506 374.239 236.543C374.214 236.593 374.164 236.593 374.127 236.593ZM287.668 174.809L368.179 230.558L373.843 235.653V113.953L368.204 119.024L287.668 174.809Z" fill="#4D1800"/>
<path d="M287.161 174.81L206.303 230.793L200.182 236.309H374.127L368.006 230.793L287.161 174.81Z" fill="#9B431F"/>
<path d="M374.127 236.593H200.182C200.071 236.593 199.96 236.519 199.91 236.407C199.873 236.296 199.898 236.172 199.984 236.086L206.105 230.57L286.988 174.55C287.087 174.488 287.223 174.475 287.322 174.55L368.167 230.546L374.312 236.086C374.399 236.172 374.436 236.296 374.387 236.407C374.362 236.519 374.251 236.593 374.127 236.593ZM200.937 236.024H373.373L367.808 231.016L287.148 175.168L206.464 231.04L200.937 236.024Z" fill="#4D1800"/>
<path d="M368.006 118.813H206.303V230.793H368.006V118.813Z" fill="#004443"/>
<path d="M368.006 231.09H206.303C206.142 231.09 206.019 230.966 206.019 230.793V118.813C206.019 118.653 206.155 118.517 206.303 118.517H368.006C368.167 118.517 368.29 118.653 368.29 118.813V230.793C368.303 230.954 368.167 231.09 368.006 231.09ZM206.6 230.508H367.721V119.11H206.6V230.508V230.508Z" fill="#00192A"/>
<path d="M366.226 121.398H208.084V228.332H366.226V121.398Z" fill="#137978"/>
<path d="M94.4251 263.091L192.406 345.224C199.982 353.298 194.469 363.836 181.922 365.208C171.638 366.328 158.298 366.662 142.287 364.672C101.88 359.651 66.7384 348.379 66.7384 348.379L94.4251 263.091Z" fill="#9241FE"/>
<path d="M48.6354 382.769C47.8474 382.3 46.8646 381.818 45.7455 381.325C37.828 377.847 23.1274 374.076 23.1274 374.076C23.1274 374.076 28.6022 362.764 33.3662 358.902C34.099 358.302 34.8145 357.884 35.4966 357.711C39.884 356.601 46.2056 363.071 47.842 364.846C48.1037 365.124 48.2406 365.286 48.2406 365.286C48.2406 365.286 48.2498 365.322 48.2755 365.399C48.7974 367.05 54.7372 386.396 48.6354 382.769Z" fill="#FF8E06"/>
<path d="M48.6362 382.769C47.8481 382.301 46.8654 381.818 45.7463 381.325C45.7069 380.845 45.8176 380.454 46.1145 380.193C48.2035 378.388 46.5444 364.451 46.5444 364.451L48.2763 365.399C48.7981 367.05 54.738 386.396 48.6362 382.769Z" fill="#FFAB57"/>
<path d="M-38.6823 263.402L-39.0395 263.836C-40.6128 265.749 -41.8457 267.837 -42.7485 270.093C-42.8414 270.311 -42.9343 270.53 -43.0169 270.756C-43.0624 270.875 -43.0994 270.983 -43.1364 271.091C-44.6455 275.327 -45.0512 280.055 -44.4642 285.114C-44.452 285.141 -44.4484 285.179 -44.4447 285.217C-43.2415 295.342 -38.0523 306.753 -29.7142 317.981C-29.3079 318.541 -28.8931 319.09 -28.468 319.648C-24.2345 325.142 -19.2559 330.573 -13.6155 335.768C-12.0796 337.188 -10.4974 338.594 -8.87089 339.967C-8.33155 340.428 -7.78372 340.878 -7.22555 341.338C-6.58467 341.865 -5.93529 342.382 -5.29625 342.89C-3.82178 344.069 -2.32363 345.197 -0.820637 346.278C0.141845 346.983 1.111 347.659 2.08866 348.325C7.80323 352.229 13.6184 355.506 19.361 358.133C32.558 364.173 45.4527 366.808 56.1198 365.704C57.3445 365.585 58.5193 365.443 59.6632 365.274C62.8515 364.812 65.7164 364.153 68.2821 363.057C71.1419 361.857 73.6076 360.124 75.7423 357.53C85.4205 345.766 92.7395 333.31 97.7568 320.85C99.569 316.309 101.087 311.768 102.294 307.266C103.583 302.434 104.525 297.644 105.123 292.936C105.323 291.281 105.478 289.64 105.594 288.002L105.592 287.983C106.002 282.513 105.902 277.179 105.307 272.044C105 269.174 104.528 266.376 103.901 263.641C100.849 250.349 94.2124 238.822 84.0205 230.436L83.9482 230.377C83.1729 229.739 82.3807 229.121 81.5647 228.554C81.4905 228.476 81.3993 228.418 81.3081 228.36C69.6866 219.943 55.3031 216.567 40.0568 217.717C33.2781 218.224 26.3388 219.621 19.3962 221.866C18.8061 222.056 18.2264 222.255 17.6466 222.454C14.9222 223.385 12.2021 224.457 9.49307 225.643C9.22812 225.755 8.97351 225.875 8.70856 225.986C6.64911 226.909 4.57148 227.938 2.49267 229.053C-12.076 236.879 -26.9283 249.222 -38.6823 263.402Z" fill="#9241FE"/>
<path d="M16.1916 373.384C16.1916 373.384 15.0591 372.163 13.2892 370.338C8.97793 365.886 0.893401 357.82 -3.63229 355.129C-10.0043 351.341 11.9141 347.124 11.9141 347.124C11.9141 347.124 12.2843 347.201 12.887 347.367C15.3993 348.027 22.0291 350.049 24.129 353.471C24.3702 353.868 24.5485 354.269 24.6581 354.699C24.8241 355.377 24.8035 356.198 24.6261 357.128C23.5217 363.156 16.1916 373.384 16.1916 373.384Z" fill="#FF8E06"/>
<path d="M24.6263 357.128C23.5218 363.155 16.1918 373.384 16.1918 373.384C16.1918 373.384 15.0593 372.162 13.2894 370.338C15.2294 367.997 19.8708 360.497 22.7266 355.795L22.7534 355.75C23.9757 356.599 25.7882 357.839 27.6544 359.04L27.6951 359.125C26.6458 358.481 25.6219 357.811 24.6263 357.128Z" fill="#FFAB57"/>
<path d="M-8.20105 285.656L-8.22759 285.711C-10.8199 291.335 -10.7825 297.585 -8.62246 303.919L-8.59992 303.984C-5.17762 313.931 3.55134 324.085 15.7289 332.398C19.6837 335.086 23.9898 337.58 28.6083 339.82C29.068 340.043 29.5167 340.261 29.9817 340.473C33.7294 342.223 37.4896 343.668 41.2138 344.825C64.6622 352.142 89.8503 333.684 92.3028 307.471C92.3125 307.368 92.3112 307.259 92.3264 307.171C93.1238 298.42 91.2316 290.391 86.983 284.545L84.4163 281.029C82.9724 279.045 81.0244 277.208 78.7971 275.668C74.7809 272.855 69.8675 270.972 65.5071 270.736L57.5212 270.31C57.5103 270.305 57.505 270.316 57.4831 270.305L55.2022 270.186C52.2464 270.037 49.4416 269.325 46.8975 268.132C46.2408 267.814 45.6001 267.462 44.9699 267.089C42.5257 265.606 40.396 263.586 38.6258 261.16L38.5983 261.133L33.3195 255.125C30.4238 251.842 25.9141 249.154 21.2185 247.742C9.91415 256.779 -0.86906 270.678 -8.20105 285.656Z" fill="#A369FF"/>
<path d="M-9.81507 320.088C-6.60047 322.296 -3.12117 324.348 0.557138 326.213C1.0115 326.447 1.46022 326.665 1.91989 326.888C6.52749 329.122 11.163 330.965 15.7229 332.406C29.7901 336.822 43.1742 337.379 53.0988 333.919L53.1638 333.896C59.4804 331.687 64.4061 327.831 67.2173 322.313L67.2439 322.258C74.4664 307.227 78.7049 290.153 78.7912 275.676C74.775 272.863 69.8616 270.98 65.5011 270.745L57.5153 270.319C57.5043 270.313 57.499 270.324 57.4771 270.314C54.4865 270.431 51.5818 270.01 48.893 269.003C48.2098 268.739 47.5372 268.454 46.8806 268.135C44.3574 266.871 42.0731 265.114 40.1258 262.885L38.6199 261.168L38.5924 261.141L33.3136 255.134C30.4178 251.85 25.9081 249.163 21.2125 247.751C18.6243 246.955 15.9866 246.568 13.5233 246.658L9.17308 246.819C1.95196 247.102 -5.51897 250.576 -11.9033 256.632C-11.9786 256.703 -12.0648 256.77 -12.1239 256.836C-31.1681 275.002 -30.0734 306.193 -9.81507 320.088Z" fill="#A369FF"/>
<path d="M71.6483 127.098C71.3549 126.599 64.5475 102.261 63.3061 97.1219C61.4474 89.4514 53.1582 89.6413 48.7946 106.062C48.7946 106.062 45.4676 95.2838 40.4088 98.7513C32.892 103.913 43.2602 109.804 17.9014 140.098L71.6483 127.098Z" fill="#9241FE"/>
<path d="M18.8842 138.045L19.6602 137.856C21.3982 135.531 22.8989 133.387 24.1919 131.396C22.6186 133.474 20.8612 135.687 18.8842 138.045Z" fill="#7F7F7F"/>
<path d="M168.972 213.354C177.06 174.684 186.636 178.466 186.035 169.368C185.626 163.248 175.103 167.309 175.103 167.309C185.283 153.71 180.442 147.434 173.12 150.384C160.299 155.562 144.23 156.486 143.657 156.565C143.657 156.565 119.687 139.272 116.458 137.616C113.916 136.324 58.1099 100.258 20.55 135.985L17.5827 139.128C2.42831 155.313 -8.15503 169.282 -12.6043 179.1C-12.8503 179.546 -13.0785 179.986 -13.3005 180.443C-15.4442 184.864 -16.7759 190.094 -16.8811 196.262C-16.6366 215.021 15.7816 238.851 37.2799 249.278L64.6796 262.567C75.4227 267.777 135.69 297.007 154.248 262.76C159.372 253.299 164.709 234.658 168.537 215.568L168.972 213.354Z" fill="#9241FE"/>
<path d="M-13.019 179.894C-13.5155 180.918 -13.9696 181.977 -14.3574 183.084C-9.46177 173.542 0.535307 160.597 14.4131 145.786L17.3509 142.674C42.6864 108.962 96.129 134.718 112.127 144.277C115.208 146.114 139.006 162.996 139.006 162.996C139.574 162.929 155.463 162.007 168.129 156.903C175.362 153.984 179.299 157.828 169.242 171.264C169.242 171.264 182.179 169.743 180.886 175.661C178.883 184.851 186.899 177.893 186.293 168.807C185.884 162.688 175.36 166.748 175.36 166.748C185.553 153.155 180.718 146.867 173.396 149.817C160.563 154.989 144.506 155.919 143.92 155.992C143.92 155.992 119.956 138.687 116.721 137.044C114.179 135.751 58.3732 99.6852 20.8253 135.418L17.858 138.561C2.70365 154.746 -7.8797 168.715 -12.329 178.533C-12.575 178.979 -12.797 179.437 -13.019 179.894Z" fill="#A670FC"/>
<g opacity="0.3">
<g opacity="0.3">
<g opacity="0.3">
<g opacity="0.3">
<path opacity="0.3" d="M68.1237 199.669C67.9558 200.138 67.794 200.625 67.6264 201.124C62.0934 218.36 69.8728 235.448 82.6756 243.651C92.178 249.732 114.297 255.506 130.917 236.788C136.906 230.053 140.946 222.06 140.839 216.667C140.66 207.282 130.431 199.539 125.842 196.242C125.365 195.906 124.839 195.548 124.284 195.189C114.529 188.985 93.4319 181.535 83.6645 184.251C83.6645 184.251 73.7179 184.024 68.1237 199.669Z" fill="#4B4B4B"/>
</g>
</g>
</g>
</g>
<path d="M38.6912 232.227C44.6246 236.741 51.4899 241.083 59.3048 245.245C67.4118 248.805 75.0594 251.502 82.2659 253.361C134.602 266.797 139.776 243.124 146.29 214.447C146.301 214.333 146.341 214.189 146.364 214.081C146.995 211.337 154.515 201.446 149.449 182.075C147.598 174.973 140.53 168.748 132.378 165.955C127.405 165.135 122.196 165.018 117.118 165.457C116.283 165.676 115.424 165.944 114.553 166.236C109.003 168.111 103.176 167.457 98.2829 164.846C93.2091 162.609 89.0878 158.438 87.0935 152.918C86.7779 152.066 86.4564 151.226 86.1174 150.422C83.3181 146.163 80.0067 142.132 76.2781 138.747C69.0377 134.075 59.7979 132.39 53.0504 135.321C34.7143 143.343 31.6269 155.384 29.8273 157.561C29.7565 157.646 29.6802 157.772 29.6094 157.857C11.1175 180.74 -4.25172 199.454 38.6912 232.227Z" fill="#A369FF"/>
<path d="M105.477 231.95C99.1375 228.875 97.5659 219.028 101.966 209.955C106.366 200.882 115.072 196.02 121.411 199.094C127.75 202.168 129.322 212.016 124.922 221.088C120.521 230.161 111.816 235.024 105.477 231.95Z" fill="white"/>
<path d="M106.726 228.063C103.723 226.607 103.544 220.777 106.325 215.042C109.107 209.307 113.796 205.838 116.799 207.295C119.802 208.751 119.981 214.581 117.2 220.316C114.418 226.051 109.729 229.52 106.726 228.063Z" fill="#3A3A3A"/>
<path d="M37.8017 199.125C31.4627 196.05 29.8911 186.203 34.2914 177.13C38.6916 168.058 47.3975 163.195 53.7366 166.269C60.0756 169.344 61.6472 179.191 57.2469 188.264C52.8466 197.337 44.1407 202.199 37.8017 199.125Z" fill="white"/>
<path d="M59.9053 201.799C58.6009 204.335 58.134 208.795 69.9869 215.183C72.4996 216.535 76.899 217.955 78.456 217.996C82.6479 218.095 85.2128 217.316 86.185 214.544C86.7057 213.041 86.1567 210.707 85.2564 209.527C82.9876 206.567 83.3489 206.742 82.9948 204.681C82.2748 200.583 80.9183 199.3 79.2559 197.973C73.5612 193.396 61.7011 198.311 59.9053 201.799Z" fill="#FF8E06"/>
<g opacity="0.3">
<g opacity="0.3">
<g opacity="0.3">
<g opacity="0.3">
<path opacity="0.3" d="M69.9948 215.171C72.4959 216.548 76.9362 217.883 78.5341 217.84C82.8311 217.722 85.507 216.714 86.6424 213.576C86.8162 213.094 86.9054 212.543 86.9284 211.974C85.4764 213.188 83.3506 213.645 80.526 213.733C78.9401 213.782 74.4936 212.429 71.9867 211.064C63.1159 206.227 61.3134 202.213 61.5893 199.283C61.045 199.822 60.6322 200.336 60.3806 200.824C58.8951 203.733 58.1711 208.723 69.9948 215.171Z" fill="#3A3A3A"/>
</g>
</g>
</g>
</g>
<g opacity="0.35">
<g opacity="0.35">
<g opacity="0.35">
<g opacity="0.35">
<path opacity="0.35" d="M59.6671 206.308L59.7372 206.164C61.533 202.676 74.0786 197.023 79.0637 202.327C80.1614 203.499 80.1134 205.469 80.3511 207.31C80.6096 209.384 84.4085 211.643 84.4863 214.121C84.5042 214.605 85.6257 214.777 85.818 215.332C85.9527 215.085 86.0692 214.814 86.1794 214.525C86.7001 213.022 86.1511 210.688 85.245 209.52C82.9762 206.56 83.3375 206.735 82.9833 204.674C82.2633 200.576 80.9068 199.293 79.2503 197.954C73.5797 193.389 61.7076 198.298 59.9238 201.791C59.3328 202.918 58.914 204.426 59.6671 206.308Z" fill="white"/>
</g>
</g>
</g>
</g>
<path d="M69.0798 194.732C70.3398 194.466 71.5651 194.301 72.7203 194.281C75.8084 194.202 78.4519 194.978 80.3924 196.529C82.3029 198.081 83.9692 199.737 84.7793 204.355C84.8493 204.701 84.8887 204.988 84.9215 205.227C85.0587 206.171 85.078 206.285 86.7019 208.397C87.9004 209.975 88.6844 212.928 87.9089 215.141C87.6077 215.977 87.209 216.676 86.725 217.245C84.718 219.604 81.321 219.89 78.4048 219.829C76.5185 219.792 72.3648 218.388 69.7995 217.144C69.5586 217.027 69.3356 216.904 69.1126 216.781C68.5944 216.5 68.1002 216.23 67.636 215.96C60.0342 211.604 56.7024 207.37 57.5069 203.104L57.5128 203.092C57.6307 202.45 57.8502 201.782 58.1598 201.144L58.2532 200.951C59.7628 198.054 64.8342 195.634 69.0798 194.732ZM84.4519 213.925C84.4635 213.901 84.4694 213.889 84.469 213.859C84.5267 213.679 84.5658 213.445 84.5388 213.194C84.5546 212.517 84.3649 211.682 84.0463 211.081C84.046 211.051 84.0339 211.045 84.0219 211.039C83.9602 210.89 83.8686 210.742 83.7894 210.629C83.7409 210.576 83.7223 210.522 83.6858 210.474C83.6738 210.469 83.6796 210.457 83.6676 210.451C81.7517 207.959 81.5291 207.375 81.288 205.756C81.2614 205.535 81.2224 205.278 81.171 204.985C80.5604 201.52 79.501 200.545 78.2674 199.53C78.2433 199.519 78.2193 199.507 78.2131 199.489C78.1587 199.448 78.1284 199.418 78.074 199.377C77.7415 199.112 77.3857 198.894 77.0003 198.708C76.374 198.404 75.689 198.191 74.9933 198.091C74.9692 198.08 74.9272 198.074 74.8973 198.074C73.3918 197.835 71.8428 197.962 70.6419 198.168C70.3492 198.219 70.0864 198.27 69.8415 198.315C67.7336 198.766 65.8035 199.555 64.3285 200.357C63.2758 200.933 62.4571 201.547 61.9723 202.056C61.7712 202.256 61.6299 202.455 61.5481 202.624C61.2382 203.232 61.1023 203.88 61.1639 204.52C61.3513 206.649 63.469 209 67.4872 211.574L67.4993 211.58C68.5007 212.214 69.6102 212.871 70.8635 213.539C73.2737 214.827 77.384 216.106 78.4979 216.141C83.2347 216.251 84.0291 215.104 84.4519 213.925Z" fill="#3A3A3A"/>
<path d="M40.3964 195.892C37.3704 194.425 37.1896 188.55 39.9925 182.77C42.7955 176.991 47.5208 173.496 50.5468 174.963C53.5728 176.431 53.7536 182.306 50.9506 188.085C48.1477 193.864 43.4224 197.36 40.3964 195.892Z" fill="#3A3A3A"/>
<rect x="194.894" y="285" width="100" height="43" rx="4" fill="#9241FE"/>
<rect x="177.894" y="270" width="17" height="17" rx="4" fill="#9241FE"/>
<rect x="168.894" y="261" width="9" height="9" rx="2" fill="#9241FE"/>
<path d="M231.154 313V300.317H228.896V305.564H222.726V300.317H220.458V313H222.726V307.524H228.896V313H231.154ZM238.098 304.923C239.407 304.923 240.269 305.837 240.312 307.261H235.786C235.883 305.854 236.797 304.923 238.098 304.923ZM240.33 310.354C240.014 311.066 239.267 311.462 238.186 311.462C236.753 311.462 235.83 310.46 235.777 308.86V308.746H242.492V308.043C242.492 305.011 240.849 303.191 238.106 303.191C235.32 303.191 233.589 305.134 233.589 308.228C233.589 311.321 235.294 313.193 238.124 313.193C240.392 313.193 241.982 312.104 242.396 310.354H240.33ZM244.769 313H246.948V299.667H244.769V313ZM249.796 313H251.976V299.667H249.796V313ZM258.884 313.193C261.758 313.193 263.507 311.312 263.507 308.192C263.507 305.081 261.749 303.191 258.884 303.191C256.027 303.191 254.261 305.09 254.261 308.192C254.261 311.312 256.001 313.193 258.884 313.193ZM258.884 311.365C257.363 311.365 256.493 310.205 256.493 308.192C256.493 306.188 257.363 305.02 258.884 305.02C260.396 305.02 261.266 306.188 261.266 308.192C261.266 310.205 260.404 311.365 258.884 311.365ZM266.205 300.309L266.407 308.808H268.438L268.64 300.309H266.205ZM267.427 313.229C268.314 313.229 268.886 312.675 268.886 311.831C268.886 310.979 268.314 310.425 267.427 310.425C266.539 310.425 265.968 310.979 265.968 311.831C265.968 312.675 266.539 313.229 267.427 313.229Z" fill="white"/>
<path d="M332.894 134.249C335.165 135.285 337.476 136.205 339.79 137.138C341.833 137.962 344.029 138.699 345.918 139.866C347.486 140.834 349.009 141.974 350.513 143.043C351.134 143.485 351.695 144.01 352.314 144.45C353.181 145.066 354.176 145.513 355.118 145.999" stroke="white" stroke-linecap="round"/>
<path d="M363.844 135.935C363.76 136.412 363.791 137.166 363.568 137.608C363.314 138.11 362.352 137.893 361.951 137.778C360.809 137.452 359.697 136.419 359.527 135.203C359.473 134.824 359.879 134.291 359.644 133.974C359.503 133.784 359.249 133.745 359.077 133.596" stroke="white" stroke-width="0.8" stroke-linecap="round"/>
<path d="M360.357 139.827C360.4 140.075 360.633 141.711 361.211 141.043" stroke="white" stroke-width="0.8" stroke-linecap="round"/>
<path d="M362.11 141.106C362.183 141.561 362.326 141.957 362.006 142.327" stroke="white" stroke-width="0.8" stroke-linecap="round"/>
<path d="M361.321 142.568C361.398 142.799 361.479 143.026 361.562 143.254" stroke="white" stroke-width="0.8" stroke-linecap="round"/>
<path d="M359.219 134.672C358.92 135.814 358.64 136.379 357.392 135.765C357.082 135.613 354.732 134.494 354.834 134.094" stroke="white" stroke-width="0.8" stroke-linecap="round"/>
<path d="M356.723 129.295C356.93 129.874 357.1 130.42 357.202 131.021C357.23 131.185 357.16 131.416 357.364 131.445C357.851 131.515 358.477 130.512 358.703 130.174" stroke="white" stroke-width="0.8" stroke-linecap="round"/>
<path d="M355.063 137.271C355.12 137.518 355.159 137.749 355.305 137.956" stroke="white" stroke-width="0.8" stroke-linecap="round"/>
<path d="M356.466 138.128L356.834 138.804" stroke="white" stroke-width="0.8" stroke-linecap="round"/>
<path d="M354.584 133.282C354.18 134.389 353.308 133.913 352.402 133.539C351.726 133.259 351.005 133.044 350.444 132.559" stroke="white" stroke-width="0.8" stroke-linecap="round"/>
<path d="M353.216 131.145C353.127 131.033 352.7 130.326 352.519 130.33C352.238 130.335 352.475 130.623 352.544 130.683" stroke="white" stroke-width="0.8" stroke-linecap="round"/>
<path d="M349.145 132.269C349.355 132.428 351.209 133.832 351.122 133.894C350.553 134.294 350.07 134.642 349.61 135.174C349.057 135.813 349.099 136.279 349.707 136.912C350.016 137.234 350.196 137.444 350.588 137.211" stroke="white" stroke-width="0.8" stroke-linecap="round"/>
<path d="M350.958 135.268C351.134 135.724 351.439 136.078 351.686 136.493" stroke="white" stroke-width="0.8" stroke-linecap="round"/>
<path d="M346.346 130.022C346.355 130.166 346.497 131.317 346.311 131.399C345.986 131.542 345.496 130.812 345.441 130.576C345.426 130.514 345.479 130.334 345.441 130.385C345.318 130.555 345.34 130.823 345.209 130.975C344.838 131.404 344.001 129.984 343.98 129.699C343.965 129.489 343.948 129.673 343.858 129.806C343.699 130.039 343.456 130.086 343.186 130.054C342.811 130.01 342.541 129.706 342.316 129.428C342.079 129.133 342.075 128.756 341.891 128.434C341.659 128.028 341.084 127.758 341.014 128.418C340.901 129.486 342.437 129.411 343.161 129.455" stroke="white" stroke-width="0.8" stroke-linecap="round"/>
<path d="M344.278 128.075C344.525 128.364 344.723 128.695 345.011 128.945" stroke="white" stroke-width="0.8" stroke-linecap="round"/>
<path d="M345.583 128.736C345.78 128.911 345.949 129.091 346.126 129.284" stroke="white" stroke-width="0.8" stroke-linecap="round"/>
<path d="M344.372 125.889C344.496 126.244 344.733 126.653 344.706 127.038" stroke="white" stroke-width="0.8" stroke-linecap="round"/>
<path d="M338.993 128.037C338.63 128.346 338.306 128.742 338.748 129.154C338.901 129.298 339.224 129.69 339.438 129.421C339.743 129.037 339.555 128.055 339.416 127.639C339.322 127.356 338.922 127.8 338.824 127.861C338.271 128.205 337.655 128.479 337.139 128.879C337.008 128.981 336.796 129.151 336.721 129.312C336.645 129.475 337.542 130.326 337.672 129.614C337.712 129.393 337.681 128.935 337.495 128.774C337.296 128.602 337.139 128.825 336.943 128.94C336.494 129.204 336.142 129.298 335.642 129.108C335.05 128.884 334.951 128.408 334.951 127.824C334.951 127.459 334.905 127.098 334.916 126.734C334.921 126.597 334.938 126.483 334.829 126.388C334.57 126.165 333.756 126.232 333.452 126.327C332.957 126.481 333.659 127.111 333.807 127.298C334.215 127.814 334.655 128.367 335.329 128.385" stroke="white" stroke-width="0.8" stroke-linecap="round"/>
<path d="M309.94 133.232C309.528 133.51 308.05 133.873 308.05 132.995C308.05 132.023 309.029 131.742 309.866 131.918C310.851 132.124 310.199 133.53 309.93 134.059C309.008 135.878 306.818 137.25 304.817 137.441" stroke="white" stroke-width="0.8" stroke-linecap="round"/>
<path d="M303.475 130C303.611 131.165 303.658 132.307 303.658 133.477" stroke="white" stroke-width="0.8" stroke-linecap="round"/>
<path d="M302.255 133.537C302.111 134.227 301.978 135.095 301.191 135.326C300.342 135.576 299.616 135.212 299.036 134.608C298.478 134.027 298.099 133.324 297.755 132.602C297.638 132.357 297.52 131.814 297.24 131.687C296.501 131.353 295.462 132.195 295.112 132.778C294.952 133.046 295.726 132.99 295.817 132.988C296.365 132.981 296.775 132.862 297.254 132.622" stroke="white" stroke-width="0.8" stroke-linecap="round"/>
<path d="M299.693 131.159L299.815 131.464" stroke="white" stroke-width="0.8" stroke-linecap="round"/>
<path d="M294.082 131.342C293.653 130.998 293.223 130.749 292.673 130.651C292.324 130.588 291.758 130.524 291.409 130.623C290.978 130.747 291.161 131.793 291.209 132.074C291.329 132.773 291.639 133.346 292.029 133.924C292.143 134.093 292.386 134.394 292.202 134.595C291.877 134.948 290.799 134.765 290.396 134.757C289.21 134.735 287.965 134.44 286.882 133.954C286.034 133.575 285.647 133.078 285.299 132.257" stroke="white" stroke-width="0.8" stroke-linecap="round"/>
<path d="M282.433 131.646C282.524 132.349 282.677 133.142 282.223 133.761C281.931 134.159 281.417 134.226 280.969 134.079C280.209 133.831 279.507 133.206 278.888 132.724C278.535 132.449 278.08 131.932 277.648 131.775C277.265 131.636 276.786 133.553 276.71 133.819C276.685 133.904 276.541 134.268 276.727 134.29C276.916 134.311 277.14 134.23 277.316 134.181C277.887 134.021 278.451 133.835 279.017 133.659" stroke="white" stroke-width="0.8" stroke-linecap="round"/>
<path d="M279.993 136.282C280.953 136.282 281.913 136.282 282.873 136.282C283.136 136.282 283.41 136.246 283.652 136.343" stroke="white" stroke-width="0.8" stroke-linecap="round"/>
<path d="M274.077 130.305C273.544 130.692 271.036 132.237 272.423 133.158C273.132 133.628 274.03 133.539 274.795 133.842C275.085 133.957 274.865 134.18 274.673 134.249C274.144 134.438 273.597 134.542 273.04 134.601C272.558 134.652 271.964 134.779 271.485 134.652C270.828 134.478 270.648 133.856 270.356 133.334C270.133 132.935 269.418 133.261 269.18 133.48C268.87 133.765 268.775 134.25 269.187 134.479C269.699 134.764 270.964 135.011 271.149 134.269" stroke="white" stroke-width="0.8" stroke-linecap="round"/>
<path d="M265.598 134.208C265.525 133.41 265.588 132.605 266.337 132.152C266.433 132.094 266.622 132.013 266.723 132.114C266.861 132.252 266.852 132.645 266.778 132.806C266.463 133.489 265.272 133.9 264.623 134.12C264.179 134.271 263.309 134.322 262.962 134.669C262.723 134.908 263.175 135.402 263.291 135.567C263.683 136.128 264.141 136.741 264.351 137.4C264.468 137.767 264.171 137.784 263.891 137.807" stroke="white" stroke-width="0.8" stroke-linecap="round"/>
<path d="M311.212 140.155C306.617 140.155 302.022 140.118 297.428 140.175C293.187 140.228 288.908 140.087 284.676 140.358C282.562 140.493 280.405 140.615 278.311 140.945C276.865 141.172 275.484 141.639 274.075 142.017C270.94 142.859 267.82 143.655 264.78 144.795C263.663 145.214 262.515 145.492 261.39 145.893" stroke="white" stroke-width="0.8" stroke-linecap="round"/>
<path d="M300.302 144C298.928 144.114 297.71 144.99 296.365 145.275C296.11 145.329 294.643 145.518 294.7 145.564C295.359 146.091 296.224 146.443 296.932 146.915C297.401 147.228 297.634 147.279 298.207 147.279C298.558 147.279 298.816 147.334 299.138 147.441C299.436 147.54 300.462 147.732 299.522 147.967C298.286 148.276 296.992 148.632 295.717 148.716C294.886 148.771 294.045 148.736 293.212 148.736C292.981 148.736 292.443 148.843 292.286 148.625C292.125 148.401 292.199 148.171 292.443 148.053C293.529 147.53 294.29 148.244 294.644 149.333C295.185 150.993 293.486 152.323 292.013 152.471" stroke="white" stroke-width="0.8" stroke-linecap="round"/>
<path d="M289.645 148.281C289.971 148.78 290.423 149.356 290.353 149.991C290.282 150.638 289.795 151.278 289.417 151.787C289.185 152.1 289.008 152.639 288.592 152.739C288.209 152.831 287.855 152.926 287.459 152.926" stroke="white" stroke-width="0.8" stroke-linecap="round"/>
<path d="M285.455 148.098C285.688 148.098 286.898 147.922 287.074 148.119C287.322 148.394 286.766 148.959 286.639 149.141C286.184 149.793 285.311 149.829 284.544 149.829" stroke="white" stroke-width="0.8" stroke-linecap="round"/>
<path d="M283.178 148.007C282.909 147.562 282.624 147.131 282.318 146.712C282.13 146.454 281.726 146.55 281.448 146.55C280.871 146.55 280.81 146.945 280.81 147.451C280.81 148.043 281.136 148.282 281.448 148.736C282.277 149.945 280.03 150.152 279.277 150.188C277.609 150.268 277.076 149.192 276.894 147.734" stroke="white" stroke-width="0.8" stroke-linecap="round"/>
<path d="M43.5815 37.3857C43.5815 37.3857 43.0538 39.8562 42.2811 43.5533C41.5359 47.2609 40.5458 52.1951 39.5557 57.1293C37.6199 67.0461 35.849 77.0253 35.849 77.0253C35.849 77.0253 42.8403 69.684 49.6876 62.2253C56.5244 54.794 63.2069 47.2728 63.2069 47.2728C63.2069 47.2728 58.285 44.8423 53.363 42.4117C48.4723 39.8987 43.5815 37.3857 43.5815 37.3857Z" fill="#FF8E06"/>
<path d="M61.6653 48.605L63.1964 47.3002C63.1964 47.3002 58.2744 44.8696 53.3525 42.439C48.4617 39.926 43.6089 37.396 43.6089 37.396L43.4712 39.4173C43.4712 39.4173 47.9878 41.7571 52.5318 44.1073C57.0796 46.3647 61.6653 48.605 61.6653 48.605Z" fill="#FF8E06"/>
<path opacity="0.5" d="M52.4412 46.5862C52.0465 47.3792 50.6192 47.4981 49.2807 46.8024C47.9422 46.1067 47.1728 44.9041 47.6054 44.0941C48.0105 43.2737 49.4274 43.1822 50.7659 43.8779C52.1043 44.5736 52.8463 45.7658 52.4412 46.5862Z" fill="#F4F4F4"/>
<path opacity="0.5" d="M46.4489 45.3211C46.2482 45.6849 45.5947 45.7515 44.9667 45.4192C44.3387 45.087 43.9899 44.515 44.1632 44.1408C44.3638 43.777 45.0173 43.7105 45.6454 44.0427C46.3009 44.3854 46.6496 44.9573 46.4489 45.3211Z" fill="#F4F4F4"/>
<path d="M118.151 70.7313C118.151 70.7313 117.308 80.7481 116.63 90.8273C115.953 100.906 115.412 111.038 115.412 111.038C115.412 111.038 121.433 102.858 127.307 94.6528C133.18 86.4481 138.927 78.1638 138.927 78.1638C138.927 78.1638 133.7 76.3718 128.483 74.5522C123.326 72.6607 118.151 70.7313 118.151 70.7313Z" fill="#9241FE"/>
<path d="M137.574 79.6618L138.954 78.1742C138.954 78.1742 133.727 76.3822 128.511 74.5626C123.336 72.6332 118.151 70.7313 118.151 70.7313L118.264 72.7535C118.264 72.7535 123.055 74.5372 127.872 76.3313C132.714 77.9776 137.574 79.6618 137.574 79.6618Z" fill="#7E0000"/>
<path opacity="0.5" d="M128.136 78.7872C127.813 79.6389 126.416 79.9264 125.015 79.3955C123.614 78.8647 122.683 77.7577 123.005 76.9061C123.328 76.0545 124.715 75.7944 126.116 76.3253C127.517 76.8562 128.431 77.9252 128.136 78.7872Z" fill="#F4F4F4"/>
<path opacity="0.5" d="M122.01 78.2886C121.864 78.6732 121.217 78.8051 120.558 78.5553C119.871 78.2951 119.474 77.7676 119.592 77.3726C119.749 76.9605 120.423 76.839 121.082 77.0889C121.731 77.3661 122.166 77.8765 122.01 78.2886Z" fill="#F4F4F4"/>
<path d="M196.361 95.2147C196.361 95.2147 196.67 105.259 197.127 115.329C197.556 125.388 198.15 135.509 198.15 135.509C198.15 135.509 203.228 126.751 208.158 117.969C210.631 113.597 213.06 109.177 214.887 105.848C216.687 102.508 217.901 100.298 217.901 100.298C217.901 100.298 216.537 100.001 214.527 99.585C212.511 99.1036 209.804 98.4549 207.124 97.8165C201.737 96.5294 196.361 95.2147 196.361 95.2147Z" fill="#FF8E06"/>
<path d="M216.671 101.968L217.891 100.325C217.891 100.325 216.527 100.028 214.517 99.6124C212.5 99.131 209.793 98.4822 207.114 97.8438C201.755 96.5671 196.351 95.2421 196.351 95.2421L196.726 97.2377C196.726 97.2377 201.707 98.434 206.716 99.6408C209.193 100.234 211.697 100.837 213.566 101.294C215.428 101.685 216.671 101.968 216.671 101.968Z" fill="#9BC3E8"/>
<path opacity="0.5" d="M207.212 102.06C207.01 102.926 205.654 103.354 204.152 103.005C202.689 102.639 201.651 101.649 201.853 100.783C202.056 99.9174 203.412 99.4888 204.886 99.8273C206.404 100.214 207.415 101.194 207.212 102.06Z" fill="#F4F4F4"/>
<path opacity="0.5" d="M201.04 102.265C200.949 102.671 200.309 102.868 199.619 102.701C198.928 102.533 198.445 102.067 198.536 101.662C198.627 101.257 199.267 101.059 199.985 101.237C200.686 101.377 201.169 101.843 201.04 102.265Z" fill="#F4F4F4"/>
<path d="M276.891 111.089C276.891 111.089 278.273 121.038 279.775 131.001C281.277 140.963 282.927 150.951 282.927 150.951C282.927 150.951 287.058 141.709 291.03 132.469C293.002 127.844 294.947 123.209 296.427 119.717C297.88 116.215 298.858 113.884 298.858 113.884C298.858 113.884 297.486 113.772 295.424 113.494C293.362 113.215 290.606 112.862 287.888 112.492C282.375 111.785 276.891 111.089 276.891 111.089Z" fill="#FEBE16"/>
<path d="M297.81 115.654L298.848 113.911C298.848 113.911 297.476 113.8 295.414 113.521C293.352 113.242 290.596 112.889 287.878 112.519C282.393 111.823 276.891 111.089 276.891 111.089L277.472 113.037L297.81 115.654Z" fill="#F9A61F"/>
<path opacity="0.5" d="M288.413 116.744C288.293 117.641 286.988 118.183 285.489 117.992C283.991 117.802 282.856 116.9 282.976 116.003C283.096 115.106 284.411 114.536 285.91 114.727C287.398 114.946 288.505 115.836 288.413 116.744Z" fill="#F4F4F4"/>
<path opacity="0.5" d="M282.29 117.564C282.254 117.991 281.62 118.253 280.926 118.179C280.215 118.066 279.711 117.655 279.747 117.229C279.81 116.813 280.416 116.54 281.127 116.653C281.822 116.727 282.353 117.149 282.29 117.564Z" fill="#F4F4F4"/>
<path d="M358.699 118.369C358.699 118.369 361.082 128.163 363.613 137.982C366.133 147.828 368.809 157.512 368.809 157.512C368.809 157.512 371.961 147.868 374.965 138.199C377.996 128.54 380.842 118.874 380.842 118.874C380.842 118.874 375.304 118.818 369.775 118.734C367.004 118.752 364.251 118.557 362.171 118.491C360.053 118.443 358.699 118.369 358.699 118.369Z" fill="#9241FE"/>
<path d="M379.993 120.784L380.848 118.94C380.848 118.94 375.309 118.884 369.781 118.799C367.01 118.818 364.257 118.622 362.177 118.557C360.107 118.464 358.715 118.408 358.715 118.408L359.475 120.298C359.475 120.298 360.775 120.35 362.686 120.446C364.608 120.515 367.186 120.675 369.733 120.666C374.836 120.715 379.993 120.784 379.993 120.784Z" fill="#9241FE"/>
<path opacity="0.5" d="M370.713 122.89C370.685 123.791 369.438 124.512 367.943 124.48C366.409 124.464 365.216 123.635 365.232 122.761C365.26 121.861 366.513 121.205 368.019 121.21C369.542 121.253 370.74 121.989 370.713 122.89Z" fill="#F4F4F4"/>
<path opacity="0.5" d="M364.739 124.398C364.731 124.834 364.142 125.145 363.437 125.098C362.722 125.079 362.142 124.702 362.178 124.276C362.186 123.839 362.775 123.528 363.48 123.575C364.195 123.595 364.747 123.961 364.739 124.398Z" fill="#F4F4F4"/>
<path d="M470.435 115.972C470.435 115.972 462.667 116.547 449.101 117.502C435.528 118.39 416.077 119.188 392.725 119.262C369.399 119.094 342.136 118.126 313.039 115.3C283.96 112.512 253.141 107.871 222.651 101.344C192.179 94.8555 162.078 86.6228 134.435 77.2475C106.802 67.8447 81.5777 57.5955 60.4962 47.6907C39.3834 37.8683 22.4558 28.5322 10.9627 21.7266C5.21609 18.3238 0.842996 15.5358 -2.09945 13.6354C-3.50928 12.6927 -4.58513 11.9709 -5.29889 11.4805C-5.91068 11.0602 -6.21658 10.85 -6.21658 10.85L-4.35772 8.31847C-4.35772 8.31847 -4.05183 8.52863 -3.49622 8.92767C-2.78247 9.41805 -1.72431 10.1018 -0.342569 11.0338C2.54369 12.9129 6.8606 15.6797 12.5791 19.0718C24.0264 25.8286 40.8417 35.1221 61.814 44.8913C82.755 54.7428 107.905 64.9327 135.426 74.2928C162.918 83.6424 192.917 91.8051 223.256 98.3061C253.605 104.78 284.33 109.416 313.286 112.189C342.232 114.989 369.39 115.98 392.649 116.154C415.907 116.076 435.291 115.285 448.798 114.402C462.384 113.393 470.114 112.834 470.114 112.834L470.435 115.972Z" fill="#3C3D40"/>
<path d="M470.435 115.972C470.435 115.972 462.668 116.547 449.101 117.501C435.528 118.39 416.078 119.188 392.725 119.261C369.4 119.093 342.137 118.125 313.04 115.299C283.96 112.511 253.141 107.87 222.651 101.344C192.179 94.855 162.079 86.6222 134.435 77.2469C106.802 67.8442 81.5782 57.5949 60.4967 47.6901C39.3839 37.8677 22.4563 28.5316 10.9631 21.7261C5.21657 18.3233 0.843473 15.5352 -2.09898 13.6348C-3.50881 12.6922 -4.58465 11.9703 -5.29841 11.48C-5.9102 11.0596 -6.2161 10.8495 -6.2161 10.8495L-5.29188 9.59742C-5.29188 9.59742 -4.98598 9.80759 -4.40228 10.2173C-3.68853 10.7076 -2.60228 11.402 -1.22054 12.334C1.66572 14.2131 6.03882 17.0012 11.7573 20.3933C23.2223 27.1883 40.1219 36.5137 61.1608 46.2767C82.1476 56.177 107.354 66.3881 134.903 75.7589C162.49 85.1129 192.534 93.3245 222.912 99.8086C253.317 106.303 284.136 110.944 313.121 113.728C342.151 116.56 369.348 117.534 392.645 117.691C415.931 117.624 435.353 116.816 448.916 115.954C462.483 115 470.212 114.442 470.212 114.442L470.435 115.972Z" fill="#231F20"/>
</g>
<defs>
<clipPath id="clip0_454_3334">
<rect width="415" height="395" fill="white"/>
</clipPath>
</defs>
</svg>
