<svg width="395" height="223" viewBox="0 0 395 223" fill="none" xmlns="http://www.w3.org/2000/svg">
    <path d="M325.223 141.932C326.558 134.958 324.16 128.739 318.213 124.84C311.032 120.126 301.574 119.729 293.317 118.833C284.491 117.88 275.627 117.521 266.763 117.396C249 117.124 231.388 118.642 214.091 122.683C213.963 122.706 213.838 122.744 213.724 122.765C194.306 121.138 174.833 120.093 155.368 119.413C146.41 119.1 137.437 119.024 128.474 118.683C121.606 118.413 114.732 118.189 107.862 118.55C104.74 119.516 101.763 120.881 98.9845 122.606C95.0196 125.061 91.6127 128.323 87.5431 130.607C83.4735 132.89 79.108 134.597 74.6284 135.841C70.2056 137.075 65.5647 138.158 60.9733 138.469C56.0053 138.805 51.0519 138.259 46.1871 137.315C38.6319 135.852 31.1044 133.576 23.4144 132.9C23.2919 132.951 23.1668 132.989 23.0443 133.041C20.0174 134.21 15.1123 137.056 16.6474 141.043C18.0571 144.744 24.6236 145.773 27.8636 146.251C40.0366 148.029 46.5017 155.162 58.6382 153.853C69.3944 152.693 86.4804 143.485 97.2458 142.456C91.2853 145.305 85.3494 148.208 79.4627 151.219C75.7991 153.077 72.1936 155.011 68.5416 156.852C64.3994 160.102 60.6007 163.787 56.306 166.845C53.5431 168.817 50.5851 170.604 47.331 171.653C43.4966 172.896 39.517 173.506 35.5309 174C29.0242 174.823 22.5059 175.824 16.0407 176.874C14.2167 177.163 12.0353 177.503 9.89551 178.07C8.457 180.87 8.04454 184.068 9.41366 187.147C15.2091 187.246 20.9887 186.937 26.7617 186.513C34.1835 185.963 41.8211 185.872 49.1077 184.261C56.2266 182.696 63.0914 179.902 68.7289 175.206C74.4953 170.412 79.1989 164.538 84.6761 159.446C88.2248 156.158 92.0692 153.124 96.1941 150.581C100.199 148.104 104.428 145.732 108.991 144.459C112.703 143.428 116.498 143.013 120.332 142.811C125.845 141.364 131.584 140.916 137.332 140.672C147.009 140.267 156.704 141.163 166.356 141.745C175.873 142.308 185.216 142.565 194.628 144.32C203.403 145.957 211.932 149.061 220.884 149.58C230.042 150.106 239.141 148.384 248.321 149.111C257.518 149.849 266.392 152.113 275.124 154.96C283.749 157.783 290.891 163.648 299.74 165.931C306.172 167.585 321.794 168.562 326 164.054C330.36 159.43 324.039 148.131 325.223 141.932Z" fill="#804B19"/>
    <path opacity="0.4" d="M63.2027 142.725C67.3426 142.511 71.4834 141.901 75.4288 140.622C79.5277 139.301 83.0982 137.256 86.547 134.704C89.9184 132.211 93.2574 129.46 97.1741 127.865C101.661 126.018 106.166 126.118 110.953 126.314C122.183 126.783 133.371 124.137 144.604 123.902C155.662 123.67 166.601 125.278 177.569 126.558C188.565 127.833 199.54 128.437 210.583 127.401C221.697 126.352 232.638 124.118 243.744 123.026C266.432 120.8 288.422 126.312 310.107 132.319C310.51 132.436 310.41 133.012 310.016 133.025C291.88 133.759 273.974 127.809 255.882 130.148C269.98 132.19 284.424 133.157 297.903 138.069C301.64 139.424 305.216 141.176 308.921 142.595C312.342 143.906 315.8 145.092 319.313 146.18C320.79 146.643 322.249 147.08 323.738 147.527C324.397 145.676 324.903 143.795 325.265 141.925C326.601 134.95 324.203 128.731 318.256 124.833C311.074 120.119 301.617 119.721 293.359 118.826C284.534 117.873 275.67 117.513 266.805 117.389C249.042 117.116 231.43 118.634 214.133 122.676C214.005 122.699 213.88 122.736 213.767 122.757C194.348 121.13 174.875 120.085 155.41 119.405C146.452 119.092 137.479 119.017 128.516 118.675C121.648 118.406 114.774 118.181 107.905 118.542C104.782 119.509 101.806 120.874 99.027 122.599C95.0621 125.054 91.6552 128.316 87.5856 130.6C83.516 132.883 79.1504 134.59 74.6709 135.834C70.2481 137.068 65.6071 138.151 61.0158 138.462C56.0477 138.798 51.0943 138.252 46.2296 137.308C39.8306 136.073 33.4271 134.252 26.9497 133.31C37.3368 140.4 50.9752 143.376 63.2027 142.725Z" fill="#E79243"/>
    <path opacity="0.4" d="M21.0839 179.355C26.6437 178.485 32.1244 177.263 37.6582 176.252C41.7163 175.51 45.8349 174.537 49.7118 173.125C54.289 171.453 58.1274 168.947 61.7963 165.755C66.6046 161.577 71.0307 156.911 76.0444 152.974C73.5415 154.282 71.0385 155.59 68.5136 156.858C64.3713 160.108 60.5727 163.794 56.278 166.851C53.515 168.823 50.5571 170.61 47.303 171.659C43.4685 172.902 39.489 173.512 35.5029 174.006C28.9961 174.829 22.4779 175.83 16.0126 176.88C14.1886 177.169 12.0073 177.509 9.86747 178.076C9.49014 178.82 9.18895 179.578 8.96389 180.353C9.89671 180.402 10.8282 180.364 11.6151 180.337C14.7966 180.254 17.9493 179.854 21.0839 179.355Z" fill="#804B19"/>
    <path d="M388.782 137.298C388.201 141.054 385.873 143.757 382.174 144.652C377.706 145.736 372.868 144.235 368.545 143.201C363.925 142.094 359.392 140.681 354.902 139.149C345.899 136.09 337.295 132.157 329.304 127.008C329.243 126.973 329.187 126.932 329.134 126.901C319.053 124.228 309.05 121.251 299.116 118.092C294.545 116.638 290.008 115.062 285.429 113.622C281.919 112.522 278.414 111.399 275.016 109.981C273.616 108.932 272.361 107.708 271.271 106.339C269.714 104.388 268.584 102.131 266.943 100.248C265.303 98.3651 263.41 96.7193 261.375 95.2864C259.368 93.869 257.224 92.4883 254.965 91.5054C252.522 90.4422 249.927 89.8264 247.305 89.4269C243.233 88.8056 239.03 88.5982 235.032 87.5559C234.98 87.5078 234.923 87.4663 234.871 87.4182C233.555 86.2844 231.595 83.9671 233.086 82.2339C234.463 80.6218 237.957 81.2847 239.677 81.6265C246.132 82.9201 250.674 80.4881 256.556 83.3314C261.769 85.8508 268.724 93.5659 273.966 96.0214C271.474 93.5131 269.004 90.9819 266.579 88.4049C265.066 86.8096 263.597 85.1858 262.087 83.6011C260.584 81.2179 259.332 78.6768 257.718 76.3629C256.68 74.8722 255.51 73.4393 254.059 72.325C252.35 71.0085 250.454 69.985 248.533 69.019C245.402 67.4337 242.296 65.7567 239.226 64.0645C238.359 63.5905 237.321 63.0267 236.344 62.3559C236.123 60.6859 236.49 58.9994 237.734 57.6941C240.673 58.6868 243.531 59.882 246.364 61.1346C250.006 62.747 253.839 64.1669 257.223 66.2895C260.529 68.359 263.487 71.0025 265.483 74.3838C267.528 77.8371 268.842 81.6443 270.686 85.1963C271.884 87.4921 273.276 89.713 274.897 91.7368C276.47 93.7058 278.175 95.6619 280.246 97.1247C281.932 98.3118 283.77 99.2038 285.666 99.9955C288.184 101.717 290.997 102.975 293.85 104.132C298.655 106.077 303.703 107.369 308.672 108.812C313.571 110.241 318.326 111.792 323.386 112.601C328.103 113.354 332.961 113.324 337.566 114.673C342.277 116.055 346.554 118.56 351.312 119.845C356.08 121.128 360.961 121.583 365.874 121.719C370.729 121.848 375.384 120.176 380.255 120.618C383.795 120.941 386.339 124.068 387.648 127.097C389.014 130.212 389.301 133.961 388.782 137.298Z" fill="#804B19"/>
    <path opacity="0.4" d="M256.855 89.7619C258.903 90.6146 260.881 91.6671 262.639 93.0212C264.468 94.4245 265.9 96.0979 267.179 98.0043C268.43 99.8674 269.618 101.855 271.305 103.364C273.234 105.102 275.523 105.862 277.971 106.624C283.716 108.408 288.879 111.754 294.499 113.893C300.031 116 305.834 117.157 311.592 118.485C317.364 119.821 323.005 121.491 328.385 124C333.798 126.528 338.911 129.622 344.312 132.17C355.348 137.374 367.423 138.552 379.435 139.425C379.659 139.438 379.712 139.13 379.516 139.053C370.506 135.42 360.41 135.198 351.712 130.764C359.185 132.271 366.64 134.382 374.317 134.331C376.445 134.32 378.562 134.081 380.685 134.032C382.645 133.987 384.602 134.011 386.568 134.094C387.396 134.127 388.21 134.169 389.041 134.212C389.04 135.263 388.957 136.303 388.803 137.31C388.221 141.066 385.894 143.769 382.195 144.664C377.727 145.748 372.889 144.247 368.565 143.213C363.945 142.106 359.413 140.693 354.922 139.161C345.92 136.102 337.316 132.169 329.324 127.02C329.264 126.985 329.208 126.944 329.154 126.913C319.074 124.24 309.07 121.263 299.137 118.104C294.565 116.65 290.029 115.074 285.45 113.634C281.94 112.534 278.434 111.411 275.037 109.993C273.637 108.944 272.382 107.72 271.292 106.351C269.735 104.4 268.604 102.143 266.964 100.26C265.323 98.3771 263.43 96.7313 261.396 95.2984C259.389 93.881 257.244 92.5002 254.986 91.5173C252.542 90.4541 249.947 89.8384 247.325 89.4389C243.878 88.9103 240.323 88.6762 236.888 87.9858C243.399 86.2808 250.809 87.2339 256.855 89.7619Z" fill="#E79243"/>
    <path opacity="0.4" d="M242.214 63.722C244.86 65.1604 247.403 66.7622 250.01 68.2676C251.922 69.3715 253.823 70.6027 255.523 72.0121C257.529 73.6785 259.014 75.6317 260.288 77.901C261.96 80.872 263.352 84.0198 265.171 86.9062C264.145 85.7967 263.118 84.6871 262.074 83.5938C260.571 81.2105 259.319 78.6694 257.704 76.3556C256.666 74.8649 255.497 73.432 254.045 72.3177C252.336 71.0011 250.44 69.9777 248.52 69.0116C245.388 67.4264 242.283 65.7493 239.213 64.0571C238.345 63.5831 237.307 63.0193 236.331 62.3485C236.274 61.9059 236.259 61.4692 236.285 61.0384C236.764 61.1813 237.226 61.3682 237.618 61.5231C239.207 62.1373 240.724 62.9062 242.214 63.722Z" fill="#804B19"/>
    <path opacity="0.4" d="M372.631 125.53C367.059 125.594 361.476 126.248 355.934 125.455C353.057 125.051 350.253 124.287 347.686 122.913C345.451 121.72 343.354 120.349 341.158 119.09C338.964 117.841 336.705 116.983 334.187 116.696C331.102 116.342 328.002 116.37 324.908 116.171C318.714 115.768 312.597 114.18 306.757 112.145C304.077 111.213 301.454 110.135 298.788 109.149C296.542 108.315 294.284 107.502 292.069 106.598C287.499 104.725 282.867 102.497 279.252 99.046C277.414 97.2894 275.979 95.2042 274.415 93.2046C272.646 90.9265 270.831 88.6663 269.279 86.2282C267.875 84.0273 266.797 81.7733 266.023 79.2851C265.362 77.1565 264.821 74.99 264.135 72.8737C264.042 72.588 263.942 72.2984 263.848 72.0126C264.443 72.7573 264.998 73.5411 265.487 74.3764C267.532 77.8297 268.846 81.6369 270.69 85.1889C271.887 87.4846 273.279 89.7056 274.901 91.7293C276.474 93.6983 278.179 95.6545 280.25 97.1172C281.935 98.3044 283.774 99.1964 285.67 99.9881C288.188 101.709 291.001 102.968 293.854 104.125C298.658 106.07 303.706 107.362 308.676 108.805C313.574 110.233 318.33 111.785 323.39 112.593C328.107 113.347 332.965 113.317 337.57 114.665C342.281 116.048 346.558 118.553 351.315 119.838C356.084 121.12 360.964 121.576 365.878 121.711C370.733 121.84 375.388 120.169 380.259 120.61C383.63 120.916 386.092 123.755 387.454 126.645C382.532 126.076 377.591 125.479 372.631 125.53Z" fill="#804B19"/>
    <g clip-path="url(#clip0_422_5282)">
        <path d="M172.751 82.9656C169.577 80.0865 164.497 81.1228 162.743 85.0381C157.599 96.5003 160.103 110.427 169.913 119.328C179.723 128.228 193.834 129.37 204.736 123.139C208.456 121.014 209.002 115.856 205.829 112.977L172.751 82.9656Z" fill="#9241FE"/>
        <path d="M106.058 86.2059C108.937 83.0326 114.095 83.5714 116.22 87.2981C122.451 98.2075 121.31 112.311 112.409 122.121C103.508 131.932 89.5741 134.436 78.1191 129.292C74.2112 127.537 73.1676 122.457 76.0467 119.284L106.058 86.2059Z" fill="#9241FE"/>
        <path d="M169.43 151.804C168.664 151.841 167.756 151.958 166.749 152.131C159.624 153.362 147.634 157.519 147.634 157.519C147.634 157.519 146.229 147.106 147.767 142.215C148.001 141.458 148.307 140.836 148.702 140.4C151.249 137.601 158.643 139.194 160.603 139.676C160.913 139.748 161.084 139.799 161.084 139.799C161.084 139.799 161.107 139.819 161.16 139.861C162.286 140.771 175.358 151.516 169.43 151.804Z" fill="#FF8E06"/>
        <path d="M140.371 157.872C140.371 157.872 139.017 157.543 136.941 157.088C131.88 155.975 122.52 154.084 118.123 154.297C111.933 154.598 125.266 141.539 125.266 141.539C125.266 141.539 125.56 141.423 126.056 141.26C128.112 140.56 133.668 138.909 136.711 140.325C137.063 140.491 137.372 140.688 137.647 140.937C138.076 141.333 138.44 141.915 138.746 142.646C140.759 147.357 140.371 157.872 140.371 157.872Z" fill="#FF8E06"/>
        <path d="M182.299 118.719L182.314 119.025C182.38 120.374 182.239 121.689 181.899 122.97C181.869 123.096 181.838 123.222 181.801 123.348C181.782 123.414 181.763 123.474 181.744 123.533C181.024 125.878 179.662 128.078 177.758 130.101C177.744 130.109 177.73 130.124 177.716 130.139C173.892 134.177 167.906 137.479 160.601 139.676C160.241 139.789 159.881 139.894 159.513 139.999C155.872 141.024 151.925 141.779 147.765 142.215C146.631 142.336 145.481 142.436 144.322 142.507C143.936 142.533 143.549 142.551 143.156 142.571C142.704 142.593 142.251 142.607 141.806 142.622C140.777 142.657 139.754 142.663 138.745 142.646C138.094 142.641 137.45 142.621 136.805 142.594C133.034 142.441 129.422 141.981 126.054 141.26C118.314 139.604 111.814 136.558 107.507 132.601C107.01 132.15 106.542 131.705 106.097 131.259C104.852 130.019 103.814 128.797 103.048 127.482C102.188 126.026 101.673 124.465 101.584 122.634C101.181 114.336 102.036 106.503 103.899 99.4176C104.585 96.8407 105.4 94.3598 106.337 91.9973C107.347 89.4631 108.495 87.061 109.767 84.8065C110.218 84.0171 110.685 83.2489 111.167 82.4945L111.174 82.4869C112.777 79.9604 114.558 77.6592 116.49 75.6064C117.559 74.4508 118.677 73.3805 119.842 72.3883C125.506 67.5667 132.163 64.6849 139.353 64.3355L139.404 64.333C139.951 64.3064 140.499 64.2944 141.041 64.312C141.099 64.3018 141.157 64.3063 141.216 64.3107C149.042 64.4128 156.434 67.6204 162.729 73.0886C165.53 75.518 168.111 78.3894 170.417 81.6322C170.613 81.9077 170.802 82.1836 170.991 82.4594C171.88 83.7538 172.721 85.109 173.52 86.5101C173.599 86.6451 173.672 86.7804 173.751 86.9154C174.352 87.9899 174.925 89.1169 175.472 90.2817C179.297 98.4502 181.775 108.687 182.299 118.719Z" fill="#9241FE"/>
        <g opacity="0.3">
            <g opacity="0.3">
                <g opacity="0.3">
                    <g opacity="0.3">
                        <path opacity="0.3" d="M188.718 116.132C188.706 116.03 188.694 115.921 188.681 115.819C188.681 115.812 188.681 115.812 188.681 115.805C188.701 115.913 188.713 116.015 188.718 116.132Z" fill="#000072"/>
                    </g>
                </g>
            </g>
        </g>
        <path d="M165.296 113.343L165.298 113.378C165.398 116.845 164.006 120.057 161.501 122.846L161.475 122.875C157.527 127.249 150.798 130.564 142.696 132.172C140.068 132.688 137.301 133.027 134.429 133.167C134.143 133.181 133.864 133.194 133.578 133.202C131.262 133.28 129.007 133.199 126.834 132.977C113.144 131.596 104.22 116.551 108.715 102.504C108.733 102.449 108.757 102.393 108.768 102.345C110.28 97.66 113.019 93.9386 116.493 91.8597L118.588 90.6118C119.768 89.9064 121.175 89.3878 122.661 89.0836C125.349 88.5164 128.294 88.6256 130.593 89.4621L134.801 90.9971C134.808 90.9968 134.808 91.0036 134.822 91.003L136.024 91.4426C137.579 92.015 139.181 92.2646 140.754 92.2086C141.163 92.1888 141.57 92.1485 141.977 92.0946C143.562 91.8675 145.103 91.2946 146.548 90.433L146.568 90.4252L150.608 88.4893C152.822 87.4335 155.736 87.0395 158.466 87.3434C162.306 94.4834 164.809 104.015 165.296 113.343Z" fill="#A369FF"/>
        <path d="M158.564 131.444C156.423 131.876 154.179 132.169 151.874 132.322C151.588 132.343 151.309 132.356 151.023 132.37C148.158 132.509 145.365 132.441 142.699 132.181C134.48 131.367 127.461 128.713 123.107 124.75L123.078 124.724C120.309 122.198 118.618 119.128 118.381 115.668L118.38 115.634C117.96 106.301 119.527 96.5723 122.663 89.0933C125.351 88.5261 128.296 88.6353 130.595 89.4718L134.803 91.0068C134.81 91.0065 134.81 91.0133 134.824 91.0126C136.339 91.7303 137.929 92.1511 139.535 92.2231C139.945 92.2372 140.355 92.2378 140.763 92.218C142.341 92.1208 143.904 91.7174 145.397 90.9968L146.55 90.4427L146.57 90.4349L150.61 88.499C152.824 87.4432 155.738 87.0492 158.468 87.3531C159.976 87.5117 161.421 87.8918 162.67 88.4791L164.876 89.5179C168.535 91.2502 171.622 94.6816 173.581 99.2047C173.604 99.2582 173.634 99.3113 173.65 99.3583C179.479 112.903 172.056 128.735 158.564 131.444Z" fill="#A369FF"/>
        <path d="M158.528 16.6365C158.782 16.4488 167.403 5.69462 169.125 3.38162C171.698 -0.0691032 175.816 1.79924 174.493 10.9707C174.493 10.9707 178.468 6.27513 180.264 9.09687C182.931 13.2943 176.469 14.0322 182.712 34.6549L158.528 16.6365Z" fill="#9241FE"/>
        <path d="M182.658 33.4191L182.309 33.1583C181.935 31.6197 181.64 30.2233 181.417 28.9478C181.762 30.327 182.171 31.8129 182.658 33.4191Z" fill="#7F7F7F"/>
        <path d="M91.2546 39.0976C95.4683 17.9667 89.8548 17.8156 92.1024 13.3794C93.6166 10.3967 98.0278 14.6848 98.0278 14.6848C95.8215 5.68481 99.6 3.57155 102.635 6.61813C107.96 11.9581 115.824 15.8591 116.095 16.0213C116.095 16.0213 131.82 12.4723 133.794 12.3325C135.346 12.2278 171.059 6.07008 182.261 32.0286L183.077 34.2401C187.218 45.602 189.54 54.8741 189.672 60.7515C189.7 61.0279 189.721 61.2973 189.734 61.5744C189.864 64.2506 189.414 67.1596 188.147 70.2764C184.012 79.6357 162.65 84.6574 149.634 85.29L133.045 86.0963C126.54 86.4124 90.0516 88.1859 88.0661 67.0347C87.519 61.192 88.829 50.6982 90.9915 40.3018L91.2546 39.0976Z" fill="#9241FE"/>
        <path d="M189.719 61.2341C189.749 61.8539 189.75 62.4824 189.708 63.1204C189.293 57.2859 187.046 48.6534 183.252 38.2542L182.444 36.0642C176.936 13.7319 144.622 15.2221 134.544 16.5963C132.605 16.8587 117.054 20.2384 117.054 20.2384C116.784 20.0835 109.009 16.222 103.746 10.9521C100.742 7.94056 97.9442 9.02673 100.116 17.9187C100.116 17.9187 93.9508 14.3884 93.3338 17.6344C92.3727 22.6733 89.8393 17.468 92.0872 13.0391C93.6014 10.0564 98.0126 14.3445 98.0126 14.3445C95.8064 5.3445 99.5844 3.22395 102.62 6.27053C107.952 11.6102 115.809 15.5115 116.087 15.6734C116.087 15.6734 131.811 12.117 133.786 11.9845C135.338 11.8799 171.05 5.72212 182.245 31.681L183.062 33.8925C187.203 45.2543 189.525 54.5264 189.657 60.4039C189.685 60.6803 189.706 60.957 189.719 61.2341Z" fill="#A670FC"/>
        <g opacity="0.3">
            <g opacity="0.3">
                <g opacity="0.3">
                    <g opacity="0.3">
                        <path opacity="0.3" d="M144.78 53.8024C144.764 54.0737 144.741 54.3525 144.718 54.6387C143.807 64.4699 136.249 71.3789 128.071 72.7558C122.003 73.7744 109.671 71.9398 105.336 58.994C103.772 54.3337 103.462 49.4589 104.662 46.7839C106.76 42.1138 113.548 40.417 116.556 39.7446C116.867 39.6783 117.207 39.6106 117.562 39.5495C123.784 38.5235 135.962 39.2984 140.281 42.7504C140.281 42.7431 145.32 44.7567 144.78 53.8024Z" fill="#000072"/>
                    </g>
                </g>
            </g>
        </g>
        <path d="M152.572 76.4296C148.629 77.4252 144.256 78.1348 139.445 78.5513C134.617 78.6033 130.203 78.3208 126.19 77.7118C97.0582 73.2584 99.5262 60.2744 102.392 44.4935C102.411 44.4341 102.422 44.3532 102.433 44.2942C102.703 42.7827 101.046 36.2119 107.731 27.5765C110.179 24.4096 115.057 22.7984 119.744 23.1407C122.414 23.793 125.053 24.8488 127.507 26.1549C127.879 26.4438 128.252 26.7618 128.627 27.0945C131.011 29.2225 134.074 30.1408 137.087 29.8774C140.111 29.84 143.071 28.629 145.252 26.2864C145.593 25.9264 145.934 25.5736 146.276 25.2426C148.591 23.7048 151.115 22.3908 153.71 21.4899C158.342 20.6947 163.338 21.826 166.096 24.7398C173.579 32.6866 172.553 39.3878 172.99 40.865C173.007 40.9226 173.019 41.0024 173.036 41.0601C177.419 56.4959 181.134 69.1722 152.572 76.4296Z" fill="#A369FF"/>
        <path d="M181.054 131.868L181.019 131.892C181.019 131.892 181.019 131.884 181.018 131.863L181.054 131.868Z" fill="#EF8B01"/>
        <path d="M181.751 128.785L181.723 128.808C181.723 128.808 181.723 128.801 181.722 128.779L181.751 128.785Z" fill="#EF8B01"/>
        <path d="M119.127 62.0107C122.965 61.8241 125.86 57.2199 125.593 51.7267C125.326 46.2336 121.998 41.9318 118.16 42.1183C114.322 42.3048 111.427 46.9091 111.694 52.4022C111.961 57.8954 115.289 62.1972 119.127 62.0107Z" fill="white"/>
        <path d="M118.891 59.3918C120.503 59.3134 121.688 56.7549 121.538 53.677C121.389 50.5992 119.961 48.1676 118.35 48.2459C116.738 48.3242 115.553 50.8828 115.702 53.9606C115.852 57.0385 117.28 59.4701 118.891 59.3918Z" fill="#441584"/>
        <path d="M160.099 60.017C163.937 59.8305 166.831 55.2262 166.564 49.7331C166.297 44.24 162.97 39.9381 159.132 40.1247C155.294 40.3112 152.399 44.9155 152.666 50.4086C152.933 55.9017 156.261 60.2036 160.099 60.017Z" fill="white"/>
        <path d="M148.439 56.6275C148.551 58.1789 147.831 60.5163 140.518 61.186C138.968 61.3271 136.457 61.0983 135.667 60.7859C133.543 59.9389 132.423 58.9993 132.528 57.4008C132.588 56.5354 133.363 55.4818 134.067 55.0821C135.839 54.0824 135.62 54.093 136.238 53.1347C137.476 51.2326 138.431 50.8792 139.549 50.5691C143.385 49.4909 148.284 54.4935 148.439 56.6275Z" fill="#FF8E06"/>
        <g opacity="0.3">
            <g opacity="0.3">
                <g opacity="0.3">
                    <g opacity="0.3">
                        <path opacity="0.3" d="M140.516 61.1777C138.967 61.3334 136.453 61.0535 135.661 60.69C133.53 59.7118 132.403 58.6337 132.505 56.8161C132.521 56.5376 132.594 56.2416 132.704 55.9512C133.173 56.8713 134.142 57.5552 135.54 58.2035C136.325 58.5673 138.845 58.8395 140.395 58.6911C145.88 58.1614 147.643 56.5335 148.132 55.0041C148.289 55.3911 148.387 55.7372 148.408 56.0358C148.531 57.8133 147.827 60.4715 140.516 61.1777Z" fill="#000072"/>
                    </g>
                </g>
            </g>
        </g>
        <g opacity="0.35">
            <g opacity="0.35">
                <g opacity="0.35">
                    <g opacity="0.35">
                        <path opacity="0.35" d="M147.593 58.9402L147.589 58.8527C147.434 56.7187 142.349 51.1989 138.714 52.7936C137.912 53.1468 137.515 54.1455 137.002 55.0183C136.428 56.0037 134.039 56.3245 133.47 57.5508C133.358 57.7902 132.758 57.6366 132.543 57.8736C132.528 57.7209 132.528 57.5601 132.534 57.3917C132.595 56.5263 133.369 55.4726 134.074 55.0802C135.845 54.0805 135.626 54.0911 136.245 53.1328C137.483 51.2307 138.438 50.8774 139.555 50.5599C143.377 49.4825 148.283 54.4847 148.431 56.6191C148.494 57.3104 148.374 58.1568 147.593 58.9402Z" fill="white"/>
                    </g>
                </g>
            </g>
        </g>
        <path d="M145.348 51.1233C144.773 50.72 144.193 50.3754 143.618 50.1183C142.086 49.418 140.593 49.2421 139.288 49.6052C137.998 49.9749 136.807 50.4493 135.413 52.5929C135.304 52.7517 135.223 52.8872 135.155 53.0001C134.885 53.4445 134.851 53.4974 133.584 54.2094C132.645 54.7448 131.62 56.0591 131.536 57.3349C131.508 57.8187 131.559 58.2548 131.68 58.6436C132.182 60.2564 133.825 61.1268 135.301 61.7202C136.256 62.105 138.64 62.2888 140.193 62.2133C140.339 62.2062 140.477 62.1922 140.615 62.1782C140.936 62.148 141.241 62.1185 141.532 62.0825C146.277 61.5229 148.855 60.1112 149.364 57.7988L149.363 57.7915C149.441 57.4441 149.474 57.0625 149.455 56.676L149.45 56.5593C149.312 54.7826 147.285 52.4837 145.348 51.1233ZM133.53 57.4646C133.53 57.45 133.529 57.4427 133.536 57.4278C133.546 57.325 133.576 57.1993 133.643 57.079C133.78 56.7362 134.054 56.3574 134.342 56.1241C134.349 56.1092 134.356 56.1088 134.364 56.1085C134.426 56.0469 134.504 55.992 134.568 55.9523C134.604 55.936 134.624 55.9131 134.653 55.8971C134.66 55.8967 134.66 55.8894 134.667 55.8891C136.161 55.049 136.398 54.8036 136.865 54.0426C136.926 53.9374 137 53.8168 137.089 53.6809C138.136 52.0732 138.876 51.8106 139.712 51.5653C139.727 51.5646 139.741 51.5639 139.748 51.5563C139.785 51.5472 139.806 51.5389 139.842 51.5298C140.066 51.4678 140.291 51.4349 140.524 51.4236C140.903 51.4051 141.293 51.4447 141.663 51.5436C141.677 51.5429 141.7 51.5492 141.715 51.5557C142.521 51.7577 143.271 52.1525 143.83 52.5128C143.965 52.6012 144.086 52.683 144.2 52.7579C145.161 53.4348 145.96 54.2438 146.529 54.9617C146.934 55.4756 147.213 55.959 147.347 56.318C147.406 56.4613 147.434 56.5915 147.439 56.6936C147.464 57.0651 147.394 57.4194 147.226 57.7272C146.677 58.7553 145.111 59.4819 142.545 59.9136L142.537 59.914C141.899 60.0181 141.202 60.1104 140.431 60.1772C138.946 60.3078 136.61 60.0705 136.044 59.8495C133.644 58.8917 133.49 58.1463 133.53 57.4646Z" fill="#441584"/>
        <path d="M160.063 57.5633C161.741 57.4817 162.976 54.8163 162.82 51.6099C162.664 48.4034 161.177 45.8703 159.498 45.9519C157.819 46.0335 156.585 48.6989 156.741 51.9053C156.897 55.1118 158.384 57.6449 160.063 57.5633Z" fill="#441584"/>
        <path d="M169.43 151.804C168.664 151.841 167.756 151.958 166.749 152.131C166.499 151.814 166.396 151.491 166.483 151.172C167.106 148.949 159.515 139.999 159.515 139.999L161.16 139.86C162.286 140.77 175.358 151.515 169.43 151.804Z" fill="#FFAB57"/>
        <path d="M138.747 142.645C140.759 147.356 140.371 157.871 140.371 157.871C140.371 157.871 139.018 157.542 136.942 157.088C137.213 154.56 136.987 147.189 136.807 142.593L136.805 142.549C138.049 142.576 139.885 142.604 141.74 142.58L141.808 142.62C140.779 142.656 139.756 142.661 138.747 142.645Z" fill="#FFAB57"/>
    </g>
    <defs>
        <clipPath id="clip0_422_5282">
            <rect width="133.636" height="154.684" fill="white" transform="translate(68.707 6.4873) rotate(-2.78251)"/>
        </clipPath>
    </defs>
</svg>
