<svg width="154" height="105" viewBox="0 0 154 105" fill="none" xmlns="http://www.w3.org/2000/svg">
<path d="M21.1587 62.5854C20.2853 61.2279 19.1141 60.1845 17.6348 59.4411C16.1556 58.7024 14.3533 58.333 12.2178 58.333C10.2489 58.333 8.5223 58.6931 7.04813 59.4134C5.56892 60.1337 4.32699 61.0987 3.32234 62.3083C2.31769 63.5226 1.55031 64.8893 1.03031 66.4222C0.50527 67.9504 0.247803 69.4972 0.247803 71.0578C0.247803 73.0108 0.540611 74.6822 1.12624 76.0812C1.71186 77.4802 2.50448 78.616 3.51418 79.5025C4.51884 80.3843 5.70524 81.0215 7.06833 81.4139C8.43143 81.8064 9.89549 82.0003 11.4555 82.0003C12.2632 82.0003 13.0104 81.9587 13.7071 81.8803C14.7774 81.7556 15.5902 82.7667 15.1055 83.644C15.0904 83.6717 15.0752 83.6994 15.0601 83.7225C14.6714 84.4012 14.0554 84.9876 13.2123 85.477C12.3692 85.971 11.2333 86.3542 9.79452 86.6313C8.3557 86.9083 6.58366 87.0468 4.46834 87.0468C3.72116 87.0468 3.11535 87.6009 3.11535 88.2842V92.9844C3.11535 93.6677 3.72116 94.2218 4.46834 94.2218H4.9631C8.28501 94.2218 11.1324 93.9124 13.5052 93.2984C15.8729 92.6843 17.8115 91.7286 19.3059 90.4311C20.8053 89.1384 21.9059 87.5039 22.6127 85.5324C23.3194 83.5609 23.6728 81.1969 23.6728 78.4451V73.5141C23.6728 71.2748 23.4709 69.2294 23.0721 67.3825C22.6732 65.5357 22.0371 63.9336 21.1637 62.5761L21.1587 62.5854ZM16.0345 73.8326C16.0345 74.3498 15.6861 74.8115 15.1611 74.9915C14.323 75.287 13.3184 75.4348 12.1522 75.4348C10.779 75.4348 9.69859 75.0931 8.92112 74.4005C8.13861 73.7126 7.74987 72.3644 7.74987 70.3513C7.74987 68.957 8.07298 67.7427 8.71919 66.7177C9.36539 65.6927 10.4559 65.1756 11.9957 65.1756C13.5355 65.1756 14.5401 65.7666 15.1358 66.9485C15.7316 68.1305 16.0294 69.728 16.0294 71.7411V73.8373L16.0345 73.8326Z" fill="#521E99"/>
<path d="M96.4066 96.2295C95.296 96.2295 94.3266 96.6404 93.4987 97.4623C92.6657 98.2841 92.2517 99.2583 92.2517 100.39C92.2517 101.521 92.6657 102.495 93.4987 103.317C94.3317 104.139 95.301 104.55 96.4066 104.55C97.5123 104.55 98.5119 104.139 99.3297 103.317C100.148 102.495 100.562 101.521 100.562 100.39C100.562 99.2583 100.153 98.2841 99.3297 97.4623C98.5068 96.6404 97.5324 96.2295 96.4066 96.2295Z" fill="#521E99"/>
<path d="M101.177 87.6978C100.046 87.6978 99.072 88.1087 98.2542 88.9305C97.4313 89.7524 97.0223 90.7266 97.0223 91.8578C97.0223 92.989 97.4313 93.9632 98.2542 94.785C99.0771 95.6069 100.051 96.0178 101.177 96.0178C102.303 96.0178 103.282 95.6069 104.1 94.785C104.918 93.9632 105.332 92.989 105.332 91.8578C105.332 90.7266 104.923 89.7524 104.1 88.9305C103.277 88.1087 102.303 87.6978 101.177 87.6978Z" fill="#521E99"/>
<path d="M97.6989 73.9204C97.6989 74.6037 97.0931 75.1578 96.3459 75.1578H86.4357C86.2237 75.1578 86.0318 75.1808 85.8501 75.2178H54.0244C53.2772 75.2178 52.6714 74.6637 52.6714 73.9804V73.5233C52.6714 71.284 52.4745 69.2386 52.0857 67.3918C51.697 65.5449 51.0558 63.9428 50.1623 62.5854C49.2687 61.2279 48.0823 60.1845 46.6081 59.4411C45.1289 58.7024 43.3266 58.333 41.1911 58.333C39.2625 58.333 37.5612 58.6931 36.082 59.4134C34.6028 60.1337 33.3508 61.0987 32.3259 62.3083C31.3011 63.5226 30.5236 64.8893 30.0036 66.4222C29.4786 67.9504 29.2211 69.4972 29.2211 71.0578C29.2211 73.0108 29.5139 74.6822 30.0995 76.0812C30.6851 77.4802 31.503 78.616 32.5632 79.5025C33.6183 80.3843 34.8754 81.0215 36.3344 81.4139C37.7934 81.8064 39.3736 82.0003 41.075 82.0003H42.8672C43.9274 82.0003 44.5685 83.0576 44.0283 83.8887C43.9879 83.9533 43.9425 84.018 43.8971 84.0826C43.4578 84.6875 42.8015 85.2184 41.9282 85.6709C41.0548 86.1234 39.934 86.4651 38.5558 86.7051C37.1826 86.9406 35.4762 87.0607 33.4467 87.0607C32.6995 87.0607 32.0937 87.6147 32.0937 88.298V92.9983C32.0937 93.6816 32.6995 94.2356 33.4467 94.2356H33.9414C39.833 94.2356 44.2656 93.2661 47.2392 91.3223C49.9704 89.5401 51.6819 86.779 52.3735 83.0345C52.4846 82.4389 53.0449 82.0003 53.7063 82.0003H97.7595C102.005 82.0003 105.448 78.556 105.448 74.3036V59.852C105.448 59.1687 104.843 58.6147 104.095 58.6147H99.0772C98.33 58.6147 97.7242 59.1687 97.7242 59.852V73.9204H97.6989ZM45.0027 73.9804C45.0027 74.6637 44.3969 75.2178 43.6497 75.2178H41.1254C39.7926 75.2178 38.7224 74.8807 37.9247 74.202C37.122 73.5233 36.7231 72.2397 36.7231 70.3513C36.7231 68.8739 37.0462 67.6411 37.6925 66.653C38.3387 65.665 39.3887 65.1756 40.8478 65.1756C42.4279 65.1756 43.5134 65.7989 44.1091 67.0409C44.7048 68.2829 45.0027 69.8481 45.0027 71.7411V73.985V73.9804Z" fill="#521E99"/>
<path d="M95.7906 91.8578C95.7906 90.7266 95.3766 89.7524 94.5436 88.9305C93.7106 88.1087 92.7312 87.6978 91.6053 87.6978C90.4795 87.6978 89.5001 88.1087 88.6823 88.9305C87.8594 89.7524 87.4504 90.7266 87.4504 91.8578C87.4504 92.989 87.8594 93.9632 88.6823 94.785C89.5001 95.6069 90.4795 96.0178 91.6053 96.0178C92.7312 96.0178 93.7156 95.6069 94.5436 94.785C95.3766 93.9632 95.7906 92.989 95.7906 91.8578Z" fill="#521E99"/>
<path d="M144.948 96.2295C143.837 96.2295 142.868 96.6404 142.04 97.4623C141.207 98.2841 140.793 99.2583 140.793 100.39C140.793 101.521 141.207 102.495 142.04 103.317C142.873 104.139 143.842 104.55 144.948 104.55C146.053 104.55 147.053 104.139 147.871 103.317C148.689 102.495 149.103 101.521 149.103 100.39C149.103 99.2583 148.694 98.2841 147.871 97.4623C147.048 96.6404 146.074 96.2295 144.948 96.2295Z" fill="#521E99"/>
<path d="M146.24 59.8514V73.9197C146.24 74.6031 145.634 75.1571 144.887 75.1571H134.977C134.765 75.1571 134.573 75.1802 134.391 75.2171H133.563C132.7 75.2171 132.155 75.0601 131.918 74.7416C131.68 74.423 131.564 73.8135 131.564 72.9086V56.5548C131.564 55.8714 130.958 55.3174 130.211 55.3174H121.593C120.18 55.3174 118.741 55.5252 117.282 55.9315C115.823 56.3424 114.495 57.0211 113.294 57.963C112.092 58.9095 111.113 60.1238 110.355 61.6151C109.598 63.1064 109.214 64.9256 109.214 67.0818C109.214 69.238 109.613 71.0479 110.416 72.4422C111.219 73.8412 112.198 74.9262 113.354 75.7065C114.515 76.4868 115.737 77.027 117.035 77.3225C118.327 77.6226 119.458 77.7704 120.422 77.7704C121.119 77.7704 121.821 77.7196 122.532 77.618H122.558C123.694 77.4472 124.779 78.0059 125.41 78.9662C125.567 79.2063 125.733 79.4233 125.915 79.6218C126.48 80.2359 127.132 80.7207 127.869 81.0716C128.606 81.4225 129.419 81.6626 130.302 81.7965C131.186 81.9304 132.099 81.995 133.043 81.995H146.806C150.764 81.995 153.974 78.7815 153.974 74.8201V59.8468C153.974 59.1634 153.369 58.6094 152.621 58.6094H147.603C146.856 58.6094 146.25 59.1634 146.25 59.8468L146.24 59.8514ZM123.926 69.7366C123.926 70.3276 123.471 70.8493 122.83 70.9555C122.654 70.9832 122.482 71.0063 122.31 71.0156C121.785 71.0479 121.27 71.0617 120.755 71.0617C119.932 71.0617 119.261 70.9232 118.741 70.6462C118.216 70.3692 117.797 70.0275 117.479 69.612C117.161 69.201 116.944 68.7347 116.833 68.2084C116.722 67.6866 116.661 67.1972 116.661 66.7447C116.661 65.4704 117.025 64.4546 117.757 63.6928C118.484 62.931 119.579 62.5524 121.033 62.5524H122.573C123.32 62.5524 123.926 63.1064 123.926 63.7898V69.732V69.7366Z" fill="#521E99"/>
<path d="M144.332 91.8578C144.332 90.7266 143.918 89.7524 143.085 88.9305C142.252 88.1087 141.273 87.6978 140.147 87.6978C139.021 87.6978 138.042 88.1087 137.224 88.9305C136.401 89.7524 135.992 90.7266 135.992 91.8578C135.992 92.989 136.401 93.9632 137.224 94.785C138.042 95.6069 139.021 96.0178 140.147 96.0178C141.273 96.0178 142.257 95.6069 143.085 94.785C143.918 93.9632 144.332 92.989 144.332 91.8578Z" fill="#521E99"/>
<path d="M149.719 87.6978C148.588 87.6978 147.614 88.1087 146.796 88.9305C145.973 89.7524 145.564 90.7266 145.564 91.8578C145.564 92.989 145.973 93.9632 146.796 94.785C147.619 95.6069 148.593 96.0178 149.719 96.0178C150.845 96.0178 151.824 95.6069 152.642 94.785C153.46 93.9632 153.874 92.989 153.874 91.8578C153.874 90.7266 153.465 89.7524 152.642 88.9305C151.819 88.1087 150.845 87.6978 149.719 87.6978Z" fill="#521E99"/>
<path d="M0.914062 2.14694C0.914062 1.39977 1.51988 0.793945 2.26706 0.793945H19.9671C22.6378 0.793945 24.9045 1.17763 26.7573 1.945C28.6101 2.71238 30.1196 3.72712 31.2808 4.98925C32.4419 6.25137 33.2901 7.71039 33.8303 9.3562C34.3705 11.002 34.638 12.6781 34.638 14.3744C34.638 16.0707 34.3705 17.767 33.8303 19.3926C33.2901 21.0182 32.4419 22.4672 31.2808 23.7293C30.1196 24.9914 28.6101 26.0112 26.7573 26.7735C24.9045 27.5409 22.6378 27.9246 19.9671 27.9246H11.5916C10.8445 27.9246 10.2386 28.5304 10.2386 29.2776V41.7373C10.2386 42.4845 9.63281 43.0903 8.88563 43.0903H2.27211C1.52493 43.0903 0.919101 42.4845 0.919101 41.7373V2.14694H0.914062ZM10.2386 19.332C10.2386 20.0792 10.8445 20.685 11.5916 20.685H17.4479C18.5232 20.685 19.5582 20.6093 20.5426 20.4528C21.5271 20.2963 22.3904 19.9934 23.1376 19.534C23.8847 19.0796 24.4855 18.4334 24.9399 17.6054C25.3942 16.7775 25.6214 15.6971 25.6214 14.3744C25.6214 13.0517 25.3942 11.9107 24.9399 11.0777C24.4855 10.2498 23.8847 9.61368 23.1376 9.16436C22.3904 8.72009 21.5271 8.41718 20.5426 8.26068C19.5582 8.10417 18.5283 8.02845 17.4479 8.02845H11.5916C10.8445 8.02845 10.2386 8.63427 10.2386 9.38144V19.3219V19.332Z" fill="#521E99"/>
<path d="M42.0642 0.788574H70.9971C71.7443 0.788574 72.3501 1.39439 72.3501 2.14157V7.23551C72.3501 7.98269 71.7443 8.58851 70.9971 8.58851H51.3888C50.6416 8.58851 50.0358 9.19433 50.0358 9.94151V16.3077C50.0358 17.0548 50.6416 17.6607 51.3888 17.6607H69.1645C69.9117 17.6607 70.5175 18.2665 70.5175 19.0137V23.5169C70.5175 24.2641 69.9117 24.8699 69.1645 24.8699H51.3888C50.6416 24.8699 50.0358 25.4757 50.0358 26.2229V33.9269C50.0358 34.6741 50.6416 35.2799 51.3888 35.2799H71.4616C72.2088 35.2799 72.8146 35.8858 72.8146 36.6329V41.7269C72.8146 42.474 72.2088 43.0799 71.4616 43.0799H42.0642C41.317 43.0799 40.7112 42.474 40.7112 41.7269V2.14662C40.7112 1.39944 41.317 0.793623 42.0642 0.793623V0.788574Z" fill="#521E99"/>
<path d="M79.6002 2.14646C79.6002 1.39928 80.206 0.793457 80.9532 0.793457H98.6533C101.324 0.793457 103.591 1.17714 105.443 1.94452C107.296 2.71189 108.806 3.72664 109.967 4.98876C111.128 6.25089 111.976 7.7099 112.516 9.35571C113.057 11.0015 113.324 12.6776 113.324 14.3739C113.324 16.0702 113.057 17.7665 112.516 19.3921C111.976 21.0177 111.128 22.4667 109.967 23.7288C108.806 24.9909 107.296 26.0107 105.443 26.773C103.591 27.5404 101.324 27.9241 98.6533 27.9241H90.2778C89.5306 27.9241 88.9248 28.5299 88.9248 29.2771V41.7368C88.9248 42.484 88.319 43.0898 87.5718 43.0898H80.9583C80.2111 43.0898 79.6053 42.484 79.6053 41.7368V2.14646H79.6002ZM88.9248 19.3315C88.9248 20.0787 89.5306 20.6845 90.2778 20.6845H96.1341C97.2094 20.6845 98.2443 20.6088 99.2288 20.4523C100.213 20.2958 101.077 19.9929 101.824 19.5335C102.571 19.0791 103.172 18.4329 103.626 17.605C104.08 16.777 104.308 15.6966 104.308 14.3739C104.308 13.0512 104.08 11.9103 103.626 11.0773C103.172 10.2493 102.571 9.61319 101.824 9.16387C101.077 8.7196 100.213 8.41669 99.2288 8.26019C98.2443 8.10368 97.2144 8.02796 96.1341 8.02796H90.2778C89.5306 8.02796 88.9248 8.63378 88.9248 9.38096V19.3215V19.3315Z" fill="#521E99"/>
<path d="M154 27.086C154 32.8262 152.399 37.1023 149.198 39.9092C145.998 42.7162 141.575 44.1197 135.941 44.1197C130.307 44.1197 125.763 42.7263 122.623 39.9395C119.483 37.1528 117.913 32.8666 117.913 27.086V2.14646C117.913 1.39928 118.519 0.793457 119.266 0.793457H125.879C126.627 0.793457 127.232 1.39928 127.232 2.14646V27.086C127.232 28.227 127.328 29.3478 127.51 30.4584C127.697 31.5691 128.111 32.5586 128.752 33.427C129.393 34.2953 130.277 34.9869 131.392 35.4918C132.513 36.0017 134.023 36.2541 135.931 36.2541C139.248 36.2541 141.535 35.517 142.802 34.0479C144.064 32.5788 144.7 30.2565 144.7 27.086V2.14646C144.7 1.39928 145.306 0.793457 146.053 0.793457H152.636C153.384 0.793457 153.989 1.39928 153.989 2.14646V27.086H154Z" fill="#521E99"/>
</svg>
