<svg width="351" height="406" viewBox="0 0 351 406" fill="none" xmlns="http://www.w3.org/2000/svg">
<g clip-path="url(#clip0_62_2341)">
<path d="M262.561 213.384C254.623 205.445 241.194 207.511 236.106 217.535C221.185 246.878 225.968 283.644 250.51 308.186C275.052 332.729 311.837 337.511 341.162 322.59C351.166 317.502 353.251 304.074 345.313 296.135L262.561 213.384Z" fill="#9241FE"/>
<path d="M87.6103 213.384C95.5487 205.445 108.977 207.511 114.065 217.535C128.986 246.878 124.204 283.644 99.6614 308.186C75.1191 332.729 38.3343 337.511 9.00979 322.59C-0.994603 317.502 -3.07965 304.074 4.85883 296.135L87.6103 213.384Z" fill="#9241FE"/>
<path d="M245.117 393.117C243.109 393.117 240.718 393.308 238.059 393.634C219.255 395.948 187.348 405.302 187.348 405.302C187.348 405.302 184.996 377.871 189.644 365.265C190.352 363.314 191.232 361.727 192.322 360.636C199.342 353.635 218.49 358.743 223.559 360.254C224.363 360.483 224.803 360.636 224.803 360.636C224.803 360.636 224.86 360.694 224.994 360.808C227.825 363.333 260.669 393.117 245.117 393.117Z" fill="#FF8E06"/>
<path d="M168.296 405.303C168.296 405.303 164.795 404.27 159.42 402.817C146.317 399.259 122.061 393.118 110.527 393.118C94.2863 393.118 130.842 360.637 130.842 360.637C130.842 360.637 131.626 360.37 132.946 360.006C138.417 358.438 153.165 354.822 160.95 358.916C161.849 359.394 162.634 359.949 163.322 360.637C164.394 361.728 165.273 363.296 165.981 365.247C170.649 377.834 168.296 405.303 168.296 405.303Z" fill="#FF8E06"/>
<path d="M283.014 308.165V308.969C283.014 312.508 282.478 315.932 281.426 319.241C281.33 319.566 281.235 319.891 281.12 320.217C281.062 320.389 281.005 320.542 280.948 320.695C278.767 326.74 274.922 332.325 269.681 337.375C269.643 337.394 269.604 337.433 269.566 337.471C259.045 347.552 242.958 355.433 223.561 360.253C222.605 360.502 221.648 360.732 220.673 360.961C211.013 363.18 200.587 364.653 189.646 365.265C186.662 365.437 183.639 365.552 180.598 365.59C179.584 365.609 178.57 365.609 177.537 365.609C176.351 365.609 175.165 365.59 173.998 365.571C171.301 365.533 168.623 365.418 165.983 365.246C164.281 365.15 162.598 365.016 160.914 364.863C151.063 363.983 141.671 362.319 132.948 360.005C112.901 354.687 96.2778 345.888 85.5082 334.984C84.2649 333.741 83.098 332.517 81.9885 331.292C78.8897 327.887 76.3264 324.559 74.49 321.02C72.4241 317.099 71.2764 312.948 71.2764 308.146C71.2764 286.378 74.5091 265.986 80.2861 247.68C82.4094 241.023 84.8579 234.634 87.6124 228.57C90.5774 222.067 93.8867 215.926 97.502 210.188C98.7837 208.179 100.104 206.228 101.462 204.315L101.481 204.296C105.995 197.888 110.95 192.092 116.267 186.965C119.213 184.077 122.274 181.418 125.449 178.969C140.886 167.071 158.676 160.376 177.537 160.376H177.671C179.106 160.376 180.54 160.414 181.956 160.529C182.109 160.51 182.262 160.529 182.415 160.548C202.883 161.811 221.82 171.146 237.602 186.257C244.622 192.972 251.011 200.814 256.635 209.595C257.113 210.341 257.572 211.087 258.031 211.833C260.193 215.333 262.221 218.987 264.133 222.755C264.325 223.119 264.497 223.482 264.688 223.845C266.123 226.734 267.481 229.756 268.763 232.874C277.734 254.739 282.918 281.844 283.014 308.165Z" fill="#9241FE"/>
<g opacity="0.3">
<g opacity="0.3">
<g opacity="0.3">
<g opacity="0.3">
<path opacity="0.3" d="M300.134 302.215C300.114 301.948 300.095 301.661 300.076 301.393C300.076 301.374 300.076 301.374 300.076 301.354C300.114 301.641 300.134 301.909 300.134 302.215Z" fill="#000072"/>
</g>
</g>
</g>
</g>
<path d="M243.588 292.711V292.807C243.396 302.543 239.054 311.362 231.651 318.841L231.575 318.918C219.906 330.644 200.586 339.022 177.651 342.427C170.209 343.517 162.405 344.091 154.332 344.091C153.529 344.091 152.745 344.091 151.941 344.072C145.438 343.976 139.125 343.441 133.061 342.523C94.8608 336.784 71.8871 293.381 86.4059 254.606C86.4633 254.453 86.5398 254.3 86.578 254.166C91.4559 241.235 99.6431 231.174 109.667 225.817L115.711 222.604C119.116 220.787 123.133 219.524 127.342 218.874C134.955 217.649 143.199 218.357 149.531 221.016L161.123 225.894C161.142 225.894 161.142 225.913 161.181 225.913L164.49 227.31C168.775 229.127 173.232 230.045 177.651 230.102C178.798 230.102 179.946 230.045 181.094 229.949C185.57 229.528 189.969 228.132 194.14 225.913L194.197 225.894L205.789 221.016C212.14 218.357 220.365 217.649 227.979 218.874C237.772 239.418 243.492 266.485 243.588 292.711Z" fill="#A369FF"/>
<path d="M222.239 342.542C216.176 343.46 209.844 343.977 203.359 344.092C202.556 344.111 201.772 344.111 200.968 344.111C192.915 344.111 185.091 343.537 177.65 342.447C154.715 339.042 135.394 330.644 123.726 318.937L123.649 318.861C116.227 311.4 111.904 302.563 111.713 292.826V292.731C111.809 266.505 117.528 239.438 127.341 218.893C134.954 217.669 143.199 218.377 149.531 221.036L161.123 225.914C161.142 225.914 161.142 225.933 161.18 225.933C165.331 228.152 169.731 229.548 174.226 229.969C175.374 230.064 176.521 230.122 177.669 230.122C182.107 230.064 186.545 229.146 190.83 227.329L194.139 225.933L194.196 225.914L205.789 221.036C212.139 218.377 220.365 217.669 227.978 218.893C232.186 219.544 236.184 220.806 239.608 222.623L245.653 225.837C255.677 231.193 263.864 241.236 268.742 254.186C268.799 254.339 268.876 254.492 268.914 254.626C283.413 293.4 260.44 336.784 222.239 342.542Z" fill="#A369FF"/>
<path d="M233.779 37.9909C234.468 37.5318 258.398 10.4836 263.199 4.64927C270.373 -4.05435 280.913 1.35911 276.284 25.1937C276.284 25.1937 287.283 13.4103 291.625 21.0236C298.071 32.3478 281.066 33.4573 294.781 88.2232L233.779 37.9909Z" fill="#9241FE"/>
<path d="M294.792 84.9712L293.912 84.2443C293.128 80.1699 292.535 76.478 292.114 73.1113C292.841 76.7649 293.721 80.7055 294.792 84.9712Z" fill="#7F7F7F"/>
<path d="M54.8627 88.2027C68.5781 33.4368 53.9062 32.3273 60.3526 21.003C64.6949 13.3897 75.694 25.1731 75.694 25.1731C71.0648 1.33855 81.2222 -3.71146 88.7781 4.64785C102.034 19.3005 122.12 30.5101 122.808 30.9691C122.808 30.9691 164.414 23.6811 169.598 23.5663C173.672 23.4898 267.92 11.9168 293.935 81.278L295.791 87.1697C305.183 117.432 310.08 141.993 309.678 157.392C309.716 158.119 309.736 158.826 309.736 159.553C309.736 166.574 308.186 174.129 304.475 182.125C292.462 206.094 235.917 216.519 201.772 216.519H158.254C141.191 216.519 45.4704 216.519 42.9645 160.911C42.2759 145.551 47.039 118.254 54.021 91.3207L54.8627 88.2027Z" fill="#9241FE"/>
<path d="M309.735 158.674C309.735 160.3 309.659 161.945 309.468 163.61C309.123 148.287 304.341 125.409 295.733 97.7107L293.897 91.8764C282.324 32.73 197.564 32.5196 171.013 34.8342C165.906 35.2742 124.779 42.1414 124.779 42.1414C124.09 41.7015 104.234 30.6067 91.1309 16.1453C83.6516 7.88164 76.1913 10.3684 80.744 33.916C80.744 33.916 65.0583 23.8925 63.0307 32.3092C59.8744 45.3742 53.9062 31.4293 60.3526 20.1241C64.6949 12.5108 75.694 24.2942 75.694 24.2942C71.0648 0.459646 81.2222 -4.6095 88.7781 3.74981C102.054 18.4025 122.12 29.612 122.827 30.0711C122.827 30.0711 164.433 22.7639 169.617 22.6682C173.691 22.5917 267.939 11.0188 293.935 80.38L295.791 86.2717C305.183 116.534 310.08 141.095 309.678 156.494C309.716 157.221 309.735 157.947 309.735 158.674Z" fill="#A670FC"/>
<g opacity="0.3">
<g opacity="0.3">
<g opacity="0.3">
<g opacity="0.3">
<path opacity="0.3" d="M193.069 133.501C192.992 134.209 192.896 134.936 192.801 135.682C189.166 161.295 168.507 178.416 146.93 180.979C130.919 182.873 98.8781 176.503 89.1797 142.071C85.6792 129.675 85.4879 116.878 88.9693 110.03C95.0523 98.0744 113.033 94.4973 120.991 93.12C121.814 92.9861 122.713 92.8522 123.65 92.7374C140.062 90.8437 171.836 94.4208 182.701 104.004C182.701 103.985 195.632 109.896 193.069 133.501Z" fill="#000072"/>
</g>
</g>
</g>
</g>
<path d="M210.593 193.718C200.149 195.823 188.614 197.123 175.97 197.602C163.326 197.123 151.81 195.823 141.385 193.718C65.7113 178.358 73.822 144.691 83.329 103.755C83.3864 103.602 83.4247 103.392 83.4629 103.239C84.362 99.3176 80.8614 81.9103 99.4546 60.1608C106.265 52.1841 119.234 48.5879 131.457 50.0799C138.363 52.1267 145.134 55.2256 151.389 58.9557C152.327 59.7591 153.264 60.639 154.201 61.5572C160.17 67.4298 168.07 70.2226 175.989 69.9165C183.909 70.2035 191.809 67.4107 197.815 61.5572C198.753 60.6582 199.69 59.7782 200.627 58.9557C206.882 55.2256 213.654 52.1076 220.559 50.0799C232.783 48.5879 245.714 52.1841 252.562 60.1608C271.136 81.9103 267.597 99.3176 268.554 103.239C268.592 103.392 268.611 103.602 268.649 103.755C278.156 144.71 286.267 178.358 210.593 193.718Z" fill="#A369FF"/>
<path d="M278.077 342.425L277.981 342.483C277.981 342.483 277.981 342.464 277.981 342.406L278.077 342.425Z" fill="#EF8B01"/>
<path d="M280.294 334.449L280.218 334.506C280.218 334.506 280.218 334.487 280.218 334.43L280.294 334.449Z" fill="#EF8B01"/>
<path d="M124.891 151.711C134.959 151.711 143.121 140.03 143.121 125.62C143.121 111.21 134.959 99.5278 124.891 99.5278C114.823 99.5278 106.661 111.21 106.661 125.62C106.661 140.03 114.823 151.711 124.891 151.711Z" fill="#F5F5F5"/>
<path d="M124.59 142.935C128.882 142.935 132.362 136.289 132.362 128.091C132.362 119.892 128.882 113.246 124.59 113.246C120.297 113.246 116.817 119.892 116.817 128.091C116.817 136.289 120.297 142.935 124.59 142.935Z" fill="#36156F"/>
<path d="M232.377 151.711C242.445 151.711 250.607 140.03 250.607 125.62C250.607 111.21 242.445 99.5278 232.377 99.5278C222.309 99.5278 214.147 111.21 214.147 125.62C214.147 140.03 222.309 151.711 232.377 151.711Z" fill="#F5F5F5"/>
<path d="M202.285 141.362C202.38 145.436 200.2 151.462 180.975 152.285C176.901 152.457 170.359 151.538 168.331 150.62C162.879 148.134 160.067 145.532 160.546 141.362C160.813 139.105 162.975 136.446 164.869 135.489C169.632 133.098 169.058 133.098 170.799 130.669C174.28 125.848 176.824 125.045 179.789 124.375C189.966 122.042 202.151 135.757 202.285 141.362Z" fill="#FF8E06"/>
<g opacity="0.3">
<g opacity="0.3">
<g opacity="0.3">
<g opacity="0.3">
<path opacity="0.3" d="M180.979 152.266C176.904 152.476 170.362 151.424 168.334 150.372C162.883 147.541 160.071 144.576 160.568 139.832C160.645 139.105 160.874 138.34 161.199 137.594C162.309 140.062 164.757 141.975 168.334 143.849C170.343 144.901 176.904 145.934 180.979 145.743C195.402 145.054 200.222 141.018 201.695 137.078C202.059 138.111 202.269 139.029 202.288 139.813C202.384 144.48 200.203 151.348 180.979 152.266Z" fill="#000072"/>
</g>
</g>
</g>
</g>
<g opacity="0.35">
<g opacity="0.35">
<g opacity="0.35">
<g opacity="0.35">
<path opacity="0.35" d="M199.785 147.312V147.082C199.651 141.477 187.045 126.385 177.328 130.096C175.186 130.918 174.019 133.481 172.565 135.7C170.939 138.206 164.646 138.742 163.001 141.879C162.675 142.491 161.126 142.013 160.533 142.606C160.514 142.204 160.533 141.783 160.571 141.343C160.839 139.086 163.001 136.427 164.894 135.49C169.657 133.099 169.083 133.099 170.824 130.669C174.306 125.849 176.85 125.046 179.815 124.357C189.953 122.023 202.157 135.739 202.272 141.343C202.349 143.161 201.928 145.36 199.785 147.312Z" fill="#F5F5F5"/>
</g>
</g>
</g>
</g>
<path d="M194.905 126.556C193.451 125.428 191.978 124.452 190.505 123.706C186.584 121.679 182.7 121.028 179.238 121.812C175.814 122.616 172.639 123.706 168.717 129.139C168.411 129.541 168.182 129.885 167.99 130.172C167.225 131.3 167.13 131.434 163.725 133.137C161.2 134.418 158.349 137.728 157.967 141.056C157.833 142.319 157.909 143.466 158.177 144.499C159.287 148.784 163.476 151.271 167.264 153.012C169.712 154.14 175.929 154.925 180.003 154.925C180.386 154.925 180.749 154.905 181.113 154.886C181.954 154.848 182.758 154.81 183.523 154.752C196.014 153.892 202.939 150.525 204.565 144.538V144.518C204.813 143.619 204.947 142.625 204.947 141.611V141.305C204.813 136.637 199.802 130.363 194.905 126.556ZM163.17 141.649C163.17 141.611 163.17 141.592 163.189 141.553C163.227 141.286 163.323 140.96 163.514 140.654C163.916 139.774 164.681 138.818 165.465 138.244C165.485 138.206 165.504 138.206 165.523 138.206C165.695 138.053 165.905 137.919 166.078 137.823C166.173 137.785 166.231 137.728 166.307 137.689C166.326 137.689 166.326 137.67 166.345 137.67C170.362 135.662 171.013 135.05 172.333 133.118C172.505 132.85 172.715 132.544 172.964 132.199C175.91 128.125 177.88 127.532 180.099 126.996C180.137 126.996 180.175 126.996 180.195 126.977C180.29 126.958 180.348 126.939 180.443 126.92C181.036 126.786 181.629 126.729 182.241 126.729C183.236 126.729 184.25 126.882 185.206 127.188C185.245 127.188 185.302 127.207 185.34 127.226C187.425 127.857 189.338 128.986 190.754 130C191.098 130.248 191.404 130.478 191.691 130.688C194.12 132.582 196.11 134.801 197.506 136.752C198.501 138.149 199.17 139.449 199.476 140.406C199.61 140.788 199.668 141.133 199.668 141.4C199.687 142.376 199.457 143.294 198.979 144.078C197.411 146.699 193.221 148.402 186.45 149.205H186.431C184.747 149.396 182.911 149.549 180.883 149.626C176.981 149.779 170.898 148.861 169.444 148.21C163.285 145.398 162.979 143.428 163.17 141.649Z" fill="#36156F"/>
<path d="M230.83 142.932C234.959 142.932 238.306 136.54 238.306 128.654C238.306 120.768 234.959 114.375 230.83 114.375C226.702 114.375 223.354 120.768 223.354 128.654C223.354 136.54 226.702 142.932 230.83 142.932Z" fill="#36156F"/>
<path d="M245.118 393.118C243.109 393.118 240.718 393.309 238.059 393.634C237.447 392.773 237.217 391.913 237.485 391.09C239.398 385.351 220.671 360.962 220.671 360.962L224.994 360.809C227.825 363.334 260.669 393.118 245.118 393.118Z" fill="#FFAB57"/>
<path d="M165.984 365.246C170.652 377.833 168.299 405.302 168.299 405.302C168.299 405.302 164.798 404.269 159.423 402.815C160.456 396.235 160.8 376.915 160.915 364.863V364.749C164.167 364.978 168.968 365.284 173.827 365.456L173.999 365.571C171.302 365.533 168.624 365.418 165.984 365.246Z" fill="#FFAB57"/>
</g>
<defs>
<clipPath id="clip0_62_2341">
<rect width="350.154" height="405.302" fill="white"/>
</clipPath>
</defs>
</svg>
