<svg width="375" height="812" viewBox="0 0 375 812" fill="none" xmlns="http://www.w3.org/2000/svg">
    <g clip-path="url(#clip0_13_1929)">
        <rect width="375" height="812" rx="40" fill="#441584"/>
        <path d="M101.173 343.641C98.747 338.993 95.0695 336.666 90.1469 336.666C86.8352 336.666 84.0459 338.001 81.7761 340.666C79.2597 343.653 78 347.438 78 352.019C78 356.212 79.1233 359.437 81.3669 361.694C83.5002 363.812 86.3592 364.873 89.9437 364.873C92.4631 364.873 94.5935 364.52 96.3408 363.812C96.1144 365.363 95.2988 366.766 93.8911 368.02C91.8942 369.842 89.1485 370.752 85.6568 370.752C84.6583 370.752 83.6976 370.682 82.7717 370.539C81.8487 370.396 80.9605 370.183 80.1101 369.897C80.0434 370.058 79.9853 370.215 79.9331 370.379C79.6805 371.586 79.4716 375.187 84.8238 378.214C86.5043 378.552 88.2806 378.719 90.1469 378.719C94.5732 378.719 97.9865 376.817 100.39 373.009C102.773 369.203 103.963 363.928 103.963 357.18C103.963 351.733 103.034 347.219 101.173 343.641ZM90.829 356.291C87.2212 356.291 85.4188 354.527 85.4188 350.992C85.4188 349.076 85.8541 347.516 86.7278 346.309C87.6014 345.099 88.7305 344.495 90.115 344.495C92.0887 344.495 93.6299 345.475 94.7416 347.438C95.83 349.397 96.3757 352.019 96.3757 355.299C94.9244 355.961 93.0755 356.291 90.829 356.291Z" fill="white"/>
        <path d="M134.625 355.985C134.625 355.757 134.613 355.437 134.59 355.025C134.567 354.527 134.544 354.159 134.523 353.932C134.16 349.237 133.037 345.396 131.153 342.41C128.704 338.581 125.256 336.666 120.809 336.666C117.497 336.666 114.705 338.001 112.438 340.666C109.919 343.653 108.659 347.438 108.659 352.019C108.659 356.53 109.907 359.846 112.403 361.966C114.49 363.721 117.349 364.599 120.98 364.599H126.832C126.356 366.104 125.424 367.381 124.042 368.428C122.069 369.979 119.491 370.752 116.316 370.752C115.317 370.752 114.357 370.682 113.431 370.539C112.508 370.396 111.62 370.183 110.769 369.897C110.766 369.903 110.766 369.906 110.763 369.912L110.816 369.959C110.816 369.959 109.048 374.514 115.59 378.214C115.608 378.226 115.628 378.235 115.645 378.246C117.28 378.564 119.001 378.719 120.809 378.719C124.28 378.719 127.139 377.535 129.383 375.164C131.676 372.723 133.217 369.203 134.012 364.599H141.26V355.985H134.625ZM127.035 355.985H122.58C120.127 355.985 118.432 355.623 117.491 354.906C116.548 354.188 116.078 352.885 116.078 350.992C116.078 349.076 116.516 347.516 117.39 346.309C118.261 345.099 119.39 344.495 120.774 344.495C122.701 344.495 124.211 345.42 125.299 347.266C126.434 349.181 127.012 351.949 127.035 355.574V355.985Z" fill="white"/>
        <path d="M140.137 355.984V364.599H155.86V355.984H140.137Z" fill="white"/>
        <path d="M154.701 355.984V364.599H170.424V355.984H154.701Z" fill="white"/>
        <path d="M169.266 355.984V364.599H184.988V355.984H169.266Z" fill="white"/>
        <path d="M189.99 376.701L185.364 381.352L189.99 386L194.62 381.352L189.99 376.701ZM197.818 338.033C193.888 340.282 191.952 344.892 193.073 349.292C193.377 350.494 193.531 351.596 193.531 352.599C193.531 353.967 192.794 354.912 191.319 355.437C190.228 355.801 188.347 355.985 185.668 355.985H183.831V364.599H186.623C196.219 364.599 201.017 360.543 201.017 352.427C201.017 347.505 199.949 342.708 197.818 338.033ZM194.007 368.635L189.958 372.703L185.874 368.635L180.804 373.726L185.874 378.821L189.958 374.753L194.007 378.821L199.078 373.726L194.007 368.635Z" fill="white"/>
        <path d="M236.746 355.985C234.796 355.985 233.469 355.859 232.767 355.608C231.336 355.127 230.645 354.104 230.689 352.529L231.205 338.765C231.301 336.164 229.229 334 226.637 334H226.573C224.417 334 222.774 334.102 221.639 334.306L221.877 336.77C216.748 336.837 212.746 338.284 209.863 341.112C207.094 343.824 205.713 347.312 205.713 351.572C205.713 354.535 206.528 357.101 208.163 359.265C210.273 362.047 213.268 363.435 217.146 363.435C220.231 363.435 222.989 362.581 225.415 360.872C227.615 363.356 231.383 364.599 236.714 364.599H238.279V355.985H236.746ZM218.167 354.888C214.856 354.888 213.198 353.418 213.198 350.479C213.198 349.432 213.512 348.461 214.136 347.572C214.76 346.685 215.593 346.011 216.635 345.557C217.726 345.055 219.665 344.769 222.454 344.702C222.661 349.237 222.806 352.176 222.899 353.52C221.378 354.433 219.802 354.888 218.167 354.888Z" fill="white"/>
        <path d="M237.12 355.984V364.599H252.843V355.984H237.12Z" fill="white"/>
        <path d="M251.685 355.984V364.599H267.407V355.984H251.685Z" fill="white"/>
        <path d="M266.25 355.984V364.599H281.973V355.984H266.25Z" fill="white"/>
        <path d="M286.973 376.701L282.347 381.352L286.973 386L291.603 381.352L286.973 376.701ZM294.802 338.033C290.874 340.282 288.936 344.892 290.056 349.292C290.361 350.494 290.515 351.596 290.515 352.599C290.515 353.967 289.777 354.912 288.303 355.437C287.214 355.801 285.331 355.985 282.652 355.985H280.814V364.599H283.607C293.202 364.599 298 360.543 298 352.427C298 347.505 296.935 342.708 294.802 338.033ZM290.991 368.635L286.942 372.703L282.858 368.635L277.787 373.726L282.858 378.821L286.942 374.753L290.991 378.821L296.061 373.726L290.991 368.635Z" fill="white"/>
        <circle cx="281" cy="116" r="42" fill="white"/>
        <circle cx="294" cy="98" r="13" fill="#F2E9FF"/>
        <circle cx="278" cy="108" r="3" fill="#F2E9FF"/>
        <circle cx="289" cy="121" r="8" fill="#F2E9FF"/>
        <path d="M81.6542 89.1689C81.905 87.6462 84.0944 87.6462 84.3452 89.1689L85.121 93.8789L89.8311 94.6547C91.3537 94.9055 91.3537 97.0949 89.8311 97.3457L85.121 98.1215L84.3452 102.832C84.0944 104.354 81.905 104.354 81.6542 102.832L80.8784 98.1215L76.1684 97.3457C74.6457 97.0949 74.6457 94.9055 76.1684 94.6547L80.8784 93.8789L81.6542 89.1689Z" fill="white"/>
        <path d="M111.654 262.169C111.905 260.646 114.094 260.646 114.345 262.169L115.121 266.879L119.831 267.655C121.354 267.906 121.354 270.095 119.831 270.346L115.121 271.122L114.345 275.832C114.094 277.354 111.905 277.354 111.654 275.832L110.878 271.122L106.168 270.346C104.646 270.095 104.646 267.906 106.168 267.655L110.878 266.879L111.654 262.169Z" fill="white"/>
        <path d="M330.654 324.169C330.905 322.646 333.094 322.646 333.345 324.169L334.121 328.879L338.831 329.655C340.354 329.906 340.354 332.095 338.831 332.346L334.121 333.122L333.345 337.832C333.094 339.354 330.905 339.354 330.654 337.832L329.878 333.122L325.168 332.346C323.646 332.095 323.646 329.906 325.168 329.655L329.878 328.879L330.654 324.169Z" fill="white"/>
        <path d="M182.654 52.1689C182.905 50.6462 185.094 50.6462 185.345 52.1689L186.121 56.8789L190.831 57.6547C192.354 57.9055 192.354 60.0949 190.831 60.3457L186.121 61.1215L185.345 65.8316C185.094 67.3542 182.905 67.3542 182.654 65.8316L181.878 61.1215L177.168 60.3457C175.646 60.0949 175.646 57.9055 177.168 57.6547L181.878 56.8789L182.654 52.1689Z" fill="white"/>
        <path d="M201.654 189.169C201.905 187.646 204.094 187.646 204.345 189.169L205.121 193.879L209.831 194.655C211.354 194.906 211.354 197.095 209.831 197.346L205.121 198.122L204.345 202.832C204.094 204.354 201.905 204.354 201.654 202.832L200.878 198.122L196.168 197.346C194.646 197.095 194.646 194.906 196.168 194.655L200.878 193.879L201.654 189.169Z" fill="white"/>
        <path d="M341.95 200.516C342.518 197.064 347.481 197.064 348.05 200.516L349.808 211.192L360.484 212.95C363.935 213.519 363.935 218.481 360.484 219.05L349.808 220.809L348.05 231.485C347.481 234.936 342.518 234.936 341.95 231.485L340.191 220.809L329.515 219.05C326.064 218.481 326.064 213.519 329.515 212.95L340.191 211.192L341.95 200.516Z" fill="white"/>
        <path d="M23.6542 222.169C23.905 220.646 26.0944 220.646 26.3452 222.169L27.121 226.879L31.8311 227.655C33.3537 227.906 33.3537 230.095 31.8311 230.346L27.121 231.122L26.3452 235.832C26.0944 237.354 23.905 237.354 23.6542 235.832L22.8784 231.122L18.1684 230.346C16.6457 230.095 16.6457 227.906 18.1684 227.655L22.8784 226.879L23.6542 222.169Z" fill="white"/>
        <path d="M62.5511 160.723C62.6347 160.215 63.3645 160.215 63.4481 160.723L63.7067 162.293L65.2767 162.552C65.7843 162.635 65.7843 163.365 65.2767 163.449L63.7067 163.707L63.4481 165.277C63.3645 165.785 62.6347 165.785 62.5511 165.277L62.2925 163.707L60.7225 163.449C60.2149 163.365 60.2149 162.635 60.7225 162.552L62.2925 162.293L62.5511 160.723Z" fill="white"/>
        <path d="M19.5511 144.723C19.6347 144.215 20.3645 144.215 20.4481 144.723L20.7067 146.293L22.2767 146.552C22.7843 146.635 22.7843 147.365 22.2767 147.449L20.7067 147.707L20.4481 149.277C20.3645 149.785 19.6347 149.785 19.5511 149.277L19.2925 147.707L17.7225 147.449C17.2149 147.365 17.2149 146.635 17.7225 146.552L19.2925 146.293L19.5511 144.723Z" fill="white"/>
        <path d="M85.5511 200.723C85.6347 200.215 86.3645 200.215 86.4481 200.723L86.7067 202.293L88.2767 202.552C88.7843 202.635 88.7843 203.365 88.2767 203.449L86.7067 203.707L86.4481 205.277C86.3645 205.785 85.6347 205.785 85.5511 205.277L85.2925 203.707L83.7225 203.449C83.2149 203.365 83.2149 202.635 83.7225 202.552L85.2925 202.293L85.5511 200.723Z" fill="white"/>
        <path d="M149.551 308.723C149.635 308.215 150.364 308.215 150.448 308.723L150.707 310.293L152.277 310.552C152.784 310.635 152.784 311.365 152.277 311.449L150.707 311.707L150.448 313.277C150.364 313.785 149.635 313.785 149.551 313.277L149.292 311.707L147.722 311.449C147.215 311.365 147.215 310.635 147.722 310.552L149.292 310.293L149.551 308.723Z" fill="white"/>
        <path d="M226.551 231.723C226.635 231.215 227.364 231.215 227.448 231.723L227.707 233.293L229.277 233.552C229.784 233.635 229.784 234.365 229.277 234.449L227.707 234.707L227.448 236.277C227.364 236.785 226.635 236.785 226.551 236.277L226.292 234.707L224.722 234.449C224.215 234.365 224.215 233.635 224.722 233.552L226.292 233.293L226.551 231.723Z" fill="white"/>
        <path d="M200.551 137.723C200.635 137.215 201.364 137.215 201.448 137.723L201.707 139.293L203.277 139.552C203.784 139.635 203.784 140.365 203.277 140.449L201.707 140.707L201.448 142.277C201.364 142.785 200.635 142.785 200.551 142.277L200.292 140.707L198.722 140.449C198.215 140.365 198.215 139.635 198.722 139.552L200.292 139.293L200.551 137.723Z" fill="white"/>
        <path d="M150.551 208.723C150.635 208.215 151.364 208.215 151.448 208.723L151.707 210.293L153.277 210.552C153.784 210.635 153.784 211.365 153.277 211.449L151.707 211.707L151.448 213.277C151.364 213.785 150.635 213.785 150.551 213.277L150.292 211.707L148.722 211.449C148.215 211.365 148.215 210.635 148.722 210.552L150.292 210.293L150.551 208.723Z" fill="white"/>
        <path d="M129.551 142.723C129.635 142.215 130.364 142.215 130.448 142.723L130.707 144.293L132.277 144.552C132.784 144.635 132.784 145.365 132.277 145.449L130.707 145.707L130.448 147.277C130.364 147.785 129.635 147.785 129.551 147.277L129.292 145.707L127.722 145.449C127.215 145.365 127.215 144.635 127.722 144.552L129.292 144.293L129.551 142.723Z" fill="white"/>
        <path d="M57.5511 299.723C57.6347 299.215 58.3645 299.215 58.4481 299.723L58.7067 301.293L60.2767 301.552C60.7843 301.635 60.7843 302.365 60.2767 302.449L58.7067 302.707L58.4481 304.277C58.3645 304.785 57.6347 304.785 57.5511 304.277L57.2925 302.707L55.7225 302.449C55.2149 302.365 55.2149 301.635 55.7225 301.552L57.2925 301.293L57.5511 299.723Z" fill="white"/>
        <path d="M251.551 313.723C251.635 313.215 252.364 313.215 252.448 313.723L252.707 315.293L254.277 315.552C254.784 315.635 254.784 316.365 254.277 316.449L252.707 316.707L252.448 318.277C252.364 318.785 251.635 318.785 251.551 318.277L251.292 316.707L249.722 316.449C249.215 316.365 249.215 315.635 249.722 315.552L251.292 315.293L251.551 313.723Z" fill="white"/>
        <path d="M306.551 256.723C306.635 256.215 307.364 256.215 307.448 256.723L307.707 258.293L309.277 258.552C309.784 258.635 309.784 259.365 309.277 259.449L307.707 259.707L307.448 261.277C307.364 261.785 306.635 261.785 306.551 261.277L306.292 259.707L304.722 259.449C304.215 259.365 304.215 258.635 304.722 258.552L306.292 258.293L306.551 256.723Z" fill="white"/>
    </g>

</svg>
