<svg width="123" height="161" viewBox="0 0 123 161" fill="none" xmlns="http://www.w3.org/2000/svg">
<g clip-path="url(#clip0_737_3500)">
<path d="M64.9099 160.528C64.9099 160.528 63.4253 160.064 61.1983 159.461C55.6772 157.884 45.5165 155.193 40.5985 155.1C33.732 154.961 49.5065 142.295 49.5065 142.295C49.5065 142.295 49.8313 142.202 50.388 142.063C52.7078 141.506 58.9713 140.207 62.219 141.924C62.5901 142.109 62.9149 142.341 63.1933 142.62C63.6572 143.084 63.982 143.687 64.2604 144.475C66.1626 149.533 64.9099 160.528 64.9099 160.528Z" fill="#FF8E06"/>
<path d="M64.3053 144.429C66.1611 149.533 64.9084 160.529 64.9084 160.529C64.9084 160.529 63.4238 160.065 61.1968 159.461C61.7071 156.817 62.0319 149.069 62.1711 144.244V144.197C63.563 144.336 65.558 144.476 67.6458 144.615L67.7386 144.661C66.5787 144.615 65.4188 144.568 64.3053 144.429Z" fill="#FFAB57"/>
<path d="M95.5772 157.697C94.7421 157.651 93.7214 157.651 92.5615 157.697C84.535 158.022 70.7555 160.806 70.7555 160.806C70.7555 160.806 70.5699 149.764 72.8897 144.846C73.2609 144.104 73.6784 143.5 74.1424 143.083C77.2973 140.485 85.2774 143.129 87.3652 143.872C87.6899 144.011 87.8755 144.057 87.8755 144.057C87.8755 144.057 87.8755 144.104 87.9683 144.15C89.0818 145.263 102.165 158.208 95.5772 157.697Z" fill="#FF8E06"/>
<path d="M95.579 157.697C94.7439 157.651 93.7232 157.651 92.5633 157.697C92.3313 157.326 92.2385 157.002 92.3777 156.677C93.352 154.45 86.1143 144.104 86.1143 144.104L87.9701 144.196C89.0836 145.263 102.167 158.208 95.579 157.697Z" fill="#FFAB57"/>
<path d="M38.6965 78.3621C41.8978 75.1608 47.2797 75.996 49.3211 80.0324C55.3062 91.8169 53.4039 106.571 43.5216 116.407C33.6857 126.243 18.9319 128.191 7.14735 122.206C3.15731 120.165 2.27579 114.783 5.4771 111.582L38.6965 78.3621Z" fill="#9241FE"/>
<path d="M109.495 124.477V124.802C109.495 126.24 109.263 127.586 108.845 128.931C108.799 129.071 108.752 129.21 108.706 129.303C108.706 129.349 108.659 129.442 108.659 129.488C107.778 131.901 106.247 134.174 104.159 136.169C104.159 136.169 104.113 136.169 104.113 136.216C99.8906 140.252 93.488 143.407 85.7399 145.356C85.3688 145.448 84.9976 145.541 84.58 145.634C80.7292 146.515 76.5536 147.119 72.1924 147.351C70.9861 147.397 69.7798 147.443 68.5735 147.49C68.1559 147.49 67.7847 147.49 67.3672 147.49C66.9032 147.49 66.4393 147.49 65.9753 147.49C64.9082 147.49 63.8411 147.443 62.774 147.351C62.0781 147.304 61.4285 147.258 60.7326 147.211C56.7889 146.84 53.0309 146.191 49.5512 145.263C41.5247 143.129 34.8901 139.602 30.6217 135.241C30.1114 134.731 29.6474 134.267 29.2298 133.757C27.9772 132.411 26.9565 131.066 26.2141 129.627C25.379 128.05 24.915 126.38 24.915 124.477C24.915 115.755 26.2141 107.589 28.5339 100.212C29.369 97.5215 30.3433 94.9697 31.4568 92.5571C32.6631 89.9589 33.9622 87.5 35.4005 85.1802C35.9108 84.3915 36.4212 83.6027 36.9779 82.814C38.7874 80.2622 40.7824 77.896 42.8702 75.8546C44.0301 74.6947 45.2828 73.6276 46.5355 72.6533C52.7061 67.8746 59.8047 65.1836 67.3208 65.1836H67.3672C67.9239 65.1836 68.5271 65.1836 69.0838 65.23C69.1302 65.23 69.223 65.23 69.2694 65.23C77.4351 65.7403 84.9976 69.4984 91.3074 75.5299C94.0912 78.2208 96.6429 81.3757 98.9163 84.9018C99.1019 85.1802 99.2875 85.5049 99.4731 85.7833C100.355 87.1752 101.143 88.6599 101.932 90.1445C102.025 90.2837 102.071 90.4229 102.164 90.5621C102.721 91.722 103.278 92.9283 103.788 94.181C107.407 103.043 109.448 113.946 109.495 124.477Z" fill="#9241FE"/>
<path fill-rule="evenodd" clip-rule="evenodd" d="M78.5511 88.6603C79.9894 88.8923 81.3812 89.3563 82.5875 90.0058L84.6753 91.1657C88.155 93.1143 90.9852 96.7796 92.6554 101.512C92.6554 101.512 92.6554 101.558 92.7018 101.558C92.7018 101.605 92.7482 101.605 92.7482 101.651C97.7589 115.802 89.8253 131.669 76.6025 133.803C74.5147 134.128 72.3341 134.314 70.0607 134.36C69.7823 134.36 69.5039 134.36 69.2255 134.36C66.4418 134.36 63.7508 134.128 61.1527 133.757C58.6009 134.175 55.9099 134.36 53.0798 134.36C52.8014 134.36 52.5231 134.36 52.2447 134.36C49.9713 134.314 47.7907 134.128 45.7029 133.803C32.4801 131.716 24.5464 115.848 29.5571 101.651C29.5571 101.651 29.5571 101.605 29.6035 101.605C29.6035 101.558 29.6499 101.558 29.6499 101.512C31.3202 96.7796 34.1503 93.1143 37.63 91.1657L39.7178 90.0058C40.8777 89.3563 42.2696 88.8923 43.7542 88.6603C46.3988 88.1964 49.229 88.4747 51.4559 89.4491L55.4924 91.2121L56.6523 91.7224C58.1369 92.372 59.668 92.7431 61.1991 92.7431C61.3382 92.7431 61.5238 92.7431 61.663 92.7431C63.0549 92.6504 64.4004 92.3256 65.7459 91.7224L66.8594 91.2585C66.8594 91.2585 66.9057 91.2585 66.9057 91.2121L70.9422 89.4491C73.03 88.4747 75.9065 88.1964 78.5511 88.6603Z" fill="#A369FF"/>
<path fill-rule="evenodd" clip-rule="evenodd" d="M114.135 27.6038C115.017 29.1348 115.805 30.8051 116.455 32.5681L117.197 34.9343C120.955 47.09 122.95 56.9259 122.765 63.0965C122.765 63.3749 122.811 63.6533 122.811 63.978C122.811 66.8082 122.208 69.8239 120.723 73.0252C115.898 82.6292 93.2106 86.8048 79.5238 86.8048H62.079C55.2124 86.8048 16.8431 86.8048 15.8224 64.4884C15.544 58.3178 17.4463 47.3684 20.2764 36.5581L20.6012 35.3055C24.0345 21.5259 23.0137 16.2368 22.4106 13.0819C22.0394 11.1797 21.8539 10.0662 22.7818 8.34951C24.5448 5.28739 28.9524 10.0198 28.9524 10.0198C27.0966 0.462224 31.1794 -1.57919 34.1951 1.8077C39.0667 7.18961 46.258 11.458 47.6499 12.2468C47.7891 12.3395 47.8355 12.3395 47.8819 12.3859C47.8819 12.3859 64.5844 9.46301 66.6722 9.41661C66.765 9.41661 66.9506 9.41661 67.2753 9.37021C69.3167 9.23103 76.0905 8.67428 84.117 9.78778C88.803 6.63286 94.0457 3.06039 95.7159 1.8077C100.541 -1.67198 107.593 0.50862 104.485 10.0662C104.485 10.0662 111.862 5.33378 114.785 8.3959C116.362 10.0662 115.852 11.1796 115.017 12.9891C113.718 15.4945 111.954 19.2989 114.135 27.6038Z" fill="#9241FE"/>
<path d="M122.811 63.6537C122.811 64.3032 122.765 64.9528 122.718 65.6487C122.579 59.5245 120.677 50.3381 117.197 39.2031L116.455 36.8833C111.815 13.1751 77.8072 13.0823 67.1825 14.0102C65.1411 14.1958 48.6242 16.9331 48.6242 16.9331C48.3459 16.7475 40.3658 12.2935 35.1231 6.49407C32.1073 3.19997 29.138 4.17428 30.9474 13.639C30.9474 13.639 24.6376 9.60259 23.8489 12.9895C22.5962 18.2322 20.1836 12.6183 22.7818 8.11793C24.5448 5.0558 28.9524 9.78817 28.9524 9.78817C27.0966 0.230641 31.1794 -1.81077 34.1951 1.52972C39.5307 7.42199 47.5571 11.9224 47.8355 12.108C47.8355 12.108 64.538 9.18503 66.6258 9.13863C68.2497 9.09224 106.062 4.45266 116.501 32.2901L117.244 34.6563C121.002 46.812 122.997 56.6479 122.811 62.8186C122.765 63.0505 122.811 63.3753 122.811 63.6537Z" fill="#A670FC"/>
<g opacity="0.3">
<g opacity="0.3">
<g opacity="0.3">
<path opacity="0.3" d="M54.9816 53.538C55.0279 53.8164 55.0279 54.0947 55.0743 54.4195C56.5126 64.673 64.8175 71.5396 73.4935 72.6067C79.8961 73.349 92.7477 70.7972 96.645 57.0177C98.0368 52.0533 98.1296 46.9034 96.7378 44.166C94.2788 39.3873 87.0874 37.949 83.8861 37.3923C83.5614 37.3459 83.1902 37.2995 82.819 37.2531C76.2308 36.5107 63.472 37.949 59.1108 41.7535C59.1108 41.7071 53.9608 44.0733 54.9816 53.538Z" fill="#000072"/>
</g>
</g>
</g>
<path d="M46.491 77.8973C50.481 78.7324 54.8422 79.2428 59.6674 79.4747C64.4926 79.2892 68.8538 78.7788 72.7974 77.8973C101.563 71.7266 98.5007 58.2255 94.8818 41.8014C94.8818 41.755 94.8354 41.6622 94.8354 41.6158C94.5106 40.0383 95.8097 33.079 88.7575 24.3565C86.1594 21.1552 81.2414 19.717 76.6019 20.3201C73.9573 21.1552 71.4055 22.3615 69.0393 23.8926C68.6682 24.2174 68.3434 24.5885 67.9722 24.9133C65.6988 27.2795 62.6831 28.393 59.6674 28.2538C56.6517 28.3466 53.6359 27.2331 51.3625 24.9133C50.9914 24.5421 50.6666 24.2174 50.2954 23.8926C47.9293 22.4079 45.3311 21.1552 42.7329 20.3201C38.0933 19.717 33.1754 21.1552 30.5772 24.3565C23.4787 33.0326 24.8242 39.9919 24.453 41.5694C24.453 41.6158 24.453 41.7086 24.4066 41.755C20.7877 58.2255 17.7256 71.7266 46.491 77.8973Z" fill="#A369FF"/>
<path d="M87.7358 50.3847C87.7358 53.5396 86.7615 56.3698 85.184 58.3184C84.0241 59.7567 82.5858 60.6846 80.962 60.8702C80.7764 60.8702 80.5908 60.9166 80.4052 60.9166C77.8999 60.9166 75.7193 59.1535 74.4202 56.4162C74.4202 56.4162 74.4202 56.3698 74.3738 56.3698C73.5851 54.6995 73.0747 52.6581 73.0747 50.4311C73.0747 44.6316 76.3688 39.9457 80.4052 39.9457C84.4881 39.8993 87.7358 44.5852 87.7358 50.3847Z" fill="#F5F5F5"/>
<path d="M44.6352 50.3839C44.6352 52.9357 44.032 55.2554 42.9649 57.0649C41.6195 59.3847 39.578 60.8693 37.3046 60.8693C35.0313 60.8693 33.0362 59.3847 31.6908 57.0649C31.5052 56.7401 31.366 56.4617 31.2268 56.0906C30.4845 54.4667 30.0205 52.4717 30.0205 50.3839C30.0205 44.5844 33.3146 39.8984 37.351 39.8984C41.3875 39.8984 44.6352 44.5844 44.6352 50.3839Z" fill="#F5F5F5"/>
<path d="M51.2683 56.6938C51.2219 58.3177 52.1034 60.7302 59.8051 61.055C61.4289 61.1014 64.0735 60.7766 64.8622 60.4055C67.0428 59.4312 68.1563 58.3641 67.9707 56.6938C67.878 55.7659 66.9964 54.6988 66.2541 54.3276C64.3519 53.3533 64.5838 53.3533 63.8879 52.379C62.496 50.4304 61.4753 50.1056 60.269 49.8736C56.2326 48.9457 51.3147 54.4668 51.2683 56.6938Z" fill="#FF8E06"/>
<path d="M53.4954 50.7561C54.0986 50.2921 54.6553 49.9209 55.2585 49.5962C56.8359 48.7611 58.367 48.5291 59.7589 48.8538C61.1507 49.1786 62.4034 49.5962 63.9809 51.7768C64.1201 51.916 64.2129 52.0552 64.2592 52.1943C64.584 52.6583 64.584 52.7047 65.9759 53.4006C66.9966 53.911 68.1101 55.2565 68.2957 56.5555C68.3421 57.0659 68.2957 57.5299 68.2029 57.9474C67.7389 59.6641 66.0687 60.6848 64.5376 61.3807C63.5633 61.8447 61.0579 62.1694 59.4341 62.1694C59.2949 62.1694 59.1557 62.1694 58.9701 62.1694C58.6454 62.1694 58.3206 62.123 57.9958 62.123C52.9851 61.7983 50.2013 60.4064 49.5518 58.0402C49.459 57.669 49.4126 57.2979 49.4126 56.8803V56.7411C49.5054 54.7925 51.5004 52.2871 53.4954 50.7561ZM66.2079 56.8339C66.2079 56.7875 66.2079 56.7875 66.2079 56.8339C66.2079 56.6947 66.1615 56.5555 66.0687 56.4164C65.9295 56.0452 65.6047 55.674 65.28 55.442C65.2336 55.3957 65.1408 55.3493 65.048 55.3029C65.0016 55.3029 65.0016 55.2565 64.9552 55.2565C63.3313 54.4677 63.0994 54.1894 62.5426 53.447C62.4962 53.3542 62.4034 53.2151 62.3106 53.0759C61.1507 51.452 60.3156 51.22 59.4341 50.9881H59.3877C59.3413 50.9881 59.3413 50.9881 59.2949 50.9881C59.0629 50.9417 58.8309 50.8953 58.5526 50.8953C58.135 50.8953 57.7638 50.9417 57.3463 51.0808H57.2999C56.4648 51.3128 55.676 51.7768 55.1193 52.1943C54.9801 52.2871 54.8409 52.3799 54.7481 52.4727C53.7738 53.215 52.9851 54.143 52.4283 54.8853C52.0108 55.442 51.7788 55.9524 51.6396 56.37C51.5932 56.5092 51.5468 56.6483 51.5468 56.7875C51.5468 57.1587 51.6396 57.5299 51.8252 57.8546C52.4747 58.9217 54.145 59.5713 56.8359 59.896C57.5319 59.9888 58.2278 60.0352 59.0629 60.0816C60.6404 60.128 63.053 59.7569 63.6561 59.5249C66.1615 58.3186 66.3007 57.5299 66.2079 56.8339Z" fill="#36156F"/>
<path d="M64.6751 86.2889L17.752 94.0215L28.1702 157.242L75.0933 149.509L64.6751 86.2889Z" fill="#2B1059"/>
<path d="M10.7194 131.252L4.82711 132.644L0.00195312 103.507L5.89422 102.115L10.7194 131.252Z" fill="#FDD835"/>
<path d="M92.654 85.4598C95.8553 82.2585 101.237 83.0936 103.279 87.1301C109.264 98.9146 107.361 113.668 97.4792 123.504C87.6433 133.34 72.8894 135.289 61.1049 129.304C57.1148 127.262 56.2333 121.88 59.4346 118.679L92.654 85.4598Z" fill="#9241FE"/>
<path d="M38.7896 57.7615C38.7896 59.0142 38.2328 60.1277 37.3049 60.87C35.0315 60.87 33.0365 59.3854 31.691 57.0656C31.5054 56.7408 31.3662 56.4624 31.2271 56.0913C31.8302 54.7458 33.2221 53.7715 34.8459 53.7715C37.0265 53.7715 38.7896 55.5809 38.7896 57.7615Z" fill="#36156F"/>
<path d="M81.7978 58.4094C81.7978 59.3373 81.4731 60.1724 80.9627 60.8219C80.7771 60.8219 80.5915 60.8683 80.406 60.8683C77.9006 60.8683 75.72 59.1053 74.4209 56.3679C75.1168 55.208 76.3695 54.4657 77.8078 54.4657C80.0348 54.4193 81.7978 56.2288 81.7978 58.4094Z" fill="#36156F"/>
<path d="M73.5391 38.5999L91.4942 49.5029L91.9118 39.5278L78.1322 29.7383L73.5391 38.5999Z" fill="#A369FF"/>
<path d="M44.216 38.5999L26.2144 49.5029L25.7969 39.5278L39.6228 29.7383L44.216 38.5999Z" fill="#A369FF"/>
<path d="M5.89422 102.115L0.00195312 103.507L1.16185 98.5892L1.53301 97.0117L2.36814 97.986L5.89422 102.115Z" fill="#FFECB3"/>
<path d="M10.0236 127.076L4.13135 128.654L4.82728 132.644L10.7195 131.252L10.0236 127.076Z" fill="#EF5350"/>
<path d="M2.36938 97.986C2.091 98.2644 1.67344 98.45 1.16309 98.5892L1.53425 97.0117L2.36938 97.986Z" fill="#616161"/>
<path d="M31.0426 93.6264L30.3003 89.5436L51.3176 86.3887L51.9671 90.4251L31.0426 93.6264Z" fill="#FDD835"/>
<path d="M39.1604 89.7279C38.7892 89.7279 38.4644 89.5887 38.2324 89.3103C37.9541 88.9856 37.8613 88.5216 38.0005 88.104C38.3252 87.1297 38.8356 85.7843 39.1604 84.7635C39.2996 84.346 39.6707 84.0212 40.1347 83.9748C40.5986 83.882 41.0162 84.0676 41.2946 84.4388L43.4288 87.0369C43.7072 87.4081 43.7535 87.8721 43.568 88.336C43.3824 88.8 43.0112 89.1248 42.5937 89.2175L39.3459 89.7279C39.2996 89.7279 39.2532 89.7279 39.1604 89.7279ZM40.3667 84.9027H40.3203C40.2739 84.9027 40.1347 84.9491 40.0883 85.0883C39.7171 86.0626 39.2532 87.4545 38.9284 88.4288C38.882 88.568 38.9284 88.6608 38.9748 88.7072C39.0212 88.7536 39.114 88.8464 39.2532 88.8L42.5009 88.2896C42.5937 88.2896 42.6864 88.1504 42.7328 88.0113C42.7792 87.8721 42.7792 87.6865 42.7328 87.5937L40.5986 84.9955C40.5058 84.9027 40.4131 84.9027 40.3667 84.9027Z" fill="#2B1059"/>
</g>
<defs>
<clipPath id="clip0_737_3500">
<rect width="122.81" height="160.808" fill="white"/>
</clipPath>
</defs>
</svg>
