<svg width="253" height="361" viewBox="0 0 253 361" fill="none" xmlns="http://www.w3.org/2000/svg">
<path d="M191.549 349.08C189.659 349.08 187.399 349.27 184.899 349.57C167.179 351.74 137.179 360.55 137.179 360.55C137.179 360.55 134.969 334.74 139.349 322.87C140.009 321.03 140.839 319.55 141.869 318.51C148.469 311.94 166.489 316.71 171.279 318.15C172.039 318.37 172.459 318.51 172.459 318.51C172.459 318.51 172.509 318.56 172.649 318.68C175.309 321.06 206.229 349.09 191.579 349.09L191.559 349.06H191.549V349.08Z" fill="#F6AD1E"/>
<path d="M119.248 360.58C119.248 360.58 115.948 359.61 110.898 358.25C98.5581 354.9 75.7481 349.12 64.8781 349.12C49.6081 349.12 83.9981 318.56 83.9981 318.56C83.9981 318.56 84.7381 318.3 85.9881 317.97C91.1381 316.48 105.008 313.08 112.338 316.94C113.188 317.39 113.928 317.91 114.588 318.57C115.608 319.59 116.428 321.07 117.088 322.92C121.468 334.75 119.258 360.61 119.258 360.61V360.58H119.248Z" fill="#F6AD1E"/>
<path d="M172.622 318.69L171.102 318.74C170.882 318.8 170.662 318.85 170.442 318.9C169.942 319.05 169.432 319.19 168.922 319.32C171.422 322.64 186.012 342.26 184.372 347.2C184.112 347.95 184.342 348.78 184.912 349.58C187.412 349.28 189.672 349.09 191.562 349.09C206.212 349.1 175.292 321.07 172.632 318.69H172.622Z" fill="#FFCA95"/>
<path d="M117.319 323.63C117.319 323.63 117.389 323.63 117.419 323.63C117.419 323.61 117.409 323.59 117.399 323.57C115.889 323.48 114.389 323.38 112.909 323.24C112.789 323.23 112.669 323.22 112.549 323.21V323.28C112.429 334.4 112.099 352.21 111.129 358.28C116.189 359.63 119.479 360.57 119.479 360.57C119.479 360.57 121.699 335.22 117.319 323.63Z" fill="#FFCA95"/>
<path d="M224.34 203.72C222.05 193.4 210.35 188.26 201.23 193.64C174.54 209.37 159.74 240.97 166.83 272.86C173.9 304.76 200.68 327.14 231.47 330.14C241.98 331.16 250.42 321.55 248.16 311.24L224.34 203.72Z" fill="#8333EF"/>
<path d="M25.3688 201.68C26.6988 191.19 37.8788 185 47.4588 189.53C75.4788 202.75 93.1088 232.86 88.9688 265.27C84.8488 297.69 60.2388 322.42 29.8488 328.23C19.4788 330.21 10.1888 321.41 11.4988 310.94L25.3788 201.69L25.3688 201.68Z" fill="#8333EF"/>
<path fill-rule="evenodd" clip-rule="evenodd" d="M252.048 150.39C252.048 156.98 250.588 164.11 247.098 171.62C235.808 194.2 182.588 204 150.448 204H109.498C93.4383 204 3.35832 204 1.00832 151.65C0.378316 137.21 4.84831 111.5 11.4083 86.15C11.4083 86.15 12.2083 83.23 12.2183 83.21C20.2983 50.92 17.9083 38.46 16.4683 31.02C15.6183 26.6 15.1083 23.96 17.3883 19.98C21.4583 12.8 31.8083 23.9 31.8083 23.9C27.4383 1.45998 37.0183 -3.31001 44.1183 4.56999C50.4283 11.55 57.9283 17.45 65.6783 22.74C68.0183 24.33 70.2983 26.06 72.8383 27.33C73.6183 27.72 74.4183 27.95 75.2183 28.13C91.7283 24.03 109.188 21.38 126.828 21.12C127.768 21.11 128.718 21.09 129.668 21.09V22.37H129.708V21.15C146.748 21.42 161.688 23.44 177.878 27.46C178.398 27.34 178.928 27.2 179.438 27.01C181.738 27.54 184.038 28.1 186.318 28.68C186.458 28.64 186.618 28.63 186.758 28.58C189.898 27.53 190.948 24.65 193.018 22.42C194.958 20.35 196.768 18.15 198.628 16.02C201.968 12.22 205.338 8.43998 208.548 4.53998C215.298 -3.65002 225.218 1.44999 220.858 23.88C220.858 23.88 231.218 12.79 235.288 19.96C237.498 23.85 236.758 26.45 235.588 30.71C233.728 37.38 230.738 48.1 236.168 74.13C236.528 74.98 236.868 75.85 237.188 76.72L238.938 82.27C238.978 82.41 239.028 82.55 239.068 82.7C247.838 110.99 252.388 133.93 251.998 148.35V148.43C252.018 149.09 252.048 149.72 252.048 150.38V150.39Z" fill="#8333EF"/>
<path d="M128.692 21.1303C110.432 21.2203 92.3119 23.9003 75.2219 28.1503C74.4219 27.9703 73.6219 27.7403 72.8419 27.3503C70.2919 26.0803 68.0219 24.3503 65.6819 22.7603C57.9319 17.4703 50.4319 11.5703 44.1219 4.59032C37.0219 -3.28968 27.4419 1.49032 31.8119 23.9203C31.8119 23.9203 21.4719 12.8303 17.3919 20.0003C15.1119 23.9803 15.6219 26.6203 16.4719 31.0403C17.9119 38.4803 20.3019 50.9403 12.2219 83.2303C12.2119 83.2403 11.4119 86.1703 11.4119 86.1703C11.1119 87.3303 10.8219 88.5103 10.5219 89.6703C10.4919 89.7903 10.4619 89.9003 10.4319 90.0203L10.1719 91.0303C10.2519 90.7303 10.9219 88.2903 10.9319 88.2803C13.9819 76.1003 16.1419 72.7203 18.7119 66.0303C22.7819 55.4103 21.9319 43.2603 21.1019 38.9803C20.2919 34.7503 19.8119 32.2303 21.9719 28.4303C25.8619 21.5903 35.7419 32.1703 35.7419 32.1703C31.5619 10.7703 40.7119 6.22032 47.4819 13.7303C53.5119 20.3903 60.6619 26.0103 68.0719 31.0703C70.2919 32.5803 72.4719 34.2403 74.9019 35.4403C75.6519 35.8203 76.4119 36.0503 77.1819 36.2203C93.6519 32.1303 111.112 29.5603 128.702 29.5203V21.1403L128.692 21.1303Z" fill="#9B52FD"/>
<path d="M241.089 90.4299C240.869 89.6199 240.499 88.2399 240.479 88.2299C237.429 76.0499 235.269 72.6899 232.689 65.9799C228.619 55.3599 231.169 42.6099 231.989 38.3299C232.809 34.0999 233.279 31.5799 231.119 27.7799C227.229 20.9399 217.349 31.5199 217.349 31.5199C221.529 10.1199 212.379 5.56993 205.609 13.0799C199.579 19.7399 192.429 25.3599 185.019 30.4199C182.799 31.9299 180.619 33.5899 178.189 34.7899C177.439 35.1599 176.679 35.3999 175.909 35.5699C159.439 31.4799 144.399 29.5699 126.809 29.5299V21.1499C127.769 21.1499 128.709 21.1599 129.649 21.1899C129.659 21.1799 129.679 21.1799 129.689 21.1899C146.729 21.4599 161.669 23.4799 177.859 27.4999C178.379 27.3799 178.909 27.2399 179.419 27.0499C179.689 26.9499 179.959 26.8299 180.239 26.6999C182.789 25.4299 185.059 23.6999 187.399 22.1099C195.139 16.8199 202.649 10.9199 208.959 3.93993C216.059 -3.94007 225.639 0.83993 221.269 23.2699C221.269 23.2699 231.609 12.1799 235.689 19.3499C237.969 23.3299 237.459 25.9699 236.609 30.3899C235.189 37.7899 231.129 50.7699 239.049 82.7199C239.089 82.8799 239.129 83.0299 239.169 83.1899C239.179 83.1899 239.989 86.1299 239.989 86.1299C240.289 87.2899 240.579 88.4699 240.879 89.6299C240.899 89.7499 240.939 89.8599 240.969 89.9799L241.069 90.4299H241.089Z" fill="#9B52FD"/>
<path fill-rule="evenodd" clip-rule="evenodd" d="M154.529 203.97C152.619 204.05 150.769 204.07 148.979 204.07H109.889C106.489 204.07 99.6187 204.07 90.9688 203.53C99.4288 204.02 106.109 204.02 109.499 204.02H150.449C151.769 204.02 153.129 204.01 154.519 203.97H154.529Z" fill="#A369FF"/>
<path d="M223.79 288.75V289.47C223.79 292.68 223.32 305.81 222.35 308.81C222.26 309.11 222.17 309.4 222.08 309.69C222.03 309.86 221.96 309.99 221.91 310.13C212.86 335.5 177.3 336.66 155.14 338.83C151.99 339.14 148.84 339.41 145.69 339.66C133.76 340.61 121.76 340.71 109.81 339.96C98.06 339.22 87.11 336.29 75.63 333.74C64.81 331.34 53.71 327.31 44.73 320.67C34.8 313.32 31.5 300.59 31.5 288.71C31.5 268.93 34.44 250.4 39.7 233.78C41.63 227.71 43.84 221.92 46.35 216.41C49.04 210.49 52.04 204.91 55.35 199.7C56.5 197.88 57.72 196.1 58.94 194.37C63.04 188.53 67.54 183.26 72.36 178.62C75.05 176.01 77.82 173.59 80.7 171.37C94.73 160.56 110.89 154.48 128.03 154.48H128.15C129.44 154.48 130.76 154.53 132.04 154.62H132.45C151.06 155.77 168.26 164.25 182.6 177.97C188.97 184.07 194.78 191.2 199.9 199.16C200.34 199.85 200.74 200.53 201.17 201.19C203.12 204.37 204.96 207.69 206.72 211.11C206.9 211.46 207.04 211.77 207.22 212.12C208.51 214.73 209.74 217.5 210.93 220.32C219.08 240.19 223.8 264.81 223.89 288.73C223.89 288.73 223.84 288.75 223.81 288.75H223.78H223.79Z" fill="#8333EF"/>
<path opacity="0.3" d="M243.312 284.63C243.312 284.37 243.292 284.11 243.262 283.85V283.8C243.312 284.08 243.312 284.32 243.312 284.6V284.63Z" fill="#000072"/>
<path d="M210.901 240.1C210.851 239.98 210.781 239.86 210.731 239.69C206.291 227.92 198.871 218.79 189.761 213.94L184.281 211.03C181.181 209.39 177.541 208.22 173.741 207.64C166.821 206.51 159.361 207.16 153.571 209.59L143.031 214.03H142.981C142.981 214.03 142.801 214.12 142.741 214.17L139.981 215.32C136.441 216.82 132.741 217.62 129.051 217.79C128.711 217.79 128.341 217.84 128.001 217.84C123.991 217.79 119.941 216.96 116.051 215.32L113.051 214.04H113.001L102.461 209.6C96.6907 207.18 89.2108 206.55 82.2908 207.65C78.4808 208.24 74.8308 209.38 71.7308 211.05L66.2508 213.96C57.1508 218.84 49.7008 227.97 45.2608 239.73C45.2108 239.85 45.1408 239.97 45.0908 240.12C31.9108 275.36 52.7608 314.78 87.4808 319.99C92.9908 320.83 98.7308 321.31 104.641 321.4H106.801C114.111 321.4 121.181 320.88 127.921 319.9H128.001C134.761 320.88 141.861 321.4 149.191 321.4H151.351C157.251 321.28 163.011 320.83 168.511 319.99C203.231 314.75 224.101 275.35 210.911 240.12L210.881 240.09H210.911L210.901 240.1Z" fill="#9B52FD"/>
<path d="M159.029 185.69C149.199 187.68 138.349 188.9 126.439 189.35C114.529 188.9 103.719 187.67 93.8993 185.69C83.1793 183.53 72.4293 180.68 62.4493 176.16C55.5993 173.07 48.9393 169.06 43.7393 163.54C39.6693 159.2 36.6893 153.96 35.1293 148.24C31.0993 133.37 34.4393 116.2 37.0993 101.3C39.7393 86.4001 44.5493 71.5801 54.4493 59.9901C60.8593 52.4901 73.0393 49.1001 84.5493 50.5101C88.6993 51.7401 93.5393 53.1701 97.1693 55.5501C106.249 61.5201 114.869 69.6201 126.459 69.1801C129.639 69.0601 132.639 68.9201 135.729 67.9801C139.689 66.7801 143.349 63.6901 146.839 61.5301C151.929 58.9801 156.229 55.2201 161.499 53.0201C166.499 50.9801 171.819 49.9201 177.249 50.3801C185.049 51.0701 193.309 53.9101 198.549 60.0301C210.179 73.5701 215.319 90.9601 217.529 108.39C219.559 124.45 221.679 142.48 213.239 157.18C209.849 163.09 204.989 168.04 199.199 171.62C187.139 179.12 172.869 182.91 159.069 185.69H159.019H159.029Z" fill="#9B52FD"/>
<path d="M222.551 322.45L222.461 322.5V322.42H222.551V322.45Z" fill="#EF8B01"/>
<path d="M224.689 314.94L224.609 314.99V314.92H224.689V314.95V314.94Z" fill="#EF8B01"/>
<path d="M98.6299 115.94C98.6299 116.58 98.6099 117.21 98.5699 117.83C97.8299 130.87 89.4498 141.15 79.2398 141.15C70.5498 141.15 63.1999 133.73 60.7299 123.5C60.1499 121.12 59.8398 118.58 59.8398 115.94C59.8398 102.01 68.5198 90.7197 79.2398 90.7197C89.9598 90.7197 98.6299 102.01 98.6299 115.94Z" fill="white"/>
<path d="M139.332 153.9C140.752 154.62 142.472 154.01 143.142 152.57C143.652 151.46 143.992 150.31 143.852 149.95C142.272 145.57 136.382 142.64 130.592 141.46C124.962 140.31 118.282 140.76 113.812 143.75C111.192 145.5 108.792 146.44 107.852 148.95C107.722 149.31 107.962 150.69 108.372 152.03C108.872 153.69 110.752 154.48 112.312 153.72C121.322 149.3 130.332 149.36 139.332 153.91V153.9Z" fill="#D8872E"/>
<path d="M144.04 149.41C145.24 149.41 146.1 148.33 145.78 147.24C144.53 142.84 140.06 133.34 124.91 133.34C112.27 133.34 107.98 142.84 106.68 147.23C106.35 148.34 107.22 149.42 108.42 149.42C119.03 142.43 132.75 142.29 143.5 149.06L144.08 149.42H144.04V149.41Z" fill="#F6AD1E"/>
<path d="M141.329 147.76C142.049 148.05 142.749 147.8 142.749 147.27C142.719 145.14 141.579 140.09 132.389 136.43C124.719 133.39 120.529 136.32 119.009 137.85C118.629 138.23 118.969 138.9 119.699 139.19C128.389 135.52 135.609 138.3 141.319 147.77L141.329 147.76Z" fill="#FFCA95"/>
<path d="M95.8486 115.52C95.8486 116.31 95.8186 117.09 95.7486 117.86C95.0986 125.61 91.2286 132.13 85.8786 135.19C84.0286 136.26 82.0086 136.91 79.8786 137.05C79.8686 137.05 79.8486 137.05 79.8286 137.05C79.5386 137.07 79.2486 137.08 78.9586 137.08C71.1886 137.08 64.6386 130.39 62.6786 121.27C62.2686 119.43 62.0586 117.5 62.0586 115.5C62.0586 103.58 69.6186 93.9199 78.9586 93.9199C88.2986 93.9199 95.8586 103.58 95.8586 115.5L95.8486 115.52Z" fill="white"/>
<path d="M79.3516 136.94C87.912 136.94 94.8516 127.762 94.8516 116.44C94.8516 105.119 87.912 95.9404 79.3516 95.9404C70.7911 95.9404 63.8516 105.119 63.8516 116.44C63.8516 127.762 70.7911 136.94 79.3516 136.94Z" fill="#36156F"/>
<path d="M70.2202 115.44C73.567 115.44 76.2802 111.791 76.2802 107.29C76.2802 102.789 73.567 99.1396 70.2202 99.1396C66.8733 99.1396 64.1602 102.789 64.1602 107.29C64.1602 111.791 66.8733 115.44 70.2202 115.44Z" fill="white"/>
<path d="M88.7513 128.58C90.8058 128.58 92.4713 126.342 92.4713 123.58C92.4713 120.819 90.8058 118.58 88.7513 118.58C86.6968 118.58 85.0312 120.819 85.0312 123.58C85.0312 126.342 86.6968 128.58 88.7513 128.58Z" fill="white"/>
<path opacity="0.42" d="M98.5705 117.83C97.8305 130.87 89.4504 141.15 79.2404 141.15C70.5504 141.15 63.2005 133.73 60.7305 123.5C61.5505 123.65 62.4505 123.81 63.4005 123.95C64.6705 124.14 66.0405 124.31 67.4805 124.43C72.8705 124.89 79.2904 124.75 85.0804 122.78C86.4304 122.31 87.7505 121.75 89.0105 121.08C89.8105 120.65 90.5804 120.27 91.3004 119.94C91.5404 119.82 91.7805 119.72 92.0105 119.61C93.3805 119.01 94.6105 118.58 95.7005 118.28C96.7805 118 97.7305 117.85 98.5705 117.83Z" fill="#6CC1FE"/>
<path d="M194.63 115.94C194.63 116.58 194.61 117.21 194.57 117.83C193.83 130.87 185.45 141.15 175.24 141.15C166.55 141.15 159.2 133.73 156.73 123.5C156.15 121.12 155.84 118.58 155.84 115.94C155.84 102.01 164.52 90.7197 175.24 90.7197C185.96 90.7197 194.63 102.01 194.63 115.94Z" fill="white"/>
<path d="M191.849 115.52C191.849 116.31 191.819 117.09 191.749 117.86C191.099 125.61 187.229 132.13 181.879 135.19C180.029 136.26 178.009 136.91 175.879 137.05C175.869 137.05 175.849 137.05 175.829 137.05C175.539 137.07 175.249 137.08 174.959 137.08C167.189 137.08 160.639 130.39 158.679 121.27C158.269 119.43 158.059 117.5 158.059 115.5C158.059 103.58 165.619 93.9199 174.959 93.9199C184.299 93.9199 191.859 103.58 191.859 115.5L191.849 115.52Z" fill="white"/>
<path d="M175.352 136.94C183.912 136.94 190.852 127.762 190.852 116.44C190.852 105.119 183.912 95.9404 175.352 95.9404C166.791 95.9404 159.852 105.119 159.852 116.44C159.852 127.762 166.791 136.94 175.352 136.94Z" fill="#36156F"/>
<path d="M166.22 115.44C169.567 115.44 172.28 111.791 172.28 107.29C172.28 102.789 169.567 99.1396 166.22 99.1396C162.873 99.1396 160.16 102.789 160.16 107.29C160.16 111.791 162.873 115.44 166.22 115.44Z" fill="white"/>
<path d="M184.751 128.58C186.806 128.58 188.471 126.342 188.471 123.58C188.471 120.819 186.806 118.58 184.751 118.58C182.697 118.58 181.031 120.819 181.031 123.58C181.031 126.342 182.697 128.58 184.751 128.58Z" fill="white"/>
<path opacity="0.42" d="M194.57 117.83C193.83 130.87 185.45 141.15 175.24 141.15C166.55 141.15 159.2 133.73 156.73 123.5C157.55 123.65 158.45 123.81 159.4 123.95C160.67 124.14 162.04 124.31 163.48 124.43C168.87 124.89 175.29 124.75 181.08 122.78C182.43 122.31 183.75 121.75 185.01 121.08C185.81 120.65 186.58 120.27 187.3 119.94C187.54 119.82 187.78 119.72 188.01 119.61C189.38 119.01 190.61 118.58 191.7 118.28C192.78 118 193.73 117.85 194.57 117.83Z" fill="#6CC1FE"/>
</svg>
